<?xml version="1.0" encoding="UTF-8"?>
<!DOCTYPE xmeml>
<xmeml version="4">
<sequence id="sequence-1">
  <name>WebGAL Export</name>
  <duration>58285</duration>
  <rate>
    <timebase>30</timebase>
    <ntsc>FALSE</ntsc>
  </rate>
  <media>
    <video>
      <format>
        <samplecharacteristics>
          <rate><timebase>30</timebase></rate>
          <width>1920</width>
          <height>1080</height>
          <pixelaspectratio>square</pixelaspectratio>
        </samplecharacteristics>
      </format>
      <!-- V1: Background -->
      <track><enabled>TRUE</enabled><locked>FALSE</locked></track>
      <!-- V2: Figure Left -->
      <track>

      <clipitem id="clipitem-23">
        <name>Fig 113210</name>
        <duration>329</duration>
        <rate><timebase>30</timebase></rate>
        <start>2082</start>
        <end>2411</end>
        <in>0</in>
        <out>329</out>
        <file id="file-3">
          <name>char_14385_12675.webp</name>
          <pathurl>file://localhost/C:/PROJECT_ROOT/assets/char_14385_12675.webp</pathurl>
          <rate><timebase>30</timebase></rate>
          <media>
             <video>
                <samplecharacteristics>
                  <width>1920</width>
                  <height>1080</height>
                  <pixelaspectratio>square</pixelaspectratio>
                </samplecharacteristics>
             </video>
             
          </media>
        </file>
        
            <filter>
              <effect>
                <name>Basic Motion</name>
                <effectid>basic</effectid>
                <effectcategory>motion</effectcategory>
                <effecttype>motion</effecttype>
                <mediatype>video</mediatype>
                <parameter>
                  <parameterid>scale</parameterid>
                  <name>Scale</name>
                  <valuemin>0</valuemin>
                  <valuemax>1000</valuemax>
                  <value>50</value>
                </parameter>
                <parameter>
                  <parameterid>center</parameterid>
                  <name>Center</name>
                  <value>
                    <horiz>-0.30000</horiz>
                    <vert>0.05000</vert>
                  </value>
                </parameter>
              </effect>
            </filter>
      </clipitem>

      <clipitem id="clipitem-67">
        <name>Fig 113241</name>
        <duration>644</duration>
        <rate><timebase>30</timebase></rate>
        <start>9522</start>
        <end>10166</end>
        <in>0</in>
        <out>644</out>
        <file id="file-3">
          <name>char_14385_12675.webp</name>
          <pathurl>file://localhost/C:/PROJECT_ROOT/assets/char_14385_12675.webp</pathurl>
          <rate><timebase>30</timebase></rate>
          <media>
             <video>
                <samplecharacteristics>
                  <width>1920</width>
                  <height>1080</height>
                  <pixelaspectratio>square</pixelaspectratio>
                </samplecharacteristics>
             </video>
             
          </media>
        </file>
        
            <filter>
              <effect>
                <name>Basic Motion</name>
                <effectid>basic</effectid>
                <effectcategory>motion</effectcategory>
                <effecttype>motion</effecttype>
                <mediatype>video</mediatype>
                <parameter>
                  <parameterid>scale</parameterid>
                  <name>Scale</name>
                  <valuemin>0</valuemin>
                  <valuemax>1000</valuemax>
                  <value>50</value>
                </parameter>
                <parameter>
                  <parameterid>center</parameterid>
                  <name>Center</name>
                  <value>
                    <horiz>-0.30000</horiz>
                    <vert>0.05000</vert>
                  </value>
                </parameter>
              </effect>
            </filter>
      </clipitem>

      <clipitem id="clipitem-72">
        <name>Fig 113244</name>
        <duration>299</duration>
        <rate><timebase>30</timebase></rate>
        <start>10234</start>
        <end>10533</end>
        <in>0</in>
        <out>299</out>
        <file id="file-3">
          <name>char_14385_12675.webp</name>
          <pathurl>file://localhost/C:/PROJECT_ROOT/assets/char_14385_12675.webp</pathurl>
          <rate><timebase>30</timebase></rate>
          <media>
             <video>
                <samplecharacteristics>
                  <width>1920</width>
                  <height>1080</height>
                  <pixelaspectratio>square</pixelaspectratio>
                </samplecharacteristics>
             </video>
             
          </media>
        </file>
        
            <filter>
              <effect>
                <name>Basic Motion</name>
                <effectid>basic</effectid>
                <effectcategory>motion</effectcategory>
                <effecttype>motion</effecttype>
                <mediatype>video</mediatype>
                <parameter>
                  <parameterid>scale</parameterid>
                  <name>Scale</name>
                  <valuemin>0</valuemin>
                  <valuemax>1000</valuemax>
                  <value>50</value>
                </parameter>
                <parameter>
                  <parameterid>center</parameterid>
                  <name>Center</name>
                  <value>
                    <horiz>-0.30000</horiz>
                    <vert>0.05000</vert>
                  </value>
                </parameter>
              </effect>
            </filter>
      </clipitem>

      <clipitem id="clipitem-80">
        <name>Fig 113248</name>
        <duration>170</duration>
        <rate><timebase>30</timebase></rate>
        <start>11175</start>
        <end>11345</end>
        <in>0</in>
        <out>170</out>
        <file id="file-3">
          <name>char_14385_12675.webp</name>
          <pathurl>file://localhost/C:/PROJECT_ROOT/assets/char_14385_12675.webp</pathurl>
          <rate><timebase>30</timebase></rate>
          <media>
             <video>
                <samplecharacteristics>
                  <width>1920</width>
                  <height>1080</height>
                  <pixelaspectratio>square</pixelaspectratio>
                </samplecharacteristics>
             </video>
             
          </media>
        </file>
        
            <filter>
              <effect>
                <name>Basic Motion</name>
                <effectid>basic</effectid>
                <effectcategory>motion</effectcategory>
                <effecttype>motion</effecttype>
                <mediatype>video</mediatype>
                <parameter>
                  <parameterid>scale</parameterid>
                  <name>Scale</name>
                  <valuemin>0</valuemin>
                  <valuemax>1000</valuemax>
                  <value>50</value>
                </parameter>
                <parameter>
                  <parameterid>center</parameterid>
                  <name>Center</name>
                  <value>
                    <horiz>-0.30000</horiz>
                    <vert>0.05000</vert>
                  </value>
                </parameter>
              </effect>
            </filter>
      </clipitem>

      <clipitem id="clipitem-91">
        <name>Fig 113255</name>
        <duration>143</duration>
        <rate><timebase>30</timebase></rate>
        <start>12298</start>
        <end>12441</end>
        <in>0</in>
        <out>143</out>
        <file id="file-3">
          <name>char_14385_12675.webp</name>
          <pathurl>file://localhost/C:/PROJECT_ROOT/assets/char_14385_12675.webp</pathurl>
          <rate><timebase>30</timebase></rate>
          <media>
             <video>
                <samplecharacteristics>
                  <width>1920</width>
                  <height>1080</height>
                  <pixelaspectratio>square</pixelaspectratio>
                </samplecharacteristics>
             </video>
             
          </media>
        </file>
        
            <filter>
              <effect>
                <name>Basic Motion</name>
                <effectid>basic</effectid>
                <effectcategory>motion</effectcategory>
                <effecttype>motion</effecttype>
                <mediatype>video</mediatype>
                <parameter>
                  <parameterid>scale</parameterid>
                  <name>Scale</name>
                  <valuemin>0</valuemin>
                  <valuemax>1000</valuemax>
                  <value>50</value>
                </parameter>
                <parameter>
                  <parameterid>center</parameterid>
                  <name>Center</name>
                  <value>
                    <horiz>-0.30000</horiz>
                    <vert>0.05000</vert>
                  </value>
                </parameter>
              </effect>
            </filter>
      </clipitem>

      <clipitem id="clipitem-104">
        <name>Fig 113263</name>
        <duration>432</duration>
        <rate><timebase>30</timebase></rate>
        <start>13196</start>
        <end>13628</end>
        <in>0</in>
        <out>432</out>
        <file id="file-3">
          <name>char_14385_12675.webp</name>
          <pathurl>file://localhost/C:/PROJECT_ROOT/assets/char_14385_12675.webp</pathurl>
          <rate><timebase>30</timebase></rate>
          <media>
             <video>
                <samplecharacteristics>
                  <width>1920</width>
                  <height>1080</height>
                  <pixelaspectratio>square</pixelaspectratio>
                </samplecharacteristics>
             </video>
             
          </media>
        </file>
        
            <filter>
              <effect>
                <name>Basic Motion</name>
                <effectid>basic</effectid>
                <effectcategory>motion</effectcategory>
                <effecttype>motion</effecttype>
                <mediatype>video</mediatype>
                <parameter>
                  <parameterid>scale</parameterid>
                  <name>Scale</name>
                  <valuemin>0</valuemin>
                  <valuemax>1000</valuemax>
                  <value>50</value>
                </parameter>
                <parameter>
                  <parameterid>center</parameterid>
                  <name>Center</name>
                  <value>
                    <horiz>-0.30000</horiz>
                    <vert>0.05000</vert>
                  </value>
                </parameter>
              </effect>
            </filter>
      </clipitem>

      <clipitem id="clipitem-158">
        <name>Fig 113292</name>
        <duration>99</duration>
        <rate><timebase>30</timebase></rate>
        <start>18902</start>
        <end>19001</end>
        <in>0</in>
        <out>99</out>
        <file id="file-112">
          <name>char_14384_12961.webp</name>
          <pathurl>file://localhost/C:/PROJECT_ROOT/assets/char_14384_12961.webp</pathurl>
          <rate><timebase>30</timebase></rate>
          <media>
             <video>
                <samplecharacteristics>
                  <width>1920</width>
                  <height>1080</height>
                  <pixelaspectratio>square</pixelaspectratio>
                </samplecharacteristics>
             </video>
             
          </media>
        </file>
        
            <filter>
              <effect>
                <name>Basic Motion</name>
                <effectid>basic</effectid>
                <effectcategory>motion</effectcategory>
                <effecttype>motion</effecttype>
                <mediatype>video</mediatype>
                <parameter>
                  <parameterid>scale</parameterid>
                  <name>Scale</name>
                  <valuemin>0</valuemin>
                  <valuemax>1000</valuemax>
                  <value>150</value>
                </parameter>
                <parameter>
                  <parameterid>center</parameterid>
                  <name>Center</name>
                  <value>
                    <horiz>-0.30000</horiz>
                    <vert>0.05000</vert>
                  </value>
                </parameter>
              </effect>
            </filter>
      </clipitem>

      <clipitem id="clipitem-179">
        <name>Fig 113303</name>
        <duration>62</duration>
        <rate><timebase>30</timebase></rate>
        <start>20002</start>
        <end>20064</end>
        <in>0</in>
        <out>62</out>
        <file id="file-89">
          <name>char_14384_12672.webp</name>
          <pathurl>file://localhost/C:/PROJECT_ROOT/assets/char_14384_12672.webp</pathurl>
          <rate><timebase>30</timebase></rate>
          <media>
             <video>
                <samplecharacteristics>
                  <width>1920</width>
                  <height>1080</height>
                  <pixelaspectratio>square</pixelaspectratio>
                </samplecharacteristics>
             </video>
             
          </media>
        </file>
        
            <filter>
              <effect>
                <name>Basic Motion</name>
                <effectid>basic</effectid>
                <effectcategory>motion</effectcategory>
                <effecttype>motion</effecttype>
                <mediatype>video</mediatype>
                <parameter>
                  <parameterid>scale</parameterid>
                  <name>Scale</name>
                  <valuemin>0</valuemin>
                  <valuemax>1000</valuemax>
                  <value>100</value>
                </parameter>
                <parameter>
                  <parameterid>center</parameterid>
                  <name>Center</name>
                  <value>
                    <horiz>-0.30000</horiz>
                    <vert>0.05000</vert>
                  </value>
                </parameter>
              </effect>
            </filter>
      </clipitem>

      <clipitem id="clipitem-208">
        <name>Fig 113318</name>
        <duration>123</duration>
        <rate><timebase>30</timebase></rate>
        <start>21786</start>
        <end>21909</end>
        <in>0</in>
        <out>123</out>
        <file id="file-133">
          <name>char_14414_12724.webp</name>
          <pathurl>file://localhost/C:/PROJECT_ROOT/assets/char_14414_12724.webp</pathurl>
          <rate><timebase>30</timebase></rate>
          <media>
             <video>
                <samplecharacteristics>
                  <width>1920</width>
                  <height>1080</height>
                  <pixelaspectratio>square</pixelaspectratio>
                </samplecharacteristics>
             </video>
             
          </media>
        </file>
        
            <filter>
              <effect>
                <name>Basic Motion</name>
                <effectid>basic</effectid>
                <effectcategory>motion</effectcategory>
                <effecttype>motion</effecttype>
                <mediatype>video</mediatype>
                <parameter>
                  <parameterid>scale</parameterid>
                  <name>Scale</name>
                  <valuemin>0</valuemin>
                  <valuemax>1000</valuemax>
                  <value>100</value>
                </parameter>
                <parameter>
                  <parameterid>center</parameterid>
                  <name>Center</name>
                  <value>
                    <horiz>-0.30000</horiz>
                    <vert>0.05000</vert>
                  </value>
                </parameter>
              </effect>
            </filter>
      </clipitem>

      <clipitem id="clipitem-212">
        <name>Fig 113320</name>
        <duration>61</duration>
        <rate><timebase>30</timebase></rate>
        <start>21954</start>
        <end>22015</end>
        <in>0</in>
        <out>61</out>
        <file id="file-98">
          <name>char_14384_12975.webp</name>
          <pathurl>file://localhost/C:/PROJECT_ROOT/assets/char_14384_12975.webp</pathurl>
          <rate><timebase>30</timebase></rate>
          <media>
             <video>
                <samplecharacteristics>
                  <width>1920</width>
                  <height>1080</height>
                  <pixelaspectratio>square</pixelaspectratio>
                </samplecharacteristics>
             </video>
             
          </media>
        </file>
        
            <filter>
              <effect>
                <name>Basic Motion</name>
                <effectid>basic</effectid>
                <effectcategory>motion</effectcategory>
                <effecttype>motion</effecttype>
                <mediatype>video</mediatype>
                <parameter>
                  <parameterid>scale</parameterid>
                  <name>Scale</name>
                  <valuemin>0</valuemin>
                  <valuemax>1000</valuemax>
                  <value>150</value>
                </parameter>
                <parameter>
                  <parameterid>center</parameterid>
                  <name>Center</name>
                  <value>
                    <horiz>-0.30000</horiz>
                    <vert>0.05000</vert>
                  </value>
                </parameter>
              </effect>
            </filter>
      </clipitem>

      <clipitem id="clipitem-216">
        <name>Fig 113322</name>
        <duration>29</duration>
        <rate><timebase>30</timebase></rate>
        <start>22155</start>
        <end>22184</end>
        <in>0</in>
        <out>29</out>
        <file id="file-133">
          <name>char_14414_12724.webp</name>
          <pathurl>file://localhost/C:/PROJECT_ROOT/assets/char_14414_12724.webp</pathurl>
          <rate><timebase>30</timebase></rate>
          <media>
             <video>
                <samplecharacteristics>
                  <width>1920</width>
                  <height>1080</height>
                  <pixelaspectratio>square</pixelaspectratio>
                </samplecharacteristics>
             </video>
             
          </media>
        </file>
        
            <filter>
              <effect>
                <name>Basic Motion</name>
                <effectid>basic</effectid>
                <effectcategory>motion</effectcategory>
                <effecttype>motion</effecttype>
                <mediatype>video</mediatype>
                <parameter>
                  <parameterid>scale</parameterid>
                  <name>Scale</name>
                  <valuemin>0</valuemin>
                  <valuemax>1000</valuemax>
                  <value>100</value>
                </parameter>
                <parameter>
                  <parameterid>center</parameterid>
                  <name>Center</name>
                  <value>
                    <horiz>-0.30000</horiz>
                    <vert>0.05000</vert>
                  </value>
                </parameter>
              </effect>
            </filter>
      </clipitem>

      <clipitem id="clipitem-221">
        <name>Fig 113325</name>
        <duration>160</duration>
        <rate><timebase>30</timebase></rate>
        <start>22387</start>
        <end>22547</end>
        <in>0</in>
        <out>160</out>
        <file id="file-142">
          <name>char_14414_13301.webp</name>
          <pathurl>file://localhost/C:/PROJECT_ROOT/assets/char_14414_13301.webp</pathurl>
          <rate><timebase>30</timebase></rate>
          <media>
             <video>
                <samplecharacteristics>
                  <width>1920</width>
                  <height>1080</height>
                  <pixelaspectratio>square</pixelaspectratio>
                </samplecharacteristics>
             </video>
             
          </media>
        </file>
        
            <filter>
              <effect>
                <name>Basic Motion</name>
                <effectid>basic</effectid>
                <effectcategory>motion</effectcategory>
                <effecttype>motion</effecttype>
                <mediatype>video</mediatype>
                <parameter>
                  <parameterid>scale</parameterid>
                  <name>Scale</name>
                  <valuemin>0</valuemin>
                  <valuemax>1000</valuemax>
                  <value>150</value>
                </parameter>
                <parameter>
                  <parameterid>center</parameterid>
                  <name>Center</name>
                  <value>
                    <horiz>-0.30000</horiz>
                    <vert>0.05000</vert>
                  </value>
                </parameter>
              </effect>
            </filter>
      </clipitem>

      <clipitem id="clipitem-223">
        <name>Fig 113326</name>
        <duration>96</duration>
        <rate><timebase>30</timebase></rate>
        <start>22547</start>
        <end>22643</end>
        <in>0</in>
        <out>96</out>
        <file id="file-130">
          <name>char_14384_12966.webp</name>
          <pathurl>file://localhost/C:/PROJECT_ROOT/assets/char_14384_12966.webp</pathurl>
          <rate><timebase>30</timebase></rate>
          <media>
             <video>
                <samplecharacteristics>
                  <width>1920</width>
                  <height>1080</height>
                  <pixelaspectratio>square</pixelaspectratio>
                </samplecharacteristics>
             </video>
             
          </media>
        </file>
        
            <filter>
              <effect>
                <name>Basic Motion</name>
                <effectid>basic</effectid>
                <effectcategory>motion</effectcategory>
                <effecttype>motion</effecttype>
                <mediatype>video</mediatype>
                <parameter>
                  <parameterid>scale</parameterid>
                  <name>Scale</name>
                  <valuemin>0</valuemin>
                  <valuemax>1000</valuemax>
                  <value>150</value>
                </parameter>
                <parameter>
                  <parameterid>center</parameterid>
                  <name>Center</name>
                  <value>
                    <horiz>-0.30000</horiz>
                    <vert>0.05000</vert>
                  </value>
                </parameter>
              </effect>
            </filter>
      </clipitem>

      <clipitem id="clipitem-227">
        <name>Fig 113328</name>
        <duration>49</duration>
        <rate><timebase>30</timebase></rate>
        <start>22672</start>
        <end>22721</end>
        <in>0</in>
        <out>49</out>
        <file id="file-136">
          <name>char_14414_13290.webp</name>
          <pathurl>file://localhost/C:/PROJECT_ROOT/assets/char_14414_13290.webp</pathurl>
          <rate><timebase>30</timebase></rate>
          <media>
             <video>
                <samplecharacteristics>
                  <width>1920</width>
                  <height>1080</height>
                  <pixelaspectratio>square</pixelaspectratio>
                </samplecharacteristics>
             </video>
             
          </media>
        </file>
        
            <filter>
              <effect>
                <name>Basic Motion</name>
                <effectid>basic</effectid>
                <effectcategory>motion</effectcategory>
                <effecttype>motion</effecttype>
                <mediatype>video</mediatype>
                <parameter>
                  <parameterid>scale</parameterid>
                  <name>Scale</name>
                  <valuemin>0</valuemin>
                  <valuemax>1000</valuemax>
                  <value>150</value>
                </parameter>
                <parameter>
                  <parameterid>center</parameterid>
                  <name>Center</name>
                  <value>
                    <horiz>-0.30000</horiz>
                    <vert>0.05000</vert>
                  </value>
                </parameter>
              </effect>
            </filter>
      </clipitem>

      <clipitem id="clipitem-233">
        <name>Fig 113333</name>
        <duration>164</duration>
        <rate><timebase>30</timebase></rate>
        <start>22824</start>
        <end>22988</end>
        <in>0</in>
        <out>164</out>
        <file id="file-16">
          <name>char_14384_12960.webp</name>
          <pathurl>file://localhost/C:/PROJECT_ROOT/assets/char_14384_12960.webp</pathurl>
          <rate><timebase>30</timebase></rate>
          <media>
             <video>
                <samplecharacteristics>
                  <width>1920</width>
                  <height>1080</height>
                  <pixelaspectratio>square</pixelaspectratio>
                </samplecharacteristics>
             </video>
             
          </media>
        </file>
        
            <filter>
              <effect>
                <name>Basic Motion</name>
                <effectid>basic</effectid>
                <effectcategory>motion</effectcategory>
                <effecttype>motion</effecttype>
                <mediatype>video</mediatype>
                <parameter>
                  <parameterid>scale</parameterid>
                  <name>Scale</name>
                  <valuemin>0</valuemin>
                  <valuemax>1000</valuemax>
                  <value>150</value>
                </parameter>
                <parameter>
                  <parameterid>center</parameterid>
                  <name>Center</name>
                  <value>
                    <horiz>-0.30000</horiz>
                    <vert>0.05000</vert>
                  </value>
                </parameter>
              </effect>
            </filter>
      </clipitem>

      <clipitem id="clipitem-266">
        <name>Fig 113350</name>
        <duration>117</duration>
        <rate><timebase>30</timebase></rate>
        <start>25863</start>
        <end>25980</end>
        <in>0</in>
        <out>117</out>
        <file id="file-176">
          <name>char_14383_13020.webp</name>
          <pathurl>file://localhost/C:/PROJECT_ROOT/assets/char_14383_13020.webp</pathurl>
          <rate><timebase>30</timebase></rate>
          <media>
             <video>
                <samplecharacteristics>
                  <width>1920</width>
                  <height>1080</height>
                  <pixelaspectratio>square</pixelaspectratio>
                </samplecharacteristics>
             </video>
             
          </media>
        </file>
        
            <filter>
              <effect>
                <name>Basic Motion</name>
                <effectid>basic</effectid>
                <effectcategory>motion</effectcategory>
                <effecttype>motion</effecttype>
                <mediatype>video</mediatype>
                <parameter>
                  <parameterid>scale</parameterid>
                  <name>Scale</name>
                  <valuemin>0</valuemin>
                  <valuemax>1000</valuemax>
                  <value>150</value>
                </parameter>
                <parameter>
                  <parameterid>center</parameterid>
                  <name>Center</name>
                  <value>
                    <horiz>-0.30000</horiz>
                    <vert>0.05000</vert>
                  </value>
                </parameter>
              </effect>
            </filter>
      </clipitem>

      <clipitem id="clipitem-274">
        <name>Fig 113355</name>
        <duration>107</duration>
        <rate><timebase>30</timebase></rate>
        <start>26237</start>
        <end>26344</end>
        <in>0</in>
        <out>107</out>
        <file id="file-86">
          <name>char_14384_12976.webp</name>
          <pathurl>file://localhost/C:/PROJECT_ROOT/assets/char_14384_12976.webp</pathurl>
          <rate><timebase>30</timebase></rate>
          <media>
             <video>
                <samplecharacteristics>
                  <width>1920</width>
                  <height>1080</height>
                  <pixelaspectratio>square</pixelaspectratio>
                </samplecharacteristics>
             </video>
             
          </media>
        </file>
        
            <filter>
              <effect>
                <name>Basic Motion</name>
                <effectid>basic</effectid>
                <effectcategory>motion</effectcategory>
                <effecttype>motion</effecttype>
                <mediatype>video</mediatype>
                <parameter>
                  <parameterid>scale</parameterid>
                  <name>Scale</name>
                  <valuemin>0</valuemin>
                  <valuemax>1000</valuemax>
                  <value>150</value>
                </parameter>
                <parameter>
                  <parameterid>center</parameterid>
                  <name>Center</name>
                  <value>
                    <horiz>-0.30000</horiz>
                    <vert>0.05000</vert>
                  </value>
                </parameter>
              </effect>
            </filter>
      </clipitem>

      <clipitem id="clipitem-356">
        <name>Fig 113401</name>
        <duration>39</duration>
        <rate><timebase>30</timebase></rate>
        <start>33204</start>
        <end>33243</end>
        <in>0</in>
        <out>39</out>
        <file id="file-89">
          <name>char_14384_12672.webp</name>
          <pathurl>file://localhost/C:/PROJECT_ROOT/assets/char_14384_12672.webp</pathurl>
          <rate><timebase>30</timebase></rate>
          <media>
             <video>
                <samplecharacteristics>
                  <width>1920</width>
                  <height>1080</height>
                  <pixelaspectratio>square</pixelaspectratio>
                </samplecharacteristics>
             </video>
             
          </media>
        </file>
        
            <filter>
              <effect>
                <name>Basic Motion</name>
                <effectid>basic</effectid>
                <effectcategory>motion</effectcategory>
                <effecttype>motion</effecttype>
                <mediatype>video</mediatype>
                <parameter>
                  <parameterid>scale</parameterid>
                  <name>Scale</name>
                  <valuemin>0</valuemin>
                  <valuemax>1000</valuemax>
                  <value>100</value>
                </parameter>
                <parameter>
                  <parameterid>center</parameterid>
                  <name>Center</name>
                  <value>
                    <horiz>-0.30000</horiz>
                    <vert>0.05000</vert>
                  </value>
                </parameter>
              </effect>
            </filter>
      </clipitem>

      <clipitem id="clipitem-636">
        <name>Fig 113512</name>
        <duration>61</duration>
        <rate><timebase>30</timebase></rate>
        <start>58193</start>
        <end>58254</end>
        <in>0</in>
        <out>61</out>
        <file id="file-26">
          <name>char_14385_12676.webp</name>
          <pathurl>file://localhost/C:/PROJECT_ROOT/assets/char_14385_12676.webp</pathurl>
          <rate><timebase>30</timebase></rate>
          <media>
             <video>
                <samplecharacteristics>
                  <width>1920</width>
                  <height>1080</height>
                  <pixelaspectratio>square</pixelaspectratio>
                </samplecharacteristics>
             </video>
             
          </media>
        </file>
        
            <filter>
              <effect>
                <name>Basic Motion</name>
                <effectid>basic</effectid>
                <effectcategory>motion</effectcategory>
                <effecttype>motion</effecttype>
                <mediatype>video</mediatype>
                <parameter>
                  <parameterid>scale</parameterid>
                  <name>Scale</name>
                  <valuemin>0</valuemin>
                  <valuemax>1000</valuemax>
                  <value>82.5</value>
                </parameter>
                <parameter>
                  <parameterid>center</parameterid>
                  <name>Center</name>
                  <value>
                    <horiz>-0.30000</horiz>
                    <vert>0.05000</vert>
                  </value>
                </parameter>
              </effect>
            </filter>
      </clipitem>
</track>
      <!-- V3: Figure Center -->
      <track>

      <clipitem id="clipitem-1">
        <name>Fig 113515</name>
        <duration>60</duration>
        <rate><timebase>30</timebase></rate>
        <start>0</start>
        <end>60</end>
        <in>0</in>
        <out>60</out>
        <file id="file-1">
          <name>char_14383_12670.webp</name>
          <pathurl>file://localhost/C:/PROJECT_ROOT/assets/char_14383_12670.webp</pathurl>
          <rate><timebase>30</timebase></rate>
          <media>
             <video>
                <samplecharacteristics>
                  <width>1920</width>
                  <height>1080</height>
                  <pixelaspectratio>square</pixelaspectratio>
                </samplecharacteristics>
             </video>
             
          </media>
        </file>
        
            <filter>
              <effect>
                <name>Basic Motion</name>
                <effectid>basic</effectid>
                <effectcategory>motion</effectcategory>
                <effecttype>motion</effecttype>
                <mediatype>video</mediatype>
                <parameter>
                  <parameterid>scale</parameterid>
                  <name>Scale</name>
                  <valuemin>0</valuemin>
                  <valuemax>1000</valuemax>
                  <value>100</value>
                </parameter>
                <parameter>
                  <parameterid>center</parameterid>
                  <name>Center</name>
                  <value>
                    <horiz>0.00000</horiz>
                    <vert>0.05000</vert>
                  </value>
                </parameter>
              </effect>
            </filter>
      </clipitem>

      <clipitem id="clipitem-3">
        <name>Fig 113196</name>
        <duration>645</duration>
        <rate><timebase>30</timebase></rate>
        <start>60</start>
        <end>705</end>
        <in>0</in>
        <out>645</out>
        <file id="file-3">
          <name>char_14385_12675.webp</name>
          <pathurl>file://localhost/C:/PROJECT_ROOT/assets/char_14385_12675.webp</pathurl>
          <rate><timebase>30</timebase></rate>
          <media>
             <video>
                <samplecharacteristics>
                  <width>1920</width>
                  <height>1080</height>
                  <pixelaspectratio>square</pixelaspectratio>
                </samplecharacteristics>
             </video>
             
          </media>
        </file>
        
            <filter>
              <effect>
                <name>Basic Motion</name>
                <effectid>basic</effectid>
                <effectcategory>motion</effectcategory>
                <effecttype>motion</effecttype>
                <mediatype>video</mediatype>
                <parameter>
                  <parameterid>scale</parameterid>
                  <name>Scale</name>
                  <valuemin>0</valuemin>
                  <valuemax>1000</valuemax>
                  <value>50</value>
                </parameter>
                <parameter>
                  <parameterid>center</parameterid>
                  <name>Center</name>
                  <value>
                    <horiz>0.00000</horiz>
                    <vert>0.05000</vert>
                  </value>
                </parameter>
              </effect>
            </filter>
      </clipitem>

      <clipitem id="clipitem-11">
        <name>Fig 113204</name>
        <duration>277</duration>
        <rate><timebase>30</timebase></rate>
        <start>705</start>
        <end>982</end>
        <in>0</in>
        <out>277</out>
        <file id="file-11">
          <name>char_14419_12779.webp</name>
          <pathurl>file://localhost/C:/PROJECT_ROOT/assets/char_14419_12779.webp</pathurl>
          <rate><timebase>30</timebase></rate>
          <media>
             <video>
                <samplecharacteristics>
                  <width>1920</width>
                  <height>1080</height>
                  <pixelaspectratio>square</pixelaspectratio>
                </samplecharacteristics>
             </video>
             
          </media>
        </file>
        
            <filter>
              <effect>
                <name>Basic Motion</name>
                <effectid>basic</effectid>
                <effectcategory>motion</effectcategory>
                <effecttype>motion</effecttype>
                <mediatype>video</mediatype>
                <parameter>
                  <parameterid>scale</parameterid>
                  <name>Scale</name>
                  <valuemin>0</valuemin>
                  <valuemax>1000</valuemax>
                  <value>45</value>
                </parameter>
                <parameter>
                  <parameterid>center</parameterid>
                  <name>Center</name>
                  <value>
                    <horiz>0.00000</horiz>
                    <vert>0.05000</vert>
                  </value>
                </parameter>
              </effect>
            </filter>
      </clipitem>

      <clipitem id="clipitem-12">
        <name>Fig 113205</name>
        <duration>300</duration>
        <rate><timebase>30</timebase></rate>
        <start>982</start>
        <end>1282</end>
        <in>0</in>
        <out>300</out>
        <file id="file-12">
          <name>char_14420_12781.webp</name>
          <pathurl>file://localhost/C:/PROJECT_ROOT/assets/char_14420_12781.webp</pathurl>
          <rate><timebase>30</timebase></rate>
          <media>
             <video>
                <samplecharacteristics>
                  <width>1920</width>
                  <height>1080</height>
                  <pixelaspectratio>square</pixelaspectratio>
                </samplecharacteristics>
             </video>
             
          </media>
        </file>
        
            <filter>
              <effect>
                <name>Basic Motion</name>
                <effectid>basic</effectid>
                <effectcategory>motion</effectcategory>
                <effecttype>motion</effecttype>
                <mediatype>video</mediatype>
                <parameter>
                  <parameterid>scale</parameterid>
                  <name>Scale</name>
                  <valuemin>0</valuemin>
                  <valuemax>1000</valuemax>
                  <value>50</value>
                </parameter>
                <parameter>
                  <parameterid>center</parameterid>
                  <name>Center</name>
                  <value>
                    <horiz>0.00000</horiz>
                    <vert>0.05000</vert>
                  </value>
                </parameter>
              </effect>
            </filter>
      </clipitem>

      <clipitem id="clipitem-14">
        <name>Fig 113206</name>
        <duration>304</duration>
        <rate><timebase>30</timebase></rate>
        <start>1282</start>
        <end>1586</end>
        <in>0</in>
        <out>304</out>
        <file id="file-3">
          <name>char_14385_12675.webp</name>
          <pathurl>file://localhost/C:/PROJECT_ROOT/assets/char_14385_12675.webp</pathurl>
          <rate><timebase>30</timebase></rate>
          <media>
             <video>
                <samplecharacteristics>
                  <width>1920</width>
                  <height>1080</height>
                  <pixelaspectratio>square</pixelaspectratio>
                </samplecharacteristics>
             </video>
             
          </media>
        </file>
        
            <filter>
              <effect>
                <name>Basic Motion</name>
                <effectid>basic</effectid>
                <effectcategory>motion</effectcategory>
                <effecttype>motion</effecttype>
                <mediatype>video</mediatype>
                <parameter>
                  <parameterid>scale</parameterid>
                  <name>Scale</name>
                  <valuemin>0</valuemin>
                  <valuemax>1000</valuemax>
                  <value>50</value>
                </parameter>
                <parameter>
                  <parameterid>center</parameterid>
                  <name>Center</name>
                  <value>
                    <horiz>0.00000</horiz>
                    <vert>0.05000</vert>
                  </value>
                </parameter>
              </effect>
            </filter>
      </clipitem>

      <clipitem id="clipitem-21">
        <name>Fig 113589</name>
        <duration>63</duration>
        <rate><timebase>30</timebase></rate>
        <start>2019</start>
        <end>2082</end>
        <in>0</in>
        <out>63</out>
        <file id="file-3">
          <name>char_14385_12675.webp</name>
          <pathurl>file://localhost/C:/PROJECT_ROOT/assets/char_14385_12675.webp</pathurl>
          <rate><timebase>30</timebase></rate>
          <media>
             <video>
                <samplecharacteristics>
                  <width>1920</width>
                  <height>1080</height>
                  <pixelaspectratio>square</pixelaspectratio>
                </samplecharacteristics>
             </video>
             
          </media>
        </file>
        
            <filter>
              <effect>
                <name>Basic Motion</name>
                <effectid>basic</effectid>
                <effectcategory>motion</effectcategory>
                <effecttype>motion</effecttype>
                <mediatype>video</mediatype>
                <parameter>
                  <parameterid>scale</parameterid>
                  <name>Scale</name>
                  <valuemin>0</valuemin>
                  <valuemax>1000</valuemax>
                  <value>50</value>
                </parameter>
                <parameter>
                  <parameterid>center</parameterid>
                  <name>Center</name>
                  <value>
                    <horiz>0.00000</horiz>
                    <vert>0.05000</vert>
                  </value>
                </parameter>
              </effect>
            </filter>
      </clipitem>

      <clipitem id="clipitem-26">
        <name>Fig 113212</name>
        <duration>538</duration>
        <rate><timebase>30</timebase></rate>
        <start>2411</start>
        <end>2949</end>
        <in>0</in>
        <out>538</out>
        <file id="file-3">
          <name>char_14385_12675.webp</name>
          <pathurl>file://localhost/C:/PROJECT_ROOT/assets/char_14385_12675.webp</pathurl>
          <rate><timebase>30</timebase></rate>
          <media>
             <video>
                <samplecharacteristics>
                  <width>1920</width>
                  <height>1080</height>
                  <pixelaspectratio>square</pixelaspectratio>
                </samplecharacteristics>
             </video>
             
          </media>
        </file>
        
            <filter>
              <effect>
                <name>Basic Motion</name>
                <effectid>basic</effectid>
                <effectcategory>motion</effectcategory>
                <effecttype>motion</effecttype>
                <mediatype>video</mediatype>
                <parameter>
                  <parameterid>scale</parameterid>
                  <name>Scale</name>
                  <valuemin>0</valuemin>
                  <valuemax>1000</valuemax>
                  <value>50</value>
                </parameter>
                <parameter>
                  <parameterid>center</parameterid>
                  <name>Center</name>
                  <value>
                    <horiz>0.00000</horiz>
                    <vert>0.05000</vert>
                  </value>
                </parameter>
              </effect>
            </filter>
      </clipitem>

      <clipitem id="clipitem-30">
        <name>Fig 113215</name>
        <duration>1159</duration>
        <rate><timebase>30</timebase></rate>
        <start>2949</start>
        <end>4108</end>
        <in>0</in>
        <out>1159</out>
        <file id="file-26">
          <name>char_14385_12676.webp</name>
          <pathurl>file://localhost/C:/PROJECT_ROOT/assets/char_14385_12676.webp</pathurl>
          <rate><timebase>30</timebase></rate>
          <media>
             <video>
                <samplecharacteristics>
                  <width>1920</width>
                  <height>1080</height>
                  <pixelaspectratio>square</pixelaspectratio>
                </samplecharacteristics>
             </video>
             
          </media>
        </file>
        
            <filter>
              <effect>
                <name>Basic Motion</name>
                <effectid>basic</effectid>
                <effectcategory>motion</effectcategory>
                <effecttype>motion</effecttype>
                <mediatype>video</mediatype>
                <parameter>
                  <parameterid>scale</parameterid>
                  <name>Scale</name>
                  <valuemin>0</valuemin>
                  <valuemax>1000</valuemax>
                  <value>82.5</value>
                </parameter>
                <parameter>
                  <parameterid>center</parameterid>
                  <name>Center</name>
                  <value>
                    <horiz>0.00000</horiz>
                    <vert>0.05000</vert>
                  </value>
                </parameter>
              </effect>
            </filter>
      </clipitem>

      <clipitem id="clipitem-40">
        <name>Fig 113514</name>
        <duration>1064</duration>
        <rate><timebase>30</timebase></rate>
        <start>4108</start>
        <end>5172</end>
        <in>0</in>
        <out>1064</out>
        <file id="file-3">
          <name>char_14385_12675.webp</name>
          <pathurl>file://localhost/C:/PROJECT_ROOT/assets/char_14385_12675.webp</pathurl>
          <rate><timebase>30</timebase></rate>
          <media>
             <video>
                <samplecharacteristics>
                  <width>1920</width>
                  <height>1080</height>
                  <pixelaspectratio>square</pixelaspectratio>
                </samplecharacteristics>
             </video>
             
          </media>
        </file>
        
            <filter>
              <effect>
                <name>Basic Motion</name>
                <effectid>basic</effectid>
                <effectcategory>motion</effectcategory>
                <effecttype>motion</effecttype>
                <mediatype>video</mediatype>
                <parameter>
                  <parameterid>scale</parameterid>
                  <name>Scale</name>
                  <valuemin>0</valuemin>
                  <valuemax>1000</valuemax>
                  <value>50</value>
                </parameter>
                <parameter>
                  <parameterid>center</parameterid>
                  <name>Center</name>
                  <value>
                    <horiz>0.00000</horiz>
                    <vert>0.05000</vert>
                  </value>
                </parameter>
              </effect>
            </filter>
      </clipitem>

      <clipitem id="clipitem-46">
        <name>Fig 113228</name>
        <duration>3104</duration>
        <rate><timebase>30</timebase></rate>
        <start>5279</start>
        <end>8383</end>
        <in>0</in>
        <out>3104</out>
        <file id="file-3">
          <name>char_14385_12675.webp</name>
          <pathurl>file://localhost/C:/PROJECT_ROOT/assets/char_14385_12675.webp</pathurl>
          <rate><timebase>30</timebase></rate>
          <media>
             <video>
                <samplecharacteristics>
                  <width>1920</width>
                  <height>1080</height>
                  <pixelaspectratio>square</pixelaspectratio>
                </samplecharacteristics>
             </video>
             
          </media>
        </file>
        
            <filter>
              <effect>
                <name>Basic Motion</name>
                <effectid>basic</effectid>
                <effectcategory>motion</effectcategory>
                <effecttype>motion</effecttype>
                <mediatype>video</mediatype>
                <parameter>
                  <parameterid>scale</parameterid>
                  <name>Scale</name>
                  <valuemin>0</valuemin>
                  <valuemax>1000</valuemax>
                  <value>50</value>
                </parameter>
                <parameter>
                  <parameterid>center</parameterid>
                  <name>Center</name>
                  <value>
                    <horiz>0.00000</horiz>
                    <vert>0.05000</vert>
                  </value>
                </parameter>
              </effect>
            </filter>
      </clipitem>

      <clipitem id="clipitem-54">
        <name>Fig 113235</name>
        <duration>283</duration>
        <rate><timebase>30</timebase></rate>
        <start>8411</start>
        <end>8694</end>
        <in>0</in>
        <out>283</out>
        <file id="file-3">
          <name>char_14385_12675.webp</name>
          <pathurl>file://localhost/C:/PROJECT_ROOT/assets/char_14385_12675.webp</pathurl>
          <rate><timebase>30</timebase></rate>
          <media>
             <video>
                <samplecharacteristics>
                  <width>1920</width>
                  <height>1080</height>
                  <pixelaspectratio>square</pixelaspectratio>
                </samplecharacteristics>
             </video>
             
          </media>
        </file>
        
            <filter>
              <effect>
                <name>Basic Motion</name>
                <effectid>basic</effectid>
                <effectcategory>motion</effectcategory>
                <effecttype>motion</effecttype>
                <mediatype>video</mediatype>
                <parameter>
                  <parameterid>scale</parameterid>
                  <name>Scale</name>
                  <valuemin>0</valuemin>
                  <valuemax>1000</valuemax>
                  <value>50</value>
                </parameter>
                <parameter>
                  <parameterid>center</parameterid>
                  <name>Center</name>
                  <value>
                    <horiz>0.00000</horiz>
                    <vert>0.05000</vert>
                  </value>
                </parameter>
              </effect>
            </filter>
      </clipitem>

      <clipitem id="clipitem-58">
        <name>Fig 113237</name>
        <duration>259</duration>
        <rate><timebase>30</timebase></rate>
        <start>8785</start>
        <end>9044</end>
        <in>0</in>
        <out>259</out>
        <file id="file-3">
          <name>char_14385_12675.webp</name>
          <pathurl>file://localhost/C:/PROJECT_ROOT/assets/char_14385_12675.webp</pathurl>
          <rate><timebase>30</timebase></rate>
          <media>
             <video>
                <samplecharacteristics>
                  <width>1920</width>
                  <height>1080</height>
                  <pixelaspectratio>square</pixelaspectratio>
                </samplecharacteristics>
             </video>
             
          </media>
        </file>
        
            <filter>
              <effect>
                <name>Basic Motion</name>
                <effectid>basic</effectid>
                <effectcategory>motion</effectcategory>
                <effecttype>motion</effecttype>
                <mediatype>video</mediatype>
                <parameter>
                  <parameterid>scale</parameterid>
                  <name>Scale</name>
                  <valuemin>0</valuemin>
                  <valuemax>1000</valuemax>
                  <value>50</value>
                </parameter>
                <parameter>
                  <parameterid>center</parameterid>
                  <name>Center</name>
                  <value>
                    <horiz>0.00000</horiz>
                    <vert>0.05000</vert>
                  </value>
                </parameter>
              </effect>
            </filter>
      </clipitem>

      <clipitem id="clipitem-62">
        <name>Fig 113238</name>
        <duration>112</duration>
        <rate><timebase>30</timebase></rate>
        <start>9152</start>
        <end>9264</end>
        <in>0</in>
        <out>112</out>
        <file id="file-3">
          <name>char_14385_12675.webp</name>
          <pathurl>file://localhost/C:/PROJECT_ROOT/assets/char_14385_12675.webp</pathurl>
          <rate><timebase>30</timebase></rate>
          <media>
             <video>
                <samplecharacteristics>
                  <width>1920</width>
                  <height>1080</height>
                  <pixelaspectratio>square</pixelaspectratio>
                </samplecharacteristics>
             </video>
             
          </media>
        </file>
        
            <filter>
              <effect>
                <name>Basic Motion</name>
                <effectid>basic</effectid>
                <effectcategory>motion</effectcategory>
                <effecttype>motion</effecttype>
                <mediatype>video</mediatype>
                <parameter>
                  <parameterid>scale</parameterid>
                  <name>Scale</name>
                  <valuemin>0</valuemin>
                  <valuemax>1000</valuemax>
                  <value>50</value>
                </parameter>
                <parameter>
                  <parameterid>center</parameterid>
                  <name>Center</name>
                  <value>
                    <horiz>0.00000</horiz>
                    <vert>0.05000</vert>
                  </value>
                </parameter>
              </effect>
            </filter>
      </clipitem>

      <clipitem id="clipitem-65">
        <name>Fig 113240</name>
        <duration>187</duration>
        <rate><timebase>30</timebase></rate>
        <start>9335</start>
        <end>9522</end>
        <in>0</in>
        <out>187</out>
        <file id="file-53">
          <name>char_2_138.webp</name>
          <pathurl>file://localhost/C:/PROJECT_ROOT/assets/char_2_138.webp</pathurl>
          <rate><timebase>30</timebase></rate>
          <media>
             <video>
                <samplecharacteristics>
                  <width>1920</width>
                  <height>1080</height>
                  <pixelaspectratio>square</pixelaspectratio>
                </samplecharacteristics>
             </video>
             
          </media>
        </file>
        
            <filter>
              <effect>
                <name>Basic Motion</name>
                <effectid>basic</effectid>
                <effectcategory>motion</effectcategory>
                <effecttype>motion</effecttype>
                <mediatype>video</mediatype>
                <parameter>
                  <parameterid>scale</parameterid>
                  <name>Scale</name>
                  <valuemin>0</valuemin>
                  <valuemax>1000</valuemax>
                  <value>67.5</value>
                </parameter>
                <parameter>
                  <parameterid>center</parameterid>
                  <name>Center</name>
                  <value>
                    <horiz>0.00000</horiz>
                    <vert>0.05000</vert>
                  </value>
                </parameter>
              </effect>
            </filter>
      </clipitem>

      <clipitem id="clipitem-70">
        <name>Fig 113243</name>
        <duration>68</duration>
        <rate><timebase>30</timebase></rate>
        <start>10166</start>
        <end>10234</end>
        <in>0</in>
        <out>68</out>
        <file id="file-3">
          <name>char_14385_12675.webp</name>
          <pathurl>file://localhost/C:/PROJECT_ROOT/assets/char_14385_12675.webp</pathurl>
          <rate><timebase>30</timebase></rate>
          <media>
             <video>
                <samplecharacteristics>
                  <width>1920</width>
                  <height>1080</height>
                  <pixelaspectratio>square</pixelaspectratio>
                </samplecharacteristics>
             </video>
             
          </media>
        </file>
        
            <filter>
              <effect>
                <name>Basic Motion</name>
                <effectid>basic</effectid>
                <effectcategory>motion</effectcategory>
                <effecttype>motion</effecttype>
                <mediatype>video</mediatype>
                <parameter>
                  <parameterid>scale</parameterid>
                  <name>Scale</name>
                  <valuemin>0</valuemin>
                  <valuemax>1000</valuemax>
                  <value>50</value>
                </parameter>
                <parameter>
                  <parameterid>center</parameterid>
                  <name>Center</name>
                  <value>
                    <horiz>0.00000</horiz>
                    <vert>0.05000</vert>
                  </value>
                </parameter>
              </effect>
            </filter>
      </clipitem>

      <clipitem id="clipitem-76">
        <name>Fig 113246</name>
        <duration>295</duration>
        <rate><timebase>30</timebase></rate>
        <start>10639</start>
        <end>10934</end>
        <in>0</in>
        <out>295</out>
        <file id="file-3">
          <name>char_14385_12675.webp</name>
          <pathurl>file://localhost/C:/PROJECT_ROOT/assets/char_14385_12675.webp</pathurl>
          <rate><timebase>30</timebase></rate>
          <media>
             <video>
                <samplecharacteristics>
                  <width>1920</width>
                  <height>1080</height>
                  <pixelaspectratio>square</pixelaspectratio>
                </samplecharacteristics>
             </video>
             
          </media>
        </file>
        
            <filter>
              <effect>
                <name>Basic Motion</name>
                <effectid>basic</effectid>
                <effectcategory>motion</effectcategory>
                <effecttype>motion</effecttype>
                <mediatype>video</mediatype>
                <parameter>
                  <parameterid>scale</parameterid>
                  <name>Scale</name>
                  <valuemin>0</valuemin>
                  <valuemax>1000</valuemax>
                  <value>50</value>
                </parameter>
                <parameter>
                  <parameterid>center</parameterid>
                  <name>Center</name>
                  <value>
                    <horiz>0.00000</horiz>
                    <vert>0.05000</vert>
                  </value>
                </parameter>
              </effect>
            </filter>
      </clipitem>

      <clipitem id="clipitem-82">
        <name>Fig 113249</name>
        <duration>58</duration>
        <rate><timebase>30</timebase></rate>
        <start>11345</start>
        <end>11403</end>
        <in>0</in>
        <out>58</out>
        <file id="file-1">
          <name>char_14383_12670.webp</name>
          <pathurl>file://localhost/C:/PROJECT_ROOT/assets/char_14383_12670.webp</pathurl>
          <rate><timebase>30</timebase></rate>
          <media>
             <video>
                <samplecharacteristics>
                  <width>1920</width>
                  <height>1080</height>
                  <pixelaspectratio>square</pixelaspectratio>
                </samplecharacteristics>
             </video>
             
          </media>
        </file>
        
            <filter>
              <effect>
                <name>Basic Motion</name>
                <effectid>basic</effectid>
                <effectcategory>motion</effectcategory>
                <effecttype>motion</effecttype>
                <mediatype>video</mediatype>
                <parameter>
                  <parameterid>scale</parameterid>
                  <name>Scale</name>
                  <valuemin>0</valuemin>
                  <valuemax>1000</valuemax>
                  <value>100</value>
                </parameter>
                <parameter>
                  <parameterid>center</parameterid>
                  <name>Center</name>
                  <value>
                    <horiz>0.00000</horiz>
                    <vert>0.05000</vert>
                  </value>
                </parameter>
              </effect>
            </filter>
      </clipitem>

      <clipitem id="clipitem-84">
        <name>Fig 113250</name>
        <duration>865</duration>
        <rate><timebase>30</timebase></rate>
        <start>11403</start>
        <end>12268</end>
        <in>0</in>
        <out>865</out>
        <file id="file-3">
          <name>char_14385_12675.webp</name>
          <pathurl>file://localhost/C:/PROJECT_ROOT/assets/char_14385_12675.webp</pathurl>
          <rate><timebase>30</timebase></rate>
          <media>
             <video>
                <samplecharacteristics>
                  <width>1920</width>
                  <height>1080</height>
                  <pixelaspectratio>square</pixelaspectratio>
                </samplecharacteristics>
             </video>
             
          </media>
        </file>
        
            <filter>
              <effect>
                <name>Basic Motion</name>
                <effectid>basic</effectid>
                <effectcategory>motion</effectcategory>
                <effecttype>motion</effecttype>
                <mediatype>video</mediatype>
                <parameter>
                  <parameterid>scale</parameterid>
                  <name>Scale</name>
                  <valuemin>0</valuemin>
                  <valuemax>1000</valuemax>
                  <value>50</value>
                </parameter>
                <parameter>
                  <parameterid>center</parameterid>
                  <name>Center</name>
                  <value>
                    <horiz>0.00000</horiz>
                    <vert>0.05000</vert>
                  </value>
                </parameter>
              </effect>
            </filter>
      </clipitem>

      <clipitem id="clipitem-89">
        <name>Fig 113254</name>
        <duration>30</duration>
        <rate><timebase>30</timebase></rate>
        <start>12268</start>
        <end>12298</end>
        <in>0</in>
        <out>30</out>
        <file id="file-1">
          <name>char_14383_12670.webp</name>
          <pathurl>file://localhost/C:/PROJECT_ROOT/assets/char_14383_12670.webp</pathurl>
          <rate><timebase>30</timebase></rate>
          <media>
             <video>
                <samplecharacteristics>
                  <width>1920</width>
                  <height>1080</height>
                  <pixelaspectratio>square</pixelaspectratio>
                </samplecharacteristics>
             </video>
             
          </media>
        </file>
        
            <filter>
              <effect>
                <name>Basic Motion</name>
                <effectid>basic</effectid>
                <effectcategory>motion</effectcategory>
                <effecttype>motion</effecttype>
                <mediatype>video</mediatype>
                <parameter>
                  <parameterid>scale</parameterid>
                  <name>Scale</name>
                  <valuemin>0</valuemin>
                  <valuemax>1000</valuemax>
                  <value>100</value>
                </parameter>
                <parameter>
                  <parameterid>center</parameterid>
                  <name>Center</name>
                  <value>
                    <horiz>0.00000</horiz>
                    <vert>0.05000</vert>
                  </value>
                </parameter>
              </effect>
            </filter>
      </clipitem>

      <clipitem id="clipitem-93">
        <name>Fig 113256</name>
        <duration>36</duration>
        <rate><timebase>30</timebase></rate>
        <start>12441</start>
        <end>12477</end>
        <in>0</in>
        <out>36</out>
        <file id="file-1">
          <name>char_14383_12670.webp</name>
          <pathurl>file://localhost/C:/PROJECT_ROOT/assets/char_14383_12670.webp</pathurl>
          <rate><timebase>30</timebase></rate>
          <media>
             <video>
                <samplecharacteristics>
                  <width>1920</width>
                  <height>1080</height>
                  <pixelaspectratio>square</pixelaspectratio>
                </samplecharacteristics>
             </video>
             
          </media>
        </file>
        
            <filter>
              <effect>
                <name>Basic Motion</name>
                <effectid>basic</effectid>
                <effectcategory>motion</effectcategory>
                <effecttype>motion</effecttype>
                <mediatype>video</mediatype>
                <parameter>
                  <parameterid>scale</parameterid>
                  <name>Scale</name>
                  <valuemin>0</valuemin>
                  <valuemax>1000</valuemax>
                  <value>100</value>
                </parameter>
                <parameter>
                  <parameterid>center</parameterid>
                  <name>Center</name>
                  <value>
                    <horiz>0.00000</horiz>
                    <vert>0.05000</vert>
                  </value>
                </parameter>
              </effect>
            </filter>
      </clipitem>

      <clipitem id="clipitem-94">
        <name>Fig 113257</name>
        <duration>210</duration>
        <rate><timebase>30</timebase></rate>
        <start>12477</start>
        <end>12687</end>
        <in>0</in>
        <out>210</out>
        <file id="file-53">
          <name>char_2_138.webp</name>
          <pathurl>file://localhost/C:/PROJECT_ROOT/assets/char_2_138.webp</pathurl>
          <rate><timebase>30</timebase></rate>
          <media>
             <video>
                <samplecharacteristics>
                  <width>1920</width>
                  <height>1080</height>
                  <pixelaspectratio>square</pixelaspectratio>
                </samplecharacteristics>
             </video>
             
          </media>
        </file>
        
            <filter>
              <effect>
                <name>Basic Motion</name>
                <effectid>basic</effectid>
                <effectcategory>motion</effectcategory>
                <effecttype>motion</effecttype>
                <mediatype>video</mediatype>
                <parameter>
                  <parameterid>scale</parameterid>
                  <name>Scale</name>
                  <valuemin>0</valuemin>
                  <valuemax>1000</valuemax>
                  <value>67.5</value>
                </parameter>
                <parameter>
                  <parameterid>center</parameterid>
                  <name>Center</name>
                  <value>
                    <horiz>0.00000</horiz>
                    <vert>0.05000</vert>
                  </value>
                </parameter>
              </effect>
            </filter>
      </clipitem>

      <clipitem id="clipitem-96">
        <name>Fig 118572</name>
        <duration>26</duration>
        <rate><timebase>30</timebase></rate>
        <start>12687</start>
        <end>12713</end>
        <in>0</in>
        <out>26</out>
        <file id="file-39">
          <name>char_14383_13031.webp</name>
          <pathurl>file://localhost/C:/PROJECT_ROOT/assets/char_14383_13031.webp</pathurl>
          <rate><timebase>30</timebase></rate>
          <media>
             <video>
                <samplecharacteristics>
                  <width>1920</width>
                  <height>1080</height>
                  <pixelaspectratio>square</pixelaspectratio>
                </samplecharacteristics>
             </video>
             
          </media>
        </file>
        
            <filter>
              <effect>
                <name>Basic Motion</name>
                <effectid>basic</effectid>
                <effectcategory>motion</effectcategory>
                <effecttype>motion</effecttype>
                <mediatype>video</mediatype>
                <parameter>
                  <parameterid>scale</parameterid>
                  <name>Scale</name>
                  <valuemin>0</valuemin>
                  <valuemax>1000</valuemax>
                  <value>150</value>
                </parameter>
                <parameter>
                  <parameterid>center</parameterid>
                  <name>Center</name>
                  <value>
                    <horiz>0.00000</horiz>
                    <vert>0.05000</vert>
                  </value>
                </parameter>
              </effect>
            </filter>
      </clipitem>

      <clipitem id="clipitem-98">
        <name>Fig 118573</name>
        <duration>382</duration>
        <rate><timebase>30</timebase></rate>
        <start>12713</start>
        <end>13095</end>
        <in>0</in>
        <out>382</out>
        <file id="file-3">
          <name>char_14385_12675.webp</name>
          <pathurl>file://localhost/C:/PROJECT_ROOT/assets/char_14385_12675.webp</pathurl>
          <rate><timebase>30</timebase></rate>
          <media>
             <video>
                <samplecharacteristics>
                  <width>1920</width>
                  <height>1080</height>
                  <pixelaspectratio>square</pixelaspectratio>
                </samplecharacteristics>
             </video>
             
          </media>
        </file>
        
            <filter>
              <effect>
                <name>Basic Motion</name>
                <effectid>basic</effectid>
                <effectcategory>motion</effectcategory>
                <effecttype>motion</effecttype>
                <mediatype>video</mediatype>
                <parameter>
                  <parameterid>scale</parameterid>
                  <name>Scale</name>
                  <valuemin>0</valuemin>
                  <valuemax>1000</valuemax>
                  <value>50</value>
                </parameter>
                <parameter>
                  <parameterid>center</parameterid>
                  <name>Center</name>
                  <value>
                    <horiz>0.00000</horiz>
                    <vert>0.05000</vert>
                  </value>
                </parameter>
              </effect>
            </filter>
      </clipitem>

      <clipitem id="clipitem-108">
        <name>Fig 113265</name>
        <duration>177</duration>
        <rate><timebase>30</timebase></rate>
        <start>13773</start>
        <end>13950</end>
        <in>0</in>
        <out>177</out>
        <file id="file-3">
          <name>char_14385_12675.webp</name>
          <pathurl>file://localhost/C:/PROJECT_ROOT/assets/char_14385_12675.webp</pathurl>
          <rate><timebase>30</timebase></rate>
          <media>
             <video>
                <samplecharacteristics>
                  <width>1920</width>
                  <height>1080</height>
                  <pixelaspectratio>square</pixelaspectratio>
                </samplecharacteristics>
             </video>
             
          </media>
        </file>
        
            <filter>
              <effect>
                <name>Basic Motion</name>
                <effectid>basic</effectid>
                <effectcategory>motion</effectcategory>
                <effecttype>motion</effecttype>
                <mediatype>video</mediatype>
                <parameter>
                  <parameterid>scale</parameterid>
                  <name>Scale</name>
                  <valuemin>0</valuemin>
                  <valuemax>1000</valuemax>
                  <value>50</value>
                </parameter>
                <parameter>
                  <parameterid>center</parameterid>
                  <name>Center</name>
                  <value>
                    <horiz>0.00000</horiz>
                    <vert>0.05000</vert>
                  </value>
                </parameter>
              </effect>
            </filter>
      </clipitem>

      <clipitem id="clipitem-112">
        <name>Fig 113267</name>
        <duration>166</duration>
        <rate><timebase>30</timebase></rate>
        <start>13985</start>
        <end>14151</end>
        <in>0</in>
        <out>166</out>
        <file id="file-3">
          <name>char_14385_12675.webp</name>
          <pathurl>file://localhost/C:/PROJECT_ROOT/assets/char_14385_12675.webp</pathurl>
          <rate><timebase>30</timebase></rate>
          <media>
             <video>
                <samplecharacteristics>
                  <width>1920</width>
                  <height>1080</height>
                  <pixelaspectratio>square</pixelaspectratio>
                </samplecharacteristics>
             </video>
             
          </media>
        </file>
        
            <filter>
              <effect>
                <name>Basic Motion</name>
                <effectid>basic</effectid>
                <effectcategory>motion</effectcategory>
                <effecttype>motion</effecttype>
                <mediatype>video</mediatype>
                <parameter>
                  <parameterid>scale</parameterid>
                  <name>Scale</name>
                  <valuemin>0</valuemin>
                  <valuemax>1000</valuemax>
                  <value>50</value>
                </parameter>
                <parameter>
                  <parameterid>center</parameterid>
                  <name>Center</name>
                  <value>
                    <horiz>0.00000</horiz>
                    <vert>0.05000</vert>
                  </value>
                </parameter>
              </effect>
            </filter>
      </clipitem>

      <clipitem id="clipitem-113">
        <name>Fig 113520</name>
        <duration>60</duration>
        <rate><timebase>30</timebase></rate>
        <start>14151</start>
        <end>14211</end>
        <in>0</in>
        <out>60</out>
        <file id="file-1">
          <name>char_14383_12670.webp</name>
          <pathurl>file://localhost/C:/PROJECT_ROOT/assets/char_14383_12670.webp</pathurl>
          <rate><timebase>30</timebase></rate>
          <media>
             <video>
                <samplecharacteristics>
                  <width>1920</width>
                  <height>1080</height>
                  <pixelaspectratio>square</pixelaspectratio>
                </samplecharacteristics>
             </video>
             
          </media>
        </file>
        
            <filter>
              <effect>
                <name>Basic Motion</name>
                <effectid>basic</effectid>
                <effectcategory>motion</effectcategory>
                <effecttype>motion</effecttype>
                <mediatype>video</mediatype>
                <parameter>
                  <parameterid>scale</parameterid>
                  <name>Scale</name>
                  <valuemin>0</valuemin>
                  <valuemax>1000</valuemax>
                  <value>100</value>
                </parameter>
                <parameter>
                  <parameterid>center</parameterid>
                  <name>Center</name>
                  <value>
                    <horiz>0.00000</horiz>
                    <vert>0.05000</vert>
                  </value>
                </parameter>
              </effect>
            </filter>
      </clipitem>

      <clipitem id="clipitem-115">
        <name>Fig 113521</name>
        <duration>2038</duration>
        <rate><timebase>30</timebase></rate>
        <start>14211</start>
        <end>16249</end>
        <in>0</in>
        <out>2038</out>
        <file id="file-3">
          <name>char_14385_12675.webp</name>
          <pathurl>file://localhost/C:/PROJECT_ROOT/assets/char_14385_12675.webp</pathurl>
          <rate><timebase>30</timebase></rate>
          <media>
             <video>
                <samplecharacteristics>
                  <width>1920</width>
                  <height>1080</height>
                  <pixelaspectratio>square</pixelaspectratio>
                </samplecharacteristics>
             </video>
             
          </media>
        </file>
        
            <filter>
              <effect>
                <name>Basic Motion</name>
                <effectid>basic</effectid>
                <effectcategory>motion</effectcategory>
                <effecttype>motion</effecttype>
                <mediatype>video</mediatype>
                <parameter>
                  <parameterid>scale</parameterid>
                  <name>Scale</name>
                  <valuemin>0</valuemin>
                  <valuemax>1000</valuemax>
                  <value>50</value>
                </parameter>
                <parameter>
                  <parameterid>center</parameterid>
                  <name>Center</name>
                  <value>
                    <horiz>0.00000</horiz>
                    <vert>0.05000</vert>
                  </value>
                </parameter>
              </effect>
            </filter>
      </clipitem>

      <clipitem id="clipitem-121">
        <name>Fig 113271</name>
        <duration>116</duration>
        <rate><timebase>30</timebase></rate>
        <start>16375</start>
        <end>16491</end>
        <in>0</in>
        <out>116</out>
        <file id="file-3">
          <name>char_14385_12675.webp</name>
          <pathurl>file://localhost/C:/PROJECT_ROOT/assets/char_14385_12675.webp</pathurl>
          <rate><timebase>30</timebase></rate>
          <media>
             <video>
                <samplecharacteristics>
                  <width>1920</width>
                  <height>1080</height>
                  <pixelaspectratio>square</pixelaspectratio>
                </samplecharacteristics>
             </video>
             
          </media>
        </file>
        
            <filter>
              <effect>
                <name>Basic Motion</name>
                <effectid>basic</effectid>
                <effectcategory>motion</effectcategory>
                <effecttype>motion</effecttype>
                <mediatype>video</mediatype>
                <parameter>
                  <parameterid>scale</parameterid>
                  <name>Scale</name>
                  <valuemin>0</valuemin>
                  <valuemax>1000</valuemax>
                  <value>50</value>
                </parameter>
                <parameter>
                  <parameterid>center</parameterid>
                  <name>Center</name>
                  <value>
                    <horiz>0.00000</horiz>
                    <vert>0.05000</vert>
                  </value>
                </parameter>
              </effect>
            </filter>
      </clipitem>

      <clipitem id="clipitem-123">
        <name>Fig 113270</name>
        <duration>115</duration>
        <rate><timebase>30</timebase></rate>
        <start>16491</start>
        <end>16606</end>
        <in>0</in>
        <out>115</out>
        <file id="file-89">
          <name>char_14384_12672.webp</name>
          <pathurl>file://localhost/C:/PROJECT_ROOT/assets/char_14384_12672.webp</pathurl>
          <rate><timebase>30</timebase></rate>
          <media>
             <video>
                <samplecharacteristics>
                  <width>1920</width>
                  <height>1080</height>
                  <pixelaspectratio>square</pixelaspectratio>
                </samplecharacteristics>
             </video>
             
          </media>
        </file>
        
            <filter>
              <effect>
                <name>Basic Motion</name>
                <effectid>basic</effectid>
                <effectcategory>motion</effectcategory>
                <effecttype>motion</effecttype>
                <mediatype>video</mediatype>
                <parameter>
                  <parameterid>scale</parameterid>
                  <name>Scale</name>
                  <valuemin>0</valuemin>
                  <valuemax>1000</valuemax>
                  <value>100</value>
                </parameter>
                <parameter>
                  <parameterid>center</parameterid>
                  <name>Center</name>
                  <value>
                    <horiz>0.00000</horiz>
                    <vert>0.05000</vert>
                  </value>
                </parameter>
              </effect>
            </filter>
      </clipitem>

      <clipitem id="clipitem-125">
        <name>Fig 113274</name>
        <duration>179</duration>
        <rate><timebase>30</timebase></rate>
        <start>16606</start>
        <end>16785</end>
        <in>0</in>
        <out>179</out>
        <file id="file-3">
          <name>char_14385_12675.webp</name>
          <pathurl>file://localhost/C:/PROJECT_ROOT/assets/char_14385_12675.webp</pathurl>
          <rate><timebase>30</timebase></rate>
          <media>
             <video>
                <samplecharacteristics>
                  <width>1920</width>
                  <height>1080</height>
                  <pixelaspectratio>square</pixelaspectratio>
                </samplecharacteristics>
             </video>
             
          </media>
        </file>
        
            <filter>
              <effect>
                <name>Basic Motion</name>
                <effectid>basic</effectid>
                <effectcategory>motion</effectcategory>
                <effecttype>motion</effecttype>
                <mediatype>video</mediatype>
                <parameter>
                  <parameterid>scale</parameterid>
                  <name>Scale</name>
                  <valuemin>0</valuemin>
                  <valuemax>1000</valuemax>
                  <value>50</value>
                </parameter>
                <parameter>
                  <parameterid>center</parameterid>
                  <name>Center</name>
                  <value>
                    <horiz>0.00000</horiz>
                    <vert>0.05000</vert>
                  </value>
                </parameter>
              </effect>
            </filter>
      </clipitem>

      <clipitem id="clipitem-129">
        <name>Fig 113273</name>
        <duration>102</duration>
        <rate><timebase>30</timebase></rate>
        <start>16893</start>
        <end>16995</end>
        <in>0</in>
        <out>102</out>
        <file id="file-89">
          <name>char_14384_12672.webp</name>
          <pathurl>file://localhost/C:/PROJECT_ROOT/assets/char_14384_12672.webp</pathurl>
          <rate><timebase>30</timebase></rate>
          <media>
             <video>
                <samplecharacteristics>
                  <width>1920</width>
                  <height>1080</height>
                  <pixelaspectratio>square</pixelaspectratio>
                </samplecharacteristics>
             </video>
             
          </media>
        </file>
        
            <filter>
              <effect>
                <name>Basic Motion</name>
                <effectid>basic</effectid>
                <effectcategory>motion</effectcategory>
                <effecttype>motion</effecttype>
                <mediatype>video</mediatype>
                <parameter>
                  <parameterid>scale</parameterid>
                  <name>Scale</name>
                  <valuemin>0</valuemin>
                  <valuemax>1000</valuemax>
                  <value>100</value>
                </parameter>
                <parameter>
                  <parameterid>center</parameterid>
                  <name>Center</name>
                  <value>
                    <horiz>0.00000</horiz>
                    <vert>0.05000</vert>
                  </value>
                </parameter>
              </effect>
            </filter>
      </clipitem>

      <clipitem id="clipitem-131">
        <name>Fig 113275</name>
        <duration>240</duration>
        <rate><timebase>30</timebase></rate>
        <start>16995</start>
        <end>17235</end>
        <in>0</in>
        <out>240</out>
        <file id="file-3">
          <name>char_14385_12675.webp</name>
          <pathurl>file://localhost/C:/PROJECT_ROOT/assets/char_14385_12675.webp</pathurl>
          <rate><timebase>30</timebase></rate>
          <media>
             <video>
                <samplecharacteristics>
                  <width>1920</width>
                  <height>1080</height>
                  <pixelaspectratio>square</pixelaspectratio>
                </samplecharacteristics>
             </video>
             
          </media>
        </file>
        
            <filter>
              <effect>
                <name>Basic Motion</name>
                <effectid>basic</effectid>
                <effectcategory>motion</effectcategory>
                <effecttype>motion</effecttype>
                <mediatype>video</mediatype>
                <parameter>
                  <parameterid>scale</parameterid>
                  <name>Scale</name>
                  <valuemin>0</valuemin>
                  <valuemax>1000</valuemax>
                  <value>50</value>
                </parameter>
                <parameter>
                  <parameterid>center</parameterid>
                  <name>Center</name>
                  <value>
                    <horiz>0.00000</horiz>
                    <vert>0.05000</vert>
                  </value>
                </parameter>
              </effect>
            </filter>
      </clipitem>

      <clipitem id="clipitem-134">
        <name>Fig 113277</name>
        <duration>32</duration>
        <rate><timebase>30</timebase></rate>
        <start>17235</start>
        <end>17267</end>
        <in>0</in>
        <out>32</out>
        <file id="file-89">
          <name>char_14384_12672.webp</name>
          <pathurl>file://localhost/C:/PROJECT_ROOT/assets/char_14384_12672.webp</pathurl>
          <rate><timebase>30</timebase></rate>
          <media>
             <video>
                <samplecharacteristics>
                  <width>1920</width>
                  <height>1080</height>
                  <pixelaspectratio>square</pixelaspectratio>
                </samplecharacteristics>
             </video>
             
          </media>
        </file>
        
            <filter>
              <effect>
                <name>Basic Motion</name>
                <effectid>basic</effectid>
                <effectcategory>motion</effectcategory>
                <effecttype>motion</effecttype>
                <mediatype>video</mediatype>
                <parameter>
                  <parameterid>scale</parameterid>
                  <name>Scale</name>
                  <valuemin>0</valuemin>
                  <valuemax>1000</valuemax>
                  <value>100</value>
                </parameter>
                <parameter>
                  <parameterid>center</parameterid>
                  <name>Center</name>
                  <value>
                    <horiz>0.00000</horiz>
                    <vert>0.05000</vert>
                  </value>
                </parameter>
              </effect>
            </filter>
      </clipitem>

      <clipitem id="clipitem-135">
        <name>Fig 113278</name>
        <duration>172</duration>
        <rate><timebase>30</timebase></rate>
        <start>17267</start>
        <end>17439</end>
        <in>0</in>
        <out>172</out>
        <file id="file-53">
          <name>char_2_138.webp</name>
          <pathurl>file://localhost/C:/PROJECT_ROOT/assets/char_2_138.webp</pathurl>
          <rate><timebase>30</timebase></rate>
          <media>
             <video>
                <samplecharacteristics>
                  <width>1920</width>
                  <height>1080</height>
                  <pixelaspectratio>square</pixelaspectratio>
                </samplecharacteristics>
             </video>
             
          </media>
        </file>
        
            <filter>
              <effect>
                <name>Basic Motion</name>
                <effectid>basic</effectid>
                <effectcategory>motion</effectcategory>
                <effecttype>motion</effecttype>
                <mediatype>video</mediatype>
                <parameter>
                  <parameterid>scale</parameterid>
                  <name>Scale</name>
                  <valuemin>0</valuemin>
                  <valuemax>1000</valuemax>
                  <value>67.5</value>
                </parameter>
                <parameter>
                  <parameterid>center</parameterid>
                  <name>Center</name>
                  <value>
                    <horiz>0.00000</horiz>
                    <vert>0.05000</vert>
                  </value>
                </parameter>
              </effect>
            </filter>
      </clipitem>

      <clipitem id="clipitem-140">
        <name>Fig 113281</name>
        <duration>267</duration>
        <rate><timebase>30</timebase></rate>
        <start>17562</start>
        <end>17829</end>
        <in>0</in>
        <out>267</out>
        <file id="file-3">
          <name>char_14385_12675.webp</name>
          <pathurl>file://localhost/C:/PROJECT_ROOT/assets/char_14385_12675.webp</pathurl>
          <rate><timebase>30</timebase></rate>
          <media>
             <video>
                <samplecharacteristics>
                  <width>1920</width>
                  <height>1080</height>
                  <pixelaspectratio>square</pixelaspectratio>
                </samplecharacteristics>
             </video>
             
          </media>
        </file>
        
            <filter>
              <effect>
                <name>Basic Motion</name>
                <effectid>basic</effectid>
                <effectcategory>motion</effectcategory>
                <effecttype>motion</effecttype>
                <mediatype>video</mediatype>
                <parameter>
                  <parameterid>scale</parameterid>
                  <name>Scale</name>
                  <valuemin>0</valuemin>
                  <valuemax>1000</valuemax>
                  <value>50</value>
                </parameter>
                <parameter>
                  <parameterid>center</parameterid>
                  <name>Center</name>
                  <value>
                    <horiz>0.00000</horiz>
                    <vert>0.05000</vert>
                  </value>
                </parameter>
              </effect>
            </filter>
      </clipitem>

      <clipitem id="clipitem-144">
        <name>Fig 113284</name>
        <duration>34</duration>
        <rate><timebase>30</timebase></rate>
        <start>17829</start>
        <end>17863</end>
        <in>0</in>
        <out>34</out>
        <file id="file-89">
          <name>char_14384_12672.webp</name>
          <pathurl>file://localhost/C:/PROJECT_ROOT/assets/char_14384_12672.webp</pathurl>
          <rate><timebase>30</timebase></rate>
          <media>
             <video>
                <samplecharacteristics>
                  <width>1920</width>
                  <height>1080</height>
                  <pixelaspectratio>square</pixelaspectratio>
                </samplecharacteristics>
             </video>
             
          </media>
        </file>
        
            <filter>
              <effect>
                <name>Basic Motion</name>
                <effectid>basic</effectid>
                <effectcategory>motion</effectcategory>
                <effecttype>motion</effecttype>
                <mediatype>video</mediatype>
                <parameter>
                  <parameterid>scale</parameterid>
                  <name>Scale</name>
                  <valuemin>0</valuemin>
                  <valuemax>1000</valuemax>
                  <value>100</value>
                </parameter>
                <parameter>
                  <parameterid>center</parameterid>
                  <name>Center</name>
                  <value>
                    <horiz>0.00000</horiz>
                    <vert>0.05000</vert>
                  </value>
                </parameter>
              </effect>
            </filter>
      </clipitem>

      <clipitem id="clipitem-145">
        <name>Fig 113285</name>
        <duration>173</duration>
        <rate><timebase>30</timebase></rate>
        <start>17863</start>
        <end>18036</end>
        <in>0</in>
        <out>173</out>
        <file id="file-53">
          <name>char_2_138.webp</name>
          <pathurl>file://localhost/C:/PROJECT_ROOT/assets/char_2_138.webp</pathurl>
          <rate><timebase>30</timebase></rate>
          <media>
             <video>
                <samplecharacteristics>
                  <width>1920</width>
                  <height>1080</height>
                  <pixelaspectratio>square</pixelaspectratio>
                </samplecharacteristics>
             </video>
             
          </media>
        </file>
        
            <filter>
              <effect>
                <name>Basic Motion</name>
                <effectid>basic</effectid>
                <effectcategory>motion</effectcategory>
                <effecttype>motion</effecttype>
                <mediatype>video</mediatype>
                <parameter>
                  <parameterid>scale</parameterid>
                  <name>Scale</name>
                  <valuemin>0</valuemin>
                  <valuemax>1000</valuemax>
                  <value>67.5</value>
                </parameter>
                <parameter>
                  <parameterid>center</parameterid>
                  <name>Center</name>
                  <value>
                    <horiz>0.00000</horiz>
                    <vert>0.05000</vert>
                  </value>
                </parameter>
              </effect>
            </filter>
      </clipitem>

      <clipitem id="clipitem-147">
        <name>Fig 113286</name>
        <duration>133</duration>
        <rate><timebase>30</timebase></rate>
        <start>18036</start>
        <end>18169</end>
        <in>0</in>
        <out>133</out>
        <file id="file-3">
          <name>char_14385_12675.webp</name>
          <pathurl>file://localhost/C:/PROJECT_ROOT/assets/char_14385_12675.webp</pathurl>
          <rate><timebase>30</timebase></rate>
          <media>
             <video>
                <samplecharacteristics>
                  <width>1920</width>
                  <height>1080</height>
                  <pixelaspectratio>square</pixelaspectratio>
                </samplecharacteristics>
             </video>
             
          </media>
        </file>
        
            <filter>
              <effect>
                <name>Basic Motion</name>
                <effectid>basic</effectid>
                <effectcategory>motion</effectcategory>
                <effecttype>motion</effecttype>
                <mediatype>video</mediatype>
                <parameter>
                  <parameterid>scale</parameterid>
                  <name>Scale</name>
                  <valuemin>0</valuemin>
                  <valuemax>1000</valuemax>
                  <value>50</value>
                </parameter>
                <parameter>
                  <parameterid>center</parameterid>
                  <name>Center</name>
                  <value>
                    <horiz>0.00000</horiz>
                    <vert>0.05000</vert>
                  </value>
                </parameter>
              </effect>
            </filter>
      </clipitem>

      <clipitem id="clipitem-151">
        <name>Fig 113288</name>
        <duration>338</duration>
        <rate><timebase>30</timebase></rate>
        <start>18330</start>
        <end>18668</end>
        <in>0</in>
        <out>338</out>
        <file id="file-3">
          <name>char_14385_12675.webp</name>
          <pathurl>file://localhost/C:/PROJECT_ROOT/assets/char_14385_12675.webp</pathurl>
          <rate><timebase>30</timebase></rate>
          <media>
             <video>
                <samplecharacteristics>
                  <width>1920</width>
                  <height>1080</height>
                  <pixelaspectratio>square</pixelaspectratio>
                </samplecharacteristics>
             </video>
             
          </media>
        </file>
        
            <filter>
              <effect>
                <name>Basic Motion</name>
                <effectid>basic</effectid>
                <effectcategory>motion</effectcategory>
                <effecttype>motion</effecttype>
                <mediatype>video</mediatype>
                <parameter>
                  <parameterid>scale</parameterid>
                  <name>Scale</name>
                  <valuemin>0</valuemin>
                  <valuemax>1000</valuemax>
                  <value>50</value>
                </parameter>
                <parameter>
                  <parameterid>center</parameterid>
                  <name>Center</name>
                  <value>
                    <horiz>0.00000</horiz>
                    <vert>0.05000</vert>
                  </value>
                </parameter>
              </effect>
            </filter>
      </clipitem>

      <clipitem id="clipitem-156">
        <name>Fig 113291</name>
        <duration>92</duration>
        <rate><timebase>30</timebase></rate>
        <start>18810</start>
        <end>18902</end>
        <in>0</in>
        <out>92</out>
        <file id="file-3">
          <name>char_14385_12675.webp</name>
          <pathurl>file://localhost/C:/PROJECT_ROOT/assets/char_14385_12675.webp</pathurl>
          <rate><timebase>30</timebase></rate>
          <media>
             <video>
                <samplecharacteristics>
                  <width>1920</width>
                  <height>1080</height>
                  <pixelaspectratio>square</pixelaspectratio>
                </samplecharacteristics>
             </video>
             
          </media>
        </file>
        
            <filter>
              <effect>
                <name>Basic Motion</name>
                <effectid>basic</effectid>
                <effectcategory>motion</effectcategory>
                <effecttype>motion</effecttype>
                <mediatype>video</mediatype>
                <parameter>
                  <parameterid>scale</parameterid>
                  <name>Scale</name>
                  <valuemin>0</valuemin>
                  <valuemax>1000</valuemax>
                  <value>50</value>
                </parameter>
                <parameter>
                  <parameterid>center</parameterid>
                  <name>Center</name>
                  <value>
                    <horiz>0.00000</horiz>
                    <vert>0.05000</vert>
                  </value>
                </parameter>
              </effect>
            </filter>
      </clipitem>

      <clipitem id="clipitem-164">
        <name>Fig 113295</name>
        <duration>132</duration>
        <rate><timebase>30</timebase></rate>
        <start>19139</start>
        <end>19271</end>
        <in>0</in>
        <out>132</out>
        <file id="file-3">
          <name>char_14385_12675.webp</name>
          <pathurl>file://localhost/C:/PROJECT_ROOT/assets/char_14385_12675.webp</pathurl>
          <rate><timebase>30</timebase></rate>
          <media>
             <video>
                <samplecharacteristics>
                  <width>1920</width>
                  <height>1080</height>
                  <pixelaspectratio>square</pixelaspectratio>
                </samplecharacteristics>
             </video>
             
          </media>
        </file>
        
            <filter>
              <effect>
                <name>Basic Motion</name>
                <effectid>basic</effectid>
                <effectcategory>motion</effectcategory>
                <effecttype>motion</effecttype>
                <mediatype>video</mediatype>
                <parameter>
                  <parameterid>scale</parameterid>
                  <name>Scale</name>
                  <valuemin>0</valuemin>
                  <valuemax>1000</valuemax>
                  <value>50</value>
                </parameter>
                <parameter>
                  <parameterid>center</parameterid>
                  <name>Center</name>
                  <value>
                    <horiz>0.00000</horiz>
                    <vert>0.05000</vert>
                  </value>
                </parameter>
              </effect>
            </filter>
      </clipitem>

      <clipitem id="clipitem-171">
        <name>Fig 113299</name>
        <duration>57</duration>
        <rate><timebase>30</timebase></rate>
        <start>19711</start>
        <end>19768</end>
        <in>0</in>
        <out>57</out>
        <file id="file-3">
          <name>char_14385_12675.webp</name>
          <pathurl>file://localhost/C:/PROJECT_ROOT/assets/char_14385_12675.webp</pathurl>
          <rate><timebase>30</timebase></rate>
          <media>
             <video>
                <samplecharacteristics>
                  <width>1920</width>
                  <height>1080</height>
                  <pixelaspectratio>square</pixelaspectratio>
                </samplecharacteristics>
             </video>
             
          </media>
        </file>
        
            <filter>
              <effect>
                <name>Basic Motion</name>
                <effectid>basic</effectid>
                <effectcategory>motion</effectcategory>
                <effecttype>motion</effecttype>
                <mediatype>video</mediatype>
                <parameter>
                  <parameterid>scale</parameterid>
                  <name>Scale</name>
                  <valuemin>0</valuemin>
                  <valuemax>1000</valuemax>
                  <value>50</value>
                </parameter>
                <parameter>
                  <parameterid>center</parameterid>
                  <name>Center</name>
                  <value>
                    <horiz>0.00000</horiz>
                    <vert>0.05000</vert>
                  </value>
                </parameter>
              </effect>
            </filter>
      </clipitem>

      <clipitem id="clipitem-175">
        <name>Fig 113301</name>
        <duration>88</duration>
        <rate><timebase>30</timebase></rate>
        <start>19866</start>
        <end>19954</end>
        <in>0</in>
        <out>88</out>
        <file id="file-3">
          <name>char_14385_12675.webp</name>
          <pathurl>file://localhost/C:/PROJECT_ROOT/assets/char_14385_12675.webp</pathurl>
          <rate><timebase>30</timebase></rate>
          <media>
             <video>
                <samplecharacteristics>
                  <width>1920</width>
                  <height>1080</height>
                  <pixelaspectratio>square</pixelaspectratio>
                </samplecharacteristics>
             </video>
             
          </media>
        </file>
        
            <filter>
              <effect>
                <name>Basic Motion</name>
                <effectid>basic</effectid>
                <effectcategory>motion</effectcategory>
                <effecttype>motion</effecttype>
                <mediatype>video</mediatype>
                <parameter>
                  <parameterid>scale</parameterid>
                  <name>Scale</name>
                  <valuemin>0</valuemin>
                  <valuemax>1000</valuemax>
                  <value>50</value>
                </parameter>
                <parameter>
                  <parameterid>center</parameterid>
                  <name>Center</name>
                  <value>
                    <horiz>0.00000</horiz>
                    <vert>0.05000</vert>
                  </value>
                </parameter>
              </effect>
            </filter>
      </clipitem>

      <clipitem id="clipitem-183">
        <name>Fig 113305</name>
        <duration>105</duration>
        <rate><timebase>30</timebase></rate>
        <start>20103</start>
        <end>20208</end>
        <in>0</in>
        <out>105</out>
        <file id="file-3">
          <name>char_14385_12675.webp</name>
          <pathurl>file://localhost/C:/PROJECT_ROOT/assets/char_14385_12675.webp</pathurl>
          <rate><timebase>30</timebase></rate>
          <media>
             <video>
                <samplecharacteristics>
                  <width>1920</width>
                  <height>1080</height>
                  <pixelaspectratio>square</pixelaspectratio>
                </samplecharacteristics>
             </video>
             
          </media>
        </file>
        
            <filter>
              <effect>
                <name>Basic Motion</name>
                <effectid>basic</effectid>
                <effectcategory>motion</effectcategory>
                <effecttype>motion</effecttype>
                <mediatype>video</mediatype>
                <parameter>
                  <parameterid>scale</parameterid>
                  <name>Scale</name>
                  <valuemin>0</valuemin>
                  <valuemax>1000</valuemax>
                  <value>50</value>
                </parameter>
                <parameter>
                  <parameterid>center</parameterid>
                  <name>Center</name>
                  <value>
                    <horiz>0.00000</horiz>
                    <vert>0.05000</vert>
                  </value>
                </parameter>
              </effect>
            </filter>
      </clipitem>

      <clipitem id="clipitem-188">
        <name>Fig 113308</name>
        <duration>303</duration>
        <rate><timebase>30</timebase></rate>
        <start>20389</start>
        <end>20692</end>
        <in>0</in>
        <out>303</out>
        <file id="file-3">
          <name>char_14385_12675.webp</name>
          <pathurl>file://localhost/C:/PROJECT_ROOT/assets/char_14385_12675.webp</pathurl>
          <rate><timebase>30</timebase></rate>
          <media>
             <video>
                <samplecharacteristics>
                  <width>1920</width>
                  <height>1080</height>
                  <pixelaspectratio>square</pixelaspectratio>
                </samplecharacteristics>
             </video>
             
          </media>
        </file>
        
            <filter>
              <effect>
                <name>Basic Motion</name>
                <effectid>basic</effectid>
                <effectcategory>motion</effectcategory>
                <effecttype>motion</effecttype>
                <mediatype>video</mediatype>
                <parameter>
                  <parameterid>scale</parameterid>
                  <name>Scale</name>
                  <valuemin>0</valuemin>
                  <valuemax>1000</valuemax>
                  <value>50</value>
                </parameter>
                <parameter>
                  <parameterid>center</parameterid>
                  <name>Center</name>
                  <value>
                    <horiz>0.00000</horiz>
                    <vert>0.05000</vert>
                  </value>
                </parameter>
              </effect>
            </filter>
      </clipitem>

      <clipitem id="clipitem-192">
        <name>Fig 113310</name>
        <duration>135</duration>
        <rate><timebase>30</timebase></rate>
        <start>20758</start>
        <end>20893</end>
        <in>0</in>
        <out>135</out>
        <file id="file-3">
          <name>char_14385_12675.webp</name>
          <pathurl>file://localhost/C:/PROJECT_ROOT/assets/char_14385_12675.webp</pathurl>
          <rate><timebase>30</timebase></rate>
          <media>
             <video>
                <samplecharacteristics>
                  <width>1920</width>
                  <height>1080</height>
                  <pixelaspectratio>square</pixelaspectratio>
                </samplecharacteristics>
             </video>
             
          </media>
        </file>
        
            <filter>
              <effect>
                <name>Basic Motion</name>
                <effectid>basic</effectid>
                <effectcategory>motion</effectcategory>
                <effecttype>motion</effecttype>
                <mediatype>video</mediatype>
                <parameter>
                  <parameterid>scale</parameterid>
                  <name>Scale</name>
                  <valuemin>0</valuemin>
                  <valuemax>1000</valuemax>
                  <value>50</value>
                </parameter>
                <parameter>
                  <parameterid>center</parameterid>
                  <name>Center</name>
                  <value>
                    <horiz>0.00000</horiz>
                    <vert>0.05000</vert>
                  </value>
                </parameter>
              </effect>
            </filter>
      </clipitem>

      <clipitem id="clipitem-200">
        <name>Fig 113314</name>
        <duration>144</duration>
        <rate><timebase>30</timebase></rate>
        <start>21170</start>
        <end>21314</end>
        <in>0</in>
        <out>144</out>
        <file id="file-3">
          <name>char_14385_12675.webp</name>
          <pathurl>file://localhost/C:/PROJECT_ROOT/assets/char_14385_12675.webp</pathurl>
          <rate><timebase>30</timebase></rate>
          <media>
             <video>
                <samplecharacteristics>
                  <width>1920</width>
                  <height>1080</height>
                  <pixelaspectratio>square</pixelaspectratio>
                </samplecharacteristics>
             </video>
             
          </media>
        </file>
        
            <filter>
              <effect>
                <name>Basic Motion</name>
                <effectid>basic</effectid>
                <effectcategory>motion</effectcategory>
                <effecttype>motion</effecttype>
                <mediatype>video</mediatype>
                <parameter>
                  <parameterid>scale</parameterid>
                  <name>Scale</name>
                  <valuemin>0</valuemin>
                  <valuemax>1000</valuemax>
                  <value>50</value>
                </parameter>
                <parameter>
                  <parameterid>center</parameterid>
                  <name>Center</name>
                  <value>
                    <horiz>0.00000</horiz>
                    <vert>0.05000</vert>
                  </value>
                </parameter>
              </effect>
            </filter>
      </clipitem>

      <clipitem id="clipitem-202">
        <name>Fig 113315</name>
        <duration>111</duration>
        <rate><timebase>30</timebase></rate>
        <start>21314</start>
        <end>21425</end>
        <in>0</in>
        <out>111</out>
        <file id="file-133">
          <name>char_14414_12724.webp</name>
          <pathurl>file://localhost/C:/PROJECT_ROOT/assets/char_14414_12724.webp</pathurl>
          <rate><timebase>30</timebase></rate>
          <media>
             <video>
                <samplecharacteristics>
                  <width>1920</width>
                  <height>1080</height>
                  <pixelaspectratio>square</pixelaspectratio>
                </samplecharacteristics>
             </video>
             
          </media>
        </file>
        
            <filter>
              <effect>
                <name>Basic Motion</name>
                <effectid>basic</effectid>
                <effectcategory>motion</effectcategory>
                <effecttype>motion</effecttype>
                <mediatype>video</mediatype>
                <parameter>
                  <parameterid>scale</parameterid>
                  <name>Scale</name>
                  <valuemin>0</valuemin>
                  <valuemax>1000</valuemax>
                  <value>100</value>
                </parameter>
                <parameter>
                  <parameterid>center</parameterid>
                  <name>Center</name>
                  <value>
                    <horiz>0.00000</horiz>
                    <vert>0.05000</vert>
                  </value>
                </parameter>
              </effect>
            </filter>
      </clipitem>

      <clipitem id="clipitem-235">
        <name>Fig 113330</name>
        <duration>260</duration>
        <rate><timebase>30</timebase></rate>
        <start>22988</start>
        <end>23248</end>
        <in>0</in>
        <out>260</out>
        <file id="file-3">
          <name>char_14385_12675.webp</name>
          <pathurl>file://localhost/C:/PROJECT_ROOT/assets/char_14385_12675.webp</pathurl>
          <rate><timebase>30</timebase></rate>
          <media>
             <video>
                <samplecharacteristics>
                  <width>1920</width>
                  <height>1080</height>
                  <pixelaspectratio>square</pixelaspectratio>
                </samplecharacteristics>
             </video>
             
          </media>
        </file>
        
            <filter>
              <effect>
                <name>Basic Motion</name>
                <effectid>basic</effectid>
                <effectcategory>motion</effectcategory>
                <effecttype>motion</effecttype>
                <mediatype>video</mediatype>
                <parameter>
                  <parameterid>scale</parameterid>
                  <name>Scale</name>
                  <valuemin>0</valuemin>
                  <valuemax>1000</valuemax>
                  <value>50</value>
                </parameter>
                <parameter>
                  <parameterid>center</parameterid>
                  <name>Center</name>
                  <value>
                    <horiz>0.00000</horiz>
                    <vert>0.05000</vert>
                  </value>
                </parameter>
              </effect>
            </filter>
      </clipitem>

      <clipitem id="clipitem-244">
        <name>Fig 113337</name>
        <duration>220</duration>
        <rate><timebase>30</timebase></rate>
        <start>23691</start>
        <end>23911</end>
        <in>0</in>
        <out>220</out>
        <file id="file-3">
          <name>char_14385_12675.webp</name>
          <pathurl>file://localhost/C:/PROJECT_ROOT/assets/char_14385_12675.webp</pathurl>
          <rate><timebase>30</timebase></rate>
          <media>
             <video>
                <samplecharacteristics>
                  <width>1920</width>
                  <height>1080</height>
                  <pixelaspectratio>square</pixelaspectratio>
                </samplecharacteristics>
             </video>
             
          </media>
        </file>
        
            <filter>
              <effect>
                <name>Basic Motion</name>
                <effectid>basic</effectid>
                <effectcategory>motion</effectcategory>
                <effecttype>motion</effecttype>
                <mediatype>video</mediatype>
                <parameter>
                  <parameterid>scale</parameterid>
                  <name>Scale</name>
                  <valuemin>0</valuemin>
                  <valuemax>1000</valuemax>
                  <value>50</value>
                </parameter>
                <parameter>
                  <parameterid>center</parameterid>
                  <name>Center</name>
                  <value>
                    <horiz>0.00000</horiz>
                    <vert>0.05000</vert>
                  </value>
                </parameter>
              </effect>
            </filter>
      </clipitem>

      <clipitem id="clipitem-247">
        <name>Fig 113339</name>
        <duration>33</duration>
        <rate><timebase>30</timebase></rate>
        <start>23911</start>
        <end>23944</end>
        <in>0</in>
        <out>33</out>
        <file id="file-89">
          <name>char_14384_12672.webp</name>
          <pathurl>file://localhost/C:/PROJECT_ROOT/assets/char_14384_12672.webp</pathurl>
          <rate><timebase>30</timebase></rate>
          <media>
             <video>
                <samplecharacteristics>
                  <width>1920</width>
                  <height>1080</height>
                  <pixelaspectratio>square</pixelaspectratio>
                </samplecharacteristics>
             </video>
             
          </media>
        </file>
        
            <filter>
              <effect>
                <name>Basic Motion</name>
                <effectid>basic</effectid>
                <effectcategory>motion</effectcategory>
                <effecttype>motion</effecttype>
                <mediatype>video</mediatype>
                <parameter>
                  <parameterid>scale</parameterid>
                  <name>Scale</name>
                  <valuemin>0</valuemin>
                  <valuemax>1000</valuemax>
                  <value>100</value>
                </parameter>
                <parameter>
                  <parameterid>center</parameterid>
                  <name>Center</name>
                  <value>
                    <horiz>0.00000</horiz>
                    <vert>0.05000</vert>
                  </value>
                </parameter>
              </effect>
            </filter>
      </clipitem>

      <clipitem id="clipitem-248">
        <name>Fig 113340</name>
        <duration>172</duration>
        <rate><timebase>30</timebase></rate>
        <start>23944</start>
        <end>24116</end>
        <in>0</in>
        <out>172</out>
        <file id="file-53">
          <name>char_2_138.webp</name>
          <pathurl>file://localhost/C:/PROJECT_ROOT/assets/char_2_138.webp</pathurl>
          <rate><timebase>30</timebase></rate>
          <media>
             <video>
                <samplecharacteristics>
                  <width>1920</width>
                  <height>1080</height>
                  <pixelaspectratio>square</pixelaspectratio>
                </samplecharacteristics>
             </video>
             
          </media>
        </file>
        
            <filter>
              <effect>
                <name>Basic Motion</name>
                <effectid>basic</effectid>
                <effectcategory>motion</effectcategory>
                <effecttype>motion</effecttype>
                <mediatype>video</mediatype>
                <parameter>
                  <parameterid>scale</parameterid>
                  <name>Scale</name>
                  <valuemin>0</valuemin>
                  <valuemax>1000</valuemax>
                  <value>67.5</value>
                </parameter>
                <parameter>
                  <parameterid>center</parameterid>
                  <name>Center</name>
                  <value>
                    <horiz>0.00000</horiz>
                    <vert>0.05000</vert>
                  </value>
                </parameter>
              </effect>
            </filter>
      </clipitem>

      <clipitem id="clipitem-252">
        <name>Fig 113342</name>
        <duration>192</duration>
        <rate><timebase>30</timebase></rate>
        <start>24223</start>
        <end>24415</end>
        <in>0</in>
        <out>192</out>
        <file id="file-3">
          <name>char_14385_12675.webp</name>
          <pathurl>file://localhost/C:/PROJECT_ROOT/assets/char_14385_12675.webp</pathurl>
          <rate><timebase>30</timebase></rate>
          <media>
             <video>
                <samplecharacteristics>
                  <width>1920</width>
                  <height>1080</height>
                  <pixelaspectratio>square</pixelaspectratio>
                </samplecharacteristics>
             </video>
             
          </media>
        </file>
        
            <filter>
              <effect>
                <name>Basic Motion</name>
                <effectid>basic</effectid>
                <effectcategory>motion</effectcategory>
                <effecttype>motion</effecttype>
                <mediatype>video</mediatype>
                <parameter>
                  <parameterid>scale</parameterid>
                  <name>Scale</name>
                  <valuemin>0</valuemin>
                  <valuemax>1000</valuemax>
                  <value>50</value>
                </parameter>
                <parameter>
                  <parameterid>center</parameterid>
                  <name>Center</name>
                  <value>
                    <horiz>0.00000</horiz>
                    <vert>0.05000</vert>
                  </value>
                </parameter>
              </effect>
            </filter>
      </clipitem>

      <clipitem id="clipitem-254">
        <name>Fig 113343</name>
        <duration>100</duration>
        <rate><timebase>30</timebase></rate>
        <start>24415</start>
        <end>24515</end>
        <in>0</in>
        <out>100</out>
        <file id="file-133">
          <name>char_14414_12724.webp</name>
          <pathurl>file://localhost/C:/PROJECT_ROOT/assets/char_14414_12724.webp</pathurl>
          <rate><timebase>30</timebase></rate>
          <media>
             <video>
                <samplecharacteristics>
                  <width>1920</width>
                  <height>1080</height>
                  <pixelaspectratio>square</pixelaspectratio>
                </samplecharacteristics>
             </video>
             
          </media>
        </file>
        
            <filter>
              <effect>
                <name>Basic Motion</name>
                <effectid>basic</effectid>
                <effectcategory>motion</effectcategory>
                <effecttype>motion</effecttype>
                <mediatype>video</mediatype>
                <parameter>
                  <parameterid>scale</parameterid>
                  <name>Scale</name>
                  <valuemin>0</valuemin>
                  <valuemax>1000</valuemax>
                  <value>100</value>
                </parameter>
                <parameter>
                  <parameterid>center</parameterid>
                  <name>Center</name>
                  <value>
                    <horiz>0.00000</horiz>
                    <vert>0.05000</vert>
                  </value>
                </parameter>
              </effect>
            </filter>
      </clipitem>

      <clipitem id="clipitem-256">
        <name>Fig 113344</name>
        <duration>1019</duration>
        <rate><timebase>30</timebase></rate>
        <start>24515</start>
        <end>25534</end>
        <in>0</in>
        <out>1019</out>
        <file id="file-3">
          <name>char_14385_12675.webp</name>
          <pathurl>file://localhost/C:/PROJECT_ROOT/assets/char_14385_12675.webp</pathurl>
          <rate><timebase>30</timebase></rate>
          <media>
             <video>
                <samplecharacteristics>
                  <width>1920</width>
                  <height>1080</height>
                  <pixelaspectratio>square</pixelaspectratio>
                </samplecharacteristics>
             </video>
             
          </media>
        </file>
        
            <filter>
              <effect>
                <name>Basic Motion</name>
                <effectid>basic</effectid>
                <effectcategory>motion</effectcategory>
                <effecttype>motion</effecttype>
                <mediatype>video</mediatype>
                <parameter>
                  <parameterid>scale</parameterid>
                  <name>Scale</name>
                  <valuemin>0</valuemin>
                  <valuemax>1000</valuemax>
                  <value>50</value>
                </parameter>
                <parameter>
                  <parameterid>center</parameterid>
                  <name>Center</name>
                  <value>
                    <horiz>0.00000</horiz>
                    <vert>0.05000</vert>
                  </value>
                </parameter>
              </effect>
            </filter>
      </clipitem>

      <clipitem id="clipitem-268">
        <name>Fig 113351</name>
        <duration>71</duration>
        <rate><timebase>30</timebase></rate>
        <start>25980</start>
        <end>26051</end>
        <in>0</in>
        <out>71</out>
        <file id="file-3">
          <name>char_14385_12675.webp</name>
          <pathurl>file://localhost/C:/PROJECT_ROOT/assets/char_14385_12675.webp</pathurl>
          <rate><timebase>30</timebase></rate>
          <media>
             <video>
                <samplecharacteristics>
                  <width>1920</width>
                  <height>1080</height>
                  <pixelaspectratio>square</pixelaspectratio>
                </samplecharacteristics>
             </video>
             
          </media>
        </file>
        
            <filter>
              <effect>
                <name>Basic Motion</name>
                <effectid>basic</effectid>
                <effectcategory>motion</effectcategory>
                <effecttype>motion</effecttype>
                <mediatype>video</mediatype>
                <parameter>
                  <parameterid>scale</parameterid>
                  <name>Scale</name>
                  <valuemin>0</valuemin>
                  <valuemax>1000</valuemax>
                  <value>50</value>
                </parameter>
                <parameter>
                  <parameterid>center</parameterid>
                  <name>Center</name>
                  <value>
                    <horiz>0.00000</horiz>
                    <vert>0.05000</vert>
                  </value>
                </parameter>
              </effect>
            </filter>
      </clipitem>

      <clipitem id="clipitem-272">
        <name>Fig 113354</name>
        <duration>152</duration>
        <rate><timebase>30</timebase></rate>
        <start>26085</start>
        <end>26237</end>
        <in>0</in>
        <out>152</out>
        <file id="file-3">
          <name>char_14385_12675.webp</name>
          <pathurl>file://localhost/C:/PROJECT_ROOT/assets/char_14385_12675.webp</pathurl>
          <rate><timebase>30</timebase></rate>
          <media>
             <video>
                <samplecharacteristics>
                  <width>1920</width>
                  <height>1080</height>
                  <pixelaspectratio>square</pixelaspectratio>
                </samplecharacteristics>
             </video>
             
          </media>
        </file>
        
            <filter>
              <effect>
                <name>Basic Motion</name>
                <effectid>basic</effectid>
                <effectcategory>motion</effectcategory>
                <effecttype>motion</effecttype>
                <mediatype>video</mediatype>
                <parameter>
                  <parameterid>scale</parameterid>
                  <name>Scale</name>
                  <valuemin>0</valuemin>
                  <valuemax>1000</valuemax>
                  <value>50</value>
                </parameter>
                <parameter>
                  <parameterid>center</parameterid>
                  <name>Center</name>
                  <value>
                    <horiz>0.00000</horiz>
                    <vert>0.05000</vert>
                  </value>
                </parameter>
              </effect>
            </filter>
      </clipitem>

      <clipitem id="clipitem-280">
        <name>Fig 113358</name>
        <duration>235</duration>
        <rate><timebase>30</timebase></rate>
        <start>26572</start>
        <end>26807</end>
        <in>0</in>
        <out>235</out>
        <file id="file-1">
          <name>char_14383_12670.webp</name>
          <pathurl>file://localhost/C:/PROJECT_ROOT/assets/char_14383_12670.webp</pathurl>
          <rate><timebase>30</timebase></rate>
          <media>
             <video>
                <samplecharacteristics>
                  <width>1920</width>
                  <height>1080</height>
                  <pixelaspectratio>square</pixelaspectratio>
                </samplecharacteristics>
             </video>
             
          </media>
        </file>
        
            <filter>
              <effect>
                <name>Basic Motion</name>
                <effectid>basic</effectid>
                <effectcategory>motion</effectcategory>
                <effecttype>motion</effecttype>
                <mediatype>video</mediatype>
                <parameter>
                  <parameterid>scale</parameterid>
                  <name>Scale</name>
                  <valuemin>0</valuemin>
                  <valuemax>1000</valuemax>
                  <value>100</value>
                </parameter>
                <parameter>
                  <parameterid>center</parameterid>
                  <name>Center</name>
                  <value>
                    <horiz>0.00000</horiz>
                    <vert>0.05000</vert>
                  </value>
                </parameter>
              </effect>
            </filter>
      </clipitem>

      <clipitem id="clipitem-286">
        <name>Fig 113364</name>
        <duration>194</duration>
        <rate><timebase>30</timebase></rate>
        <start>27019</start>
        <end>27213</end>
        <in>0</in>
        <out>194</out>
        <file id="file-1">
          <name>char_14383_12670.webp</name>
          <pathurl>file://localhost/C:/PROJECT_ROOT/assets/char_14383_12670.webp</pathurl>
          <rate><timebase>30</timebase></rate>
          <media>
             <video>
                <samplecharacteristics>
                  <width>1920</width>
                  <height>1080</height>
                  <pixelaspectratio>square</pixelaspectratio>
                </samplecharacteristics>
             </video>
             
          </media>
        </file>
        
            <filter>
              <effect>
                <name>Basic Motion</name>
                <effectid>basic</effectid>
                <effectcategory>motion</effectcategory>
                <effecttype>motion</effecttype>
                <mediatype>video</mediatype>
                <parameter>
                  <parameterid>scale</parameterid>
                  <name>Scale</name>
                  <valuemin>0</valuemin>
                  <valuemax>1000</valuemax>
                  <value>100</value>
                </parameter>
                <parameter>
                  <parameterid>center</parameterid>
                  <name>Center</name>
                  <value>
                    <horiz>0.00000</horiz>
                    <vert>0.05000</vert>
                  </value>
                </parameter>
              </effect>
            </filter>
      </clipitem>

      <clipitem id="clipitem-293">
        <name>Fig 113524</name>
        <duration>157</duration>
        <rate><timebase>30</timebase></rate>
        <start>27565</start>
        <end>27722</end>
        <in>0</in>
        <out>157</out>
        <file id="file-194">
          <name>char_14383_13034.webp</name>
          <pathurl>file://localhost/C:/PROJECT_ROOT/assets/char_14383_13034.webp</pathurl>
          <rate><timebase>30</timebase></rate>
          <media>
             <video>
                <samplecharacteristics>
                  <width>1920</width>
                  <height>1080</height>
                  <pixelaspectratio>square</pixelaspectratio>
                </samplecharacteristics>
             </video>
             
          </media>
        </file>
        
            <filter>
              <effect>
                <name>Basic Motion</name>
                <effectid>basic</effectid>
                <effectcategory>motion</effectcategory>
                <effecttype>motion</effecttype>
                <mediatype>video</mediatype>
                <parameter>
                  <parameterid>scale</parameterid>
                  <name>Scale</name>
                  <valuemin>0</valuemin>
                  <valuemax>1000</valuemax>
                  <value>150</value>
                </parameter>
                <parameter>
                  <parameterid>center</parameterid>
                  <name>Center</name>
                  <value>
                    <horiz>0.00000</horiz>
                    <vert>0.05000</vert>
                  </value>
                </parameter>
              </effect>
            </filter>
      </clipitem>

      <clipitem id="clipitem-297">
        <name>Fig 113367</name>
        <duration>144</duration>
        <rate><timebase>30</timebase></rate>
        <start>27862</start>
        <end>28006</end>
        <in>0</in>
        <out>144</out>
        <file id="file-1">
          <name>char_14383_12670.webp</name>
          <pathurl>file://localhost/C:/PROJECT_ROOT/assets/char_14383_12670.webp</pathurl>
          <rate><timebase>30</timebase></rate>
          <media>
             <video>
                <samplecharacteristics>
                  <width>1920</width>
                  <height>1080</height>
                  <pixelaspectratio>square</pixelaspectratio>
                </samplecharacteristics>
             </video>
             
          </media>
        </file>
        
            <filter>
              <effect>
                <name>Basic Motion</name>
                <effectid>basic</effectid>
                <effectcategory>motion</effectcategory>
                <effecttype>motion</effecttype>
                <mediatype>video</mediatype>
                <parameter>
                  <parameterid>scale</parameterid>
                  <name>Scale</name>
                  <valuemin>0</valuemin>
                  <valuemax>1000</valuemax>
                  <value>100</value>
                </parameter>
                <parameter>
                  <parameterid>center</parameterid>
                  <name>Center</name>
                  <value>
                    <horiz>0.00000</horiz>
                    <vert>0.05000</vert>
                  </value>
                </parameter>
              </effect>
            </filter>
      </clipitem>

      <clipitem id="clipitem-299">
        <name>Fig 113368</name>
        <duration>35</duration>
        <rate><timebase>30</timebase></rate>
        <start>28006</start>
        <end>28041</end>
        <in>0</in>
        <out>35</out>
        <file id="file-89">
          <name>char_14384_12672.webp</name>
          <pathurl>file://localhost/C:/PROJECT_ROOT/assets/char_14384_12672.webp</pathurl>
          <rate><timebase>30</timebase></rate>
          <media>
             <video>
                <samplecharacteristics>
                  <width>1920</width>
                  <height>1080</height>
                  <pixelaspectratio>square</pixelaspectratio>
                </samplecharacteristics>
             </video>
             
          </media>
        </file>
        
            <filter>
              <effect>
                <name>Basic Motion</name>
                <effectid>basic</effectid>
                <effectcategory>motion</effectcategory>
                <effecttype>motion</effecttype>
                <mediatype>video</mediatype>
                <parameter>
                  <parameterid>scale</parameterid>
                  <name>Scale</name>
                  <valuemin>0</valuemin>
                  <valuemax>1000</valuemax>
                  <value>100</value>
                </parameter>
                <parameter>
                  <parameterid>center</parameterid>
                  <name>Center</name>
                  <value>
                    <horiz>0.00000</horiz>
                    <vert>0.05000</vert>
                  </value>
                </parameter>
              </effect>
            </filter>
      </clipitem>

      <clipitem id="clipitem-301">
        <name>Fig 113369</name>
        <duration>148</duration>
        <rate><timebase>30</timebase></rate>
        <start>28041</start>
        <end>28189</end>
        <in>0</in>
        <out>148</out>
        <file id="file-133">
          <name>char_14414_12724.webp</name>
          <pathurl>file://localhost/C:/PROJECT_ROOT/assets/char_14414_12724.webp</pathurl>
          <rate><timebase>30</timebase></rate>
          <media>
             <video>
                <samplecharacteristics>
                  <width>1920</width>
                  <height>1080</height>
                  <pixelaspectratio>square</pixelaspectratio>
                </samplecharacteristics>
             </video>
             
          </media>
        </file>
        
            <filter>
              <effect>
                <name>Basic Motion</name>
                <effectid>basic</effectid>
                <effectcategory>motion</effectcategory>
                <effecttype>motion</effecttype>
                <mediatype>video</mediatype>
                <parameter>
                  <parameterid>scale</parameterid>
                  <name>Scale</name>
                  <valuemin>0</valuemin>
                  <valuemax>1000</valuemax>
                  <value>100</value>
                </parameter>
                <parameter>
                  <parameterid>center</parameterid>
                  <name>Center</name>
                  <value>
                    <horiz>0.00000</horiz>
                    <vert>0.05000</vert>
                  </value>
                </parameter>
              </effect>
            </filter>
      </clipitem>

      <clipitem id="clipitem-305">
        <name>Fig 113374</name>
        <duration>277</duration>
        <rate><timebase>30</timebase></rate>
        <start>28281</start>
        <end>28558</end>
        <in>0</in>
        <out>277</out>
        <file id="file-133">
          <name>char_14414_12724.webp</name>
          <pathurl>file://localhost/C:/PROJECT_ROOT/assets/char_14414_12724.webp</pathurl>
          <rate><timebase>30</timebase></rate>
          <media>
             <video>
                <samplecharacteristics>
                  <width>1920</width>
                  <height>1080</height>
                  <pixelaspectratio>square</pixelaspectratio>
                </samplecharacteristics>
             </video>
             
          </media>
        </file>
        
            <filter>
              <effect>
                <name>Basic Motion</name>
                <effectid>basic</effectid>
                <effectcategory>motion</effectcategory>
                <effecttype>motion</effecttype>
                <mediatype>video</mediatype>
                <parameter>
                  <parameterid>scale</parameterid>
                  <name>Scale</name>
                  <valuemin>0</valuemin>
                  <valuemax>1000</valuemax>
                  <value>100</value>
                </parameter>
                <parameter>
                  <parameterid>center</parameterid>
                  <name>Center</name>
                  <value>
                    <horiz>0.00000</horiz>
                    <vert>0.05000</vert>
                  </value>
                </parameter>
              </effect>
            </filter>
      </clipitem>

      <clipitem id="clipitem-307">
        <name>Fig 113370</name>
        <duration>151</duration>
        <rate><timebase>30</timebase></rate>
        <start>28558</start>
        <end>28709</end>
        <in>0</in>
        <out>151</out>
        <file id="file-89">
          <name>char_14384_12672.webp</name>
          <pathurl>file://localhost/C:/PROJECT_ROOT/assets/char_14384_12672.webp</pathurl>
          <rate><timebase>30</timebase></rate>
          <media>
             <video>
                <samplecharacteristics>
                  <width>1920</width>
                  <height>1080</height>
                  <pixelaspectratio>square</pixelaspectratio>
                </samplecharacteristics>
             </video>
             
          </media>
        </file>
        
            <filter>
              <effect>
                <name>Basic Motion</name>
                <effectid>basic</effectid>
                <effectcategory>motion</effectcategory>
                <effecttype>motion</effecttype>
                <mediatype>video</mediatype>
                <parameter>
                  <parameterid>scale</parameterid>
                  <name>Scale</name>
                  <valuemin>0</valuemin>
                  <valuemax>1000</valuemax>
                  <value>100</value>
                </parameter>
                <parameter>
                  <parameterid>center</parameterid>
                  <name>Center</name>
                  <value>
                    <horiz>0.00000</horiz>
                    <vert>0.05000</vert>
                  </value>
                </parameter>
              </effect>
            </filter>
      </clipitem>

      <clipitem id="clipitem-316">
        <name>Fig 113377</name>
        <duration>159</duration>
        <rate><timebase>30</timebase></rate>
        <start>29298</start>
        <end>29457</end>
        <in>0</in>
        <out>159</out>
        <file id="file-133">
          <name>char_14414_12724.webp</name>
          <pathurl>file://localhost/C:/PROJECT_ROOT/assets/char_14414_12724.webp</pathurl>
          <rate><timebase>30</timebase></rate>
          <media>
             <video>
                <samplecharacteristics>
                  <width>1920</width>
                  <height>1080</height>
                  <pixelaspectratio>square</pixelaspectratio>
                </samplecharacteristics>
             </video>
             
          </media>
        </file>
        
            <filter>
              <effect>
                <name>Basic Motion</name>
                <effectid>basic</effectid>
                <effectcategory>motion</effectcategory>
                <effecttype>motion</effecttype>
                <mediatype>video</mediatype>
                <parameter>
                  <parameterid>scale</parameterid>
                  <name>Scale</name>
                  <valuemin>0</valuemin>
                  <valuemax>1000</valuemax>
                  <value>100</value>
                </parameter>
                <parameter>
                  <parameterid>center</parameterid>
                  <name>Center</name>
                  <value>
                    <horiz>0.00000</horiz>
                    <vert>0.05000</vert>
                  </value>
                </parameter>
              </effect>
            </filter>
      </clipitem>

      <clipitem id="clipitem-318">
        <name>Fig 113378</name>
        <duration>62</duration>
        <rate><timebase>30</timebase></rate>
        <start>29457</start>
        <end>29519</end>
        <in>0</in>
        <out>62</out>
        <file id="file-1">
          <name>char_14383_12670.webp</name>
          <pathurl>file://localhost/C:/PROJECT_ROOT/assets/char_14383_12670.webp</pathurl>
          <rate><timebase>30</timebase></rate>
          <media>
             <video>
                <samplecharacteristics>
                  <width>1920</width>
                  <height>1080</height>
                  <pixelaspectratio>square</pixelaspectratio>
                </samplecharacteristics>
             </video>
             
          </media>
        </file>
        
            <filter>
              <effect>
                <name>Basic Motion</name>
                <effectid>basic</effectid>
                <effectcategory>motion</effectcategory>
                <effecttype>motion</effecttype>
                <mediatype>video</mediatype>
                <parameter>
                  <parameterid>scale</parameterid>
                  <name>Scale</name>
                  <valuemin>0</valuemin>
                  <valuemax>1000</valuemax>
                  <value>100</value>
                </parameter>
                <parameter>
                  <parameterid>center</parameterid>
                  <name>Center</name>
                  <value>
                    <horiz>0.00000</horiz>
                    <vert>0.05000</vert>
                  </value>
                </parameter>
              </effect>
            </filter>
      </clipitem>

      <clipitem id="clipitem-320">
        <name>Fig 113379</name>
        <duration>258</duration>
        <rate><timebase>30</timebase></rate>
        <start>29519</start>
        <end>29777</end>
        <in>0</in>
        <out>258</out>
        <file id="file-3">
          <name>char_14385_12675.webp</name>
          <pathurl>file://localhost/C:/PROJECT_ROOT/assets/char_14385_12675.webp</pathurl>
          <rate><timebase>30</timebase></rate>
          <media>
             <video>
                <samplecharacteristics>
                  <width>1920</width>
                  <height>1080</height>
                  <pixelaspectratio>square</pixelaspectratio>
                </samplecharacteristics>
             </video>
             
          </media>
        </file>
        
            <filter>
              <effect>
                <name>Basic Motion</name>
                <effectid>basic</effectid>
                <effectcategory>motion</effectcategory>
                <effecttype>motion</effecttype>
                <mediatype>video</mediatype>
                <parameter>
                  <parameterid>scale</parameterid>
                  <name>Scale</name>
                  <valuemin>0</valuemin>
                  <valuemax>1000</valuemax>
                  <value>50</value>
                </parameter>
                <parameter>
                  <parameterid>center</parameterid>
                  <name>Center</name>
                  <value>
                    <horiz>0.00000</horiz>
                    <vert>0.05000</vert>
                  </value>
                </parameter>
              </effect>
            </filter>
      </clipitem>

      <clipitem id="clipitem-337">
        <name>Fig 113388</name>
        <duration>185</duration>
        <rate><timebase>30</timebase></rate>
        <start>31200</start>
        <end>31385</end>
        <in>0</in>
        <out>185</out>
        <file id="file-3">
          <name>char_14385_12675.webp</name>
          <pathurl>file://localhost/C:/PROJECT_ROOT/assets/char_14385_12675.webp</pathurl>
          <rate><timebase>30</timebase></rate>
          <media>
             <video>
                <samplecharacteristics>
                  <width>1920</width>
                  <height>1080</height>
                  <pixelaspectratio>square</pixelaspectratio>
                </samplecharacteristics>
             </video>
             
          </media>
        </file>
        
            <filter>
              <effect>
                <name>Basic Motion</name>
                <effectid>basic</effectid>
                <effectcategory>motion</effectcategory>
                <effecttype>motion</effecttype>
                <mediatype>video</mediatype>
                <parameter>
                  <parameterid>scale</parameterid>
                  <name>Scale</name>
                  <valuemin>0</valuemin>
                  <valuemax>1000</valuemax>
                  <value>50</value>
                </parameter>
                <parameter>
                  <parameterid>center</parameterid>
                  <name>Center</name>
                  <value>
                    <horiz>0.00000</horiz>
                    <vert>0.05000</vert>
                  </value>
                </parameter>
              </effect>
            </filter>
      </clipitem>

      <clipitem id="clipitem-344">
        <name>Fig 113392</name>
        <duration>975</duration>
        <rate><timebase>30</timebase></rate>
        <start>31922</start>
        <end>32897</end>
        <in>0</in>
        <out>975</out>
        <file id="file-3">
          <name>char_14385_12675.webp</name>
          <pathurl>file://localhost/C:/PROJECT_ROOT/assets/char_14385_12675.webp</pathurl>
          <rate><timebase>30</timebase></rate>
          <media>
             <video>
                <samplecharacteristics>
                  <width>1920</width>
                  <height>1080</height>
                  <pixelaspectratio>square</pixelaspectratio>
                </samplecharacteristics>
             </video>
             
          </media>
        </file>
        
            <filter>
              <effect>
                <name>Basic Motion</name>
                <effectid>basic</effectid>
                <effectcategory>motion</effectcategory>
                <effecttype>motion</effecttype>
                <mediatype>video</mediatype>
                <parameter>
                  <parameterid>scale</parameterid>
                  <name>Scale</name>
                  <valuemin>0</valuemin>
                  <valuemax>1000</valuemax>
                  <value>50</value>
                </parameter>
                <parameter>
                  <parameterid>center</parameterid>
                  <name>Center</name>
                  <value>
                    <horiz>0.00000</horiz>
                    <vert>0.05000</vert>
                  </value>
                </parameter>
              </effect>
            </filter>
      </clipitem>

      <clipitem id="clipitem-351">
        <name>Fig 113398</name>
        <duration>73</duration>
        <rate><timebase>30</timebase></rate>
        <start>32897</start>
        <end>32970</end>
        <in>0</in>
        <out>73</out>
        <file id="file-1">
          <name>char_14383_12670.webp</name>
          <pathurl>file://localhost/C:/PROJECT_ROOT/assets/char_14383_12670.webp</pathurl>
          <rate><timebase>30</timebase></rate>
          <media>
             <video>
                <samplecharacteristics>
                  <width>1920</width>
                  <height>1080</height>
                  <pixelaspectratio>square</pixelaspectratio>
                </samplecharacteristics>
             </video>
             
          </media>
        </file>
        
            <filter>
              <effect>
                <name>Basic Motion</name>
                <effectid>basic</effectid>
                <effectcategory>motion</effectcategory>
                <effecttype>motion</effecttype>
                <mediatype>video</mediatype>
                <parameter>
                  <parameterid>scale</parameterid>
                  <name>Scale</name>
                  <valuemin>0</valuemin>
                  <valuemax>1000</valuemax>
                  <value>100</value>
                </parameter>
                <parameter>
                  <parameterid>center</parameterid>
                  <name>Center</name>
                  <value>
                    <horiz>0.00000</horiz>
                    <vert>0.05000</vert>
                  </value>
                </parameter>
              </effect>
            </filter>
      </clipitem>

      <clipitem id="clipitem-352">
        <name>Fig 113399</name>
        <duration>195</duration>
        <rate><timebase>30</timebase></rate>
        <start>32970</start>
        <end>33165</end>
        <in>0</in>
        <out>195</out>
        <file id="file-53">
          <name>char_2_138.webp</name>
          <pathurl>file://localhost/C:/PROJECT_ROOT/assets/char_2_138.webp</pathurl>
          <rate><timebase>30</timebase></rate>
          <media>
             <video>
                <samplecharacteristics>
                  <width>1920</width>
                  <height>1080</height>
                  <pixelaspectratio>square</pixelaspectratio>
                </samplecharacteristics>
             </video>
             
          </media>
        </file>
        
            <filter>
              <effect>
                <name>Basic Motion</name>
                <effectid>basic</effectid>
                <effectcategory>motion</effectcategory>
                <effecttype>motion</effecttype>
                <mediatype>video</mediatype>
                <parameter>
                  <parameterid>scale</parameterid>
                  <name>Scale</name>
                  <valuemin>0</valuemin>
                  <valuemax>1000</valuemax>
                  <value>67.5</value>
                </parameter>
                <parameter>
                  <parameterid>center</parameterid>
                  <name>Center</name>
                  <value>
                    <horiz>0.00000</horiz>
                    <vert>0.05000</vert>
                  </value>
                </parameter>
              </effect>
            </filter>
      </clipitem>

      <clipitem id="clipitem-358">
        <name>Fig 113402</name>
        <duration>38</duration>
        <rate><timebase>30</timebase></rate>
        <start>33243</start>
        <end>33281</end>
        <in>0</in>
        <out>38</out>
        <file id="file-89">
          <name>char_14384_12672.webp</name>
          <pathurl>file://localhost/C:/PROJECT_ROOT/assets/char_14384_12672.webp</pathurl>
          <rate><timebase>30</timebase></rate>
          <media>
             <video>
                <samplecharacteristics>
                  <width>1920</width>
                  <height>1080</height>
                  <pixelaspectratio>square</pixelaspectratio>
                </samplecharacteristics>
             </video>
             
          </media>
        </file>
        
            <filter>
              <effect>
                <name>Basic Motion</name>
                <effectid>basic</effectid>
                <effectcategory>motion</effectcategory>
                <effecttype>motion</effecttype>
                <mediatype>video</mediatype>
                <parameter>
                  <parameterid>scale</parameterid>
                  <name>Scale</name>
                  <valuemin>0</valuemin>
                  <valuemax>1000</valuemax>
                  <value>100</value>
                </parameter>
                <parameter>
                  <parameterid>center</parameterid>
                  <name>Center</name>
                  <value>
                    <horiz>0.00000</horiz>
                    <vert>0.05000</vert>
                  </value>
                </parameter>
              </effect>
            </filter>
      </clipitem>

      <clipitem id="clipitem-359">
        <name>Fig 113403</name>
        <duration>172</duration>
        <rate><timebase>30</timebase></rate>
        <start>33281</start>
        <end>33453</end>
        <in>0</in>
        <out>172</out>
        <file id="file-53">
          <name>char_2_138.webp</name>
          <pathurl>file://localhost/C:/PROJECT_ROOT/assets/char_2_138.webp</pathurl>
          <rate><timebase>30</timebase></rate>
          <media>
             <video>
                <samplecharacteristics>
                  <width>1920</width>
                  <height>1080</height>
                  <pixelaspectratio>square</pixelaspectratio>
                </samplecharacteristics>
             </video>
             
          </media>
        </file>
        
            <filter>
              <effect>
                <name>Basic Motion</name>
                <effectid>basic</effectid>
                <effectcategory>motion</effectcategory>
                <effecttype>motion</effecttype>
                <mediatype>video</mediatype>
                <parameter>
                  <parameterid>scale</parameterid>
                  <name>Scale</name>
                  <valuemin>0</valuemin>
                  <valuemax>1000</valuemax>
                  <value>67.5</value>
                </parameter>
                <parameter>
                  <parameterid>center</parameterid>
                  <name>Center</name>
                  <value>
                    <horiz>0.00000</horiz>
                    <vert>0.05000</vert>
                  </value>
                </parameter>
              </effect>
            </filter>
      </clipitem>

      <clipitem id="clipitem-361">
        <name>Fig 113404</name>
        <duration>46</duration>
        <rate><timebase>30</timebase></rate>
        <start>33453</start>
        <end>33499</end>
        <in>0</in>
        <out>46</out>
        <file id="file-1">
          <name>char_14383_12670.webp</name>
          <pathurl>file://localhost/C:/PROJECT_ROOT/assets/char_14383_12670.webp</pathurl>
          <rate><timebase>30</timebase></rate>
          <media>
             <video>
                <samplecharacteristics>
                  <width>1920</width>
                  <height>1080</height>
                  <pixelaspectratio>square</pixelaspectratio>
                </samplecharacteristics>
             </video>
             
          </media>
        </file>
        
            <filter>
              <effect>
                <name>Basic Motion</name>
                <effectid>basic</effectid>
                <effectcategory>motion</effectcategory>
                <effecttype>motion</effecttype>
                <mediatype>video</mediatype>
                <parameter>
                  <parameterid>scale</parameterid>
                  <name>Scale</name>
                  <valuemin>0</valuemin>
                  <valuemax>1000</valuemax>
                  <value>100</value>
                </parameter>
                <parameter>
                  <parameterid>center</parameterid>
                  <name>Center</name>
                  <value>
                    <horiz>0.00000</horiz>
                    <vert>0.05000</vert>
                  </value>
                </parameter>
              </effect>
            </filter>
      </clipitem>

      <clipitem id="clipitem-362">
        <name>Fig 113405</name>
        <duration>187</duration>
        <rate><timebase>30</timebase></rate>
        <start>33499</start>
        <end>33686</end>
        <in>0</in>
        <out>187</out>
        <file id="file-53">
          <name>char_2_138.webp</name>
          <pathurl>file://localhost/C:/PROJECT_ROOT/assets/char_2_138.webp</pathurl>
          <rate><timebase>30</timebase></rate>
          <media>
             <video>
                <samplecharacteristics>
                  <width>1920</width>
                  <height>1080</height>
                  <pixelaspectratio>square</pixelaspectratio>
                </samplecharacteristics>
             </video>
             
          </media>
        </file>
        
            <filter>
              <effect>
                <name>Basic Motion</name>
                <effectid>basic</effectid>
                <effectcategory>motion</effectcategory>
                <effecttype>motion</effecttype>
                <mediatype>video</mediatype>
                <parameter>
                  <parameterid>scale</parameterid>
                  <name>Scale</name>
                  <valuemin>0</valuemin>
                  <valuemax>1000</valuemax>
                  <value>67.5</value>
                </parameter>
                <parameter>
                  <parameterid>center</parameterid>
                  <name>Center</name>
                  <value>
                    <horiz>0.00000</horiz>
                    <vert>0.05000</vert>
                  </value>
                </parameter>
              </effect>
            </filter>
      </clipitem>

      <clipitem id="clipitem-364">
        <name>Fig 113406</name>
        <duration>36</duration>
        <rate><timebase>30</timebase></rate>
        <start>33686</start>
        <end>33722</end>
        <in>0</in>
        <out>36</out>
        <file id="file-89">
          <name>char_14384_12672.webp</name>
          <pathurl>file://localhost/C:/PROJECT_ROOT/assets/char_14384_12672.webp</pathurl>
          <rate><timebase>30</timebase></rate>
          <media>
             <video>
                <samplecharacteristics>
                  <width>1920</width>
                  <height>1080</height>
                  <pixelaspectratio>square</pixelaspectratio>
                </samplecharacteristics>
             </video>
             
          </media>
        </file>
        
            <filter>
              <effect>
                <name>Basic Motion</name>
                <effectid>basic</effectid>
                <effectcategory>motion</effectcategory>
                <effecttype>motion</effecttype>
                <mediatype>video</mediatype>
                <parameter>
                  <parameterid>scale</parameterid>
                  <name>Scale</name>
                  <valuemin>0</valuemin>
                  <valuemax>1000</valuemax>
                  <value>100</value>
                </parameter>
                <parameter>
                  <parameterid>center</parameterid>
                  <name>Center</name>
                  <value>
                    <horiz>0.00000</horiz>
                    <vert>0.05000</vert>
                  </value>
                </parameter>
              </effect>
            </filter>
      </clipitem>

      <clipitem id="clipitem-365">
        <name>Fig 113407</name>
        <duration>173</duration>
        <rate><timebase>30</timebase></rate>
        <start>33722</start>
        <end>33895</end>
        <in>0</in>
        <out>173</out>
        <file id="file-53">
          <name>char_2_138.webp</name>
          <pathurl>file://localhost/C:/PROJECT_ROOT/assets/char_2_138.webp</pathurl>
          <rate><timebase>30</timebase></rate>
          <media>
             <video>
                <samplecharacteristics>
                  <width>1920</width>
                  <height>1080</height>
                  <pixelaspectratio>square</pixelaspectratio>
                </samplecharacteristics>
             </video>
             
          </media>
        </file>
        
            <filter>
              <effect>
                <name>Basic Motion</name>
                <effectid>basic</effectid>
                <effectcategory>motion</effectcategory>
                <effecttype>motion</effecttype>
                <mediatype>video</mediatype>
                <parameter>
                  <parameterid>scale</parameterid>
                  <name>Scale</name>
                  <valuemin>0</valuemin>
                  <valuemax>1000</valuemax>
                  <value>67.5</value>
                </parameter>
                <parameter>
                  <parameterid>center</parameterid>
                  <name>Center</name>
                  <value>
                    <horiz>0.00000</horiz>
                    <vert>0.05000</vert>
                  </value>
                </parameter>
              </effect>
            </filter>
      </clipitem>

      <clipitem id="clipitem-367">
        <name>Fig 113408</name>
        <duration>602</duration>
        <rate><timebase>30</timebase></rate>
        <start>33895</start>
        <end>34497</end>
        <in>0</in>
        <out>602</out>
        <file id="file-3">
          <name>char_14385_12675.webp</name>
          <pathurl>file://localhost/C:/PROJECT_ROOT/assets/char_14385_12675.webp</pathurl>
          <rate><timebase>30</timebase></rate>
          <media>
             <video>
                <samplecharacteristics>
                  <width>1920</width>
                  <height>1080</height>
                  <pixelaspectratio>square</pixelaspectratio>
                </samplecharacteristics>
             </video>
             
          </media>
        </file>
        
            <filter>
              <effect>
                <name>Basic Motion</name>
                <effectid>basic</effectid>
                <effectcategory>motion</effectcategory>
                <effecttype>motion</effecttype>
                <mediatype>video</mediatype>
                <parameter>
                  <parameterid>scale</parameterid>
                  <name>Scale</name>
                  <valuemin>0</valuemin>
                  <valuemax>1000</valuemax>
                  <value>50</value>
                </parameter>
                <parameter>
                  <parameterid>center</parameterid>
                  <name>Center</name>
                  <value>
                    <horiz>0.00000</horiz>
                    <vert>0.05000</vert>
                  </value>
                </parameter>
              </effect>
            </filter>
      </clipitem>

      <clipitem id="clipitem-383">
        <name>Fig 113416</name>
        <duration>484</duration>
        <rate><timebase>30</timebase></rate>
        <start>35160</start>
        <end>35644</end>
        <in>0</in>
        <out>484</out>
        <file id="file-3">
          <name>char_14385_12675.webp</name>
          <pathurl>file://localhost/C:/PROJECT_ROOT/assets/char_14385_12675.webp</pathurl>
          <rate><timebase>30</timebase></rate>
          <media>
             <video>
                <samplecharacteristics>
                  <width>1920</width>
                  <height>1080</height>
                  <pixelaspectratio>square</pixelaspectratio>
                </samplecharacteristics>
             </video>
             
          </media>
        </file>
        
            <filter>
              <effect>
                <name>Basic Motion</name>
                <effectid>basic</effectid>
                <effectcategory>motion</effectcategory>
                <effecttype>motion</effecttype>
                <mediatype>video</mediatype>
                <parameter>
                  <parameterid>scale</parameterid>
                  <name>Scale</name>
                  <valuemin>0</valuemin>
                  <valuemax>1000</valuemax>
                  <value>50</value>
                </parameter>
                <parameter>
                  <parameterid>center</parameterid>
                  <name>Center</name>
                  <value>
                    <horiz>0.00000</horiz>
                    <vert>0.05000</vert>
                  </value>
                </parameter>
              </effect>
            </filter>
      </clipitem>

      <clipitem id="clipitem-388">
        <name>Fig 113419</name>
        <duration>254</duration>
        <rate><timebase>30</timebase></rate>
        <start>35803</start>
        <end>36057</end>
        <in>0</in>
        <out>254</out>
        <file id="file-1">
          <name>char_14383_12670.webp</name>
          <pathurl>file://localhost/C:/PROJECT_ROOT/assets/char_14383_12670.webp</pathurl>
          <rate><timebase>30</timebase></rate>
          <media>
             <video>
                <samplecharacteristics>
                  <width>1920</width>
                  <height>1080</height>
                  <pixelaspectratio>square</pixelaspectratio>
                </samplecharacteristics>
             </video>
             
          </media>
        </file>
        
            <filter>
              <effect>
                <name>Basic Motion</name>
                <effectid>basic</effectid>
                <effectcategory>motion</effectcategory>
                <effecttype>motion</effecttype>
                <mediatype>video</mediatype>
                <parameter>
                  <parameterid>scale</parameterid>
                  <name>Scale</name>
                  <valuemin>0</valuemin>
                  <valuemax>1000</valuemax>
                  <value>100</value>
                </parameter>
                <parameter>
                  <parameterid>center</parameterid>
                  <name>Center</name>
                  <value>
                    <horiz>0.00000</horiz>
                    <vert>0.05000</vert>
                  </value>
                </parameter>
              </effect>
            </filter>
      </clipitem>

      <clipitem id="clipitem-398">
        <name>Fig 118575</name>
        <duration>76</duration>
        <rate><timebase>30</timebase></rate>
        <start>36624</start>
        <end>36700</end>
        <in>0</in>
        <out>76</out>
        <file id="file-3">
          <name>char_14385_12675.webp</name>
          <pathurl>file://localhost/C:/PROJECT_ROOT/assets/char_14385_12675.webp</pathurl>
          <rate><timebase>30</timebase></rate>
          <media>
             <video>
                <samplecharacteristics>
                  <width>1920</width>
                  <height>1080</height>
                  <pixelaspectratio>square</pixelaspectratio>
                </samplecharacteristics>
             </video>
             
          </media>
        </file>
        
            <filter>
              <effect>
                <name>Basic Motion</name>
                <effectid>basic</effectid>
                <effectcategory>motion</effectcategory>
                <effecttype>motion</effecttype>
                <mediatype>video</mediatype>
                <parameter>
                  <parameterid>scale</parameterid>
                  <name>Scale</name>
                  <valuemin>0</valuemin>
                  <valuemax>1000</valuemax>
                  <value>50</value>
                </parameter>
                <parameter>
                  <parameterid>center</parameterid>
                  <name>Center</name>
                  <value>
                    <horiz>0.00000</horiz>
                    <vert>0.05000</vert>
                  </value>
                </parameter>
              </effect>
            </filter>
      </clipitem>

      <clipitem id="clipitem-413">
        <name>Fig 113530</name>
        <duration>60</duration>
        <rate><timebase>30</timebase></rate>
        <start>37751</start>
        <end>37811</end>
        <in>0</in>
        <out>60</out>
        <file id="file-3">
          <name>char_14385_12675.webp</name>
          <pathurl>file://localhost/C:/PROJECT_ROOT/assets/char_14385_12675.webp</pathurl>
          <rate><timebase>30</timebase></rate>
          <media>
             <video>
                <samplecharacteristics>
                  <width>1920</width>
                  <height>1080</height>
                  <pixelaspectratio>square</pixelaspectratio>
                </samplecharacteristics>
             </video>
             
          </media>
        </file>
        
            <filter>
              <effect>
                <name>Basic Motion</name>
                <effectid>basic</effectid>
                <effectcategory>motion</effectcategory>
                <effecttype>motion</effecttype>
                <mediatype>video</mediatype>
                <parameter>
                  <parameterid>scale</parameterid>
                  <name>Scale</name>
                  <valuemin>0</valuemin>
                  <valuemax>1000</valuemax>
                  <value>50</value>
                </parameter>
                <parameter>
                  <parameterid>center</parameterid>
                  <name>Center</name>
                  <value>
                    <horiz>0.00000</horiz>
                    <vert>0.05000</vert>
                  </value>
                </parameter>
              </effect>
            </filter>
      </clipitem>

      <clipitem id="clipitem-415">
        <name>Fig 113435</name>
        <duration>86</duration>
        <rate><timebase>30</timebase></rate>
        <start>37811</start>
        <end>37897</end>
        <in>0</in>
        <out>86</out>
        <file id="file-133">
          <name>char_14414_12724.webp</name>
          <pathurl>file://localhost/C:/PROJECT_ROOT/assets/char_14414_12724.webp</pathurl>
          <rate><timebase>30</timebase></rate>
          <media>
             <video>
                <samplecharacteristics>
                  <width>1920</width>
                  <height>1080</height>
                  <pixelaspectratio>square</pixelaspectratio>
                </samplecharacteristics>
             </video>
             
          </media>
        </file>
        
            <filter>
              <effect>
                <name>Basic Motion</name>
                <effectid>basic</effectid>
                <effectcategory>motion</effectcategory>
                <effecttype>motion</effecttype>
                <mediatype>video</mediatype>
                <parameter>
                  <parameterid>scale</parameterid>
                  <name>Scale</name>
                  <valuemin>0</valuemin>
                  <valuemax>1000</valuemax>
                  <value>100</value>
                </parameter>
                <parameter>
                  <parameterid>center</parameterid>
                  <name>Center</name>
                  <value>
                    <horiz>0.00000</horiz>
                    <vert>0.05000</vert>
                  </value>
                </parameter>
              </effect>
            </filter>
      </clipitem>

      <clipitem id="clipitem-419">
        <name>Fig 113436</name>
        <duration>102</duration>
        <rate><timebase>30</timebase></rate>
        <start>38040</start>
        <end>38142</end>
        <in>0</in>
        <out>102</out>
        <file id="file-3">
          <name>char_14385_12675.webp</name>
          <pathurl>file://localhost/C:/PROJECT_ROOT/assets/char_14385_12675.webp</pathurl>
          <rate><timebase>30</timebase></rate>
          <media>
             <video>
                <samplecharacteristics>
                  <width>1920</width>
                  <height>1080</height>
                  <pixelaspectratio>square</pixelaspectratio>
                </samplecharacteristics>
             </video>
             
          </media>
        </file>
        
            <filter>
              <effect>
                <name>Basic Motion</name>
                <effectid>basic</effectid>
                <effectcategory>motion</effectcategory>
                <effecttype>motion</effecttype>
                <mediatype>video</mediatype>
                <parameter>
                  <parameterid>scale</parameterid>
                  <name>Scale</name>
                  <valuemin>0</valuemin>
                  <valuemax>1000</valuemax>
                  <value>50</value>
                </parameter>
                <parameter>
                  <parameterid>center</parameterid>
                  <name>Center</name>
                  <value>
                    <horiz>0.00000</horiz>
                    <vert>0.05000</vert>
                  </value>
                </parameter>
              </effect>
            </filter>
      </clipitem>

      <clipitem id="clipitem-423">
        <name>Fig 113439</name>
        <duration>146</duration>
        <rate><timebase>30</timebase></rate>
        <start>38273</start>
        <end>38419</end>
        <in>0</in>
        <out>146</out>
        <file id="file-1">
          <name>char_14383_12670.webp</name>
          <pathurl>file://localhost/C:/PROJECT_ROOT/assets/char_14383_12670.webp</pathurl>
          <rate><timebase>30</timebase></rate>
          <media>
             <video>
                <samplecharacteristics>
                  <width>1920</width>
                  <height>1080</height>
                  <pixelaspectratio>square</pixelaspectratio>
                </samplecharacteristics>
             </video>
             
          </media>
        </file>
        
            <filter>
              <effect>
                <name>Basic Motion</name>
                <effectid>basic</effectid>
                <effectcategory>motion</effectcategory>
                <effecttype>motion</effecttype>
                <mediatype>video</mediatype>
                <parameter>
                  <parameterid>scale</parameterid>
                  <name>Scale</name>
                  <valuemin>0</valuemin>
                  <valuemax>1000</valuemax>
                  <value>100</value>
                </parameter>
                <parameter>
                  <parameterid>center</parameterid>
                  <name>Center</name>
                  <value>
                    <horiz>0.00000</horiz>
                    <vert>0.05000</vert>
                  </value>
                </parameter>
              </effect>
            </filter>
      </clipitem>

      <clipitem id="clipitem-428">
        <name>Fig 118576</name>
        <duration>79</duration>
        <rate><timebase>30</timebase></rate>
        <start>38721</start>
        <end>38800</end>
        <in>0</in>
        <out>79</out>
        <file id="file-1">
          <name>char_14383_12670.webp</name>
          <pathurl>file://localhost/C:/PROJECT_ROOT/assets/char_14383_12670.webp</pathurl>
          <rate><timebase>30</timebase></rate>
          <media>
             <video>
                <samplecharacteristics>
                  <width>1920</width>
                  <height>1080</height>
                  <pixelaspectratio>square</pixelaspectratio>
                </samplecharacteristics>
             </video>
             
          </media>
        </file>
        
            <filter>
              <effect>
                <name>Basic Motion</name>
                <effectid>basic</effectid>
                <effectcategory>motion</effectcategory>
                <effecttype>motion</effecttype>
                <mediatype>video</mediatype>
                <parameter>
                  <parameterid>scale</parameterid>
                  <name>Scale</name>
                  <valuemin>0</valuemin>
                  <valuemax>1000</valuemax>
                  <value>100</value>
                </parameter>
                <parameter>
                  <parameterid>center</parameterid>
                  <name>Center</name>
                  <value>
                    <horiz>0.00000</horiz>
                    <vert>0.05000</vert>
                  </value>
                </parameter>
              </effect>
            </filter>
      </clipitem>

      <clipitem id="clipitem-430">
        <name>Fig 118577</name>
        <duration>134</duration>
        <rate><timebase>30</timebase></rate>
        <start>38800</start>
        <end>38934</end>
        <in>0</in>
        <out>134</out>
        <file id="file-3">
          <name>char_14385_12675.webp</name>
          <pathurl>file://localhost/C:/PROJECT_ROOT/assets/char_14385_12675.webp</pathurl>
          <rate><timebase>30</timebase></rate>
          <media>
             <video>
                <samplecharacteristics>
                  <width>1920</width>
                  <height>1080</height>
                  <pixelaspectratio>square</pixelaspectratio>
                </samplecharacteristics>
             </video>
             
          </media>
        </file>
        
            <filter>
              <effect>
                <name>Basic Motion</name>
                <effectid>basic</effectid>
                <effectcategory>motion</effectcategory>
                <effecttype>motion</effecttype>
                <mediatype>video</mediatype>
                <parameter>
                  <parameterid>scale</parameterid>
                  <name>Scale</name>
                  <valuemin>0</valuemin>
                  <valuemax>1000</valuemax>
                  <value>50</value>
                </parameter>
                <parameter>
                  <parameterid>center</parameterid>
                  <name>Center</name>
                  <value>
                    <horiz>0.00000</horiz>
                    <vert>0.05000</vert>
                  </value>
                </parameter>
              </effect>
            </filter>
      </clipitem>

      <clipitem id="clipitem-434">
        <name>Fig 113440</name>
        <duration>79</duration>
        <rate><timebase>30</timebase></rate>
        <start>39131</start>
        <end>39210</end>
        <in>0</in>
        <out>79</out>
        <file id="file-89">
          <name>char_14384_12672.webp</name>
          <pathurl>file://localhost/C:/PROJECT_ROOT/assets/char_14384_12672.webp</pathurl>
          <rate><timebase>30</timebase></rate>
          <media>
             <video>
                <samplecharacteristics>
                  <width>1920</width>
                  <height>1080</height>
                  <pixelaspectratio>square</pixelaspectratio>
                </samplecharacteristics>
             </video>
             
          </media>
        </file>
        
            <filter>
              <effect>
                <name>Basic Motion</name>
                <effectid>basic</effectid>
                <effectcategory>motion</effectcategory>
                <effecttype>motion</effecttype>
                <mediatype>video</mediatype>
                <parameter>
                  <parameterid>scale</parameterid>
                  <name>Scale</name>
                  <valuemin>0</valuemin>
                  <valuemax>1000</valuemax>
                  <value>100</value>
                </parameter>
                <parameter>
                  <parameterid>center</parameterid>
                  <name>Center</name>
                  <value>
                    <horiz>0.00000</horiz>
                    <vert>0.05000</vert>
                  </value>
                </parameter>
              </effect>
            </filter>
      </clipitem>

      <clipitem id="clipitem-438">
        <name>Fig 113443</name>
        <duration>106</duration>
        <rate><timebase>30</timebase></rate>
        <start>39379</start>
        <end>39485</end>
        <in>0</in>
        <out>106</out>
        <file id="file-133">
          <name>char_14414_12724.webp</name>
          <pathurl>file://localhost/C:/PROJECT_ROOT/assets/char_14414_12724.webp</pathurl>
          <rate><timebase>30</timebase></rate>
          <media>
             <video>
                <samplecharacteristics>
                  <width>1920</width>
                  <height>1080</height>
                  <pixelaspectratio>square</pixelaspectratio>
                </samplecharacteristics>
             </video>
             
          </media>
        </file>
        
            <filter>
              <effect>
                <name>Basic Motion</name>
                <effectid>basic</effectid>
                <effectcategory>motion</effectcategory>
                <effecttype>motion</effecttype>
                <mediatype>video</mediatype>
                <parameter>
                  <parameterid>scale</parameterid>
                  <name>Scale</name>
                  <valuemin>0</valuemin>
                  <valuemax>1000</valuemax>
                  <value>100</value>
                </parameter>
                <parameter>
                  <parameterid>center</parameterid>
                  <name>Center</name>
                  <value>
                    <horiz>0.00000</horiz>
                    <vert>0.05000</vert>
                  </value>
                </parameter>
              </effect>
            </filter>
      </clipitem>

      <clipitem id="clipitem-440">
        <name>Fig 113444</name>
        <duration>126</duration>
        <rate><timebase>30</timebase></rate>
        <start>39485</start>
        <end>39611</end>
        <in>0</in>
        <out>126</out>
        <file id="file-1">
          <name>char_14383_12670.webp</name>
          <pathurl>file://localhost/C:/PROJECT_ROOT/assets/char_14383_12670.webp</pathurl>
          <rate><timebase>30</timebase></rate>
          <media>
             <video>
                <samplecharacteristics>
                  <width>1920</width>
                  <height>1080</height>
                  <pixelaspectratio>square</pixelaspectratio>
                </samplecharacteristics>
             </video>
             
          </media>
        </file>
        
            <filter>
              <effect>
                <name>Basic Motion</name>
                <effectid>basic</effectid>
                <effectcategory>motion</effectcategory>
                <effecttype>motion</effecttype>
                <mediatype>video</mediatype>
                <parameter>
                  <parameterid>scale</parameterid>
                  <name>Scale</name>
                  <valuemin>0</valuemin>
                  <valuemax>1000</valuemax>
                  <value>100</value>
                </parameter>
                <parameter>
                  <parameterid>center</parameterid>
                  <name>Center</name>
                  <value>
                    <horiz>0.00000</horiz>
                    <vert>0.05000</vert>
                  </value>
                </parameter>
              </effect>
            </filter>
      </clipitem>

      <clipitem id="clipitem-442">
        <name>Fig 113445</name>
        <duration>113</duration>
        <rate><timebase>30</timebase></rate>
        <start>39611</start>
        <end>39724</end>
        <in>0</in>
        <out>113</out>
        <file id="file-3">
          <name>char_14385_12675.webp</name>
          <pathurl>file://localhost/C:/PROJECT_ROOT/assets/char_14385_12675.webp</pathurl>
          <rate><timebase>30</timebase></rate>
          <media>
             <video>
                <samplecharacteristics>
                  <width>1920</width>
                  <height>1080</height>
                  <pixelaspectratio>square</pixelaspectratio>
                </samplecharacteristics>
             </video>
             
          </media>
        </file>
        
            <filter>
              <effect>
                <name>Basic Motion</name>
                <effectid>basic</effectid>
                <effectcategory>motion</effectcategory>
                <effecttype>motion</effecttype>
                <mediatype>video</mediatype>
                <parameter>
                  <parameterid>scale</parameterid>
                  <name>Scale</name>
                  <valuemin>0</valuemin>
                  <valuemax>1000</valuemax>
                  <value>50</value>
                </parameter>
                <parameter>
                  <parameterid>center</parameterid>
                  <name>Center</name>
                  <value>
                    <horiz>0.00000</horiz>
                    <vert>0.05000</vert>
                  </value>
                </parameter>
              </effect>
            </filter>
      </clipitem>

      <clipitem id="clipitem-446">
        <name>Fig 113448</name>
        <duration>1872</duration>
        <rate><timebase>30</timebase></rate>
        <start>39743</start>
        <end>41615</end>
        <in>0</in>
        <out>1872</out>
        <file id="file-3">
          <name>char_14385_12675.webp</name>
          <pathurl>file://localhost/C:/PROJECT_ROOT/assets/char_14385_12675.webp</pathurl>
          <rate><timebase>30</timebase></rate>
          <media>
             <video>
                <samplecharacteristics>
                  <width>1920</width>
                  <height>1080</height>
                  <pixelaspectratio>square</pixelaspectratio>
                </samplecharacteristics>
             </video>
             
          </media>
        </file>
        
            <filter>
              <effect>
                <name>Basic Motion</name>
                <effectid>basic</effectid>
                <effectcategory>motion</effectcategory>
                <effecttype>motion</effecttype>
                <mediatype>video</mediatype>
                <parameter>
                  <parameterid>scale</parameterid>
                  <name>Scale</name>
                  <valuemin>0</valuemin>
                  <valuemax>1000</valuemax>
                  <value>50</value>
                </parameter>
                <parameter>
                  <parameterid>center</parameterid>
                  <name>Center</name>
                  <value>
                    <horiz>0.00000</horiz>
                    <vert>0.05000</vert>
                  </value>
                </parameter>
              </effect>
            </filter>
      </clipitem>

      <clipitem id="clipitem-459">
        <name>Fig 113533</name>
        <duration>80</duration>
        <rate><timebase>30</timebase></rate>
        <start>41865</start>
        <end>41945</end>
        <in>0</in>
        <out>80</out>
        <file id="file-3">
          <name>char_14385_12675.webp</name>
          <pathurl>file://localhost/C:/PROJECT_ROOT/assets/char_14385_12675.webp</pathurl>
          <rate><timebase>30</timebase></rate>
          <media>
             <video>
                <samplecharacteristics>
                  <width>1920</width>
                  <height>1080</height>
                  <pixelaspectratio>square</pixelaspectratio>
                </samplecharacteristics>
             </video>
             
          </media>
        </file>
        
            <filter>
              <effect>
                <name>Basic Motion</name>
                <effectid>basic</effectid>
                <effectcategory>motion</effectcategory>
                <effecttype>motion</effecttype>
                <mediatype>video</mediatype>
                <parameter>
                  <parameterid>scale</parameterid>
                  <name>Scale</name>
                  <valuemin>0</valuemin>
                  <valuemax>1000</valuemax>
                  <value>50</value>
                </parameter>
                <parameter>
                  <parameterid>center</parameterid>
                  <name>Center</name>
                  <value>
                    <horiz>0.00000</horiz>
                    <vert>0.05000</vert>
                  </value>
                </parameter>
              </effect>
            </filter>
      </clipitem>

      <clipitem id="clipitem-461">
        <name>Fig 113537</name>
        <duration>118</duration>
        <rate><timebase>30</timebase></rate>
        <start>41945</start>
        <end>42063</end>
        <in>0</in>
        <out>118</out>
        <file id="file-300">
          <name>char_14384_12967.webp</name>
          <pathurl>file://localhost/C:/PROJECT_ROOT/assets/char_14384_12967.webp</pathurl>
          <rate><timebase>30</timebase></rate>
          <media>
             <video>
                <samplecharacteristics>
                  <width>1920</width>
                  <height>1080</height>
                  <pixelaspectratio>square</pixelaspectratio>
                </samplecharacteristics>
             </video>
             
          </media>
        </file>
        
            <filter>
              <effect>
                <name>Basic Motion</name>
                <effectid>basic</effectid>
                <effectcategory>motion</effectcategory>
                <effecttype>motion</effecttype>
                <mediatype>video</mediatype>
                <parameter>
                  <parameterid>scale</parameterid>
                  <name>Scale</name>
                  <valuemin>0</valuemin>
                  <valuemax>1000</valuemax>
                  <value>150</value>
                </parameter>
                <parameter>
                  <parameterid>center</parameterid>
                  <name>Center</name>
                  <value>
                    <horiz>0.00000</horiz>
                    <vert>0.05000</vert>
                  </value>
                </parameter>
              </effect>
            </filter>
      </clipitem>

      <clipitem id="clipitem-466">
        <name>Fig 113460</name>
        <duration>328</duration>
        <rate><timebase>30</timebase></rate>
        <start>42461</start>
        <end>42789</end>
        <in>0</in>
        <out>328</out>
        <file id="file-3">
          <name>char_14385_12675.webp</name>
          <pathurl>file://localhost/C:/PROJECT_ROOT/assets/char_14385_12675.webp</pathurl>
          <rate><timebase>30</timebase></rate>
          <media>
             <video>
                <samplecharacteristics>
                  <width>1920</width>
                  <height>1080</height>
                  <pixelaspectratio>square</pixelaspectratio>
                </samplecharacteristics>
             </video>
             
          </media>
        </file>
        
            <filter>
              <effect>
                <name>Basic Motion</name>
                <effectid>basic</effectid>
                <effectcategory>motion</effectcategory>
                <effecttype>motion</effecttype>
                <mediatype>video</mediatype>
                <parameter>
                  <parameterid>scale</parameterid>
                  <name>Scale</name>
                  <valuemin>0</valuemin>
                  <valuemax>1000</valuemax>
                  <value>50</value>
                </parameter>
                <parameter>
                  <parameterid>center</parameterid>
                  <name>Center</name>
                  <value>
                    <horiz>0.00000</horiz>
                    <vert>0.05000</vert>
                  </value>
                </parameter>
              </effect>
            </filter>
      </clipitem>

      <clipitem id="clipitem-471">
        <name>Fig 113536</name>
        <duration>299</duration>
        <rate><timebase>30</timebase></rate>
        <start>42969</start>
        <end>43268</end>
        <in>0</in>
        <out>299</out>
        <file id="file-3">
          <name>char_14385_12675.webp</name>
          <pathurl>file://localhost/C:/PROJECT_ROOT/assets/char_14385_12675.webp</pathurl>
          <rate><timebase>30</timebase></rate>
          <media>
             <video>
                <samplecharacteristics>
                  <width>1920</width>
                  <height>1080</height>
                  <pixelaspectratio>square</pixelaspectratio>
                </samplecharacteristics>
             </video>
             
          </media>
        </file>
        
            <filter>
              <effect>
                <name>Basic Motion</name>
                <effectid>basic</effectid>
                <effectcategory>motion</effectcategory>
                <effecttype>motion</effecttype>
                <mediatype>video</mediatype>
                <parameter>
                  <parameterid>scale</parameterid>
                  <name>Scale</name>
                  <valuemin>0</valuemin>
                  <valuemax>1000</valuemax>
                  <value>50</value>
                </parameter>
                <parameter>
                  <parameterid>center</parameterid>
                  <name>Center</name>
                  <value>
                    <horiz>0.00000</horiz>
                    <vert>0.05000</vert>
                  </value>
                </parameter>
              </effect>
            </filter>
      </clipitem>

      <clipitem id="clipitem-475">
        <name>Fig 113463</name>
        <duration>98</duration>
        <rate><timebase>30</timebase></rate>
        <start>43349</start>
        <end>43447</end>
        <in>0</in>
        <out>98</out>
        <file id="file-1">
          <name>char_14383_12670.webp</name>
          <pathurl>file://localhost/C:/PROJECT_ROOT/assets/char_14383_12670.webp</pathurl>
          <rate><timebase>30</timebase></rate>
          <media>
             <video>
                <samplecharacteristics>
                  <width>1920</width>
                  <height>1080</height>
                  <pixelaspectratio>square</pixelaspectratio>
                </samplecharacteristics>
             </video>
             
          </media>
        </file>
        
            <filter>
              <effect>
                <name>Basic Motion</name>
                <effectid>basic</effectid>
                <effectcategory>motion</effectcategory>
                <effecttype>motion</effecttype>
                <mediatype>video</mediatype>
                <parameter>
                  <parameterid>scale</parameterid>
                  <name>Scale</name>
                  <valuemin>0</valuemin>
                  <valuemax>1000</valuemax>
                  <value>100</value>
                </parameter>
                <parameter>
                  <parameterid>center</parameterid>
                  <name>Center</name>
                  <value>
                    <horiz>0.00000</horiz>
                    <vert>0.05000</vert>
                  </value>
                </parameter>
              </effect>
            </filter>
      </clipitem>

      <clipitem id="clipitem-477">
        <name>Fig 113464</name>
        <duration>149</duration>
        <rate><timebase>30</timebase></rate>
        <start>43447</start>
        <end>43596</end>
        <in>0</in>
        <out>149</out>
        <file id="file-89">
          <name>char_14384_12672.webp</name>
          <pathurl>file://localhost/C:/PROJECT_ROOT/assets/char_14384_12672.webp</pathurl>
          <rate><timebase>30</timebase></rate>
          <media>
             <video>
                <samplecharacteristics>
                  <width>1920</width>
                  <height>1080</height>
                  <pixelaspectratio>square</pixelaspectratio>
                </samplecharacteristics>
             </video>
             
          </media>
        </file>
        
            <filter>
              <effect>
                <name>Basic Motion</name>
                <effectid>basic</effectid>
                <effectcategory>motion</effectcategory>
                <effecttype>motion</effecttype>
                <mediatype>video</mediatype>
                <parameter>
                  <parameterid>scale</parameterid>
                  <name>Scale</name>
                  <valuemin>0</valuemin>
                  <valuemax>1000</valuemax>
                  <value>100</value>
                </parameter>
                <parameter>
                  <parameterid>center</parameterid>
                  <name>Center</name>
                  <value>
                    <horiz>0.00000</horiz>
                    <vert>0.05000</vert>
                  </value>
                </parameter>
              </effect>
            </filter>
      </clipitem>

      <clipitem id="clipitem-479">
        <name>Fig 113538</name>
        <duration>191</duration>
        <rate><timebase>30</timebase></rate>
        <start>43596</start>
        <end>43787</end>
        <in>0</in>
        <out>191</out>
        <file id="file-1">
          <name>char_14383_12670.webp</name>
          <pathurl>file://localhost/C:/PROJECT_ROOT/assets/char_14383_12670.webp</pathurl>
          <rate><timebase>30</timebase></rate>
          <media>
             <video>
                <samplecharacteristics>
                  <width>1920</width>
                  <height>1080</height>
                  <pixelaspectratio>square</pixelaspectratio>
                </samplecharacteristics>
             </video>
             
          </media>
        </file>
        
            <filter>
              <effect>
                <name>Basic Motion</name>
                <effectid>basic</effectid>
                <effectcategory>motion</effectcategory>
                <effecttype>motion</effecttype>
                <mediatype>video</mediatype>
                <parameter>
                  <parameterid>scale</parameterid>
                  <name>Scale</name>
                  <valuemin>0</valuemin>
                  <valuemax>1000</valuemax>
                  <value>100</value>
                </parameter>
                <parameter>
                  <parameterid>center</parameterid>
                  <name>Center</name>
                  <value>
                    <horiz>0.00000</horiz>
                    <vert>0.05000</vert>
                  </value>
                </parameter>
              </effect>
            </filter>
      </clipitem>

      <clipitem id="clipitem-481">
        <name>Fig 113539</name>
        <duration>203</duration>
        <rate><timebase>30</timebase></rate>
        <start>43787</start>
        <end>43990</end>
        <in>0</in>
        <out>203</out>
        <file id="file-89">
          <name>char_14384_12672.webp</name>
          <pathurl>file://localhost/C:/PROJECT_ROOT/assets/char_14384_12672.webp</pathurl>
          <rate><timebase>30</timebase></rate>
          <media>
             <video>
                <samplecharacteristics>
                  <width>1920</width>
                  <height>1080</height>
                  <pixelaspectratio>square</pixelaspectratio>
                </samplecharacteristics>
             </video>
             
          </media>
        </file>
        
            <filter>
              <effect>
                <name>Basic Motion</name>
                <effectid>basic</effectid>
                <effectcategory>motion</effectcategory>
                <effecttype>motion</effecttype>
                <mediatype>video</mediatype>
                <parameter>
                  <parameterid>scale</parameterid>
                  <name>Scale</name>
                  <valuemin>0</valuemin>
                  <valuemax>1000</valuemax>
                  <value>100</value>
                </parameter>
                <parameter>
                  <parameterid>center</parameterid>
                  <name>Center</name>
                  <value>
                    <horiz>0.00000</horiz>
                    <vert>0.05000</vert>
                  </value>
                </parameter>
              </effect>
            </filter>
      </clipitem>

      <clipitem id="clipitem-484">
        <name>Fig 113541</name>
        <duration>1288</duration>
        <rate><timebase>30</timebase></rate>
        <start>43990</start>
        <end>45278</end>
        <in>0</in>
        <out>1288</out>
        <file id="file-3">
          <name>char_14385_12675.webp</name>
          <pathurl>file://localhost/C:/PROJECT_ROOT/assets/char_14385_12675.webp</pathurl>
          <rate><timebase>30</timebase></rate>
          <media>
             <video>
                <samplecharacteristics>
                  <width>1920</width>
                  <height>1080</height>
                  <pixelaspectratio>square</pixelaspectratio>
                </samplecharacteristics>
             </video>
             
          </media>
        </file>
        
            <filter>
              <effect>
                <name>Basic Motion</name>
                <effectid>basic</effectid>
                <effectcategory>motion</effectcategory>
                <effecttype>motion</effecttype>
                <mediatype>video</mediatype>
                <parameter>
                  <parameterid>scale</parameterid>
                  <name>Scale</name>
                  <valuemin>0</valuemin>
                  <valuemax>1000</valuemax>
                  <value>50</value>
                </parameter>
                <parameter>
                  <parameterid>center</parameterid>
                  <name>Center</name>
                  <value>
                    <horiz>0.00000</horiz>
                    <vert>0.05000</vert>
                  </value>
                </parameter>
              </effect>
            </filter>
      </clipitem>

      <clipitem id="clipitem-489">
        <name>Fig 113545</name>
        <duration>280</duration>
        <rate><timebase>30</timebase></rate>
        <start>45278</start>
        <end>45558</end>
        <in>0</in>
        <out>280</out>
        <file id="file-296">
          <name>char_14383_13013.webp</name>
          <pathurl>file://localhost/C:/PROJECT_ROOT/assets/char_14383_13013.webp</pathurl>
          <rate><timebase>30</timebase></rate>
          <media>
             <video>
                <samplecharacteristics>
                  <width>1920</width>
                  <height>1080</height>
                  <pixelaspectratio>square</pixelaspectratio>
                </samplecharacteristics>
             </video>
             
          </media>
        </file>
        
            <filter>
              <effect>
                <name>Basic Motion</name>
                <effectid>basic</effectid>
                <effectcategory>motion</effectcategory>
                <effecttype>motion</effecttype>
                <mediatype>video</mediatype>
                <parameter>
                  <parameterid>scale</parameterid>
                  <name>Scale</name>
                  <valuemin>0</valuemin>
                  <valuemax>1000</valuemax>
                  <value>150</value>
                </parameter>
                <parameter>
                  <parameterid>center</parameterid>
                  <name>Center</name>
                  <value>
                    <horiz>0.00000</horiz>
                    <vert>0.05000</vert>
                  </value>
                </parameter>
              </effect>
            </filter>
      </clipitem>

      <clipitem id="clipitem-491">
        <name>Fig 113546</name>
        <duration>65</duration>
        <rate><timebase>30</timebase></rate>
        <start>45558</start>
        <end>45623</end>
        <in>0</in>
        <out>65</out>
        <file id="file-112">
          <name>char_14384_12961.webp</name>
          <pathurl>file://localhost/C:/PROJECT_ROOT/assets/char_14384_12961.webp</pathurl>
          <rate><timebase>30</timebase></rate>
          <media>
             <video>
                <samplecharacteristics>
                  <width>1920</width>
                  <height>1080</height>
                  <pixelaspectratio>square</pixelaspectratio>
                </samplecharacteristics>
             </video>
             
          </media>
        </file>
        
            <filter>
              <effect>
                <name>Basic Motion</name>
                <effectid>basic</effectid>
                <effectcategory>motion</effectcategory>
                <effecttype>motion</effecttype>
                <mediatype>video</mediatype>
                <parameter>
                  <parameterid>scale</parameterid>
                  <name>Scale</name>
                  <valuemin>0</valuemin>
                  <valuemax>1000</valuemax>
                  <value>150</value>
                </parameter>
                <parameter>
                  <parameterid>center</parameterid>
                  <name>Center</name>
                  <value>
                    <horiz>0.00000</horiz>
                    <vert>0.05000</vert>
                  </value>
                </parameter>
              </effect>
            </filter>
      </clipitem>

      <clipitem id="clipitem-494">
        <name>Fig 113548</name>
        <duration>257</duration>
        <rate><timebase>30</timebase></rate>
        <start>45623</start>
        <end>45880</end>
        <in>0</in>
        <out>257</out>
        <file id="file-1">
          <name>char_14383_12670.webp</name>
          <pathurl>file://localhost/C:/PROJECT_ROOT/assets/char_14383_12670.webp</pathurl>
          <rate><timebase>30</timebase></rate>
          <media>
             <video>
                <samplecharacteristics>
                  <width>1920</width>
                  <height>1080</height>
                  <pixelaspectratio>square</pixelaspectratio>
                </samplecharacteristics>
             </video>
             
          </media>
        </file>
        
            <filter>
              <effect>
                <name>Basic Motion</name>
                <effectid>basic</effectid>
                <effectcategory>motion</effectcategory>
                <effecttype>motion</effecttype>
                <mediatype>video</mediatype>
                <parameter>
                  <parameterid>scale</parameterid>
                  <name>Scale</name>
                  <valuemin>0</valuemin>
                  <valuemax>1000</valuemax>
                  <value>100</value>
                </parameter>
                <parameter>
                  <parameterid>center</parameterid>
                  <name>Center</name>
                  <value>
                    <horiz>0.00000</horiz>
                    <vert>0.05000</vert>
                  </value>
                </parameter>
              </effect>
            </filter>
      </clipitem>

      <clipitem id="clipitem-496">
        <name>Fig 113550</name>
        <duration>153</duration>
        <rate><timebase>30</timebase></rate>
        <start>45880</start>
        <end>46033</end>
        <in>0</in>
        <out>153</out>
        <file id="file-89">
          <name>char_14384_12672.webp</name>
          <pathurl>file://localhost/C:/PROJECT_ROOT/assets/char_14384_12672.webp</pathurl>
          <rate><timebase>30</timebase></rate>
          <media>
             <video>
                <samplecharacteristics>
                  <width>1920</width>
                  <height>1080</height>
                  <pixelaspectratio>square</pixelaspectratio>
                </samplecharacteristics>
             </video>
             
          </media>
        </file>
        
            <filter>
              <effect>
                <name>Basic Motion</name>
                <effectid>basic</effectid>
                <effectcategory>motion</effectcategory>
                <effecttype>motion</effecttype>
                <mediatype>video</mediatype>
                <parameter>
                  <parameterid>scale</parameterid>
                  <name>Scale</name>
                  <valuemin>0</valuemin>
                  <valuemax>1000</valuemax>
                  <value>100</value>
                </parameter>
                <parameter>
                  <parameterid>center</parameterid>
                  <name>Center</name>
                  <value>
                    <horiz>0.00000</horiz>
                    <vert>0.05000</vert>
                  </value>
                </parameter>
              </effect>
            </filter>
      </clipitem>

      <clipitem id="clipitem-499">
        <name>Fig 113465</name>
        <duration>21</duration>
        <rate><timebase>30</timebase></rate>
        <start>46033</start>
        <end>46054</end>
        <in>0</in>
        <out>21</out>
        <file id="file-3">
          <name>char_14385_12675.webp</name>
          <pathurl>file://localhost/C:/PROJECT_ROOT/assets/char_14385_12675.webp</pathurl>
          <rate><timebase>30</timebase></rate>
          <media>
             <video>
                <samplecharacteristics>
                  <width>1920</width>
                  <height>1080</height>
                  <pixelaspectratio>square</pixelaspectratio>
                </samplecharacteristics>
             </video>
             
          </media>
        </file>
        
            <filter>
              <effect>
                <name>Basic Motion</name>
                <effectid>basic</effectid>
                <effectcategory>motion</effectcategory>
                <effecttype>motion</effecttype>
                <mediatype>video</mediatype>
                <parameter>
                  <parameterid>scale</parameterid>
                  <name>Scale</name>
                  <valuemin>0</valuemin>
                  <valuemax>1000</valuemax>
                  <value>50</value>
                </parameter>
                <parameter>
                  <parameterid>center</parameterid>
                  <name>Center</name>
                  <value>
                    <horiz>0.00000</horiz>
                    <vert>0.05000</vert>
                  </value>
                </parameter>
              </effect>
            </filter>
      </clipitem>

      <clipitem id="clipitem-501">
        <name>Fig 113466</name>
        <duration>53</duration>
        <rate><timebase>30</timebase></rate>
        <start>46054</start>
        <end>46107</end>
        <in>0</in>
        <out>53</out>
        <file id="file-1">
          <name>char_14383_12670.webp</name>
          <pathurl>file://localhost/C:/PROJECT_ROOT/assets/char_14383_12670.webp</pathurl>
          <rate><timebase>30</timebase></rate>
          <media>
             <video>
                <samplecharacteristics>
                  <width>1920</width>
                  <height>1080</height>
                  <pixelaspectratio>square</pixelaspectratio>
                </samplecharacteristics>
             </video>
             
          </media>
        </file>
        
            <filter>
              <effect>
                <name>Basic Motion</name>
                <effectid>basic</effectid>
                <effectcategory>motion</effectcategory>
                <effecttype>motion</effecttype>
                <mediatype>video</mediatype>
                <parameter>
                  <parameterid>scale</parameterid>
                  <name>Scale</name>
                  <valuemin>0</valuemin>
                  <valuemax>1000</valuemax>
                  <value>100</value>
                </parameter>
                <parameter>
                  <parameterid>center</parameterid>
                  <name>Center</name>
                  <value>
                    <horiz>0.00000</horiz>
                    <vert>0.05000</vert>
                  </value>
                </parameter>
              </effect>
            </filter>
      </clipitem>

      <clipitem id="clipitem-502">
        <name>Fig 113467</name>
        <duration>187</duration>
        <rate><timebase>30</timebase></rate>
        <start>46107</start>
        <end>46294</end>
        <in>0</in>
        <out>187</out>
        <file id="file-53">
          <name>char_2_138.webp</name>
          <pathurl>file://localhost/C:/PROJECT_ROOT/assets/char_2_138.webp</pathurl>
          <rate><timebase>30</timebase></rate>
          <media>
             <video>
                <samplecharacteristics>
                  <width>1920</width>
                  <height>1080</height>
                  <pixelaspectratio>square</pixelaspectratio>
                </samplecharacteristics>
             </video>
             
          </media>
        </file>
        
            <filter>
              <effect>
                <name>Basic Motion</name>
                <effectid>basic</effectid>
                <effectcategory>motion</effectcategory>
                <effecttype>motion</effecttype>
                <mediatype>video</mediatype>
                <parameter>
                  <parameterid>scale</parameterid>
                  <name>Scale</name>
                  <valuemin>0</valuemin>
                  <valuemax>1000</valuemax>
                  <value>67.5</value>
                </parameter>
                <parameter>
                  <parameterid>center</parameterid>
                  <name>Center</name>
                  <value>
                    <horiz>0.00000</horiz>
                    <vert>0.05000</vert>
                  </value>
                </parameter>
              </effect>
            </filter>
      </clipitem>

      <clipitem id="clipitem-504">
        <name>Fig 113552</name>
        <duration>407</duration>
        <rate><timebase>30</timebase></rate>
        <start>46294</start>
        <end>46701</end>
        <in>0</in>
        <out>407</out>
        <file id="file-89">
          <name>char_14384_12672.webp</name>
          <pathurl>file://localhost/C:/PROJECT_ROOT/assets/char_14384_12672.webp</pathurl>
          <rate><timebase>30</timebase></rate>
          <media>
             <video>
                <samplecharacteristics>
                  <width>1920</width>
                  <height>1080</height>
                  <pixelaspectratio>square</pixelaspectratio>
                </samplecharacteristics>
             </video>
             
          </media>
        </file>
        
            <filter>
              <effect>
                <name>Basic Motion</name>
                <effectid>basic</effectid>
                <effectcategory>motion</effectcategory>
                <effecttype>motion</effecttype>
                <mediatype>video</mediatype>
                <parameter>
                  <parameterid>scale</parameterid>
                  <name>Scale</name>
                  <valuemin>0</valuemin>
                  <valuemax>1000</valuemax>
                  <value>100</value>
                </parameter>
                <parameter>
                  <parameterid>center</parameterid>
                  <name>Center</name>
                  <value>
                    <horiz>0.00000</horiz>
                    <vert>0.05000</vert>
                  </value>
                </parameter>
              </effect>
            </filter>
      </clipitem>

      <clipitem id="clipitem-507">
        <name>Fig 113469</name>
        <duration>172</duration>
        <rate><timebase>30</timebase></rate>
        <start>46701</start>
        <end>46873</end>
        <in>0</in>
        <out>172</out>
        <file id="file-53">
          <name>char_2_138.webp</name>
          <pathurl>file://localhost/C:/PROJECT_ROOT/assets/char_2_138.webp</pathurl>
          <rate><timebase>30</timebase></rate>
          <media>
             <video>
                <samplecharacteristics>
                  <width>1920</width>
                  <height>1080</height>
                  <pixelaspectratio>square</pixelaspectratio>
                </samplecharacteristics>
             </video>
             
          </media>
        </file>
        
            <filter>
              <effect>
                <name>Basic Motion</name>
                <effectid>basic</effectid>
                <effectcategory>motion</effectcategory>
                <effecttype>motion</effecttype>
                <mediatype>video</mediatype>
                <parameter>
                  <parameterid>scale</parameterid>
                  <name>Scale</name>
                  <valuemin>0</valuemin>
                  <valuemax>1000</valuemax>
                  <value>67.5</value>
                </parameter>
                <parameter>
                  <parameterid>center</parameterid>
                  <name>Center</name>
                  <value>
                    <horiz>0.00000</horiz>
                    <vert>0.05000</vert>
                  </value>
                </parameter>
              </effect>
            </filter>
      </clipitem>

      <clipitem id="clipitem-509">
        <name>Fig 113555</name>
        <duration>283</duration>
        <rate><timebase>30</timebase></rate>
        <start>46873</start>
        <end>47156</end>
        <in>0</in>
        <out>283</out>
        <file id="file-3">
          <name>char_14385_12675.webp</name>
          <pathurl>file://localhost/C:/PROJECT_ROOT/assets/char_14385_12675.webp</pathurl>
          <rate><timebase>30</timebase></rate>
          <media>
             <video>
                <samplecharacteristics>
                  <width>1920</width>
                  <height>1080</height>
                  <pixelaspectratio>square</pixelaspectratio>
                </samplecharacteristics>
             </video>
             
          </media>
        </file>
        
            <filter>
              <effect>
                <name>Basic Motion</name>
                <effectid>basic</effectid>
                <effectcategory>motion</effectcategory>
                <effecttype>motion</effecttype>
                <mediatype>video</mediatype>
                <parameter>
                  <parameterid>scale</parameterid>
                  <name>Scale</name>
                  <valuemin>0</valuemin>
                  <valuemax>1000</valuemax>
                  <value>50</value>
                </parameter>
                <parameter>
                  <parameterid>center</parameterid>
                  <name>Center</name>
                  <value>
                    <horiz>0.00000</horiz>
                    <vert>0.05000</vert>
                  </value>
                </parameter>
              </effect>
            </filter>
      </clipitem>

      <clipitem id="clipitem-511">
        <name>Fig 113557</name>
        <duration>109</duration>
        <rate><timebase>30</timebase></rate>
        <start>47156</start>
        <end>47265</end>
        <in>0</in>
        <out>109</out>
        <file id="file-89">
          <name>char_14384_12672.webp</name>
          <pathurl>file://localhost/C:/PROJECT_ROOT/assets/char_14384_12672.webp</pathurl>
          <rate><timebase>30</timebase></rate>
          <media>
             <video>
                <samplecharacteristics>
                  <width>1920</width>
                  <height>1080</height>
                  <pixelaspectratio>square</pixelaspectratio>
                </samplecharacteristics>
             </video>
             
          </media>
        </file>
        
            <filter>
              <effect>
                <name>Basic Motion</name>
                <effectid>basic</effectid>
                <effectcategory>motion</effectcategory>
                <effecttype>motion</effecttype>
                <mediatype>video</mediatype>
                <parameter>
                  <parameterid>scale</parameterid>
                  <name>Scale</name>
                  <valuemin>0</valuemin>
                  <valuemax>1000</valuemax>
                  <value>100</value>
                </parameter>
                <parameter>
                  <parameterid>center</parameterid>
                  <name>Center</name>
                  <value>
                    <horiz>0.00000</horiz>
                    <vert>0.05000</vert>
                  </value>
                </parameter>
              </effect>
            </filter>
      </clipitem>

      <clipitem id="clipitem-513">
        <name>Fig 113558</name>
        <duration>161</duration>
        <rate><timebase>30</timebase></rate>
        <start>47265</start>
        <end>47426</end>
        <in>0</in>
        <out>161</out>
        <file id="file-3">
          <name>char_14385_12675.webp</name>
          <pathurl>file://localhost/C:/PROJECT_ROOT/assets/char_14385_12675.webp</pathurl>
          <rate><timebase>30</timebase></rate>
          <media>
             <video>
                <samplecharacteristics>
                  <width>1920</width>
                  <height>1080</height>
                  <pixelaspectratio>square</pixelaspectratio>
                </samplecharacteristics>
             </video>
             
          </media>
        </file>
        
            <filter>
              <effect>
                <name>Basic Motion</name>
                <effectid>basic</effectid>
                <effectcategory>motion</effectcategory>
                <effecttype>motion</effecttype>
                <mediatype>video</mediatype>
                <parameter>
                  <parameterid>scale</parameterid>
                  <name>Scale</name>
                  <valuemin>0</valuemin>
                  <valuemax>1000</valuemax>
                  <value>50</value>
                </parameter>
                <parameter>
                  <parameterid>center</parameterid>
                  <name>Center</name>
                  <value>
                    <horiz>0.00000</horiz>
                    <vert>0.05000</vert>
                  </value>
                </parameter>
              </effect>
            </filter>
      </clipitem>

      <clipitem id="clipitem-515">
        <name>Fig 113559</name>
        <duration>300</duration>
        <rate><timebase>30</timebase></rate>
        <start>47426</start>
        <end>47726</end>
        <in>0</in>
        <out>300</out>
        <file id="file-112">
          <name>char_14384_12961.webp</name>
          <pathurl>file://localhost/C:/PROJECT_ROOT/assets/char_14384_12961.webp</pathurl>
          <rate><timebase>30</timebase></rate>
          <media>
             <video>
                <samplecharacteristics>
                  <width>1920</width>
                  <height>1080</height>
                  <pixelaspectratio>square</pixelaspectratio>
                </samplecharacteristics>
             </video>
             
          </media>
        </file>
        
            <filter>
              <effect>
                <name>Basic Motion</name>
                <effectid>basic</effectid>
                <effectcategory>motion</effectcategory>
                <effecttype>motion</effecttype>
                <mediatype>video</mediatype>
                <parameter>
                  <parameterid>scale</parameterid>
                  <name>Scale</name>
                  <valuemin>0</valuemin>
                  <valuemax>1000</valuemax>
                  <value>150</value>
                </parameter>
                <parameter>
                  <parameterid>center</parameterid>
                  <name>Center</name>
                  <value>
                    <horiz>0.00000</horiz>
                    <vert>0.05000</vert>
                  </value>
                </parameter>
              </effect>
            </filter>
      </clipitem>

      <clipitem id="clipitem-517">
        <name>Fig 113560</name>
        <duration>111</duration>
        <rate><timebase>30</timebase></rate>
        <start>47726</start>
        <end>47837</end>
        <in>0</in>
        <out>111</out>
        <file id="file-1">
          <name>char_14383_12670.webp</name>
          <pathurl>file://localhost/C:/PROJECT_ROOT/assets/char_14383_12670.webp</pathurl>
          <rate><timebase>30</timebase></rate>
          <media>
             <video>
                <samplecharacteristics>
                  <width>1920</width>
                  <height>1080</height>
                  <pixelaspectratio>square</pixelaspectratio>
                </samplecharacteristics>
             </video>
             
          </media>
        </file>
        
            <filter>
              <effect>
                <name>Basic Motion</name>
                <effectid>basic</effectid>
                <effectcategory>motion</effectcategory>
                <effecttype>motion</effecttype>
                <mediatype>video</mediatype>
                <parameter>
                  <parameterid>scale</parameterid>
                  <name>Scale</name>
                  <valuemin>0</valuemin>
                  <valuemax>1000</valuemax>
                  <value>100</value>
                </parameter>
                <parameter>
                  <parameterid>center</parameterid>
                  <name>Center</name>
                  <value>
                    <horiz>0.00000</horiz>
                    <vert>0.05000</vert>
                  </value>
                </parameter>
              </effect>
            </filter>
      </clipitem>

      <clipitem id="clipitem-519">
        <name>Fig 113561</name>
        <duration>131</duration>
        <rate><timebase>30</timebase></rate>
        <start>47837</start>
        <end>47968</end>
        <in>0</in>
        <out>131</out>
        <file id="file-3">
          <name>char_14385_12675.webp</name>
          <pathurl>file://localhost/C:/PROJECT_ROOT/assets/char_14385_12675.webp</pathurl>
          <rate><timebase>30</timebase></rate>
          <media>
             <video>
                <samplecharacteristics>
                  <width>1920</width>
                  <height>1080</height>
                  <pixelaspectratio>square</pixelaspectratio>
                </samplecharacteristics>
             </video>
             
          </media>
        </file>
        
            <filter>
              <effect>
                <name>Basic Motion</name>
                <effectid>basic</effectid>
                <effectcategory>motion</effectcategory>
                <effecttype>motion</effecttype>
                <mediatype>video</mediatype>
                <parameter>
                  <parameterid>scale</parameterid>
                  <name>Scale</name>
                  <valuemin>0</valuemin>
                  <valuemax>1000</valuemax>
                  <value>50</value>
                </parameter>
                <parameter>
                  <parameterid>center</parameterid>
                  <name>Center</name>
                  <value>
                    <horiz>0.00000</horiz>
                    <vert>0.05000</vert>
                  </value>
                </parameter>
              </effect>
            </filter>
      </clipitem>

      <clipitem id="clipitem-521">
        <name>Fig 113562</name>
        <duration>184</duration>
        <rate><timebase>30</timebase></rate>
        <start>47968</start>
        <end>48152</end>
        <in>0</in>
        <out>184</out>
        <file id="file-296">
          <name>char_14383_13013.webp</name>
          <pathurl>file://localhost/C:/PROJECT_ROOT/assets/char_14383_13013.webp</pathurl>
          <rate><timebase>30</timebase></rate>
          <media>
             <video>
                <samplecharacteristics>
                  <width>1920</width>
                  <height>1080</height>
                  <pixelaspectratio>square</pixelaspectratio>
                </samplecharacteristics>
             </video>
             
          </media>
        </file>
        
            <filter>
              <effect>
                <name>Basic Motion</name>
                <effectid>basic</effectid>
                <effectcategory>motion</effectcategory>
                <effecttype>motion</effecttype>
                <mediatype>video</mediatype>
                <parameter>
                  <parameterid>scale</parameterid>
                  <name>Scale</name>
                  <valuemin>0</valuemin>
                  <valuemax>1000</valuemax>
                  <value>150</value>
                </parameter>
                <parameter>
                  <parameterid>center</parameterid>
                  <name>Center</name>
                  <value>
                    <horiz>0.00000</horiz>
                    <vert>0.05000</vert>
                  </value>
                </parameter>
              </effect>
            </filter>
      </clipitem>

      <clipitem id="clipitem-523">
        <name>Fig 113563</name>
        <duration>362</duration>
        <rate><timebase>30</timebase></rate>
        <start>48152</start>
        <end>48514</end>
        <in>0</in>
        <out>362</out>
        <file id="file-1">
          <name>char_14383_12670.webp</name>
          <pathurl>file://localhost/C:/PROJECT_ROOT/assets/char_14383_12670.webp</pathurl>
          <rate><timebase>30</timebase></rate>
          <media>
             <video>
                <samplecharacteristics>
                  <width>1920</width>
                  <height>1080</height>
                  <pixelaspectratio>square</pixelaspectratio>
                </samplecharacteristics>
             </video>
             
          </media>
        </file>
        
            <filter>
              <effect>
                <name>Basic Motion</name>
                <effectid>basic</effectid>
                <effectcategory>motion</effectcategory>
                <effecttype>motion</effecttype>
                <mediatype>video</mediatype>
                <parameter>
                  <parameterid>scale</parameterid>
                  <name>Scale</name>
                  <valuemin>0</valuemin>
                  <valuemax>1000</valuemax>
                  <value>100</value>
                </parameter>
                <parameter>
                  <parameterid>center</parameterid>
                  <name>Center</name>
                  <value>
                    <horiz>0.00000</horiz>
                    <vert>0.05000</vert>
                  </value>
                </parameter>
              </effect>
            </filter>
      </clipitem>

      <clipitem id="clipitem-525">
        <name>Fig 113564</name>
        <duration>155</duration>
        <rate><timebase>30</timebase></rate>
        <start>48514</start>
        <end>48669</end>
        <in>0</in>
        <out>155</out>
        <file id="file-86">
          <name>char_14384_12976.webp</name>
          <pathurl>file://localhost/C:/PROJECT_ROOT/assets/char_14384_12976.webp</pathurl>
          <rate><timebase>30</timebase></rate>
          <media>
             <video>
                <samplecharacteristics>
                  <width>1920</width>
                  <height>1080</height>
                  <pixelaspectratio>square</pixelaspectratio>
                </samplecharacteristics>
             </video>
             
          </media>
        </file>
        
            <filter>
              <effect>
                <name>Basic Motion</name>
                <effectid>basic</effectid>
                <effectcategory>motion</effectcategory>
                <effecttype>motion</effecttype>
                <mediatype>video</mediatype>
                <parameter>
                  <parameterid>scale</parameterid>
                  <name>Scale</name>
                  <valuemin>0</valuemin>
                  <valuemax>1000</valuemax>
                  <value>150</value>
                </parameter>
                <parameter>
                  <parameterid>center</parameterid>
                  <name>Center</name>
                  <value>
                    <horiz>0.00000</horiz>
                    <vert>0.05000</vert>
                  </value>
                </parameter>
              </effect>
            </filter>
      </clipitem>

      <clipitem id="clipitem-527">
        <name>Fig 113565</name>
        <duration>293</duration>
        <rate><timebase>30</timebase></rate>
        <start>48669</start>
        <end>48962</end>
        <in>0</in>
        <out>293</out>
        <file id="file-3">
          <name>char_14385_12675.webp</name>
          <pathurl>file://localhost/C:/PROJECT_ROOT/assets/char_14385_12675.webp</pathurl>
          <rate><timebase>30</timebase></rate>
          <media>
             <video>
                <samplecharacteristics>
                  <width>1920</width>
                  <height>1080</height>
                  <pixelaspectratio>square</pixelaspectratio>
                </samplecharacteristics>
             </video>
             
          </media>
        </file>
        
            <filter>
              <effect>
                <name>Basic Motion</name>
                <effectid>basic</effectid>
                <effectcategory>motion</effectcategory>
                <effecttype>motion</effecttype>
                <mediatype>video</mediatype>
                <parameter>
                  <parameterid>scale</parameterid>
                  <name>Scale</name>
                  <valuemin>0</valuemin>
                  <valuemax>1000</valuemax>
                  <value>50</value>
                </parameter>
                <parameter>
                  <parameterid>center</parameterid>
                  <name>Center</name>
                  <value>
                    <horiz>0.00000</horiz>
                    <vert>0.05000</vert>
                  </value>
                </parameter>
              </effect>
            </filter>
      </clipitem>

      <clipitem id="clipitem-529">
        <name>Fig 113566</name>
        <duration>101</duration>
        <rate><timebase>30</timebase></rate>
        <start>48962</start>
        <end>49063</end>
        <in>0</in>
        <out>101</out>
        <file id="file-112">
          <name>char_14384_12961.webp</name>
          <pathurl>file://localhost/C:/PROJECT_ROOT/assets/char_14384_12961.webp</pathurl>
          <rate><timebase>30</timebase></rate>
          <media>
             <video>
                <samplecharacteristics>
                  <width>1920</width>
                  <height>1080</height>
                  <pixelaspectratio>square</pixelaspectratio>
                </samplecharacteristics>
             </video>
             
          </media>
        </file>
        
            <filter>
              <effect>
                <name>Basic Motion</name>
                <effectid>basic</effectid>
                <effectcategory>motion</effectcategory>
                <effecttype>motion</effecttype>
                <mediatype>video</mediatype>
                <parameter>
                  <parameterid>scale</parameterid>
                  <name>Scale</name>
                  <valuemin>0</valuemin>
                  <valuemax>1000</valuemax>
                  <value>150</value>
                </parameter>
                <parameter>
                  <parameterid>center</parameterid>
                  <name>Center</name>
                  <value>
                    <horiz>0.00000</horiz>
                    <vert>0.05000</vert>
                  </value>
                </parameter>
              </effect>
            </filter>
      </clipitem>

      <clipitem id="clipitem-531">
        <name>Fig 113567</name>
        <duration>173</duration>
        <rate><timebase>30</timebase></rate>
        <start>49063</start>
        <end>49236</end>
        <in>0</in>
        <out>173</out>
        <file id="file-3">
          <name>char_14385_12675.webp</name>
          <pathurl>file://localhost/C:/PROJECT_ROOT/assets/char_14385_12675.webp</pathurl>
          <rate><timebase>30</timebase></rate>
          <media>
             <video>
                <samplecharacteristics>
                  <width>1920</width>
                  <height>1080</height>
                  <pixelaspectratio>square</pixelaspectratio>
                </samplecharacteristics>
             </video>
             
          </media>
        </file>
        
            <filter>
              <effect>
                <name>Basic Motion</name>
                <effectid>basic</effectid>
                <effectcategory>motion</effectcategory>
                <effecttype>motion</effecttype>
                <mediatype>video</mediatype>
                <parameter>
                  <parameterid>scale</parameterid>
                  <name>Scale</name>
                  <valuemin>0</valuemin>
                  <valuemax>1000</valuemax>
                  <value>50</value>
                </parameter>
                <parameter>
                  <parameterid>center</parameterid>
                  <name>Center</name>
                  <value>
                    <horiz>0.00000</horiz>
                    <vert>0.05000</vert>
                  </value>
                </parameter>
              </effect>
            </filter>
      </clipitem>

      <clipitem id="clipitem-533">
        <name>Fig 113568</name>
        <duration>116</duration>
        <rate><timebase>30</timebase></rate>
        <start>49236</start>
        <end>49352</end>
        <in>0</in>
        <out>116</out>
        <file id="file-112">
          <name>char_14384_12961.webp</name>
          <pathurl>file://localhost/C:/PROJECT_ROOT/assets/char_14384_12961.webp</pathurl>
          <rate><timebase>30</timebase></rate>
          <media>
             <video>
                <samplecharacteristics>
                  <width>1920</width>
                  <height>1080</height>
                  <pixelaspectratio>square</pixelaspectratio>
                </samplecharacteristics>
             </video>
             
          </media>
        </file>
        
            <filter>
              <effect>
                <name>Basic Motion</name>
                <effectid>basic</effectid>
                <effectcategory>motion</effectcategory>
                <effecttype>motion</effecttype>
                <mediatype>video</mediatype>
                <parameter>
                  <parameterid>scale</parameterid>
                  <name>Scale</name>
                  <valuemin>0</valuemin>
                  <valuemax>1000</valuemax>
                  <value>150</value>
                </parameter>
                <parameter>
                  <parameterid>center</parameterid>
                  <name>Center</name>
                  <value>
                    <horiz>0.00000</horiz>
                    <vert>0.05000</vert>
                  </value>
                </parameter>
              </effect>
            </filter>
      </clipitem>

      <clipitem id="clipitem-535">
        <name>Fig 113470</name>
        <duration>300</duration>
        <rate><timebase>30</timebase></rate>
        <start>49352</start>
        <end>49652</end>
        <in>0</in>
        <out>300</out>
        <file id="file-3">
          <name>char_14385_12675.webp</name>
          <pathurl>file://localhost/C:/PROJECT_ROOT/assets/char_14385_12675.webp</pathurl>
          <rate><timebase>30</timebase></rate>
          <media>
             <video>
                <samplecharacteristics>
                  <width>1920</width>
                  <height>1080</height>
                  <pixelaspectratio>square</pixelaspectratio>
                </samplecharacteristics>
             </video>
             
          </media>
        </file>
        
            <filter>
              <effect>
                <name>Basic Motion</name>
                <effectid>basic</effectid>
                <effectcategory>motion</effectcategory>
                <effecttype>motion</effecttype>
                <mediatype>video</mediatype>
                <parameter>
                  <parameterid>scale</parameterid>
                  <name>Scale</name>
                  <valuemin>0</valuemin>
                  <valuemax>1000</valuemax>
                  <value>50</value>
                </parameter>
                <parameter>
                  <parameterid>center</parameterid>
                  <name>Center</name>
                  <value>
                    <horiz>0.00000</horiz>
                    <vert>0.05000</vert>
                  </value>
                </parameter>
              </effect>
            </filter>
      </clipitem>

      <clipitem id="clipitem-536">
        <name>Fig 113569</name>
        <duration>60</duration>
        <rate><timebase>30</timebase></rate>
        <start>49652</start>
        <end>49712</end>
        <in>0</in>
        <out>60</out>
        <file id="file-89">
          <name>char_14384_12672.webp</name>
          <pathurl>file://localhost/C:/PROJECT_ROOT/assets/char_14384_12672.webp</pathurl>
          <rate><timebase>30</timebase></rate>
          <media>
             <video>
                <samplecharacteristics>
                  <width>1920</width>
                  <height>1080</height>
                  <pixelaspectratio>square</pixelaspectratio>
                </samplecharacteristics>
             </video>
             
          </media>
        </file>
        
            <filter>
              <effect>
                <name>Basic Motion</name>
                <effectid>basic</effectid>
                <effectcategory>motion</effectcategory>
                <effecttype>motion</effecttype>
                <mediatype>video</mediatype>
                <parameter>
                  <parameterid>scale</parameterid>
                  <name>Scale</name>
                  <valuemin>0</valuemin>
                  <valuemax>1000</valuemax>
                  <value>100</value>
                </parameter>
                <parameter>
                  <parameterid>center</parameterid>
                  <name>Center</name>
                  <value>
                    <horiz>0.00000</horiz>
                    <vert>0.05000</vert>
                  </value>
                </parameter>
              </effect>
            </filter>
      </clipitem>

      <clipitem id="clipitem-538">
        <name>Fig 113472</name>
        <duration>115</duration>
        <rate><timebase>30</timebase></rate>
        <start>49712</start>
        <end>49827</end>
        <in>0</in>
        <out>115</out>
        <file id="file-3">
          <name>char_14385_12675.webp</name>
          <pathurl>file://localhost/C:/PROJECT_ROOT/assets/char_14385_12675.webp</pathurl>
          <rate><timebase>30</timebase></rate>
          <media>
             <video>
                <samplecharacteristics>
                  <width>1920</width>
                  <height>1080</height>
                  <pixelaspectratio>square</pixelaspectratio>
                </samplecharacteristics>
             </video>
             
          </media>
        </file>
        
            <filter>
              <effect>
                <name>Basic Motion</name>
                <effectid>basic</effectid>
                <effectcategory>motion</effectcategory>
                <effecttype>motion</effecttype>
                <mediatype>video</mediatype>
                <parameter>
                  <parameterid>scale</parameterid>
                  <name>Scale</name>
                  <valuemin>0</valuemin>
                  <valuemax>1000</valuemax>
                  <value>50</value>
                </parameter>
                <parameter>
                  <parameterid>center</parameterid>
                  <name>Center</name>
                  <value>
                    <horiz>0.00000</horiz>
                    <vert>0.05000</vert>
                  </value>
                </parameter>
              </effect>
            </filter>
      </clipitem>

      <clipitem id="clipitem-542">
        <name>Fig 113473</name>
        <duration>190</duration>
        <rate><timebase>30</timebase></rate>
        <start>49896</start>
        <end>50086</end>
        <in>0</in>
        <out>190</out>
        <file id="file-89">
          <name>char_14384_12672.webp</name>
          <pathurl>file://localhost/C:/PROJECT_ROOT/assets/char_14384_12672.webp</pathurl>
          <rate><timebase>30</timebase></rate>
          <media>
             <video>
                <samplecharacteristics>
                  <width>1920</width>
                  <height>1080</height>
                  <pixelaspectratio>square</pixelaspectratio>
                </samplecharacteristics>
             </video>
             
          </media>
        </file>
        
            <filter>
              <effect>
                <name>Basic Motion</name>
                <effectid>basic</effectid>
                <effectcategory>motion</effectcategory>
                <effecttype>motion</effecttype>
                <mediatype>video</mediatype>
                <parameter>
                  <parameterid>scale</parameterid>
                  <name>Scale</name>
                  <valuemin>0</valuemin>
                  <valuemax>1000</valuemax>
                  <value>100</value>
                </parameter>
                <parameter>
                  <parameterid>center</parameterid>
                  <name>Center</name>
                  <value>
                    <horiz>0.00000</horiz>
                    <vert>0.05000</vert>
                  </value>
                </parameter>
              </effect>
            </filter>
      </clipitem>

      <clipitem id="clipitem-544">
        <name>Fig 113570</name>
        <duration>418</duration>
        <rate><timebase>30</timebase></rate>
        <start>50086</start>
        <end>50504</end>
        <in>0</in>
        <out>418</out>
        <file id="file-3">
          <name>char_14385_12675.webp</name>
          <pathurl>file://localhost/C:/PROJECT_ROOT/assets/char_14385_12675.webp</pathurl>
          <rate><timebase>30</timebase></rate>
          <media>
             <video>
                <samplecharacteristics>
                  <width>1920</width>
                  <height>1080</height>
                  <pixelaspectratio>square</pixelaspectratio>
                </samplecharacteristics>
             </video>
             
          </media>
        </file>
        
            <filter>
              <effect>
                <name>Basic Motion</name>
                <effectid>basic</effectid>
                <effectcategory>motion</effectcategory>
                <effecttype>motion</effecttype>
                <mediatype>video</mediatype>
                <parameter>
                  <parameterid>scale</parameterid>
                  <name>Scale</name>
                  <valuemin>0</valuemin>
                  <valuemax>1000</valuemax>
                  <value>50</value>
                </parameter>
                <parameter>
                  <parameterid>center</parameterid>
                  <name>Center</name>
                  <value>
                    <horiz>0.00000</horiz>
                    <vert>0.05000</vert>
                  </value>
                </parameter>
              </effect>
            </filter>
      </clipitem>

      <clipitem id="clipitem-546">
        <name>Fig 113571</name>
        <duration>300</duration>
        <rate><timebase>30</timebase></rate>
        <start>50504</start>
        <end>50804</end>
        <in>0</in>
        <out>300</out>
        <file id="file-89">
          <name>char_14384_12672.webp</name>
          <pathurl>file://localhost/C:/PROJECT_ROOT/assets/char_14384_12672.webp</pathurl>
          <rate><timebase>30</timebase></rate>
          <media>
             <video>
                <samplecharacteristics>
                  <width>1920</width>
                  <height>1080</height>
                  <pixelaspectratio>square</pixelaspectratio>
                </samplecharacteristics>
             </video>
             
          </media>
        </file>
        
            <filter>
              <effect>
                <name>Basic Motion</name>
                <effectid>basic</effectid>
                <effectcategory>motion</effectcategory>
                <effecttype>motion</effecttype>
                <mediatype>video</mediatype>
                <parameter>
                  <parameterid>scale</parameterid>
                  <name>Scale</name>
                  <valuemin>0</valuemin>
                  <valuemax>1000</valuemax>
                  <value>100</value>
                </parameter>
                <parameter>
                  <parameterid>center</parameterid>
                  <name>Center</name>
                  <value>
                    <horiz>0.00000</horiz>
                    <vert>0.05000</vert>
                  </value>
                </parameter>
              </effect>
            </filter>
      </clipitem>

      <clipitem id="clipitem-549">
        <name>Fig 113573</name>
        <duration>163</duration>
        <rate><timebase>30</timebase></rate>
        <start>50804</start>
        <end>50967</end>
        <in>0</in>
        <out>163</out>
        <file id="file-350">
          <name>char_14383_13039.webp</name>
          <pathurl>file://localhost/C:/PROJECT_ROOT/assets/char_14383_13039.webp</pathurl>
          <rate><timebase>30</timebase></rate>
          <media>
             <video>
                <samplecharacteristics>
                  <width>1920</width>
                  <height>1080</height>
                  <pixelaspectratio>square</pixelaspectratio>
                </samplecharacteristics>
             </video>
             
          </media>
        </file>
        
            <filter>
              <effect>
                <name>Basic Motion</name>
                <effectid>basic</effectid>
                <effectcategory>motion</effectcategory>
                <effecttype>motion</effecttype>
                <mediatype>video</mediatype>
                <parameter>
                  <parameterid>scale</parameterid>
                  <name>Scale</name>
                  <valuemin>0</valuemin>
                  <valuemax>1000</valuemax>
                  <value>150</value>
                </parameter>
                <parameter>
                  <parameterid>center</parameterid>
                  <name>Center</name>
                  <value>
                    <horiz>0.00000</horiz>
                    <vert>0.05000</vert>
                  </value>
                </parameter>
              </effect>
            </filter>
      </clipitem>

      <clipitem id="clipitem-551">
        <name>Fig 113474</name>
        <duration>299</duration>
        <rate><timebase>30</timebase></rate>
        <start>50967</start>
        <end>51266</end>
        <in>0</in>
        <out>299</out>
        <file id="file-3">
          <name>char_14385_12675.webp</name>
          <pathurl>file://localhost/C:/PROJECT_ROOT/assets/char_14385_12675.webp</pathurl>
          <rate><timebase>30</timebase></rate>
          <media>
             <video>
                <samplecharacteristics>
                  <width>1920</width>
                  <height>1080</height>
                  <pixelaspectratio>square</pixelaspectratio>
                </samplecharacteristics>
             </video>
             
          </media>
        </file>
        
            <filter>
              <effect>
                <name>Basic Motion</name>
                <effectid>basic</effectid>
                <effectcategory>motion</effectcategory>
                <effecttype>motion</effecttype>
                <mediatype>video</mediatype>
                <parameter>
                  <parameterid>scale</parameterid>
                  <name>Scale</name>
                  <valuemin>0</valuemin>
                  <valuemax>1000</valuemax>
                  <value>50</value>
                </parameter>
                <parameter>
                  <parameterid>center</parameterid>
                  <name>Center</name>
                  <value>
                    <horiz>0.00000</horiz>
                    <vert>0.05000</vert>
                  </value>
                </parameter>
              </effect>
            </filter>
      </clipitem>

      <clipitem id="clipitem-553">
        <name>Fig 113475</name>
        <duration>68</duration>
        <rate><timebase>30</timebase></rate>
        <start>51266</start>
        <end>51334</end>
        <in>0</in>
        <out>68</out>
        <file id="file-89">
          <name>char_14384_12672.webp</name>
          <pathurl>file://localhost/C:/PROJECT_ROOT/assets/char_14384_12672.webp</pathurl>
          <rate><timebase>30</timebase></rate>
          <media>
             <video>
                <samplecharacteristics>
                  <width>1920</width>
                  <height>1080</height>
                  <pixelaspectratio>square</pixelaspectratio>
                </samplecharacteristics>
             </video>
             
          </media>
        </file>
        
            <filter>
              <effect>
                <name>Basic Motion</name>
                <effectid>basic</effectid>
                <effectcategory>motion</effectcategory>
                <effecttype>motion</effecttype>
                <mediatype>video</mediatype>
                <parameter>
                  <parameterid>scale</parameterid>
                  <name>Scale</name>
                  <valuemin>0</valuemin>
                  <valuemax>1000</valuemax>
                  <value>100</value>
                </parameter>
                <parameter>
                  <parameterid>center</parameterid>
                  <name>Center</name>
                  <value>
                    <horiz>0.00000</horiz>
                    <vert>0.05000</vert>
                  </value>
                </parameter>
              </effect>
            </filter>
      </clipitem>

      <clipitem id="clipitem-555">
        <name>Fig 113574</name>
        <duration>163</duration>
        <rate><timebase>30</timebase></rate>
        <start>51334</start>
        <end>51497</end>
        <in>0</in>
        <out>163</out>
        <file id="file-130">
          <name>char_14384_12966.webp</name>
          <pathurl>file://localhost/C:/PROJECT_ROOT/assets/char_14384_12966.webp</pathurl>
          <rate><timebase>30</timebase></rate>
          <media>
             <video>
                <samplecharacteristics>
                  <width>1920</width>
                  <height>1080</height>
                  <pixelaspectratio>square</pixelaspectratio>
                </samplecharacteristics>
             </video>
             
          </media>
        </file>
        
            <filter>
              <effect>
                <name>Basic Motion</name>
                <effectid>basic</effectid>
                <effectcategory>motion</effectcategory>
                <effecttype>motion</effecttype>
                <mediatype>video</mediatype>
                <parameter>
                  <parameterid>scale</parameterid>
                  <name>Scale</name>
                  <valuemin>0</valuemin>
                  <valuemax>1000</valuemax>
                  <value>150</value>
                </parameter>
                <parameter>
                  <parameterid>center</parameterid>
                  <name>Center</name>
                  <value>
                    <horiz>0.00000</horiz>
                    <vert>0.05000</vert>
                  </value>
                </parameter>
              </effect>
            </filter>
      </clipitem>

      <clipitem id="clipitem-557">
        <name>Fig 113476</name>
        <duration>246</duration>
        <rate><timebase>30</timebase></rate>
        <start>51497</start>
        <end>51743</end>
        <in>0</in>
        <out>246</out>
        <file id="file-3">
          <name>char_14385_12675.webp</name>
          <pathurl>file://localhost/C:/PROJECT_ROOT/assets/char_14385_12675.webp</pathurl>
          <rate><timebase>30</timebase></rate>
          <media>
             <video>
                <samplecharacteristics>
                  <width>1920</width>
                  <height>1080</height>
                  <pixelaspectratio>square</pixelaspectratio>
                </samplecharacteristics>
             </video>
             
          </media>
        </file>
        
            <filter>
              <effect>
                <name>Basic Motion</name>
                <effectid>basic</effectid>
                <effectcategory>motion</effectcategory>
                <effecttype>motion</effecttype>
                <mediatype>video</mediatype>
                <parameter>
                  <parameterid>scale</parameterid>
                  <name>Scale</name>
                  <valuemin>0</valuemin>
                  <valuemax>1000</valuemax>
                  <value>50</value>
                </parameter>
                <parameter>
                  <parameterid>center</parameterid>
                  <name>Center</name>
                  <value>
                    <horiz>0.00000</horiz>
                    <vert>0.05000</vert>
                  </value>
                </parameter>
              </effect>
            </filter>
      </clipitem>

      <clipitem id="clipitem-565">
        <name>Fig 113480</name>
        <duration>375</duration>
        <rate><timebase>30</timebase></rate>
        <start>52149</start>
        <end>52524</end>
        <in>0</in>
        <out>375</out>
        <file id="file-89">
          <name>char_14384_12672.webp</name>
          <pathurl>file://localhost/C:/PROJECT_ROOT/assets/char_14384_12672.webp</pathurl>
          <rate><timebase>30</timebase></rate>
          <media>
             <video>
                <samplecharacteristics>
                  <width>1920</width>
                  <height>1080</height>
                  <pixelaspectratio>square</pixelaspectratio>
                </samplecharacteristics>
             </video>
             
          </media>
        </file>
        
            <filter>
              <effect>
                <name>Basic Motion</name>
                <effectid>basic</effectid>
                <effectcategory>motion</effectcategory>
                <effecttype>motion</effecttype>
                <mediatype>video</mediatype>
                <parameter>
                  <parameterid>scale</parameterid>
                  <name>Scale</name>
                  <valuemin>0</valuemin>
                  <valuemax>1000</valuemax>
                  <value>100</value>
                </parameter>
                <parameter>
                  <parameterid>center</parameterid>
                  <name>Center</name>
                  <value>
                    <horiz>0.00000</horiz>
                    <vert>0.05000</vert>
                  </value>
                </parameter>
              </effect>
            </filter>
      </clipitem>

      <clipitem id="clipitem-569">
        <name>Fig 113482</name>
        <duration>372</duration>
        <rate><timebase>30</timebase></rate>
        <start>52524</start>
        <end>52896</end>
        <in>0</in>
        <out>372</out>
        <file id="file-1">
          <name>char_14383_12670.webp</name>
          <pathurl>file://localhost/C:/PROJECT_ROOT/assets/char_14383_12670.webp</pathurl>
          <rate><timebase>30</timebase></rate>
          <media>
             <video>
                <samplecharacteristics>
                  <width>1920</width>
                  <height>1080</height>
                  <pixelaspectratio>square</pixelaspectratio>
                </samplecharacteristics>
             </video>
             
          </media>
        </file>
        
            <filter>
              <effect>
                <name>Basic Motion</name>
                <effectid>basic</effectid>
                <effectcategory>motion</effectcategory>
                <effecttype>motion</effecttype>
                <mediatype>video</mediatype>
                <parameter>
                  <parameterid>scale</parameterid>
                  <name>Scale</name>
                  <valuemin>0</valuemin>
                  <valuemax>1000</valuemax>
                  <value>100</value>
                </parameter>
                <parameter>
                  <parameterid>center</parameterid>
                  <name>Center</name>
                  <value>
                    <horiz>0.00000</horiz>
                    <vert>0.05000</vert>
                  </value>
                </parameter>
              </effect>
            </filter>
      </clipitem>

      <clipitem id="clipitem-571">
        <name>Fig 113575</name>
        <duration>205</duration>
        <rate><timebase>30</timebase></rate>
        <start>52896</start>
        <end>53101</end>
        <in>0</in>
        <out>205</out>
        <file id="file-89">
          <name>char_14384_12672.webp</name>
          <pathurl>file://localhost/C:/PROJECT_ROOT/assets/char_14384_12672.webp</pathurl>
          <rate><timebase>30</timebase></rate>
          <media>
             <video>
                <samplecharacteristics>
                  <width>1920</width>
                  <height>1080</height>
                  <pixelaspectratio>square</pixelaspectratio>
                </samplecharacteristics>
             </video>
             
          </media>
        </file>
        
            <filter>
              <effect>
                <name>Basic Motion</name>
                <effectid>basic</effectid>
                <effectcategory>motion</effectcategory>
                <effecttype>motion</effecttype>
                <mediatype>video</mediatype>
                <parameter>
                  <parameterid>scale</parameterid>
                  <name>Scale</name>
                  <valuemin>0</valuemin>
                  <valuemax>1000</valuemax>
                  <value>100</value>
                </parameter>
                <parameter>
                  <parameterid>center</parameterid>
                  <name>Center</name>
                  <value>
                    <horiz>0.00000</horiz>
                    <vert>0.05000</vert>
                  </value>
                </parameter>
              </effect>
            </filter>
      </clipitem>

      <clipitem id="clipitem-573">
        <name>Fig 113483</name>
        <duration>78</duration>
        <rate><timebase>30</timebase></rate>
        <start>53101</start>
        <end>53179</end>
        <in>0</in>
        <out>78</out>
        <file id="file-3">
          <name>char_14385_12675.webp</name>
          <pathurl>file://localhost/C:/PROJECT_ROOT/assets/char_14385_12675.webp</pathurl>
          <rate><timebase>30</timebase></rate>
          <media>
             <video>
                <samplecharacteristics>
                  <width>1920</width>
                  <height>1080</height>
                  <pixelaspectratio>square</pixelaspectratio>
                </samplecharacteristics>
             </video>
             
          </media>
        </file>
        
            <filter>
              <effect>
                <name>Basic Motion</name>
                <effectid>basic</effectid>
                <effectcategory>motion</effectcategory>
                <effecttype>motion</effecttype>
                <mediatype>video</mediatype>
                <parameter>
                  <parameterid>scale</parameterid>
                  <name>Scale</name>
                  <valuemin>0</valuemin>
                  <valuemax>1000</valuemax>
                  <value>50</value>
                </parameter>
                <parameter>
                  <parameterid>center</parameterid>
                  <name>Center</name>
                  <value>
                    <horiz>0.00000</horiz>
                    <vert>0.05000</vert>
                  </value>
                </parameter>
              </effect>
            </filter>
      </clipitem>

      <clipitem id="clipitem-575">
        <name>Fig 113484</name>
        <duration>41</duration>
        <rate><timebase>30</timebase></rate>
        <start>53179</start>
        <end>53220</end>
        <in>0</in>
        <out>41</out>
        <file id="file-1">
          <name>char_14383_12670.webp</name>
          <pathurl>file://localhost/C:/PROJECT_ROOT/assets/char_14383_12670.webp</pathurl>
          <rate><timebase>30</timebase></rate>
          <media>
             <video>
                <samplecharacteristics>
                  <width>1920</width>
                  <height>1080</height>
                  <pixelaspectratio>square</pixelaspectratio>
                </samplecharacteristics>
             </video>
             
          </media>
        </file>
        
            <filter>
              <effect>
                <name>Basic Motion</name>
                <effectid>basic</effectid>
                <effectcategory>motion</effectcategory>
                <effecttype>motion</effecttype>
                <mediatype>video</mediatype>
                <parameter>
                  <parameterid>scale</parameterid>
                  <name>Scale</name>
                  <valuemin>0</valuemin>
                  <valuemax>1000</valuemax>
                  <value>100</value>
                </parameter>
                <parameter>
                  <parameterid>center</parameterid>
                  <name>Center</name>
                  <value>
                    <horiz>0.00000</horiz>
                    <vert>0.05000</vert>
                  </value>
                </parameter>
              </effect>
            </filter>
      </clipitem>

      <clipitem id="clipitem-577">
        <name>Fig 113485</name>
        <duration>291</duration>
        <rate><timebase>30</timebase></rate>
        <start>53220</start>
        <end>53511</end>
        <in>0</in>
        <out>291</out>
        <file id="file-3">
          <name>char_14385_12675.webp</name>
          <pathurl>file://localhost/C:/PROJECT_ROOT/assets/char_14385_12675.webp</pathurl>
          <rate><timebase>30</timebase></rate>
          <media>
             <video>
                <samplecharacteristics>
                  <width>1920</width>
                  <height>1080</height>
                  <pixelaspectratio>square</pixelaspectratio>
                </samplecharacteristics>
             </video>
             
          </media>
        </file>
        
            <filter>
              <effect>
                <name>Basic Motion</name>
                <effectid>basic</effectid>
                <effectcategory>motion</effectcategory>
                <effecttype>motion</effecttype>
                <mediatype>video</mediatype>
                <parameter>
                  <parameterid>scale</parameterid>
                  <name>Scale</name>
                  <valuemin>0</valuemin>
                  <valuemax>1000</valuemax>
                  <value>50</value>
                </parameter>
                <parameter>
                  <parameterid>center</parameterid>
                  <name>Center</name>
                  <value>
                    <horiz>0.00000</horiz>
                    <vert>0.05000</vert>
                  </value>
                </parameter>
              </effect>
            </filter>
      </clipitem>

      <clipitem id="clipitem-579">
        <name>Fig 113576</name>
        <duration>260</duration>
        <rate><timebase>30</timebase></rate>
        <start>53511</start>
        <end>53771</end>
        <in>0</in>
        <out>260</out>
        <file id="file-367">
          <name>char_14383_13041.webp</name>
          <pathurl>file://localhost/C:/PROJECT_ROOT/assets/char_14383_13041.webp</pathurl>
          <rate><timebase>30</timebase></rate>
          <media>
             <video>
                <samplecharacteristics>
                  <width>1920</width>
                  <height>1080</height>
                  <pixelaspectratio>square</pixelaspectratio>
                </samplecharacteristics>
             </video>
             
          </media>
        </file>
        
            <filter>
              <effect>
                <name>Basic Motion</name>
                <effectid>basic</effectid>
                <effectcategory>motion</effectcategory>
                <effecttype>motion</effecttype>
                <mediatype>video</mediatype>
                <parameter>
                  <parameterid>scale</parameterid>
                  <name>Scale</name>
                  <valuemin>0</valuemin>
                  <valuemax>1000</valuemax>
                  <value>150</value>
                </parameter>
                <parameter>
                  <parameterid>center</parameterid>
                  <name>Center</name>
                  <value>
                    <horiz>0.00000</horiz>
                    <vert>0.05000</vert>
                  </value>
                </parameter>
              </effect>
            </filter>
      </clipitem>

      <clipitem id="clipitem-581">
        <name>Fig 113577</name>
        <duration>300</duration>
        <rate><timebase>30</timebase></rate>
        <start>53771</start>
        <end>54071</end>
        <in>0</in>
        <out>300</out>
        <file id="file-369">
          <name>char_14383_13037.webp</name>
          <pathurl>file://localhost/C:/PROJECT_ROOT/assets/char_14383_13037.webp</pathurl>
          <rate><timebase>30</timebase></rate>
          <media>
             <video>
                <samplecharacteristics>
                  <width>1920</width>
                  <height>1080</height>
                  <pixelaspectratio>square</pixelaspectratio>
                </samplecharacteristics>
             </video>
             
          </media>
        </file>
        
            <filter>
              <effect>
                <name>Basic Motion</name>
                <effectid>basic</effectid>
                <effectcategory>motion</effectcategory>
                <effecttype>motion</effecttype>
                <mediatype>video</mediatype>
                <parameter>
                  <parameterid>scale</parameterid>
                  <name>Scale</name>
                  <valuemin>0</valuemin>
                  <valuemax>1000</valuemax>
                  <value>150</value>
                </parameter>
                <parameter>
                  <parameterid>center</parameterid>
                  <name>Center</name>
                  <value>
                    <horiz>0.00000</horiz>
                    <vert>0.05000</vert>
                  </value>
                </parameter>
              </effect>
            </filter>
      </clipitem>

      <clipitem id="clipitem-583">
        <name>Fig 113578</name>
        <duration>85</duration>
        <rate><timebase>30</timebase></rate>
        <start>54071</start>
        <end>54156</end>
        <in>0</in>
        <out>85</out>
        <file id="file-130">
          <name>char_14384_12966.webp</name>
          <pathurl>file://localhost/C:/PROJECT_ROOT/assets/char_14384_12966.webp</pathurl>
          <rate><timebase>30</timebase></rate>
          <media>
             <video>
                <samplecharacteristics>
                  <width>1920</width>
                  <height>1080</height>
                  <pixelaspectratio>square</pixelaspectratio>
                </samplecharacteristics>
             </video>
             
          </media>
        </file>
        
            <filter>
              <effect>
                <name>Basic Motion</name>
                <effectid>basic</effectid>
                <effectcategory>motion</effectcategory>
                <effecttype>motion</effecttype>
                <mediatype>video</mediatype>
                <parameter>
                  <parameterid>scale</parameterid>
                  <name>Scale</name>
                  <valuemin>0</valuemin>
                  <valuemax>1000</valuemax>
                  <value>150</value>
                </parameter>
                <parameter>
                  <parameterid>center</parameterid>
                  <name>Center</name>
                  <value>
                    <horiz>0.00000</horiz>
                    <vert>0.05000</vert>
                  </value>
                </parameter>
              </effect>
            </filter>
      </clipitem>

      <clipitem id="clipitem-585">
        <name>Fig 113486</name>
        <duration>225</duration>
        <rate><timebase>30</timebase></rate>
        <start>54156</start>
        <end>54381</end>
        <in>0</in>
        <out>225</out>
        <file id="file-1">
          <name>char_14383_12670.webp</name>
          <pathurl>file://localhost/C:/PROJECT_ROOT/assets/char_14383_12670.webp</pathurl>
          <rate><timebase>30</timebase></rate>
          <media>
             <video>
                <samplecharacteristics>
                  <width>1920</width>
                  <height>1080</height>
                  <pixelaspectratio>square</pixelaspectratio>
                </samplecharacteristics>
             </video>
             
          </media>
        </file>
        
            <filter>
              <effect>
                <name>Basic Motion</name>
                <effectid>basic</effectid>
                <effectcategory>motion</effectcategory>
                <effecttype>motion</effecttype>
                <mediatype>video</mediatype>
                <parameter>
                  <parameterid>scale</parameterid>
                  <name>Scale</name>
                  <valuemin>0</valuemin>
                  <valuemax>1000</valuemax>
                  <value>100</value>
                </parameter>
                <parameter>
                  <parameterid>center</parameterid>
                  <name>Center</name>
                  <value>
                    <horiz>0.00000</horiz>
                    <vert>0.05000</vert>
                  </value>
                </parameter>
              </effect>
            </filter>
      </clipitem>

      <clipitem id="clipitem-587">
        <name>Fig 113487</name>
        <duration>241</duration>
        <rate><timebase>30</timebase></rate>
        <start>54381</start>
        <end>54622</end>
        <in>0</in>
        <out>241</out>
        <file id="file-3">
          <name>char_14385_12675.webp</name>
          <pathurl>file://localhost/C:/PROJECT_ROOT/assets/char_14385_12675.webp</pathurl>
          <rate><timebase>30</timebase></rate>
          <media>
             <video>
                <samplecharacteristics>
                  <width>1920</width>
                  <height>1080</height>
                  <pixelaspectratio>square</pixelaspectratio>
                </samplecharacteristics>
             </video>
             
          </media>
        </file>
        
            <filter>
              <effect>
                <name>Basic Motion</name>
                <effectid>basic</effectid>
                <effectcategory>motion</effectcategory>
                <effecttype>motion</effecttype>
                <mediatype>video</mediatype>
                <parameter>
                  <parameterid>scale</parameterid>
                  <name>Scale</name>
                  <valuemin>0</valuemin>
                  <valuemax>1000</valuemax>
                  <value>50</value>
                </parameter>
                <parameter>
                  <parameterid>center</parameterid>
                  <name>Center</name>
                  <value>
                    <horiz>0.00000</horiz>
                    <vert>0.05000</vert>
                  </value>
                </parameter>
              </effect>
            </filter>
      </clipitem>

      <clipitem id="clipitem-589">
        <name>Fig 113583</name>
        <duration>134</duration>
        <rate><timebase>30</timebase></rate>
        <start>54622</start>
        <end>54756</end>
        <in>0</in>
        <out>134</out>
        <file id="file-1">
          <name>char_14383_12670.webp</name>
          <pathurl>file://localhost/C:/PROJECT_ROOT/assets/char_14383_12670.webp</pathurl>
          <rate><timebase>30</timebase></rate>
          <media>
             <video>
                <samplecharacteristics>
                  <width>1920</width>
                  <height>1080</height>
                  <pixelaspectratio>square</pixelaspectratio>
                </samplecharacteristics>
             </video>
             
          </media>
        </file>
        
            <filter>
              <effect>
                <name>Basic Motion</name>
                <effectid>basic</effectid>
                <effectcategory>motion</effectcategory>
                <effecttype>motion</effecttype>
                <mediatype>video</mediatype>
                <parameter>
                  <parameterid>scale</parameterid>
                  <name>Scale</name>
                  <valuemin>0</valuemin>
                  <valuemax>1000</valuemax>
                  <value>100</value>
                </parameter>
                <parameter>
                  <parameterid>center</parameterid>
                  <name>Center</name>
                  <value>
                    <horiz>0.00000</horiz>
                    <vert>0.05000</vert>
                  </value>
                </parameter>
              </effect>
            </filter>
      </clipitem>

      <clipitem id="clipitem-591">
        <name>Fig 113584</name>
        <duration>228</duration>
        <rate><timebase>30</timebase></rate>
        <start>54756</start>
        <end>54984</end>
        <in>0</in>
        <out>228</out>
        <file id="file-3">
          <name>char_14385_12675.webp</name>
          <pathurl>file://localhost/C:/PROJECT_ROOT/assets/char_14385_12675.webp</pathurl>
          <rate><timebase>30</timebase></rate>
          <media>
             <video>
                <samplecharacteristics>
                  <width>1920</width>
                  <height>1080</height>
                  <pixelaspectratio>square</pixelaspectratio>
                </samplecharacteristics>
             </video>
             
          </media>
        </file>
        
            <filter>
              <effect>
                <name>Basic Motion</name>
                <effectid>basic</effectid>
                <effectcategory>motion</effectcategory>
                <effecttype>motion</effecttype>
                <mediatype>video</mediatype>
                <parameter>
                  <parameterid>scale</parameterid>
                  <name>Scale</name>
                  <valuemin>0</valuemin>
                  <valuemax>1000</valuemax>
                  <value>50</value>
                </parameter>
                <parameter>
                  <parameterid>center</parameterid>
                  <name>Center</name>
                  <value>
                    <horiz>0.00000</horiz>
                    <vert>0.05000</vert>
                  </value>
                </parameter>
              </effect>
            </filter>
      </clipitem>

      <clipitem id="clipitem-595">
        <name>Fig 113488</name>
        <duration>158</duration>
        <rate><timebase>30</timebase></rate>
        <start>55020</start>
        <end>55178</end>
        <in>0</in>
        <out>158</out>
        <file id="file-3">
          <name>char_14385_12675.webp</name>
          <pathurl>file://localhost/C:/PROJECT_ROOT/assets/char_14385_12675.webp</pathurl>
          <rate><timebase>30</timebase></rate>
          <media>
             <video>
                <samplecharacteristics>
                  <width>1920</width>
                  <height>1080</height>
                  <pixelaspectratio>square</pixelaspectratio>
                </samplecharacteristics>
             </video>
             
          </media>
        </file>
        
            <filter>
              <effect>
                <name>Basic Motion</name>
                <effectid>basic</effectid>
                <effectcategory>motion</effectcategory>
                <effecttype>motion</effecttype>
                <mediatype>video</mediatype>
                <parameter>
                  <parameterid>scale</parameterid>
                  <name>Scale</name>
                  <valuemin>0</valuemin>
                  <valuemax>1000</valuemax>
                  <value>50</value>
                </parameter>
                <parameter>
                  <parameterid>center</parameterid>
                  <name>Center</name>
                  <value>
                    <horiz>0.00000</horiz>
                    <vert>0.05000</vert>
                  </value>
                </parameter>
              </effect>
            </filter>
      </clipitem>

      <clipitem id="clipitem-600">
        <name>Fig 113489</name>
        <duration>497</duration>
        <rate><timebase>30</timebase></rate>
        <start>55485</start>
        <end>55982</end>
        <in>0</in>
        <out>497</out>
        <file id="file-3">
          <name>char_14385_12675.webp</name>
          <pathurl>file://localhost/C:/PROJECT_ROOT/assets/char_14385_12675.webp</pathurl>
          <rate><timebase>30</timebase></rate>
          <media>
             <video>
                <samplecharacteristics>
                  <width>1920</width>
                  <height>1080</height>
                  <pixelaspectratio>square</pixelaspectratio>
                </samplecharacteristics>
             </video>
             
          </media>
        </file>
        
            <filter>
              <effect>
                <name>Basic Motion</name>
                <effectid>basic</effectid>
                <effectcategory>motion</effectcategory>
                <effecttype>motion</effecttype>
                <mediatype>video</mediatype>
                <parameter>
                  <parameterid>scale</parameterid>
                  <name>Scale</name>
                  <valuemin>0</valuemin>
                  <valuemax>1000</valuemax>
                  <value>50</value>
                </parameter>
                <parameter>
                  <parameterid>center</parameterid>
                  <name>Center</name>
                  <value>
                    <horiz>0.00000</horiz>
                    <vert>0.05000</vert>
                  </value>
                </parameter>
              </effect>
            </filter>
      </clipitem>

      <clipitem id="clipitem-602">
        <name>Fig 113586</name>
        <duration>148</duration>
        <rate><timebase>30</timebase></rate>
        <start>55982</start>
        <end>56130</end>
        <in>0</in>
        <out>148</out>
        <file id="file-89">
          <name>char_14384_12672.webp</name>
          <pathurl>file://localhost/C:/PROJECT_ROOT/assets/char_14384_12672.webp</pathurl>
          <rate><timebase>30</timebase></rate>
          <media>
             <video>
                <samplecharacteristics>
                  <width>1920</width>
                  <height>1080</height>
                  <pixelaspectratio>square</pixelaspectratio>
                </samplecharacteristics>
             </video>
             
          </media>
        </file>
        
            <filter>
              <effect>
                <name>Basic Motion</name>
                <effectid>basic</effectid>
                <effectcategory>motion</effectcategory>
                <effecttype>motion</effecttype>
                <mediatype>video</mediatype>
                <parameter>
                  <parameterid>scale</parameterid>
                  <name>Scale</name>
                  <valuemin>0</valuemin>
                  <valuemax>1000</valuemax>
                  <value>100</value>
                </parameter>
                <parameter>
                  <parameterid>center</parameterid>
                  <name>Center</name>
                  <value>
                    <horiz>0.00000</horiz>
                    <vert>0.05000</vert>
                  </value>
                </parameter>
              </effect>
            </filter>
      </clipitem>

      <clipitem id="clipitem-605">
        <name>Fig 113492</name>
        <duration>185</duration>
        <rate><timebase>30</timebase></rate>
        <start>56130</start>
        <end>56315</end>
        <in>0</in>
        <out>185</out>
        <file id="file-1">
          <name>char_14383_12670.webp</name>
          <pathurl>file://localhost/C:/PROJECT_ROOT/assets/char_14383_12670.webp</pathurl>
          <rate><timebase>30</timebase></rate>
          <media>
             <video>
                <samplecharacteristics>
                  <width>1920</width>
                  <height>1080</height>
                  <pixelaspectratio>square</pixelaspectratio>
                </samplecharacteristics>
             </video>
             
          </media>
        </file>
        
            <filter>
              <effect>
                <name>Basic Motion</name>
                <effectid>basic</effectid>
                <effectcategory>motion</effectcategory>
                <effecttype>motion</effecttype>
                <mediatype>video</mediatype>
                <parameter>
                  <parameterid>scale</parameterid>
                  <name>Scale</name>
                  <valuemin>0</valuemin>
                  <valuemax>1000</valuemax>
                  <value>100</value>
                </parameter>
                <parameter>
                  <parameterid>center</parameterid>
                  <name>Center</name>
                  <value>
                    <horiz>0.00000</horiz>
                    <vert>0.05000</vert>
                  </value>
                </parameter>
              </effect>
            </filter>
      </clipitem>

      <clipitem id="clipitem-607">
        <name>Fig 113493</name>
        <duration>64</duration>
        <rate><timebase>30</timebase></rate>
        <start>56315</start>
        <end>56379</end>
        <in>0</in>
        <out>64</out>
        <file id="file-3">
          <name>char_14385_12675.webp</name>
          <pathurl>file://localhost/C:/PROJECT_ROOT/assets/char_14385_12675.webp</pathurl>
          <rate><timebase>30</timebase></rate>
          <media>
             <video>
                <samplecharacteristics>
                  <width>1920</width>
                  <height>1080</height>
                  <pixelaspectratio>square</pixelaspectratio>
                </samplecharacteristics>
             </video>
             
          </media>
        </file>
        
            <filter>
              <effect>
                <name>Basic Motion</name>
                <effectid>basic</effectid>
                <effectcategory>motion</effectcategory>
                <effecttype>motion</effecttype>
                <mediatype>video</mediatype>
                <parameter>
                  <parameterid>scale</parameterid>
                  <name>Scale</name>
                  <valuemin>0</valuemin>
                  <valuemax>1000</valuemax>
                  <value>50</value>
                </parameter>
                <parameter>
                  <parameterid>center</parameterid>
                  <name>Center</name>
                  <value>
                    <horiz>0.00000</horiz>
                    <vert>0.05000</vert>
                  </value>
                </parameter>
              </effect>
            </filter>
      </clipitem>

      <clipitem id="clipitem-610">
        <name>Fig 113495</name>
        <duration>40</duration>
        <rate><timebase>30</timebase></rate>
        <start>56379</start>
        <end>56419</end>
        <in>0</in>
        <out>40</out>
        <file id="file-1">
          <name>char_14383_12670.webp</name>
          <pathurl>file://localhost/C:/PROJECT_ROOT/assets/char_14383_12670.webp</pathurl>
          <rate><timebase>30</timebase></rate>
          <media>
             <video>
                <samplecharacteristics>
                  <width>1920</width>
                  <height>1080</height>
                  <pixelaspectratio>square</pixelaspectratio>
                </samplecharacteristics>
             </video>
             
          </media>
        </file>
        
            <filter>
              <effect>
                <name>Basic Motion</name>
                <effectid>basic</effectid>
                <effectcategory>motion</effectcategory>
                <effecttype>motion</effecttype>
                <mediatype>video</mediatype>
                <parameter>
                  <parameterid>scale</parameterid>
                  <name>Scale</name>
                  <valuemin>0</valuemin>
                  <valuemax>1000</valuemax>
                  <value>100</value>
                </parameter>
                <parameter>
                  <parameterid>center</parameterid>
                  <name>Center</name>
                  <value>
                    <horiz>0.00000</horiz>
                    <vert>0.05000</vert>
                  </value>
                </parameter>
              </effect>
            </filter>
      </clipitem>

      <clipitem id="clipitem-611">
        <name>Fig 113496</name>
        <duration>187</duration>
        <rate><timebase>30</timebase></rate>
        <start>56419</start>
        <end>56606</end>
        <in>0</in>
        <out>187</out>
        <file id="file-53">
          <name>char_2_138.webp</name>
          <pathurl>file://localhost/C:/PROJECT_ROOT/assets/char_2_138.webp</pathurl>
          <rate><timebase>30</timebase></rate>
          <media>
             <video>
                <samplecharacteristics>
                  <width>1920</width>
                  <height>1080</height>
                  <pixelaspectratio>square</pixelaspectratio>
                </samplecharacteristics>
             </video>
             
          </media>
        </file>
        
            <filter>
              <effect>
                <name>Basic Motion</name>
                <effectid>basic</effectid>
                <effectcategory>motion</effectcategory>
                <effecttype>motion</effecttype>
                <mediatype>video</mediatype>
                <parameter>
                  <parameterid>scale</parameterid>
                  <name>Scale</name>
                  <valuemin>0</valuemin>
                  <valuemax>1000</valuemax>
                  <value>67.5</value>
                </parameter>
                <parameter>
                  <parameterid>center</parameterid>
                  <name>Center</name>
                  <value>
                    <horiz>0.00000</horiz>
                    <vert>0.05000</vert>
                  </value>
                </parameter>
              </effect>
            </filter>
      </clipitem>

      <clipitem id="clipitem-613">
        <name>Fig 113497</name>
        <duration>43</duration>
        <rate><timebase>30</timebase></rate>
        <start>56606</start>
        <end>56649</end>
        <in>0</in>
        <out>43</out>
        <file id="file-89">
          <name>char_14384_12672.webp</name>
          <pathurl>file://localhost/C:/PROJECT_ROOT/assets/char_14384_12672.webp</pathurl>
          <rate><timebase>30</timebase></rate>
          <media>
             <video>
                <samplecharacteristics>
                  <width>1920</width>
                  <height>1080</height>
                  <pixelaspectratio>square</pixelaspectratio>
                </samplecharacteristics>
             </video>
             
          </media>
        </file>
        
            <filter>
              <effect>
                <name>Basic Motion</name>
                <effectid>basic</effectid>
                <effectcategory>motion</effectcategory>
                <effecttype>motion</effecttype>
                <mediatype>video</mediatype>
                <parameter>
                  <parameterid>scale</parameterid>
                  <name>Scale</name>
                  <valuemin>0</valuemin>
                  <valuemax>1000</valuemax>
                  <value>100</value>
                </parameter>
                <parameter>
                  <parameterid>center</parameterid>
                  <name>Center</name>
                  <value>
                    <horiz>0.00000</horiz>
                    <vert>0.05000</vert>
                  </value>
                </parameter>
              </effect>
            </filter>
      </clipitem>

      <clipitem id="clipitem-614">
        <name>Fig 113498</name>
        <duration>172</duration>
        <rate><timebase>30</timebase></rate>
        <start>56649</start>
        <end>56821</end>
        <in>0</in>
        <out>172</out>
        <file id="file-53">
          <name>char_2_138.webp</name>
          <pathurl>file://localhost/C:/PROJECT_ROOT/assets/char_2_138.webp</pathurl>
          <rate><timebase>30</timebase></rate>
          <media>
             <video>
                <samplecharacteristics>
                  <width>1920</width>
                  <height>1080</height>
                  <pixelaspectratio>square</pixelaspectratio>
                </samplecharacteristics>
             </video>
             
          </media>
        </file>
        
            <filter>
              <effect>
                <name>Basic Motion</name>
                <effectid>basic</effectid>
                <effectcategory>motion</effectcategory>
                <effecttype>motion</effecttype>
                <mediatype>video</mediatype>
                <parameter>
                  <parameterid>scale</parameterid>
                  <name>Scale</name>
                  <valuemin>0</valuemin>
                  <valuemax>1000</valuemax>
                  <value>67.5</value>
                </parameter>
                <parameter>
                  <parameterid>center</parameterid>
                  <name>Center</name>
                  <value>
                    <horiz>0.00000</horiz>
                    <vert>0.05000</vert>
                  </value>
                </parameter>
              </effect>
            </filter>
      </clipitem>

      <clipitem id="clipitem-616">
        <name>Fig 113499</name>
        <duration>258</duration>
        <rate><timebase>30</timebase></rate>
        <start>56821</start>
        <end>57079</end>
        <in>0</in>
        <out>258</out>
        <file id="file-1">
          <name>char_14383_12670.webp</name>
          <pathurl>file://localhost/C:/PROJECT_ROOT/assets/char_14383_12670.webp</pathurl>
          <rate><timebase>30</timebase></rate>
          <media>
             <video>
                <samplecharacteristics>
                  <width>1920</width>
                  <height>1080</height>
                  <pixelaspectratio>square</pixelaspectratio>
                </samplecharacteristics>
             </video>
             
          </media>
        </file>
        
            <filter>
              <effect>
                <name>Basic Motion</name>
                <effectid>basic</effectid>
                <effectcategory>motion</effectcategory>
                <effecttype>motion</effecttype>
                <mediatype>video</mediatype>
                <parameter>
                  <parameterid>scale</parameterid>
                  <name>Scale</name>
                  <valuemin>0</valuemin>
                  <valuemax>1000</valuemax>
                  <value>100</value>
                </parameter>
                <parameter>
                  <parameterid>center</parameterid>
                  <name>Center</name>
                  <value>
                    <horiz>0.00000</horiz>
                    <vert>0.05000</vert>
                  </value>
                </parameter>
              </effect>
            </filter>
      </clipitem>

      <clipitem id="clipitem-619">
        <name>Fig 113501</name>
        <duration>118</duration>
        <rate><timebase>30</timebase></rate>
        <start>57079</start>
        <end>57197</end>
        <in>0</in>
        <out>118</out>
        <file id="file-3">
          <name>char_14385_12675.webp</name>
          <pathurl>file://localhost/C:/PROJECT_ROOT/assets/char_14385_12675.webp</pathurl>
          <rate><timebase>30</timebase></rate>
          <media>
             <video>
                <samplecharacteristics>
                  <width>1920</width>
                  <height>1080</height>
                  <pixelaspectratio>square</pixelaspectratio>
                </samplecharacteristics>
             </video>
             
          </media>
        </file>
        
            <filter>
              <effect>
                <name>Basic Motion</name>
                <effectid>basic</effectid>
                <effectcategory>motion</effectcategory>
                <effecttype>motion</effecttype>
                <mediatype>video</mediatype>
                <parameter>
                  <parameterid>scale</parameterid>
                  <name>Scale</name>
                  <valuemin>0</valuemin>
                  <valuemax>1000</valuemax>
                  <value>50</value>
                </parameter>
                <parameter>
                  <parameterid>center</parameterid>
                  <name>Center</name>
                  <value>
                    <horiz>0.00000</horiz>
                    <vert>0.05000</vert>
                  </value>
                </parameter>
              </effect>
            </filter>
      </clipitem>

      <clipitem id="clipitem-621">
        <name>Fig 113502</name>
        <duration>39</duration>
        <rate><timebase>30</timebase></rate>
        <start>57197</start>
        <end>57236</end>
        <in>0</in>
        <out>39</out>
        <file id="file-89">
          <name>char_14384_12672.webp</name>
          <pathurl>file://localhost/C:/PROJECT_ROOT/assets/char_14384_12672.webp</pathurl>
          <rate><timebase>30</timebase></rate>
          <media>
             <video>
                <samplecharacteristics>
                  <width>1920</width>
                  <height>1080</height>
                  <pixelaspectratio>square</pixelaspectratio>
                </samplecharacteristics>
             </video>
             
          </media>
        </file>
        
            <filter>
              <effect>
                <name>Basic Motion</name>
                <effectid>basic</effectid>
                <effectcategory>motion</effectcategory>
                <effecttype>motion</effecttype>
                <mediatype>video</mediatype>
                <parameter>
                  <parameterid>scale</parameterid>
                  <name>Scale</name>
                  <valuemin>0</valuemin>
                  <valuemax>1000</valuemax>
                  <value>100</value>
                </parameter>
                <parameter>
                  <parameterid>center</parameterid>
                  <name>Center</name>
                  <value>
                    <horiz>0.00000</horiz>
                    <vert>0.05000</vert>
                  </value>
                </parameter>
              </effect>
            </filter>
      </clipitem>

      <clipitem id="clipitem-623">
        <name>Fig 113503</name>
        <duration>82</duration>
        <rate><timebase>30</timebase></rate>
        <start>57236</start>
        <end>57318</end>
        <in>0</in>
        <out>82</out>
        <file id="file-1">
          <name>char_14383_12670.webp</name>
          <pathurl>file://localhost/C:/PROJECT_ROOT/assets/char_14383_12670.webp</pathurl>
          <rate><timebase>30</timebase></rate>
          <media>
             <video>
                <samplecharacteristics>
                  <width>1920</width>
                  <height>1080</height>
                  <pixelaspectratio>square</pixelaspectratio>
                </samplecharacteristics>
             </video>
             
          </media>
        </file>
        
            <filter>
              <effect>
                <name>Basic Motion</name>
                <effectid>basic</effectid>
                <effectcategory>motion</effectcategory>
                <effecttype>motion</effecttype>
                <mediatype>video</mediatype>
                <parameter>
                  <parameterid>scale</parameterid>
                  <name>Scale</name>
                  <valuemin>0</valuemin>
                  <valuemax>1000</valuemax>
                  <value>100</value>
                </parameter>
                <parameter>
                  <parameterid>center</parameterid>
                  <name>Center</name>
                  <value>
                    <horiz>0.00000</horiz>
                    <vert>0.05000</vert>
                  </value>
                </parameter>
              </effect>
            </filter>
      </clipitem>

      <clipitem id="clipitem-625">
        <name>Fig 113504</name>
        <duration>176</duration>
        <rate><timebase>30</timebase></rate>
        <start>57318</start>
        <end>57494</end>
        <in>0</in>
        <out>176</out>
        <file id="file-3">
          <name>char_14385_12675.webp</name>
          <pathurl>file://localhost/C:/PROJECT_ROOT/assets/char_14385_12675.webp</pathurl>
          <rate><timebase>30</timebase></rate>
          <media>
             <video>
                <samplecharacteristics>
                  <width>1920</width>
                  <height>1080</height>
                  <pixelaspectratio>square</pixelaspectratio>
                </samplecharacteristics>
             </video>
             
          </media>
        </file>
        
            <filter>
              <effect>
                <name>Basic Motion</name>
                <effectid>basic</effectid>
                <effectcategory>motion</effectcategory>
                <effecttype>motion</effecttype>
                <mediatype>video</mediatype>
                <parameter>
                  <parameterid>scale</parameterid>
                  <name>Scale</name>
                  <valuemin>0</valuemin>
                  <valuemax>1000</valuemax>
                  <value>50</value>
                </parameter>
                <parameter>
                  <parameterid>center</parameterid>
                  <name>Center</name>
                  <value>
                    <horiz>0.00000</horiz>
                    <vert>0.05000</vert>
                  </value>
                </parameter>
              </effect>
            </filter>
      </clipitem>

      <clipitem id="clipitem-627">
        <name>Fig 113505</name>
        <duration>75</duration>
        <rate><timebase>30</timebase></rate>
        <start>57494</start>
        <end>57569</end>
        <in>0</in>
        <out>75</out>
        <file id="file-1">
          <name>char_14383_12670.webp</name>
          <pathurl>file://localhost/C:/PROJECT_ROOT/assets/char_14383_12670.webp</pathurl>
          <rate><timebase>30</timebase></rate>
          <media>
             <video>
                <samplecharacteristics>
                  <width>1920</width>
                  <height>1080</height>
                  <pixelaspectratio>square</pixelaspectratio>
                </samplecharacteristics>
             </video>
             
          </media>
        </file>
        
            <filter>
              <effect>
                <name>Basic Motion</name>
                <effectid>basic</effectid>
                <effectcategory>motion</effectcategory>
                <effecttype>motion</effecttype>
                <mediatype>video</mediatype>
                <parameter>
                  <parameterid>scale</parameterid>
                  <name>Scale</name>
                  <valuemin>0</valuemin>
                  <valuemax>1000</valuemax>
                  <value>100</value>
                </parameter>
                <parameter>
                  <parameterid>center</parameterid>
                  <name>Center</name>
                  <value>
                    <horiz>0.00000</horiz>
                    <vert>0.05000</vert>
                  </value>
                </parameter>
              </effect>
            </filter>
      </clipitem>

      <clipitem id="clipitem-629">
        <name>Fig 113506</name>
        <duration>624</duration>
        <rate><timebase>30</timebase></rate>
        <start>57569</start>
        <end>58193</end>
        <in>0</in>
        <out>624</out>
        <file id="file-3">
          <name>char_14385_12675.webp</name>
          <pathurl>file://localhost/C:/PROJECT_ROOT/assets/char_14385_12675.webp</pathurl>
          <rate><timebase>30</timebase></rate>
          <media>
             <video>
                <samplecharacteristics>
                  <width>1920</width>
                  <height>1080</height>
                  <pixelaspectratio>square</pixelaspectratio>
                </samplecharacteristics>
             </video>
             
          </media>
        </file>
        
            <filter>
              <effect>
                <name>Basic Motion</name>
                <effectid>basic</effectid>
                <effectcategory>motion</effectcategory>
                <effecttype>motion</effecttype>
                <mediatype>video</mediatype>
                <parameter>
                  <parameterid>scale</parameterid>
                  <name>Scale</name>
                  <valuemin>0</valuemin>
                  <valuemax>1000</valuemax>
                  <value>50</value>
                </parameter>
                <parameter>
                  <parameterid>center</parameterid>
                  <name>Center</name>
                  <value>
                    <horiz>0.00000</horiz>
                    <vert>0.05000</vert>
                  </value>
                </parameter>
              </effect>
            </filter>
      </clipitem>

      <clipitem id="clipitem-638">
        <name>Fig 113513</name>
        <duration>31</duration>
        <rate><timebase>30</timebase></rate>
        <start>58254</start>
        <end>58285</end>
        <in>0</in>
        <out>31</out>
        <file id="file-3">
          <name>char_14385_12675.webp</name>
          <pathurl>file://localhost/C:/PROJECT_ROOT/assets/char_14385_12675.webp</pathurl>
          <rate><timebase>30</timebase></rate>
          <media>
             <video>
                <samplecharacteristics>
                  <width>1920</width>
                  <height>1080</height>
                  <pixelaspectratio>square</pixelaspectratio>
                </samplecharacteristics>
             </video>
             
          </media>
        </file>
        
            <filter>
              <effect>
                <name>Basic Motion</name>
                <effectid>basic</effectid>
                <effectcategory>motion</effectcategory>
                <effecttype>motion</effecttype>
                <mediatype>video</mediatype>
                <parameter>
                  <parameterid>scale</parameterid>
                  <name>Scale</name>
                  <valuemin>0</valuemin>
                  <valuemax>1000</valuemax>
                  <value>50</value>
                </parameter>
                <parameter>
                  <parameterid>center</parameterid>
                  <name>Center</name>
                  <value>
                    <horiz>0.00000</horiz>
                    <vert>0.05000</vert>
                  </value>
                </parameter>
              </effect>
            </filter>
      </clipitem>
</track>
      <!-- V4: Figure Right -->
      <track>

      <clipitem id="clipitem-17">
        <name>Fig 113208</name>
        <duration>246</duration>
        <rate><timebase>30</timebase></rate>
        <start>1586</start>
        <end>1832</end>
        <in>0</in>
        <out>246</out>
        <file id="file-16">
          <name>char_14384_12960.webp</name>
          <pathurl>file://localhost/C:/PROJECT_ROOT/assets/char_14384_12960.webp</pathurl>
          <rate><timebase>30</timebase></rate>
          <media>
             <video>
                <samplecharacteristics>
                  <width>1920</width>
                  <height>1080</height>
                  <pixelaspectratio>square</pixelaspectratio>
                </samplecharacteristics>
             </video>
             
          </media>
        </file>
        
            <filter>
              <effect>
                <name>Basic Motion</name>
                <effectid>basic</effectid>
                <effectcategory>motion</effectcategory>
                <effecttype>motion</effecttype>
                <mediatype>video</mediatype>
                <parameter>
                  <parameterid>scale</parameterid>
                  <name>Scale</name>
                  <valuemin>0</valuemin>
                  <valuemax>1000</valuemax>
                  <value>150</value>
                </parameter>
                <parameter>
                  <parameterid>center</parameterid>
                  <name>Center</name>
                  <value>
                    <horiz>0.30000</horiz>
                    <vert>0.05000</vert>
                  </value>
                </parameter>
              </effect>
            </filter>
      </clipitem>

      <clipitem id="clipitem-19">
        <name>Fig 113209</name>
        <duration>187</duration>
        <rate><timebase>30</timebase></rate>
        <start>1832</start>
        <end>2019</end>
        <in>0</in>
        <out>187</out>
        <file id="file-18">
          <name>char_14383_13026.webp</name>
          <pathurl>file://localhost/C:/PROJECT_ROOT/assets/char_14383_13026.webp</pathurl>
          <rate><timebase>30</timebase></rate>
          <media>
             <video>
                <samplecharacteristics>
                  <width>1920</width>
                  <height>1080</height>
                  <pixelaspectratio>square</pixelaspectratio>
                </samplecharacteristics>
             </video>
             
          </media>
        </file>
        
            <filter>
              <effect>
                <name>Basic Motion</name>
                <effectid>basic</effectid>
                <effectcategory>motion</effectcategory>
                <effecttype>motion</effecttype>
                <mediatype>video</mediatype>
                <parameter>
                  <parameterid>scale</parameterid>
                  <name>Scale</name>
                  <valuemin>0</valuemin>
                  <valuemax>1000</valuemax>
                  <value>150</value>
                </parameter>
                <parameter>
                  <parameterid>center</parameterid>
                  <name>Center</name>
                  <value>
                    <horiz>0.30000</horiz>
                    <vert>0.05000</vert>
                  </value>
                </parameter>
              </effect>
            </filter>
      </clipitem>

      <clipitem id="clipitem-44">
        <name>Fig 113227</name>
        <duration>107</duration>
        <rate><timebase>30</timebase></rate>
        <start>5172</start>
        <end>5279</end>
        <in>0</in>
        <out>107</out>
        <file id="file-39">
          <name>char_14383_13031.webp</name>
          <pathurl>file://localhost/C:/PROJECT_ROOT/assets/char_14383_13031.webp</pathurl>
          <rate><timebase>30</timebase></rate>
          <media>
             <video>
                <samplecharacteristics>
                  <width>1920</width>
                  <height>1080</height>
                  <pixelaspectratio>square</pixelaspectratio>
                </samplecharacteristics>
             </video>
             
          </media>
        </file>
        
            <filter>
              <effect>
                <name>Basic Motion</name>
                <effectid>basic</effectid>
                <effectcategory>motion</effectcategory>
                <effecttype>motion</effecttype>
                <mediatype>video</mediatype>
                <parameter>
                  <parameterid>scale</parameterid>
                  <name>Scale</name>
                  <valuemin>0</valuemin>
                  <valuemax>1000</valuemax>
                  <value>150</value>
                </parameter>
                <parameter>
                  <parameterid>center</parameterid>
                  <name>Center</name>
                  <value>
                    <horiz>0.30000</horiz>
                    <vert>0.05000</vert>
                  </value>
                </parameter>
              </effect>
            </filter>
      </clipitem>

      <clipitem id="clipitem-52">
        <name>Fig 113234</name>
        <duration>28</duration>
        <rate><timebase>30</timebase></rate>
        <start>8383</start>
        <end>8411</end>
        <in>0</in>
        <out>28</out>
        <file id="file-46">
          <name>char_14383_13025.webp</name>
          <pathurl>file://localhost/C:/PROJECT_ROOT/assets/char_14383_13025.webp</pathurl>
          <rate><timebase>30</timebase></rate>
          <media>
             <video>
                <samplecharacteristics>
                  <width>1920</width>
                  <height>1080</height>
                  <pixelaspectratio>square</pixelaspectratio>
                </samplecharacteristics>
             </video>
             
          </media>
        </file>
        
            <filter>
              <effect>
                <name>Basic Motion</name>
                <effectid>basic</effectid>
                <effectcategory>motion</effectcategory>
                <effecttype>motion</effecttype>
                <mediatype>video</mediatype>
                <parameter>
                  <parameterid>scale</parameterid>
                  <name>Scale</name>
                  <valuemin>0</valuemin>
                  <valuemax>1000</valuemax>
                  <value>150</value>
                </parameter>
                <parameter>
                  <parameterid>center</parameterid>
                  <name>Center</name>
                  <value>
                    <horiz>0.30000</horiz>
                    <vert>0.05000</vert>
                  </value>
                </parameter>
              </effect>
            </filter>
      </clipitem>

      <clipitem id="clipitem-56">
        <name>Fig 113236</name>
        <duration>91</duration>
        <rate><timebase>30</timebase></rate>
        <start>8694</start>
        <end>8785</end>
        <in>0</in>
        <out>91</out>
        <file id="file-46">
          <name>char_14383_13025.webp</name>
          <pathurl>file://localhost/C:/PROJECT_ROOT/assets/char_14383_13025.webp</pathurl>
          <rate><timebase>30</timebase></rate>
          <media>
             <video>
                <samplecharacteristics>
                  <width>1920</width>
                  <height>1080</height>
                  <pixelaspectratio>square</pixelaspectratio>
                </samplecharacteristics>
             </video>
             
          </media>
        </file>
        
            <filter>
              <effect>
                <name>Basic Motion</name>
                <effectid>basic</effectid>
                <effectcategory>motion</effectcategory>
                <effecttype>motion</effecttype>
                <mediatype>video</mediatype>
                <parameter>
                  <parameterid>scale</parameterid>
                  <name>Scale</name>
                  <valuemin>0</valuemin>
                  <valuemax>1000</valuemax>
                  <value>150</value>
                </parameter>
                <parameter>
                  <parameterid>center</parameterid>
                  <name>Center</name>
                  <value>
                    <horiz>0.30000</horiz>
                    <vert>0.05000</vert>
                  </value>
                </parameter>
              </effect>
            </filter>
      </clipitem>

      <clipitem id="clipitem-60">
        <name>Fig 113519</name>
        <duration>108</duration>
        <rate><timebase>30</timebase></rate>
        <start>9044</start>
        <end>9152</end>
        <in>0</in>
        <out>108</out>
        <file id="file-1">
          <name>char_14383_12670.webp</name>
          <pathurl>file://localhost/C:/PROJECT_ROOT/assets/char_14383_12670.webp</pathurl>
          <rate><timebase>30</timebase></rate>
          <media>
             <video>
                <samplecharacteristics>
                  <width>1920</width>
                  <height>1080</height>
                  <pixelaspectratio>square</pixelaspectratio>
                </samplecharacteristics>
             </video>
             
          </media>
        </file>
        
            <filter>
              <effect>
                <name>Basic Motion</name>
                <effectid>basic</effectid>
                <effectcategory>motion</effectcategory>
                <effecttype>motion</effecttype>
                <mediatype>video</mediatype>
                <parameter>
                  <parameterid>scale</parameterid>
                  <name>Scale</name>
                  <valuemin>0</valuemin>
                  <valuemax>1000</valuemax>
                  <value>100</value>
                </parameter>
                <parameter>
                  <parameterid>center</parameterid>
                  <name>Center</name>
                  <value>
                    <horiz>0.30000</horiz>
                    <vert>0.05000</vert>
                  </value>
                </parameter>
              </effect>
            </filter>
      </clipitem>

      <clipitem id="clipitem-64">
        <name>Fig 113239</name>
        <duration>71</duration>
        <rate><timebase>30</timebase></rate>
        <start>9264</start>
        <end>9335</end>
        <in>0</in>
        <out>71</out>
        <file id="file-1">
          <name>char_14383_12670.webp</name>
          <pathurl>file://localhost/C:/PROJECT_ROOT/assets/char_14383_12670.webp</pathurl>
          <rate><timebase>30</timebase></rate>
          <media>
             <video>
                <samplecharacteristics>
                  <width>1920</width>
                  <height>1080</height>
                  <pixelaspectratio>square</pixelaspectratio>
                </samplecharacteristics>
             </video>
             
          </media>
        </file>
        
            <filter>
              <effect>
                <name>Basic Motion</name>
                <effectid>basic</effectid>
                <effectcategory>motion</effectcategory>
                <effecttype>motion</effecttype>
                <mediatype>video</mediatype>
                <parameter>
                  <parameterid>scale</parameterid>
                  <name>Scale</name>
                  <valuemin>0</valuemin>
                  <valuemax>1000</valuemax>
                  <value>100</value>
                </parameter>
                <parameter>
                  <parameterid>center</parameterid>
                  <name>Center</name>
                  <value>
                    <horiz>0.30000</horiz>
                    <vert>0.05000</vert>
                  </value>
                </parameter>
              </effect>
            </filter>
      </clipitem>

      <clipitem id="clipitem-74">
        <name>Fig 113245</name>
        <duration>106</duration>
        <rate><timebase>30</timebase></rate>
        <start>10533</start>
        <end>10639</end>
        <in>0</in>
        <out>106</out>
        <file id="file-1">
          <name>char_14383_12670.webp</name>
          <pathurl>file://localhost/C:/PROJECT_ROOT/assets/char_14383_12670.webp</pathurl>
          <rate><timebase>30</timebase></rate>
          <media>
             <video>
                <samplecharacteristics>
                  <width>1920</width>
                  <height>1080</height>
                  <pixelaspectratio>square</pixelaspectratio>
                </samplecharacteristics>
             </video>
             
          </media>
        </file>
        
            <filter>
              <effect>
                <name>Basic Motion</name>
                <effectid>basic</effectid>
                <effectcategory>motion</effectcategory>
                <effecttype>motion</effecttype>
                <mediatype>video</mediatype>
                <parameter>
                  <parameterid>scale</parameterid>
                  <name>Scale</name>
                  <valuemin>0</valuemin>
                  <valuemax>1000</valuemax>
                  <value>100</value>
                </parameter>
                <parameter>
                  <parameterid>center</parameterid>
                  <name>Center</name>
                  <value>
                    <horiz>0.30000</horiz>
                    <vert>0.05000</vert>
                  </value>
                </parameter>
              </effect>
            </filter>
      </clipitem>

      <clipitem id="clipitem-78">
        <name>Fig 113247</name>
        <duration>241</duration>
        <rate><timebase>30</timebase></rate>
        <start>10934</start>
        <end>11175</end>
        <in>0</in>
        <out>241</out>
        <file id="file-61">
          <name>char_14414_13297.webp</name>
          <pathurl>file://localhost/C:/PROJECT_ROOT/assets/char_14414_13297.webp</pathurl>
          <rate><timebase>30</timebase></rate>
          <media>
             <video>
                <samplecharacteristics>
                  <width>1920</width>
                  <height>1080</height>
                  <pixelaspectratio>square</pixelaspectratio>
                </samplecharacteristics>
             </video>
             
          </media>
        </file>
        
            <filter>
              <effect>
                <name>Basic Motion</name>
                <effectid>basic</effectid>
                <effectcategory>motion</effectcategory>
                <effecttype>motion</effecttype>
                <mediatype>video</mediatype>
                <parameter>
                  <parameterid>scale</parameterid>
                  <name>Scale</name>
                  <valuemin>0</valuemin>
                  <valuemax>1000</valuemax>
                  <value>150</value>
                </parameter>
                <parameter>
                  <parameterid>center</parameterid>
                  <name>Center</name>
                  <value>
                    <horiz>0.30000</horiz>
                    <vert>0.05000</vert>
                  </value>
                </parameter>
              </effect>
            </filter>
      </clipitem>

      <clipitem id="clipitem-101">
        <name>Fig 113261</name>
        <duration>101</duration>
        <rate><timebase>30</timebase></rate>
        <start>13095</start>
        <end>13196</end>
        <in>0</in>
        <out>101</out>
        <file id="file-75">
          <name>char_14384_12957.webp</name>
          <pathurl>file://localhost/C:/PROJECT_ROOT/assets/char_14384_12957.webp</pathurl>
          <rate><timebase>30</timebase></rate>
          <media>
             <video>
                <samplecharacteristics>
                  <width>1920</width>
                  <height>1080</height>
                  <pixelaspectratio>square</pixelaspectratio>
                </samplecharacteristics>
             </video>
             
          </media>
        </file>
        
            <filter>
              <effect>
                <name>Basic Motion</name>
                <effectid>basic</effectid>
                <effectcategory>motion</effectcategory>
                <effecttype>motion</effecttype>
                <mediatype>video</mediatype>
                <parameter>
                  <parameterid>scale</parameterid>
                  <name>Scale</name>
                  <valuemin>0</valuemin>
                  <valuemax>1000</valuemax>
                  <value>150</value>
                </parameter>
                <parameter>
                  <parameterid>center</parameterid>
                  <name>Center</name>
                  <value>
                    <horiz>0.30000</horiz>
                    <vert>0.05000</vert>
                  </value>
                </parameter>
              </effect>
            </filter>
      </clipitem>

      <clipitem id="clipitem-106">
        <name>Fig 113264</name>
        <duration>145</duration>
        <rate><timebase>30</timebase></rate>
        <start>13628</start>
        <end>13773</end>
        <in>0</in>
        <out>145</out>
        <file id="file-75">
          <name>char_14384_12957.webp</name>
          <pathurl>file://localhost/C:/PROJECT_ROOT/assets/char_14384_12957.webp</pathurl>
          <rate><timebase>30</timebase></rate>
          <media>
             <video>
                <samplecharacteristics>
                  <width>1920</width>
                  <height>1080</height>
                  <pixelaspectratio>square</pixelaspectratio>
                </samplecharacteristics>
             </video>
             
          </media>
        </file>
        
            <filter>
              <effect>
                <name>Basic Motion</name>
                <effectid>basic</effectid>
                <effectcategory>motion</effectcategory>
                <effecttype>motion</effecttype>
                <mediatype>video</mediatype>
                <parameter>
                  <parameterid>scale</parameterid>
                  <name>Scale</name>
                  <valuemin>0</valuemin>
                  <valuemax>1000</valuemax>
                  <value>150</value>
                </parameter>
                <parameter>
                  <parameterid>center</parameterid>
                  <name>Center</name>
                  <value>
                    <horiz>0.30000</horiz>
                    <vert>0.05000</vert>
                  </value>
                </parameter>
              </effect>
            </filter>
      </clipitem>

      <clipitem id="clipitem-110">
        <name>Fig 113266</name>
        <duration>35</duration>
        <rate><timebase>30</timebase></rate>
        <start>13950</start>
        <end>13985</end>
        <in>0</in>
        <out>35</out>
        <file id="file-75">
          <name>char_14384_12957.webp</name>
          <pathurl>file://localhost/C:/PROJECT_ROOT/assets/char_14384_12957.webp</pathurl>
          <rate><timebase>30</timebase></rate>
          <media>
             <video>
                <samplecharacteristics>
                  <width>1920</width>
                  <height>1080</height>
                  <pixelaspectratio>square</pixelaspectratio>
                </samplecharacteristics>
             </video>
             
          </media>
        </file>
        
            <filter>
              <effect>
                <name>Basic Motion</name>
                <effectid>basic</effectid>
                <effectcategory>motion</effectcategory>
                <effecttype>motion</effecttype>
                <mediatype>video</mediatype>
                <parameter>
                  <parameterid>scale</parameterid>
                  <name>Scale</name>
                  <valuemin>0</valuemin>
                  <valuemax>1000</valuemax>
                  <value>150</value>
                </parameter>
                <parameter>
                  <parameterid>center</parameterid>
                  <name>Center</name>
                  <value>
                    <horiz>0.30000</horiz>
                    <vert>0.05000</vert>
                  </value>
                </parameter>
              </effect>
            </filter>
      </clipitem>

      <clipitem id="clipitem-119">
        <name>Fig 113269</name>
        <duration>126</duration>
        <rate><timebase>30</timebase></rate>
        <start>16249</start>
        <end>16375</end>
        <in>0</in>
        <out>126</out>
        <file id="file-86">
          <name>char_14384_12976.webp</name>
          <pathurl>file://localhost/C:/PROJECT_ROOT/assets/char_14384_12976.webp</pathurl>
          <rate><timebase>30</timebase></rate>
          <media>
             <video>
                <samplecharacteristics>
                  <width>1920</width>
                  <height>1080</height>
                  <pixelaspectratio>square</pixelaspectratio>
                </samplecharacteristics>
             </video>
             
          </media>
        </file>
        
            <filter>
              <effect>
                <name>Basic Motion</name>
                <effectid>basic</effectid>
                <effectcategory>motion</effectcategory>
                <effecttype>motion</effecttype>
                <mediatype>video</mediatype>
                <parameter>
                  <parameterid>scale</parameterid>
                  <name>Scale</name>
                  <valuemin>0</valuemin>
                  <valuemax>1000</valuemax>
                  <value>150</value>
                </parameter>
                <parameter>
                  <parameterid>center</parameterid>
                  <name>Center</name>
                  <value>
                    <horiz>0.30000</horiz>
                    <vert>0.05000</vert>
                  </value>
                </parameter>
              </effect>
            </filter>
      </clipitem>

      <clipitem id="clipitem-127">
        <name>Fig 113272</name>
        <duration>108</duration>
        <rate><timebase>30</timebase></rate>
        <start>16785</start>
        <end>16893</end>
        <in>0</in>
        <out>108</out>
        <file id="file-92">
          <name>char_14384_12959.webp</name>
          <pathurl>file://localhost/C:/PROJECT_ROOT/assets/char_14384_12959.webp</pathurl>
          <rate><timebase>30</timebase></rate>
          <media>
             <video>
                <samplecharacteristics>
                  <width>1920</width>
                  <height>1080</height>
                  <pixelaspectratio>square</pixelaspectratio>
                </samplecharacteristics>
             </video>
             
          </media>
        </file>
        
            <filter>
              <effect>
                <name>Basic Motion</name>
                <effectid>basic</effectid>
                <effectcategory>motion</effectcategory>
                <effecttype>motion</effecttype>
                <mediatype>video</mediatype>
                <parameter>
                  <parameterid>scale</parameterid>
                  <name>Scale</name>
                  <valuemin>0</valuemin>
                  <valuemax>1000</valuemax>
                  <value>150</value>
                </parameter>
                <parameter>
                  <parameterid>center</parameterid>
                  <name>Center</name>
                  <value>
                    <horiz>0.30000</horiz>
                    <vert>0.05000</vert>
                  </value>
                </parameter>
              </effect>
            </filter>
      </clipitem>

      <clipitem id="clipitem-137">
        <name>Fig 113279</name>
        <duration>123</duration>
        <rate><timebase>30</timebase></rate>
        <start>17439</start>
        <end>17562</end>
        <in>0</in>
        <out>123</out>
        <file id="file-98">
          <name>char_14384_12975.webp</name>
          <pathurl>file://localhost/C:/PROJECT_ROOT/assets/char_14384_12975.webp</pathurl>
          <rate><timebase>30</timebase></rate>
          <media>
             <video>
                <samplecharacteristics>
                  <width>1920</width>
                  <height>1080</height>
                  <pixelaspectratio>square</pixelaspectratio>
                </samplecharacteristics>
             </video>
             
          </media>
        </file>
        
            <filter>
              <effect>
                <name>Basic Motion</name>
                <effectid>basic</effectid>
                <effectcategory>motion</effectcategory>
                <effecttype>motion</effecttype>
                <mediatype>video</mediatype>
                <parameter>
                  <parameterid>scale</parameterid>
                  <name>Scale</name>
                  <valuemin>0</valuemin>
                  <valuemax>1000</valuemax>
                  <value>150</value>
                </parameter>
                <parameter>
                  <parameterid>center</parameterid>
                  <name>Center</name>
                  <value>
                    <horiz>0.30000</horiz>
                    <vert>0.05000</vert>
                  </value>
                </parameter>
              </effect>
            </filter>
      </clipitem>

      <clipitem id="clipitem-149">
        <name>Fig 113287</name>
        <duration>161</duration>
        <rate><timebase>30</timebase></rate>
        <start>18169</start>
        <end>18330</end>
        <in>0</in>
        <out>161</out>
        <file id="file-86">
          <name>char_14384_12976.webp</name>
          <pathurl>file://localhost/C:/PROJECT_ROOT/assets/char_14384_12976.webp</pathurl>
          <rate><timebase>30</timebase></rate>
          <media>
             <video>
                <samplecharacteristics>
                  <width>1920</width>
                  <height>1080</height>
                  <pixelaspectratio>square</pixelaspectratio>
                </samplecharacteristics>
             </video>
             
          </media>
        </file>
        
            <filter>
              <effect>
                <name>Basic Motion</name>
                <effectid>basic</effectid>
                <effectcategory>motion</effectcategory>
                <effecttype>motion</effecttype>
                <mediatype>video</mediatype>
                <parameter>
                  <parameterid>scale</parameterid>
                  <name>Scale</name>
                  <valuemin>0</valuemin>
                  <valuemax>1000</valuemax>
                  <value>150</value>
                </parameter>
                <parameter>
                  <parameterid>center</parameterid>
                  <name>Center</name>
                  <value>
                    <horiz>0.30000</horiz>
                    <vert>0.05000</vert>
                  </value>
                </parameter>
              </effect>
            </filter>
      </clipitem>

      <clipitem id="clipitem-154">
        <name>Fig 113290</name>
        <duration>142</duration>
        <rate><timebase>30</timebase></rate>
        <start>18668</start>
        <end>18810</end>
        <in>0</in>
        <out>142</out>
        <file id="file-109">
          <name>char_14414_17198.webp</name>
          <pathurl>file://localhost/C:/PROJECT_ROOT/assets/char_14414_17198.webp</pathurl>
          <rate><timebase>30</timebase></rate>
          <media>
             <video>
                <samplecharacteristics>
                  <width>1920</width>
                  <height>1080</height>
                  <pixelaspectratio>square</pixelaspectratio>
                </samplecharacteristics>
             </video>
             
          </media>
        </file>
        
            <filter>
              <effect>
                <name>Basic Motion</name>
                <effectid>basic</effectid>
                <effectcategory>motion</effectcategory>
                <effecttype>motion</effecttype>
                <mediatype>video</mediatype>
                <parameter>
                  <parameterid>scale</parameterid>
                  <name>Scale</name>
                  <valuemin>0</valuemin>
                  <valuemax>1000</valuemax>
                  <value>150</value>
                </parameter>
                <parameter>
                  <parameterid>center</parameterid>
                  <name>Center</name>
                  <value>
                    <horiz>0.30000</horiz>
                    <vert>0.05000</vert>
                  </value>
                </parameter>
              </effect>
            </filter>
      </clipitem>

      <clipitem id="clipitem-160">
        <name>Fig 113293</name>
        <duration>126</duration>
        <rate><timebase>30</timebase></rate>
        <start>19001</start>
        <end>19127</end>
        <in>0</in>
        <out>126</out>
        <file id="file-112">
          <name>char_14384_12961.webp</name>
          <pathurl>file://localhost/C:/PROJECT_ROOT/assets/char_14384_12961.webp</pathurl>
          <rate><timebase>30</timebase></rate>
          <media>
             <video>
                <samplecharacteristics>
                  <width>1920</width>
                  <height>1080</height>
                  <pixelaspectratio>square</pixelaspectratio>
                </samplecharacteristics>
             </video>
             
          </media>
        </file>
        
            <filter>
              <effect>
                <name>Basic Motion</name>
                <effectid>basic</effectid>
                <effectcategory>motion</effectcategory>
                <effecttype>motion</effecttype>
                <mediatype>video</mediatype>
                <parameter>
                  <parameterid>scale</parameterid>
                  <name>Scale</name>
                  <valuemin>0</valuemin>
                  <valuemax>1000</valuemax>
                  <value>150</value>
                </parameter>
                <parameter>
                  <parameterid>center</parameterid>
                  <name>Center</name>
                  <value>
                    <horiz>0.30000</horiz>
                    <vert>0.05000</vert>
                  </value>
                </parameter>
              </effect>
            </filter>
      </clipitem>

      <clipitem id="clipitem-162">
        <name>Fig 113294</name>
        <duration>12</duration>
        <rate><timebase>30</timebase></rate>
        <start>19127</start>
        <end>19139</end>
        <in>0</in>
        <out>12</out>
        <file id="file-109">
          <name>char_14414_17198.webp</name>
          <pathurl>file://localhost/C:/PROJECT_ROOT/assets/char_14414_17198.webp</pathurl>
          <rate><timebase>30</timebase></rate>
          <media>
             <video>
                <samplecharacteristics>
                  <width>1920</width>
                  <height>1080</height>
                  <pixelaspectratio>square</pixelaspectratio>
                </samplecharacteristics>
             </video>
             
          </media>
        </file>
        
            <filter>
              <effect>
                <name>Basic Motion</name>
                <effectid>basic</effectid>
                <effectcategory>motion</effectcategory>
                <effecttype>motion</effecttype>
                <mediatype>video</mediatype>
                <parameter>
                  <parameterid>scale</parameterid>
                  <name>Scale</name>
                  <valuemin>0</valuemin>
                  <valuemax>1000</valuemax>
                  <value>150</value>
                </parameter>
                <parameter>
                  <parameterid>center</parameterid>
                  <name>Center</name>
                  <value>
                    <horiz>0.30000</horiz>
                    <vert>0.05000</vert>
                  </value>
                </parameter>
              </effect>
            </filter>
      </clipitem>

      <clipitem id="clipitem-166">
        <name>Fig 113296</name>
        <duration>108</duration>
        <rate><timebase>30</timebase></rate>
        <start>19271</start>
        <end>19379</end>
        <in>0</in>
        <out>108</out>
        <file id="file-112">
          <name>char_14384_12961.webp</name>
          <pathurl>file://localhost/C:/PROJECT_ROOT/assets/char_14384_12961.webp</pathurl>
          <rate><timebase>30</timebase></rate>
          <media>
             <video>
                <samplecharacteristics>
                  <width>1920</width>
                  <height>1080</height>
                  <pixelaspectratio>square</pixelaspectratio>
                </samplecharacteristics>
             </video>
             
          </media>
        </file>
        
            <filter>
              <effect>
                <name>Basic Motion</name>
                <effectid>basic</effectid>
                <effectcategory>motion</effectcategory>
                <effecttype>motion</effecttype>
                <mediatype>video</mediatype>
                <parameter>
                  <parameterid>scale</parameterid>
                  <name>Scale</name>
                  <valuemin>0</valuemin>
                  <valuemax>1000</valuemax>
                  <value>150</value>
                </parameter>
                <parameter>
                  <parameterid>center</parameterid>
                  <name>Center</name>
                  <value>
                    <horiz>0.30000</horiz>
                    <vert>0.05000</vert>
                  </value>
                </parameter>
              </effect>
            </filter>
      </clipitem>

      <clipitem id="clipitem-168">
        <name>Fig 113297</name>
        <duration>332</duration>
        <rate><timebase>30</timebase></rate>
        <start>19379</start>
        <end>19711</end>
        <in>0</in>
        <out>332</out>
        <file id="file-109">
          <name>char_14414_17198.webp</name>
          <pathurl>file://localhost/C:/PROJECT_ROOT/assets/char_14414_17198.webp</pathurl>
          <rate><timebase>30</timebase></rate>
          <media>
             <video>
                <samplecharacteristics>
                  <width>1920</width>
                  <height>1080</height>
                  <pixelaspectratio>square</pixelaspectratio>
                </samplecharacteristics>
             </video>
             
          </media>
        </file>
        
            <filter>
              <effect>
                <name>Basic Motion</name>
                <effectid>basic</effectid>
                <effectcategory>motion</effectcategory>
                <effecttype>motion</effecttype>
                <mediatype>video</mediatype>
                <parameter>
                  <parameterid>scale</parameterid>
                  <name>Scale</name>
                  <valuemin>0</valuemin>
                  <valuemax>1000</valuemax>
                  <value>150</value>
                </parameter>
                <parameter>
                  <parameterid>center</parameterid>
                  <name>Center</name>
                  <value>
                    <horiz>0.30000</horiz>
                    <vert>0.05000</vert>
                  </value>
                </parameter>
              </effect>
            </filter>
      </clipitem>

      <clipitem id="clipitem-173">
        <name>Fig 113300</name>
        <duration>98</duration>
        <rate><timebase>30</timebase></rate>
        <start>19768</start>
        <end>19866</end>
        <in>0</in>
        <out>98</out>
        <file id="file-109">
          <name>char_14414_17198.webp</name>
          <pathurl>file://localhost/C:/PROJECT_ROOT/assets/char_14414_17198.webp</pathurl>
          <rate><timebase>30</timebase></rate>
          <media>
             <video>
                <samplecharacteristics>
                  <width>1920</width>
                  <height>1080</height>
                  <pixelaspectratio>square</pixelaspectratio>
                </samplecharacteristics>
             </video>
             
          </media>
        </file>
        
            <filter>
              <effect>
                <name>Basic Motion</name>
                <effectid>basic</effectid>
                <effectcategory>motion</effectcategory>
                <effecttype>motion</effecttype>
                <mediatype>video</mediatype>
                <parameter>
                  <parameterid>scale</parameterid>
                  <name>Scale</name>
                  <valuemin>0</valuemin>
                  <valuemax>1000</valuemax>
                  <value>150</value>
                </parameter>
                <parameter>
                  <parameterid>center</parameterid>
                  <name>Center</name>
                  <value>
                    <horiz>0.30000</horiz>
                    <vert>0.05000</vert>
                  </value>
                </parameter>
              </effect>
            </filter>
      </clipitem>

      <clipitem id="clipitem-177">
        <name>Fig 113302</name>
        <duration>48</duration>
        <rate><timebase>30</timebase></rate>
        <start>19954</start>
        <end>20002</end>
        <in>0</in>
        <out>48</out>
        <file id="file-89">
          <name>char_14384_12672.webp</name>
          <pathurl>file://localhost/C:/PROJECT_ROOT/assets/char_14384_12672.webp</pathurl>
          <rate><timebase>30</timebase></rate>
          <media>
             <video>
                <samplecharacteristics>
                  <width>1920</width>
                  <height>1080</height>
                  <pixelaspectratio>square</pixelaspectratio>
                </samplecharacteristics>
             </video>
             
          </media>
        </file>
        
            <filter>
              <effect>
                <name>Basic Motion</name>
                <effectid>basic</effectid>
                <effectcategory>motion</effectcategory>
                <effecttype>motion</effecttype>
                <mediatype>video</mediatype>
                <parameter>
                  <parameterid>scale</parameterid>
                  <name>Scale</name>
                  <valuemin>0</valuemin>
                  <valuemax>1000</valuemax>
                  <value>100</value>
                </parameter>
                <parameter>
                  <parameterid>center</parameterid>
                  <name>Center</name>
                  <value>
                    <horiz>0.30000</horiz>
                    <vert>0.05000</vert>
                  </value>
                </parameter>
              </effect>
            </filter>
      </clipitem>

      <clipitem id="clipitem-181">
        <name>Fig 113304</name>
        <duration>39</duration>
        <rate><timebase>30</timebase></rate>
        <start>20064</start>
        <end>20103</end>
        <in>0</in>
        <out>39</out>
        <file id="file-109">
          <name>char_14414_17198.webp</name>
          <pathurl>file://localhost/C:/PROJECT_ROOT/assets/char_14414_17198.webp</pathurl>
          <rate><timebase>30</timebase></rate>
          <media>
             <video>
                <samplecharacteristics>
                  <width>1920</width>
                  <height>1080</height>
                  <pixelaspectratio>square</pixelaspectratio>
                </samplecharacteristics>
             </video>
             
          </media>
        </file>
        
            <filter>
              <effect>
                <name>Basic Motion</name>
                <effectid>basic</effectid>
                <effectcategory>motion</effectcategory>
                <effecttype>motion</effecttype>
                <mediatype>video</mediatype>
                <parameter>
                  <parameterid>scale</parameterid>
                  <name>Scale</name>
                  <valuemin>0</valuemin>
                  <valuemax>1000</valuemax>
                  <value>150</value>
                </parameter>
                <parameter>
                  <parameterid>center</parameterid>
                  <name>Center</name>
                  <value>
                    <horiz>0.30000</horiz>
                    <vert>0.05000</vert>
                  </value>
                </parameter>
              </effect>
            </filter>
      </clipitem>

      <clipitem id="clipitem-185">
        <name>Fig 113306</name>
        <duration>181</duration>
        <rate><timebase>30</timebase></rate>
        <start>20208</start>
        <end>20389</end>
        <in>0</in>
        <out>181</out>
        <file id="file-86">
          <name>char_14384_12976.webp</name>
          <pathurl>file://localhost/C:/PROJECT_ROOT/assets/char_14384_12976.webp</pathurl>
          <rate><timebase>30</timebase></rate>
          <media>
             <video>
                <samplecharacteristics>
                  <width>1920</width>
                  <height>1080</height>
                  <pixelaspectratio>square</pixelaspectratio>
                </samplecharacteristics>
             </video>
             
          </media>
        </file>
        
            <filter>
              <effect>
                <name>Basic Motion</name>
                <effectid>basic</effectid>
                <effectcategory>motion</effectcategory>
                <effecttype>motion</effecttype>
                <mediatype>video</mediatype>
                <parameter>
                  <parameterid>scale</parameterid>
                  <name>Scale</name>
                  <valuemin>0</valuemin>
                  <valuemax>1000</valuemax>
                  <value>150</value>
                </parameter>
                <parameter>
                  <parameterid>center</parameterid>
                  <name>Center</name>
                  <value>
                    <horiz>0.30000</horiz>
                    <vert>0.05000</vert>
                  </value>
                </parameter>
              </effect>
            </filter>
      </clipitem>

      <clipitem id="clipitem-190">
        <name>Fig 113309</name>
        <duration>66</duration>
        <rate><timebase>30</timebase></rate>
        <start>20692</start>
        <end>20758</end>
        <in>0</in>
        <out>66</out>
        <file id="file-130">
          <name>char_14384_12966.webp</name>
          <pathurl>file://localhost/C:/PROJECT_ROOT/assets/char_14384_12966.webp</pathurl>
          <rate><timebase>30</timebase></rate>
          <media>
             <video>
                <samplecharacteristics>
                  <width>1920</width>
                  <height>1080</height>
                  <pixelaspectratio>square</pixelaspectratio>
                </samplecharacteristics>
             </video>
             
          </media>
        </file>
        
            <filter>
              <effect>
                <name>Basic Motion</name>
                <effectid>basic</effectid>
                <effectcategory>motion</effectcategory>
                <effecttype>motion</effecttype>
                <mediatype>video</mediatype>
                <parameter>
                  <parameterid>scale</parameterid>
                  <name>Scale</name>
                  <valuemin>0</valuemin>
                  <valuemax>1000</valuemax>
                  <value>150</value>
                </parameter>
                <parameter>
                  <parameterid>center</parameterid>
                  <name>Center</name>
                  <value>
                    <horiz>0.30000</horiz>
                    <vert>0.05000</vert>
                  </value>
                </parameter>
              </effect>
            </filter>
      </clipitem>

      <clipitem id="clipitem-194">
        <name>Fig 113311</name>
        <duration>62</duration>
        <rate><timebase>30</timebase></rate>
        <start>20893</start>
        <end>20955</end>
        <in>0</in>
        <out>62</out>
        <file id="file-133">
          <name>char_14414_12724.webp</name>
          <pathurl>file://localhost/C:/PROJECT_ROOT/assets/char_14414_12724.webp</pathurl>
          <rate><timebase>30</timebase></rate>
          <media>
             <video>
                <samplecharacteristics>
                  <width>1920</width>
                  <height>1080</height>
                  <pixelaspectratio>square</pixelaspectratio>
                </samplecharacteristics>
             </video>
             
          </media>
        </file>
        
            <filter>
              <effect>
                <name>Basic Motion</name>
                <effectid>basic</effectid>
                <effectcategory>motion</effectcategory>
                <effecttype>motion</effecttype>
                <mediatype>video</mediatype>
                <parameter>
                  <parameterid>scale</parameterid>
                  <name>Scale</name>
                  <valuemin>0</valuemin>
                  <valuemax>1000</valuemax>
                  <value>100</value>
                </parameter>
                <parameter>
                  <parameterid>center</parameterid>
                  <name>Center</name>
                  <value>
                    <horiz>0.30000</horiz>
                    <vert>0.05000</vert>
                  </value>
                </parameter>
              </effect>
            </filter>
      </clipitem>

      <clipitem id="clipitem-196">
        <name>Fig 113312</name>
        <duration>98</duration>
        <rate><timebase>30</timebase></rate>
        <start>20955</start>
        <end>21053</end>
        <in>0</in>
        <out>98</out>
        <file id="file-16">
          <name>char_14384_12960.webp</name>
          <pathurl>file://localhost/C:/PROJECT_ROOT/assets/char_14384_12960.webp</pathurl>
          <rate><timebase>30</timebase></rate>
          <media>
             <video>
                <samplecharacteristics>
                  <width>1920</width>
                  <height>1080</height>
                  <pixelaspectratio>square</pixelaspectratio>
                </samplecharacteristics>
             </video>
             
          </media>
        </file>
        
            <filter>
              <effect>
                <name>Basic Motion</name>
                <effectid>basic</effectid>
                <effectcategory>motion</effectcategory>
                <effecttype>motion</effecttype>
                <mediatype>video</mediatype>
                <parameter>
                  <parameterid>scale</parameterid>
                  <name>Scale</name>
                  <valuemin>0</valuemin>
                  <valuemax>1000</valuemax>
                  <value>150</value>
                </parameter>
                <parameter>
                  <parameterid>center</parameterid>
                  <name>Center</name>
                  <value>
                    <horiz>0.30000</horiz>
                    <vert>0.05000</vert>
                  </value>
                </parameter>
              </effect>
            </filter>
      </clipitem>

      <clipitem id="clipitem-198">
        <name>Fig 113313</name>
        <duration>117</duration>
        <rate><timebase>30</timebase></rate>
        <start>21053</start>
        <end>21170</end>
        <in>0</in>
        <out>117</out>
        <file id="file-136">
          <name>char_14414_13290.webp</name>
          <pathurl>file://localhost/C:/PROJECT_ROOT/assets/char_14414_13290.webp</pathurl>
          <rate><timebase>30</timebase></rate>
          <media>
             <video>
                <samplecharacteristics>
                  <width>1920</width>
                  <height>1080</height>
                  <pixelaspectratio>square</pixelaspectratio>
                </samplecharacteristics>
             </video>
             
          </media>
        </file>
        
            <filter>
              <effect>
                <name>Basic Motion</name>
                <effectid>basic</effectid>
                <effectcategory>motion</effectcategory>
                <effecttype>motion</effecttype>
                <mediatype>video</mediatype>
                <parameter>
                  <parameterid>scale</parameterid>
                  <name>Scale</name>
                  <valuemin>0</valuemin>
                  <valuemax>1000</valuemax>
                  <value>150</value>
                </parameter>
                <parameter>
                  <parameterid>center</parameterid>
                  <name>Center</name>
                  <value>
                    <horiz>0.30000</horiz>
                    <vert>0.05000</vert>
                  </value>
                </parameter>
              </effect>
            </filter>
      </clipitem>

      <clipitem id="clipitem-204">
        <name>Fig 113316</name>
        <duration>171</duration>
        <rate><timebase>30</timebase></rate>
        <start>21425</start>
        <end>21596</end>
        <in>0</in>
        <out>171</out>
        <file id="file-140">
          <name>char_14384_12958.webp</name>
          <pathurl>file://localhost/C:/PROJECT_ROOT/assets/char_14384_12958.webp</pathurl>
          <rate><timebase>30</timebase></rate>
          <media>
             <video>
                <samplecharacteristics>
                  <width>1920</width>
                  <height>1080</height>
                  <pixelaspectratio>square</pixelaspectratio>
                </samplecharacteristics>
             </video>
             
          </media>
        </file>
        
            <filter>
              <effect>
                <name>Basic Motion</name>
                <effectid>basic</effectid>
                <effectcategory>motion</effectcategory>
                <effecttype>motion</effecttype>
                <mediatype>video</mediatype>
                <parameter>
                  <parameterid>scale</parameterid>
                  <name>Scale</name>
                  <valuemin>0</valuemin>
                  <valuemax>1000</valuemax>
                  <value>150</value>
                </parameter>
                <parameter>
                  <parameterid>center</parameterid>
                  <name>Center</name>
                  <value>
                    <horiz>0.30000</horiz>
                    <vert>0.05000</vert>
                  </value>
                </parameter>
              </effect>
            </filter>
      </clipitem>

      <clipitem id="clipitem-206">
        <name>Fig 113317</name>
        <duration>190</duration>
        <rate><timebase>30</timebase></rate>
        <start>21596</start>
        <end>21786</end>
        <in>0</in>
        <out>190</out>
        <file id="file-142">
          <name>char_14414_13301.webp</name>
          <pathurl>file://localhost/C:/PROJECT_ROOT/assets/char_14414_13301.webp</pathurl>
          <rate><timebase>30</timebase></rate>
          <media>
             <video>
                <samplecharacteristics>
                  <width>1920</width>
                  <height>1080</height>
                  <pixelaspectratio>square</pixelaspectratio>
                </samplecharacteristics>
             </video>
             
          </media>
        </file>
        
            <filter>
              <effect>
                <name>Basic Motion</name>
                <effectid>basic</effectid>
                <effectcategory>motion</effectcategory>
                <effecttype>motion</effecttype>
                <mediatype>video</mediatype>
                <parameter>
                  <parameterid>scale</parameterid>
                  <name>Scale</name>
                  <valuemin>0</valuemin>
                  <valuemax>1000</valuemax>
                  <value>150</value>
                </parameter>
                <parameter>
                  <parameterid>center</parameterid>
                  <name>Center</name>
                  <value>
                    <horiz>0.30000</horiz>
                    <vert>0.05000</vert>
                  </value>
                </parameter>
              </effect>
            </filter>
      </clipitem>

      <clipitem id="clipitem-210">
        <name>Fig 113319</name>
        <duration>45</duration>
        <rate><timebase>30</timebase></rate>
        <start>21909</start>
        <end>21954</end>
        <in>0</in>
        <out>45</out>
        <file id="file-98">
          <name>char_14384_12975.webp</name>
          <pathurl>file://localhost/C:/PROJECT_ROOT/assets/char_14384_12975.webp</pathurl>
          <rate><timebase>30</timebase></rate>
          <media>
             <video>
                <samplecharacteristics>
                  <width>1920</width>
                  <height>1080</height>
                  <pixelaspectratio>square</pixelaspectratio>
                </samplecharacteristics>
             </video>
             
          </media>
        </file>
        
            <filter>
              <effect>
                <name>Basic Motion</name>
                <effectid>basic</effectid>
                <effectcategory>motion</effectcategory>
                <effecttype>motion</effecttype>
                <mediatype>video</mediatype>
                <parameter>
                  <parameterid>scale</parameterid>
                  <name>Scale</name>
                  <valuemin>0</valuemin>
                  <valuemax>1000</valuemax>
                  <value>150</value>
                </parameter>
                <parameter>
                  <parameterid>center</parameterid>
                  <name>Center</name>
                  <value>
                    <horiz>0.30000</horiz>
                    <vert>0.05000</vert>
                  </value>
                </parameter>
              </effect>
            </filter>
      </clipitem>

      <clipitem id="clipitem-214">
        <name>Fig 113321</name>
        <duration>140</duration>
        <rate><timebase>30</timebase></rate>
        <start>22015</start>
        <end>22155</end>
        <in>0</in>
        <out>140</out>
        <file id="file-147">
          <name>char_14414_13291.webp</name>
          <pathurl>file://localhost/C:/PROJECT_ROOT/assets/char_14414_13291.webp</pathurl>
          <rate><timebase>30</timebase></rate>
          <media>
             <video>
                <samplecharacteristics>
                  <width>1920</width>
                  <height>1080</height>
                  <pixelaspectratio>square</pixelaspectratio>
                </samplecharacteristics>
             </video>
             
          </media>
        </file>
        
            <filter>
              <effect>
                <name>Basic Motion</name>
                <effectid>basic</effectid>
                <effectcategory>motion</effectcategory>
                <effecttype>motion</effecttype>
                <mediatype>video</mediatype>
                <parameter>
                  <parameterid>scale</parameterid>
                  <name>Scale</name>
                  <valuemin>0</valuemin>
                  <valuemax>1000</valuemax>
                  <value>150</value>
                </parameter>
                <parameter>
                  <parameterid>center</parameterid>
                  <name>Center</name>
                  <value>
                    <horiz>0.30000</horiz>
                    <vert>0.05000</vert>
                  </value>
                </parameter>
              </effect>
            </filter>
      </clipitem>

      <clipitem id="clipitem-218">
        <name>Fig 113323</name>
        <duration>203</duration>
        <rate><timebase>30</timebase></rate>
        <start>22184</start>
        <end>22387</end>
        <in>0</in>
        <out>203</out>
        <file id="file-112">
          <name>char_14384_12961.webp</name>
          <pathurl>file://localhost/C:/PROJECT_ROOT/assets/char_14384_12961.webp</pathurl>
          <rate><timebase>30</timebase></rate>
          <media>
             <video>
                <samplecharacteristics>
                  <width>1920</width>
                  <height>1080</height>
                  <pixelaspectratio>square</pixelaspectratio>
                </samplecharacteristics>
             </video>
             
          </media>
        </file>
        
            <filter>
              <effect>
                <name>Basic Motion</name>
                <effectid>basic</effectid>
                <effectcategory>motion</effectcategory>
                <effecttype>motion</effecttype>
                <mediatype>video</mediatype>
                <parameter>
                  <parameterid>scale</parameterid>
                  <name>Scale</name>
                  <valuemin>0</valuemin>
                  <valuemax>1000</valuemax>
                  <value>150</value>
                </parameter>
                <parameter>
                  <parameterid>center</parameterid>
                  <name>Center</name>
                  <value>
                    <horiz>0.30000</horiz>
                    <vert>0.05000</vert>
                  </value>
                </parameter>
              </effect>
            </filter>
      </clipitem>

      <clipitem id="clipitem-225">
        <name>Fig 113327</name>
        <duration>29</duration>
        <rate><timebase>30</timebase></rate>
        <start>22643</start>
        <end>22672</end>
        <in>0</in>
        <out>29</out>
        <file id="file-130">
          <name>char_14384_12966.webp</name>
          <pathurl>file://localhost/C:/PROJECT_ROOT/assets/char_14384_12966.webp</pathurl>
          <rate><timebase>30</timebase></rate>
          <media>
             <video>
                <samplecharacteristics>
                  <width>1920</width>
                  <height>1080</height>
                  <pixelaspectratio>square</pixelaspectratio>
                </samplecharacteristics>
             </video>
             
          </media>
        </file>
        
            <filter>
              <effect>
                <name>Basic Motion</name>
                <effectid>basic</effectid>
                <effectcategory>motion</effectcategory>
                <effecttype>motion</effecttype>
                <mediatype>video</mediatype>
                <parameter>
                  <parameterid>scale</parameterid>
                  <name>Scale</name>
                  <valuemin>0</valuemin>
                  <valuemax>1000</valuemax>
                  <value>150</value>
                </parameter>
                <parameter>
                  <parameterid>center</parameterid>
                  <name>Center</name>
                  <value>
                    <horiz>0.30000</horiz>
                    <vert>0.05000</vert>
                  </value>
                </parameter>
              </effect>
            </filter>
      </clipitem>

      <clipitem id="clipitem-229">
        <name>Fig 113329</name>
        <duration>62</duration>
        <rate><timebase>30</timebase></rate>
        <start>22721</start>
        <end>22783</end>
        <in>0</in>
        <out>62</out>
        <file id="file-136">
          <name>char_14414_13290.webp</name>
          <pathurl>file://localhost/C:/PROJECT_ROOT/assets/char_14414_13290.webp</pathurl>
          <rate><timebase>30</timebase></rate>
          <media>
             <video>
                <samplecharacteristics>
                  <width>1920</width>
                  <height>1080</height>
                  <pixelaspectratio>square</pixelaspectratio>
                </samplecharacteristics>
             </video>
             
          </media>
        </file>
        
            <filter>
              <effect>
                <name>Basic Motion</name>
                <effectid>basic</effectid>
                <effectcategory>motion</effectcategory>
                <effecttype>motion</effecttype>
                <mediatype>video</mediatype>
                <parameter>
                  <parameterid>scale</parameterid>
                  <name>Scale</name>
                  <valuemin>0</valuemin>
                  <valuemax>1000</valuemax>
                  <value>150</value>
                </parameter>
                <parameter>
                  <parameterid>center</parameterid>
                  <name>Center</name>
                  <value>
                    <horiz>0.30000</horiz>
                    <vert>0.05000</vert>
                  </value>
                </parameter>
              </effect>
            </filter>
      </clipitem>

      <clipitem id="clipitem-231">
        <name>Fig 113332</name>
        <duration>41</duration>
        <rate><timebase>30</timebase></rate>
        <start>22783</start>
        <end>22824</end>
        <in>0</in>
        <out>41</out>
        <file id="file-16">
          <name>char_14384_12960.webp</name>
          <pathurl>file://localhost/C:/PROJECT_ROOT/assets/char_14384_12960.webp</pathurl>
          <rate><timebase>30</timebase></rate>
          <media>
             <video>
                <samplecharacteristics>
                  <width>1920</width>
                  <height>1080</height>
                  <pixelaspectratio>square</pixelaspectratio>
                </samplecharacteristics>
             </video>
             
          </media>
        </file>
        
            <filter>
              <effect>
                <name>Basic Motion</name>
                <effectid>basic</effectid>
                <effectcategory>motion</effectcategory>
                <effecttype>motion</effecttype>
                <mediatype>video</mediatype>
                <parameter>
                  <parameterid>scale</parameterid>
                  <name>Scale</name>
                  <valuemin>0</valuemin>
                  <valuemax>1000</valuemax>
                  <value>150</value>
                </parameter>
                <parameter>
                  <parameterid>center</parameterid>
                  <name>Center</name>
                  <value>
                    <horiz>0.30000</horiz>
                    <vert>0.05000</vert>
                  </value>
                </parameter>
              </effect>
            </filter>
      </clipitem>

      <clipitem id="clipitem-237">
        <name>Fig 113331</name>
        <duration>237</duration>
        <rate><timebase>30</timebase></rate>
        <start>23248</start>
        <end>23485</end>
        <in>0</in>
        <out>237</out>
        <file id="file-61">
          <name>char_14414_13297.webp</name>
          <pathurl>file://localhost/C:/PROJECT_ROOT/assets/char_14414_13297.webp</pathurl>
          <rate><timebase>30</timebase></rate>
          <media>
             <video>
                <samplecharacteristics>
                  <width>1920</width>
                  <height>1080</height>
                  <pixelaspectratio>square</pixelaspectratio>
                </samplecharacteristics>
             </video>
             
          </media>
        </file>
        
            <filter>
              <effect>
                <name>Basic Motion</name>
                <effectid>basic</effectid>
                <effectcategory>motion</effectcategory>
                <effecttype>motion</effecttype>
                <mediatype>video</mediatype>
                <parameter>
                  <parameterid>scale</parameterid>
                  <name>Scale</name>
                  <valuemin>0</valuemin>
                  <valuemax>1000</valuemax>
                  <value>150</value>
                </parameter>
                <parameter>
                  <parameterid>center</parameterid>
                  <name>Center</name>
                  <value>
                    <horiz>0.30000</horiz>
                    <vert>0.05000</vert>
                  </value>
                </parameter>
              </effect>
            </filter>
      </clipitem>

      <clipitem id="clipitem-240">
        <name>Fig 113335</name>
        <duration>121</duration>
        <rate><timebase>30</timebase></rate>
        <start>23485</start>
        <end>23606</end>
        <in>0</in>
        <out>121</out>
        <file id="file-130">
          <name>char_14384_12966.webp</name>
          <pathurl>file://localhost/C:/PROJECT_ROOT/assets/char_14384_12966.webp</pathurl>
          <rate><timebase>30</timebase></rate>
          <media>
             <video>
                <samplecharacteristics>
                  <width>1920</width>
                  <height>1080</height>
                  <pixelaspectratio>square</pixelaspectratio>
                </samplecharacteristics>
             </video>
             
          </media>
        </file>
        
            <filter>
              <effect>
                <name>Basic Motion</name>
                <effectid>basic</effectid>
                <effectcategory>motion</effectcategory>
                <effecttype>motion</effecttype>
                <mediatype>video</mediatype>
                <parameter>
                  <parameterid>scale</parameterid>
                  <name>Scale</name>
                  <valuemin>0</valuemin>
                  <valuemax>1000</valuemax>
                  <value>150</value>
                </parameter>
                <parameter>
                  <parameterid>center</parameterid>
                  <name>Center</name>
                  <value>
                    <horiz>0.30000</horiz>
                    <vert>0.05000</vert>
                  </value>
                </parameter>
              </effect>
            </filter>
      </clipitem>

      <clipitem id="clipitem-242">
        <name>Fig 113336</name>
        <duration>85</duration>
        <rate><timebase>30</timebase></rate>
        <start>23606</start>
        <end>23691</end>
        <in>0</in>
        <out>85</out>
        <file id="file-61">
          <name>char_14414_13297.webp</name>
          <pathurl>file://localhost/C:/PROJECT_ROOT/assets/char_14414_13297.webp</pathurl>
          <rate><timebase>30</timebase></rate>
          <media>
             <video>
                <samplecharacteristics>
                  <width>1920</width>
                  <height>1080</height>
                  <pixelaspectratio>square</pixelaspectratio>
                </samplecharacteristics>
             </video>
             
          </media>
        </file>
        
            <filter>
              <effect>
                <name>Basic Motion</name>
                <effectid>basic</effectid>
                <effectcategory>motion</effectcategory>
                <effecttype>motion</effecttype>
                <mediatype>video</mediatype>
                <parameter>
                  <parameterid>scale</parameterid>
                  <name>Scale</name>
                  <valuemin>0</valuemin>
                  <valuemax>1000</valuemax>
                  <value>150</value>
                </parameter>
                <parameter>
                  <parameterid>center</parameterid>
                  <name>Center</name>
                  <value>
                    <horiz>0.30000</horiz>
                    <vert>0.05000</vert>
                  </value>
                </parameter>
              </effect>
            </filter>
      </clipitem>

      <clipitem id="clipitem-250">
        <name>Fig 113341</name>
        <duration>107</duration>
        <rate><timebase>30</timebase></rate>
        <start>24116</start>
        <end>24223</end>
        <in>0</in>
        <out>107</out>
        <file id="file-112">
          <name>char_14384_12961.webp</name>
          <pathurl>file://localhost/C:/PROJECT_ROOT/assets/char_14384_12961.webp</pathurl>
          <rate><timebase>30</timebase></rate>
          <media>
             <video>
                <samplecharacteristics>
                  <width>1920</width>
                  <height>1080</height>
                  <pixelaspectratio>square</pixelaspectratio>
                </samplecharacteristics>
             </video>
             
          </media>
        </file>
        
            <filter>
              <effect>
                <name>Basic Motion</name>
                <effectid>basic</effectid>
                <effectcategory>motion</effectcategory>
                <effecttype>motion</effecttype>
                <mediatype>video</mediatype>
                <parameter>
                  <parameterid>scale</parameterid>
                  <name>Scale</name>
                  <valuemin>0</valuemin>
                  <valuemax>1000</valuemax>
                  <value>150</value>
                </parameter>
                <parameter>
                  <parameterid>center</parameterid>
                  <name>Center</name>
                  <value>
                    <horiz>0.30000</horiz>
                    <vert>0.05000</vert>
                  </value>
                </parameter>
              </effect>
            </filter>
      </clipitem>

      <clipitem id="clipitem-262">
        <name>Fig 113353</name>
        <duration>252</duration>
        <rate><timebase>30</timebase></rate>
        <start>25534</start>
        <end>25786</end>
        <in>0</in>
        <out>252</out>
        <file id="file-136">
          <name>char_14414_13290.webp</name>
          <pathurl>file://localhost/C:/PROJECT_ROOT/assets/char_14414_13290.webp</pathurl>
          <rate><timebase>30</timebase></rate>
          <media>
             <video>
                <samplecharacteristics>
                  <width>1920</width>
                  <height>1080</height>
                  <pixelaspectratio>square</pixelaspectratio>
                </samplecharacteristics>
             </video>
             
          </media>
        </file>
        
            <filter>
              <effect>
                <name>Basic Motion</name>
                <effectid>basic</effectid>
                <effectcategory>motion</effectcategory>
                <effecttype>motion</effecttype>
                <mediatype>video</mediatype>
                <parameter>
                  <parameterid>scale</parameterid>
                  <name>Scale</name>
                  <valuemin>0</valuemin>
                  <valuemax>1000</valuemax>
                  <value>150</value>
                </parameter>
                <parameter>
                  <parameterid>center</parameterid>
                  <name>Center</name>
                  <value>
                    <horiz>0.30000</horiz>
                    <vert>0.05000</vert>
                  </value>
                </parameter>
              </effect>
            </filter>
      </clipitem>

      <clipitem id="clipitem-264">
        <name>Fig 113349</name>
        <duration>77</duration>
        <rate><timebase>30</timebase></rate>
        <start>25786</start>
        <end>25863</end>
        <in>0</in>
        <out>77</out>
        <file id="file-176">
          <name>char_14383_13020.webp</name>
          <pathurl>file://localhost/C:/PROJECT_ROOT/assets/char_14383_13020.webp</pathurl>
          <rate><timebase>30</timebase></rate>
          <media>
             <video>
                <samplecharacteristics>
                  <width>1920</width>
                  <height>1080</height>
                  <pixelaspectratio>square</pixelaspectratio>
                </samplecharacteristics>
             </video>
             
          </media>
        </file>
        
            <filter>
              <effect>
                <name>Basic Motion</name>
                <effectid>basic</effectid>
                <effectcategory>motion</effectcategory>
                <effecttype>motion</effecttype>
                <mediatype>video</mediatype>
                <parameter>
                  <parameterid>scale</parameterid>
                  <name>Scale</name>
                  <valuemin>0</valuemin>
                  <valuemax>1000</valuemax>
                  <value>150</value>
                </parameter>
                <parameter>
                  <parameterid>center</parameterid>
                  <name>Center</name>
                  <value>
                    <horiz>0.30000</horiz>
                    <vert>0.05000</vert>
                  </value>
                </parameter>
              </effect>
            </filter>
      </clipitem>

      <clipitem id="clipitem-270">
        <name>Fig 113352</name>
        <duration>34</duration>
        <rate><timebase>30</timebase></rate>
        <start>26051</start>
        <end>26085</end>
        <in>0</in>
        <out>34</out>
        <file id="file-147">
          <name>char_14414_13291.webp</name>
          <pathurl>file://localhost/C:/PROJECT_ROOT/assets/char_14414_13291.webp</pathurl>
          <rate><timebase>30</timebase></rate>
          <media>
             <video>
                <samplecharacteristics>
                  <width>1920</width>
                  <height>1080</height>
                  <pixelaspectratio>square</pixelaspectratio>
                </samplecharacteristics>
             </video>
             
          </media>
        </file>
        
            <filter>
              <effect>
                <name>Basic Motion</name>
                <effectid>basic</effectid>
                <effectcategory>motion</effectcategory>
                <effecttype>motion</effecttype>
                <mediatype>video</mediatype>
                <parameter>
                  <parameterid>scale</parameterid>
                  <name>Scale</name>
                  <valuemin>0</valuemin>
                  <valuemax>1000</valuemax>
                  <value>150</value>
                </parameter>
                <parameter>
                  <parameterid>center</parameterid>
                  <name>Center</name>
                  <value>
                    <horiz>0.30000</horiz>
                    <vert>0.05000</vert>
                  </value>
                </parameter>
              </effect>
            </filter>
      </clipitem>

      <clipitem id="clipitem-276">
        <name>Fig 113356</name>
        <duration>93</duration>
        <rate><timebase>30</timebase></rate>
        <start>26344</start>
        <end>26437</end>
        <in>0</in>
        <out>93</out>
        <file id="file-86">
          <name>char_14384_12976.webp</name>
          <pathurl>file://localhost/C:/PROJECT_ROOT/assets/char_14384_12976.webp</pathurl>
          <rate><timebase>30</timebase></rate>
          <media>
             <video>
                <samplecharacteristics>
                  <width>1920</width>
                  <height>1080</height>
                  <pixelaspectratio>square</pixelaspectratio>
                </samplecharacteristics>
             </video>
             
          </media>
        </file>
        
            <filter>
              <effect>
                <name>Basic Motion</name>
                <effectid>basic</effectid>
                <effectcategory>motion</effectcategory>
                <effecttype>motion</effecttype>
                <mediatype>video</mediatype>
                <parameter>
                  <parameterid>scale</parameterid>
                  <name>Scale</name>
                  <valuemin>0</valuemin>
                  <valuemax>1000</valuemax>
                  <value>150</value>
                </parameter>
                <parameter>
                  <parameterid>center</parameterid>
                  <name>Center</name>
                  <value>
                    <horiz>0.30000</horiz>
                    <vert>0.05000</vert>
                  </value>
                </parameter>
              </effect>
            </filter>
      </clipitem>

      <clipitem id="clipitem-278">
        <name>Fig 113357</name>
        <duration>135</duration>
        <rate><timebase>30</timebase></rate>
        <start>26437</start>
        <end>26572</end>
        <in>0</in>
        <out>135</out>
        <file id="file-1">
          <name>char_14383_12670.webp</name>
          <pathurl>file://localhost/C:/PROJECT_ROOT/assets/char_14383_12670.webp</pathurl>
          <rate><timebase>30</timebase></rate>
          <media>
             <video>
                <samplecharacteristics>
                  <width>1920</width>
                  <height>1080</height>
                  <pixelaspectratio>square</pixelaspectratio>
                </samplecharacteristics>
             </video>
             
          </media>
        </file>
        
            <filter>
              <effect>
                <name>Basic Motion</name>
                <effectid>basic</effectid>
                <effectcategory>motion</effectcategory>
                <effecttype>motion</effecttype>
                <mediatype>video</mediatype>
                <parameter>
                  <parameterid>scale</parameterid>
                  <name>Scale</name>
                  <valuemin>0</valuemin>
                  <valuemax>1000</valuemax>
                  <value>100</value>
                </parameter>
                <parameter>
                  <parameterid>center</parameterid>
                  <name>Center</name>
                  <value>
                    <horiz>0.30000</horiz>
                    <vert>0.05000</vert>
                  </value>
                </parameter>
              </effect>
            </filter>
      </clipitem>

      <clipitem id="clipitem-283">
        <name>Fig 113361</name>
        <duration>212</duration>
        <rate><timebase>30</timebase></rate>
        <start>26807</start>
        <end>27019</end>
        <in>0</in>
        <out>212</out>
        <file id="file-112">
          <name>char_14384_12961.webp</name>
          <pathurl>file://localhost/C:/PROJECT_ROOT/assets/char_14384_12961.webp</pathurl>
          <rate><timebase>30</timebase></rate>
          <media>
             <video>
                <samplecharacteristics>
                  <width>1920</width>
                  <height>1080</height>
                  <pixelaspectratio>square</pixelaspectratio>
                </samplecharacteristics>
             </video>
             
          </media>
        </file>
        
            <filter>
              <effect>
                <name>Basic Motion</name>
                <effectid>basic</effectid>
                <effectcategory>motion</effectcategory>
                <effecttype>motion</effecttype>
                <mediatype>video</mediatype>
                <parameter>
                  <parameterid>scale</parameterid>
                  <name>Scale</name>
                  <valuemin>0</valuemin>
                  <valuemax>1000</valuemax>
                  <value>150</value>
                </parameter>
                <parameter>
                  <parameterid>center</parameterid>
                  <name>Center</name>
                  <value>
                    <horiz>0.30000</horiz>
                    <vert>0.05000</vert>
                  </value>
                </parameter>
              </effect>
            </filter>
      </clipitem>

      <clipitem id="clipitem-288">
        <name>Fig 113365</name>
        <duration>79</duration>
        <rate><timebase>30</timebase></rate>
        <start>27213</start>
        <end>27292</end>
        <in>0</in>
        <out>79</out>
        <file id="file-190">
          <name>char_14383_13032.webp</name>
          <pathurl>file://localhost/C:/PROJECT_ROOT/assets/char_14383_13032.webp</pathurl>
          <rate><timebase>30</timebase></rate>
          <media>
             <video>
                <samplecharacteristics>
                  <width>1920</width>
                  <height>1080</height>
                  <pixelaspectratio>square</pixelaspectratio>
                </samplecharacteristics>
             </video>
             
          </media>
        </file>
        
            <filter>
              <effect>
                <name>Basic Motion</name>
                <effectid>basic</effectid>
                <effectcategory>motion</effectcategory>
                <effecttype>motion</effecttype>
                <mediatype>video</mediatype>
                <parameter>
                  <parameterid>scale</parameterid>
                  <name>Scale</name>
                  <valuemin>0</valuemin>
                  <valuemax>1000</valuemax>
                  <value>150</value>
                </parameter>
                <parameter>
                  <parameterid>center</parameterid>
                  <name>Center</name>
                  <value>
                    <horiz>0.30000</horiz>
                    <vert>0.05000</vert>
                  </value>
                </parameter>
              </effect>
            </filter>
      </clipitem>

      <clipitem id="clipitem-290">
        <name>Fig 113360</name>
        <duration>273</duration>
        <rate><timebase>30</timebase></rate>
        <start>27292</start>
        <end>27565</end>
        <in>0</in>
        <out>273</out>
        <file id="file-61">
          <name>char_14414_13297.webp</name>
          <pathurl>file://localhost/C:/PROJECT_ROOT/assets/char_14414_13297.webp</pathurl>
          <rate><timebase>30</timebase></rate>
          <media>
             <video>
                <samplecharacteristics>
                  <width>1920</width>
                  <height>1080</height>
                  <pixelaspectratio>square</pixelaspectratio>
                </samplecharacteristics>
             </video>
             
          </media>
        </file>
        
            <filter>
              <effect>
                <name>Basic Motion</name>
                <effectid>basic</effectid>
                <effectcategory>motion</effectcategory>
                <effecttype>motion</effecttype>
                <mediatype>video</mediatype>
                <parameter>
                  <parameterid>scale</parameterid>
                  <name>Scale</name>
                  <valuemin>0</valuemin>
                  <valuemax>1000</valuemax>
                  <value>150</value>
                </parameter>
                <parameter>
                  <parameterid>center</parameterid>
                  <name>Center</name>
                  <value>
                    <horiz>0.30000</horiz>
                    <vert>0.05000</vert>
                  </value>
                </parameter>
              </effect>
            </filter>
      </clipitem>

      <clipitem id="clipitem-295">
        <name>Fig 113366</name>
        <duration>140</duration>
        <rate><timebase>30</timebase></rate>
        <start>27722</start>
        <end>27862</end>
        <in>0</in>
        <out>140</out>
        <file id="file-130">
          <name>char_14384_12966.webp</name>
          <pathurl>file://localhost/C:/PROJECT_ROOT/assets/char_14384_12966.webp</pathurl>
          <rate><timebase>30</timebase></rate>
          <media>
             <video>
                <samplecharacteristics>
                  <width>1920</width>
                  <height>1080</height>
                  <pixelaspectratio>square</pixelaspectratio>
                </samplecharacteristics>
             </video>
             
          </media>
        </file>
        
            <filter>
              <effect>
                <name>Basic Motion</name>
                <effectid>basic</effectid>
                <effectcategory>motion</effectcategory>
                <effecttype>motion</effecttype>
                <mediatype>video</mediatype>
                <parameter>
                  <parameterid>scale</parameterid>
                  <name>Scale</name>
                  <valuemin>0</valuemin>
                  <valuemax>1000</valuemax>
                  <value>150</value>
                </parameter>
                <parameter>
                  <parameterid>center</parameterid>
                  <name>Center</name>
                  <value>
                    <horiz>0.30000</horiz>
                    <vert>0.05000</vert>
                  </value>
                </parameter>
              </effect>
            </filter>
      </clipitem>

      <clipitem id="clipitem-303">
        <name>Fig 113371</name>
        <duration>92</duration>
        <rate><timebase>30</timebase></rate>
        <start>28189</start>
        <end>28281</end>
        <in>0</in>
        <out>92</out>
        <file id="file-1">
          <name>char_14383_12670.webp</name>
          <pathurl>file://localhost/C:/PROJECT_ROOT/assets/char_14383_12670.webp</pathurl>
          <rate><timebase>30</timebase></rate>
          <media>
             <video>
                <samplecharacteristics>
                  <width>1920</width>
                  <height>1080</height>
                  <pixelaspectratio>square</pixelaspectratio>
                </samplecharacteristics>
             </video>
             
          </media>
        </file>
        
            <filter>
              <effect>
                <name>Basic Motion</name>
                <effectid>basic</effectid>
                <effectcategory>motion</effectcategory>
                <effecttype>motion</effecttype>
                <mediatype>video</mediatype>
                <parameter>
                  <parameterid>scale</parameterid>
                  <name>Scale</name>
                  <valuemin>0</valuemin>
                  <valuemax>1000</valuemax>
                  <value>100</value>
                </parameter>
                <parameter>
                  <parameterid>center</parameterid>
                  <name>Center</name>
                  <value>
                    <horiz>0.30000</horiz>
                    <vert>0.05000</vert>
                  </value>
                </parameter>
              </effect>
            </filter>
      </clipitem>

      <clipitem id="clipitem-309">
        <name>Fig 113372</name>
        <duration>221</duration>
        <rate><timebase>30</timebase></rate>
        <start>28709</start>
        <end>28930</end>
        <in>0</in>
        <out>221</out>
        <file id="file-18">
          <name>char_14383_13026.webp</name>
          <pathurl>file://localhost/C:/PROJECT_ROOT/assets/char_14383_13026.webp</pathurl>
          <rate><timebase>30</timebase></rate>
          <media>
             <video>
                <samplecharacteristics>
                  <width>1920</width>
                  <height>1080</height>
                  <pixelaspectratio>square</pixelaspectratio>
                </samplecharacteristics>
             </video>
             
          </media>
        </file>
        
            <filter>
              <effect>
                <name>Basic Motion</name>
                <effectid>basic</effectid>
                <effectcategory>motion</effectcategory>
                <effecttype>motion</effecttype>
                <mediatype>video</mediatype>
                <parameter>
                  <parameterid>scale</parameterid>
                  <name>Scale</name>
                  <valuemin>0</valuemin>
                  <valuemax>1000</valuemax>
                  <value>150</value>
                </parameter>
                <parameter>
                  <parameterid>center</parameterid>
                  <name>Center</name>
                  <value>
                    <horiz>0.30000</horiz>
                    <vert>0.05000</vert>
                  </value>
                </parameter>
              </effect>
            </filter>
      </clipitem>

      <clipitem id="clipitem-311">
        <name>Fig 113373</name>
        <duration>84</duration>
        <rate><timebase>30</timebase></rate>
        <start>28930</start>
        <end>29014</end>
        <in>0</in>
        <out>84</out>
        <file id="file-75">
          <name>char_14384_12957.webp</name>
          <pathurl>file://localhost/C:/PROJECT_ROOT/assets/char_14384_12957.webp</pathurl>
          <rate><timebase>30</timebase></rate>
          <media>
             <video>
                <samplecharacteristics>
                  <width>1920</width>
                  <height>1080</height>
                  <pixelaspectratio>square</pixelaspectratio>
                </samplecharacteristics>
             </video>
             
          </media>
        </file>
        
            <filter>
              <effect>
                <name>Basic Motion</name>
                <effectid>basic</effectid>
                <effectcategory>motion</effectcategory>
                <effecttype>motion</effecttype>
                <mediatype>video</mediatype>
                <parameter>
                  <parameterid>scale</parameterid>
                  <name>Scale</name>
                  <valuemin>0</valuemin>
                  <valuemax>1000</valuemax>
                  <value>150</value>
                </parameter>
                <parameter>
                  <parameterid>center</parameterid>
                  <name>Center</name>
                  <value>
                    <horiz>0.30000</horiz>
                    <vert>0.05000</vert>
                  </value>
                </parameter>
              </effect>
            </filter>
      </clipitem>

      <clipitem id="clipitem-314">
        <name>Fig 113375</name>
        <duration>284</duration>
        <rate><timebase>30</timebase></rate>
        <start>29014</start>
        <end>29298</end>
        <in>0</in>
        <out>284</out>
        <file id="file-206">
          <name>char_14383_13030.webp</name>
          <pathurl>file://localhost/C:/PROJECT_ROOT/assets/char_14383_13030.webp</pathurl>
          <rate><timebase>30</timebase></rate>
          <media>
             <video>
                <samplecharacteristics>
                  <width>1920</width>
                  <height>1080</height>
                  <pixelaspectratio>square</pixelaspectratio>
                </samplecharacteristics>
             </video>
             
          </media>
        </file>
        
            <filter>
              <effect>
                <name>Basic Motion</name>
                <effectid>basic</effectid>
                <effectcategory>motion</effectcategory>
                <effecttype>motion</effecttype>
                <mediatype>video</mediatype>
                <parameter>
                  <parameterid>scale</parameterid>
                  <name>Scale</name>
                  <valuemin>0</valuemin>
                  <valuemax>1000</valuemax>
                  <value>150</value>
                </parameter>
                <parameter>
                  <parameterid>center</parameterid>
                  <name>Center</name>
                  <value>
                    <horiz>0.30000</horiz>
                    <vert>0.05000</vert>
                  </value>
                </parameter>
              </effect>
            </filter>
      </clipitem>

      <clipitem id="clipitem-322">
        <name>Fig 113380</name>
        <duration>279</duration>
        <rate><timebase>30</timebase></rate>
        <start>29777</start>
        <end>30056</end>
        <in>0</in>
        <out>279</out>
        <file id="file-136">
          <name>char_14414_13290.webp</name>
          <pathurl>file://localhost/C:/PROJECT_ROOT/assets/char_14414_13290.webp</pathurl>
          <rate><timebase>30</timebase></rate>
          <media>
             <video>
                <samplecharacteristics>
                  <width>1920</width>
                  <height>1080</height>
                  <pixelaspectratio>square</pixelaspectratio>
                </samplecharacteristics>
             </video>
             
          </media>
        </file>
        
            <filter>
              <effect>
                <name>Basic Motion</name>
                <effectid>basic</effectid>
                <effectcategory>motion</effectcategory>
                <effecttype>motion</effecttype>
                <mediatype>video</mediatype>
                <parameter>
                  <parameterid>scale</parameterid>
                  <name>Scale</name>
                  <valuemin>0</valuemin>
                  <valuemax>1000</valuemax>
                  <value>150</value>
                </parameter>
                <parameter>
                  <parameterid>center</parameterid>
                  <name>Center</name>
                  <value>
                    <horiz>0.30000</horiz>
                    <vert>0.05000</vert>
                  </value>
                </parameter>
              </effect>
            </filter>
      </clipitem>

      <clipitem id="clipitem-324">
        <name>Fig 113381</name>
        <duration>145</duration>
        <rate><timebase>30</timebase></rate>
        <start>30056</start>
        <end>30201</end>
        <in>0</in>
        <out>145</out>
        <file id="file-206">
          <name>char_14383_13030.webp</name>
          <pathurl>file://localhost/C:/PROJECT_ROOT/assets/char_14383_13030.webp</pathurl>
          <rate><timebase>30</timebase></rate>
          <media>
             <video>
                <samplecharacteristics>
                  <width>1920</width>
                  <height>1080</height>
                  <pixelaspectratio>square</pixelaspectratio>
                </samplecharacteristics>
             </video>
             
          </media>
        </file>
        
            <filter>
              <effect>
                <name>Basic Motion</name>
                <effectid>basic</effectid>
                <effectcategory>motion</effectcategory>
                <effecttype>motion</effecttype>
                <mediatype>video</mediatype>
                <parameter>
                  <parameterid>scale</parameterid>
                  <name>Scale</name>
                  <valuemin>0</valuemin>
                  <valuemax>1000</valuemax>
                  <value>150</value>
                </parameter>
                <parameter>
                  <parameterid>center</parameterid>
                  <name>Center</name>
                  <value>
                    <horiz>0.30000</horiz>
                    <vert>0.05000</vert>
                  </value>
                </parameter>
              </effect>
            </filter>
      </clipitem>

      <clipitem id="clipitem-326">
        <name>Fig 113382</name>
        <duration>190</duration>
        <rate><timebase>30</timebase></rate>
        <start>30201</start>
        <end>30391</end>
        <in>0</in>
        <out>190</out>
        <file id="file-136">
          <name>char_14414_13290.webp</name>
          <pathurl>file://localhost/C:/PROJECT_ROOT/assets/char_14414_13290.webp</pathurl>
          <rate><timebase>30</timebase></rate>
          <media>
             <video>
                <samplecharacteristics>
                  <width>1920</width>
                  <height>1080</height>
                  <pixelaspectratio>square</pixelaspectratio>
                </samplecharacteristics>
             </video>
             
          </media>
        </file>
        
            <filter>
              <effect>
                <name>Basic Motion</name>
                <effectid>basic</effectid>
                <effectcategory>motion</effectcategory>
                <effecttype>motion</effecttype>
                <mediatype>video</mediatype>
                <parameter>
                  <parameterid>scale</parameterid>
                  <name>Scale</name>
                  <valuemin>0</valuemin>
                  <valuemax>1000</valuemax>
                  <value>150</value>
                </parameter>
                <parameter>
                  <parameterid>center</parameterid>
                  <name>Center</name>
                  <value>
                    <horiz>0.30000</horiz>
                    <vert>0.05000</vert>
                  </value>
                </parameter>
              </effect>
            </filter>
      </clipitem>

      <clipitem id="clipitem-329">
        <name>Fig 113384</name>
        <duration>137</duration>
        <rate><timebase>30</timebase></rate>
        <start>30391</start>
        <end>30528</end>
        <in>0</in>
        <out>137</out>
        <file id="file-130">
          <name>char_14384_12966.webp</name>
          <pathurl>file://localhost/C:/PROJECT_ROOT/assets/char_14384_12966.webp</pathurl>
          <rate><timebase>30</timebase></rate>
          <media>
             <video>
                <samplecharacteristics>
                  <width>1920</width>
                  <height>1080</height>
                  <pixelaspectratio>square</pixelaspectratio>
                </samplecharacteristics>
             </video>
             
          </media>
        </file>
        
            <filter>
              <effect>
                <name>Basic Motion</name>
                <effectid>basic</effectid>
                <effectcategory>motion</effectcategory>
                <effecttype>motion</effecttype>
                <mediatype>video</mediatype>
                <parameter>
                  <parameterid>scale</parameterid>
                  <name>Scale</name>
                  <valuemin>0</valuemin>
                  <valuemax>1000</valuemax>
                  <value>150</value>
                </parameter>
                <parameter>
                  <parameterid>center</parameterid>
                  <name>Center</name>
                  <value>
                    <horiz>0.30000</horiz>
                    <vert>0.05000</vert>
                  </value>
                </parameter>
              </effect>
            </filter>
      </clipitem>

      <clipitem id="clipitem-331">
        <name>Fig 113385</name>
        <duration>254</duration>
        <rate><timebase>30</timebase></rate>
        <start>30528</start>
        <end>30782</end>
        <in>0</in>
        <out>254</out>
        <file id="file-86">
          <name>char_14384_12976.webp</name>
          <pathurl>file://localhost/C:/PROJECT_ROOT/assets/char_14384_12976.webp</pathurl>
          <rate><timebase>30</timebase></rate>
          <media>
             <video>
                <samplecharacteristics>
                  <width>1920</width>
                  <height>1080</height>
                  <pixelaspectratio>square</pixelaspectratio>
                </samplecharacteristics>
             </video>
             
          </media>
        </file>
        
            <filter>
              <effect>
                <name>Basic Motion</name>
                <effectid>basic</effectid>
                <effectcategory>motion</effectcategory>
                <effecttype>motion</effecttype>
                <mediatype>video</mediatype>
                <parameter>
                  <parameterid>scale</parameterid>
                  <name>Scale</name>
                  <valuemin>0</valuemin>
                  <valuemax>1000</valuemax>
                  <value>150</value>
                </parameter>
                <parameter>
                  <parameterid>center</parameterid>
                  <name>Center</name>
                  <value>
                    <horiz>0.30000</horiz>
                    <vert>0.05000</vert>
                  </value>
                </parameter>
              </effect>
            </filter>
      </clipitem>

      <clipitem id="clipitem-333">
        <name>Fig 113386</name>
        <duration>248</duration>
        <rate><timebase>30</timebase></rate>
        <start>30782</start>
        <end>31030</end>
        <in>0</in>
        <out>248</out>
        <file id="file-142">
          <name>char_14414_13301.webp</name>
          <pathurl>file://localhost/C:/PROJECT_ROOT/assets/char_14414_13301.webp</pathurl>
          <rate><timebase>30</timebase></rate>
          <media>
             <video>
                <samplecharacteristics>
                  <width>1920</width>
                  <height>1080</height>
                  <pixelaspectratio>square</pixelaspectratio>
                </samplecharacteristics>
             </video>
             
          </media>
        </file>
        
            <filter>
              <effect>
                <name>Basic Motion</name>
                <effectid>basic</effectid>
                <effectcategory>motion</effectcategory>
                <effecttype>motion</effecttype>
                <mediatype>video</mediatype>
                <parameter>
                  <parameterid>scale</parameterid>
                  <name>Scale</name>
                  <valuemin>0</valuemin>
                  <valuemax>1000</valuemax>
                  <value>150</value>
                </parameter>
                <parameter>
                  <parameterid>center</parameterid>
                  <name>Center</name>
                  <value>
                    <horiz>0.30000</horiz>
                    <vert>0.05000</vert>
                  </value>
                </parameter>
              </effect>
            </filter>
      </clipitem>

      <clipitem id="clipitem-335">
        <name>Fig 113387</name>
        <duration>170</duration>
        <rate><timebase>30</timebase></rate>
        <start>31030</start>
        <end>31200</end>
        <in>0</in>
        <out>170</out>
        <file id="file-147">
          <name>char_14414_13291.webp</name>
          <pathurl>file://localhost/C:/PROJECT_ROOT/assets/char_14414_13291.webp</pathurl>
          <rate><timebase>30</timebase></rate>
          <media>
             <video>
                <samplecharacteristics>
                  <width>1920</width>
                  <height>1080</height>
                  <pixelaspectratio>square</pixelaspectratio>
                </samplecharacteristics>
             </video>
             
          </media>
        </file>
        
            <filter>
              <effect>
                <name>Basic Motion</name>
                <effectid>basic</effectid>
                <effectcategory>motion</effectcategory>
                <effecttype>motion</effecttype>
                <mediatype>video</mediatype>
                <parameter>
                  <parameterid>scale</parameterid>
                  <name>Scale</name>
                  <valuemin>0</valuemin>
                  <valuemax>1000</valuemax>
                  <value>150</value>
                </parameter>
                <parameter>
                  <parameterid>center</parameterid>
                  <name>Center</name>
                  <value>
                    <horiz>0.30000</horiz>
                    <vert>0.05000</vert>
                  </value>
                </parameter>
              </effect>
            </filter>
      </clipitem>

      <clipitem id="clipitem-339">
        <name>Fig 113389</name>
        <duration>259</duration>
        <rate><timebase>30</timebase></rate>
        <start>31385</start>
        <end>31644</end>
        <in>0</in>
        <out>259</out>
        <file id="file-75">
          <name>char_14384_12957.webp</name>
          <pathurl>file://localhost/C:/PROJECT_ROOT/assets/char_14384_12957.webp</pathurl>
          <rate><timebase>30</timebase></rate>
          <media>
             <video>
                <samplecharacteristics>
                  <width>1920</width>
                  <height>1080</height>
                  <pixelaspectratio>square</pixelaspectratio>
                </samplecharacteristics>
             </video>
             
          </media>
        </file>
        
            <filter>
              <effect>
                <name>Basic Motion</name>
                <effectid>basic</effectid>
                <effectcategory>motion</effectcategory>
                <effecttype>motion</effecttype>
                <mediatype>video</mediatype>
                <parameter>
                  <parameterid>scale</parameterid>
                  <name>Scale</name>
                  <valuemin>0</valuemin>
                  <valuemax>1000</valuemax>
                  <value>150</value>
                </parameter>
                <parameter>
                  <parameterid>center</parameterid>
                  <name>Center</name>
                  <value>
                    <horiz>0.30000</horiz>
                    <vert>0.05000</vert>
                  </value>
                </parameter>
              </effect>
            </filter>
      </clipitem>

      <clipitem id="clipitem-342">
        <name>Fig 113391</name>
        <duration>278</duration>
        <rate><timebase>30</timebase></rate>
        <start>31644</start>
        <end>31922</end>
        <in>0</in>
        <out>278</out>
        <file id="file-18">
          <name>char_14383_13026.webp</name>
          <pathurl>file://localhost/C:/PROJECT_ROOT/assets/char_14383_13026.webp</pathurl>
          <rate><timebase>30</timebase></rate>
          <media>
             <video>
                <samplecharacteristics>
                  <width>1920</width>
                  <height>1080</height>
                  <pixelaspectratio>square</pixelaspectratio>
                </samplecharacteristics>
             </video>
             
          </media>
        </file>
        
            <filter>
              <effect>
                <name>Basic Motion</name>
                <effectid>basic</effectid>
                <effectcategory>motion</effectcategory>
                <effecttype>motion</effecttype>
                <mediatype>video</mediatype>
                <parameter>
                  <parameterid>scale</parameterid>
                  <name>Scale</name>
                  <valuemin>0</valuemin>
                  <valuemax>1000</valuemax>
                  <value>150</value>
                </parameter>
                <parameter>
                  <parameterid>center</parameterid>
                  <name>Center</name>
                  <value>
                    <horiz>0.30000</horiz>
                    <vert>0.05000</vert>
                  </value>
                </parameter>
              </effect>
            </filter>
      </clipitem>

      <clipitem id="clipitem-354">
        <name>Fig 113400</name>
        <duration>39</duration>
        <rate><timebase>30</timebase></rate>
        <start>33165</start>
        <end>33204</end>
        <in>0</in>
        <out>39</out>
        <file id="file-1">
          <name>char_14383_12670.webp</name>
          <pathurl>file://localhost/C:/PROJECT_ROOT/assets/char_14383_12670.webp</pathurl>
          <rate><timebase>30</timebase></rate>
          <media>
             <video>
                <samplecharacteristics>
                  <width>1920</width>
                  <height>1080</height>
                  <pixelaspectratio>square</pixelaspectratio>
                </samplecharacteristics>
             </video>
             
          </media>
        </file>
        
            <filter>
              <effect>
                <name>Basic Motion</name>
                <effectid>basic</effectid>
                <effectcategory>motion</effectcategory>
                <effecttype>motion</effecttype>
                <mediatype>video</mediatype>
                <parameter>
                  <parameterid>scale</parameterid>
                  <name>Scale</name>
                  <valuemin>0</valuemin>
                  <valuemax>1000</valuemax>
                  <value>100</value>
                </parameter>
                <parameter>
                  <parameterid>center</parameterid>
                  <name>Center</name>
                  <value>
                    <horiz>0.30000</horiz>
                    <vert>0.05000</vert>
                  </value>
                </parameter>
              </effect>
            </filter>
      </clipitem>

      <clipitem id="clipitem-371">
        <name>Fig 113410</name>
        <duration>112</duration>
        <rate><timebase>30</timebase></rate>
        <start>34497</start>
        <end>34609</end>
        <in>0</in>
        <out>112</out>
        <file id="file-238">
          <name>char_14414_13306.webp</name>
          <pathurl>file://localhost/C:/PROJECT_ROOT/assets/char_14414_13306.webp</pathurl>
          <rate><timebase>30</timebase></rate>
          <media>
             <video>
                <samplecharacteristics>
                  <width>1920</width>
                  <height>1080</height>
                  <pixelaspectratio>square</pixelaspectratio>
                </samplecharacteristics>
             </video>
             
          </media>
        </file>
        
            <filter>
              <effect>
                <name>Basic Motion</name>
                <effectid>basic</effectid>
                <effectcategory>motion</effectcategory>
                <effecttype>motion</effecttype>
                <mediatype>video</mediatype>
                <parameter>
                  <parameterid>scale</parameterid>
                  <name>Scale</name>
                  <valuemin>0</valuemin>
                  <valuemax>1000</valuemax>
                  <value>150</value>
                </parameter>
                <parameter>
                  <parameterid>center</parameterid>
                  <name>Center</name>
                  <value>
                    <horiz>0.30000</horiz>
                    <vert>0.05000</vert>
                  </value>
                </parameter>
              </effect>
            </filter>
      </clipitem>

      <clipitem id="clipitem-373">
        <name>Fig 113415</name>
        <duration>168</duration>
        <rate><timebase>30</timebase></rate>
        <start>34609</start>
        <end>34777</end>
        <in>0</in>
        <out>168</out>
        <file id="file-240">
          <name>char_14383_13038.webp</name>
          <pathurl>file://localhost/C:/PROJECT_ROOT/assets/char_14383_13038.webp</pathurl>
          <rate><timebase>30</timebase></rate>
          <media>
             <video>
                <samplecharacteristics>
                  <width>1920</width>
                  <height>1080</height>
                  <pixelaspectratio>square</pixelaspectratio>
                </samplecharacteristics>
             </video>
             
          </media>
        </file>
        
            <filter>
              <effect>
                <name>Basic Motion</name>
                <effectid>basic</effectid>
                <effectcategory>motion</effectcategory>
                <effecttype>motion</effecttype>
                <mediatype>video</mediatype>
                <parameter>
                  <parameterid>scale</parameterid>
                  <name>Scale</name>
                  <valuemin>0</valuemin>
                  <valuemax>1000</valuemax>
                  <value>150</value>
                </parameter>
                <parameter>
                  <parameterid>center</parameterid>
                  <name>Center</name>
                  <value>
                    <horiz>0.30000</horiz>
                    <vert>0.05000</vert>
                  </value>
                </parameter>
              </effect>
            </filter>
      </clipitem>

      <clipitem id="clipitem-375">
        <name>Fig 113412</name>
        <duration>52</duration>
        <rate><timebase>30</timebase></rate>
        <start>34777</start>
        <end>34829</end>
        <in>0</in>
        <out>52</out>
        <file id="file-242">
          <name>char_14384_12962.webp</name>
          <pathurl>file://localhost/C:/PROJECT_ROOT/assets/char_14384_12962.webp</pathurl>
          <rate><timebase>30</timebase></rate>
          <media>
             <video>
                <samplecharacteristics>
                  <width>1920</width>
                  <height>1080</height>
                  <pixelaspectratio>square</pixelaspectratio>
                </samplecharacteristics>
             </video>
             
          </media>
        </file>
        
            <filter>
              <effect>
                <name>Basic Motion</name>
                <effectid>basic</effectid>
                <effectcategory>motion</effectcategory>
                <effecttype>motion</effecttype>
                <mediatype>video</mediatype>
                <parameter>
                  <parameterid>scale</parameterid>
                  <name>Scale</name>
                  <valuemin>0</valuemin>
                  <valuemax>1000</valuemax>
                  <value>150</value>
                </parameter>
                <parameter>
                  <parameterid>center</parameterid>
                  <name>Center</name>
                  <value>
                    <horiz>0.30000</horiz>
                    <vert>0.05000</vert>
                  </value>
                </parameter>
              </effect>
            </filter>
      </clipitem>

      <clipitem id="clipitem-377">
        <name>Fig 113413</name>
        <duration>90</duration>
        <rate><timebase>30</timebase></rate>
        <start>34829</start>
        <end>34919</end>
        <in>0</in>
        <out>90</out>
        <file id="file-238">
          <name>char_14414_13306.webp</name>
          <pathurl>file://localhost/C:/PROJECT_ROOT/assets/char_14414_13306.webp</pathurl>
          <rate><timebase>30</timebase></rate>
          <media>
             <video>
                <samplecharacteristics>
                  <width>1920</width>
                  <height>1080</height>
                  <pixelaspectratio>square</pixelaspectratio>
                </samplecharacteristics>
             </video>
             
          </media>
        </file>
        
            <filter>
              <effect>
                <name>Basic Motion</name>
                <effectid>basic</effectid>
                <effectcategory>motion</effectcategory>
                <effecttype>motion</effecttype>
                <mediatype>video</mediatype>
                <parameter>
                  <parameterid>scale</parameterid>
                  <name>Scale</name>
                  <valuemin>0</valuemin>
                  <valuemax>1000</valuemax>
                  <value>150</value>
                </parameter>
                <parameter>
                  <parameterid>center</parameterid>
                  <name>Center</name>
                  <value>
                    <horiz>0.30000</horiz>
                    <vert>0.05000</vert>
                  </value>
                </parameter>
              </effect>
            </filter>
      </clipitem>

      <clipitem id="clipitem-379">
        <name>Fig 113411</name>
        <duration>204</duration>
        <rate><timebase>30</timebase></rate>
        <start>34919</start>
        <end>35123</end>
        <in>0</in>
        <out>204</out>
        <file id="file-245">
          <name>char_14383_13036.webp</name>
          <pathurl>file://localhost/C:/PROJECT_ROOT/assets/char_14383_13036.webp</pathurl>
          <rate><timebase>30</timebase></rate>
          <media>
             <video>
                <samplecharacteristics>
                  <width>1920</width>
                  <height>1080</height>
                  <pixelaspectratio>square</pixelaspectratio>
                </samplecharacteristics>
             </video>
             
          </media>
        </file>
        
            <filter>
              <effect>
                <name>Basic Motion</name>
                <effectid>basic</effectid>
                <effectcategory>motion</effectcategory>
                <effecttype>motion</effecttype>
                <mediatype>video</mediatype>
                <parameter>
                  <parameterid>scale</parameterid>
                  <name>Scale</name>
                  <valuemin>0</valuemin>
                  <valuemax>1000</valuemax>
                  <value>150</value>
                </parameter>
                <parameter>
                  <parameterid>center</parameterid>
                  <name>Center</name>
                  <value>
                    <horiz>0.30000</horiz>
                    <vert>0.05000</vert>
                  </value>
                </parameter>
              </effect>
            </filter>
      </clipitem>

      <clipitem id="clipitem-381">
        <name>Fig 113414</name>
        <duration>37</duration>
        <rate><timebase>30</timebase></rate>
        <start>35123</start>
        <end>35160</end>
        <in>0</in>
        <out>37</out>
        <file id="file-112">
          <name>char_14384_12961.webp</name>
          <pathurl>file://localhost/C:/PROJECT_ROOT/assets/char_14384_12961.webp</pathurl>
          <rate><timebase>30</timebase></rate>
          <media>
             <video>
                <samplecharacteristics>
                  <width>1920</width>
                  <height>1080</height>
                  <pixelaspectratio>square</pixelaspectratio>
                </samplecharacteristics>
             </video>
             
          </media>
        </file>
        
            <filter>
              <effect>
                <name>Basic Motion</name>
                <effectid>basic</effectid>
                <effectcategory>motion</effectcategory>
                <effecttype>motion</effecttype>
                <mediatype>video</mediatype>
                <parameter>
                  <parameterid>scale</parameterid>
                  <name>Scale</name>
                  <valuemin>0</valuemin>
                  <valuemax>1000</valuemax>
                  <value>150</value>
                </parameter>
                <parameter>
                  <parameterid>center</parameterid>
                  <name>Center</name>
                  <value>
                    <horiz>0.30000</horiz>
                    <vert>0.05000</vert>
                  </value>
                </parameter>
              </effect>
            </filter>
      </clipitem>

      <clipitem id="clipitem-386">
        <name>Fig 113418</name>
        <duration>159</duration>
        <rate><timebase>30</timebase></rate>
        <start>35644</start>
        <end>35803</end>
        <in>0</in>
        <out>159</out>
        <file id="file-250">
          <name>char_14414_13300.webp</name>
          <pathurl>file://localhost/C:/PROJECT_ROOT/assets/char_14414_13300.webp</pathurl>
          <rate><timebase>30</timebase></rate>
          <media>
             <video>
                <samplecharacteristics>
                  <width>1920</width>
                  <height>1080</height>
                  <pixelaspectratio>square</pixelaspectratio>
                </samplecharacteristics>
             </video>
             
          </media>
        </file>
        
            <filter>
              <effect>
                <name>Basic Motion</name>
                <effectid>basic</effectid>
                <effectcategory>motion</effectcategory>
                <effecttype>motion</effecttype>
                <mediatype>video</mediatype>
                <parameter>
                  <parameterid>scale</parameterid>
                  <name>Scale</name>
                  <valuemin>0</valuemin>
                  <valuemax>1000</valuemax>
                  <value>150</value>
                </parameter>
                <parameter>
                  <parameterid>center</parameterid>
                  <name>Center</name>
                  <value>
                    <horiz>0.30000</horiz>
                    <vert>0.05000</vert>
                  </value>
                </parameter>
              </effect>
            </filter>
      </clipitem>

      <clipitem id="clipitem-390">
        <name>Fig 113421</name>
        <duration>143</duration>
        <rate><timebase>30</timebase></rate>
        <start>36057</start>
        <end>36200</end>
        <in>0</in>
        <out>143</out>
        <file id="file-250">
          <name>char_14414_13300.webp</name>
          <pathurl>file://localhost/C:/PROJECT_ROOT/assets/char_14414_13300.webp</pathurl>
          <rate><timebase>30</timebase></rate>
          <media>
             <video>
                <samplecharacteristics>
                  <width>1920</width>
                  <height>1080</height>
                  <pixelaspectratio>square</pixelaspectratio>
                </samplecharacteristics>
             </video>
             
          </media>
        </file>
        
            <filter>
              <effect>
                <name>Basic Motion</name>
                <effectid>basic</effectid>
                <effectcategory>motion</effectcategory>
                <effecttype>motion</effecttype>
                <mediatype>video</mediatype>
                <parameter>
                  <parameterid>scale</parameterid>
                  <name>Scale</name>
                  <valuemin>0</valuemin>
                  <valuemax>1000</valuemax>
                  <value>150</value>
                </parameter>
                <parameter>
                  <parameterid>center</parameterid>
                  <name>Center</name>
                  <value>
                    <horiz>0.30000</horiz>
                    <vert>0.05000</vert>
                  </value>
                </parameter>
              </effect>
            </filter>
      </clipitem>

      <clipitem id="clipitem-393">
        <name>Fig 113422</name>
        <duration>264</duration>
        <rate><timebase>30</timebase></rate>
        <start>36200</start>
        <end>36464</end>
        <in>0</in>
        <out>264</out>
        <file id="file-255">
          <name>char_14384_12968.webp</name>
          <pathurl>file://localhost/C:/PROJECT_ROOT/assets/char_14384_12968.webp</pathurl>
          <rate><timebase>30</timebase></rate>
          <media>
             <video>
                <samplecharacteristics>
                  <width>1920</width>
                  <height>1080</height>
                  <pixelaspectratio>square</pixelaspectratio>
                </samplecharacteristics>
             </video>
             
          </media>
        </file>
        
            <filter>
              <effect>
                <name>Basic Motion</name>
                <effectid>basic</effectid>
                <effectcategory>motion</effectcategory>
                <effecttype>motion</effecttype>
                <mediatype>video</mediatype>
                <parameter>
                  <parameterid>scale</parameterid>
                  <name>Scale</name>
                  <valuemin>0</valuemin>
                  <valuemax>1000</valuemax>
                  <value>150</value>
                </parameter>
                <parameter>
                  <parameterid>center</parameterid>
                  <name>Center</name>
                  <value>
                    <horiz>0.30000</horiz>
                    <vert>0.05000</vert>
                  </value>
                </parameter>
              </effect>
            </filter>
      </clipitem>

      <clipitem id="clipitem-396">
        <name>Fig 113423</name>
        <duration>160</duration>
        <rate><timebase>30</timebase></rate>
        <start>36464</start>
        <end>36624</end>
        <in>0</in>
        <out>160</out>
        <file id="file-258">
          <name>char_14383_13023.webp</name>
          <pathurl>file://localhost/C:/PROJECT_ROOT/assets/char_14383_13023.webp</pathurl>
          <rate><timebase>30</timebase></rate>
          <media>
             <video>
                <samplecharacteristics>
                  <width>1920</width>
                  <height>1080</height>
                  <pixelaspectratio>square</pixelaspectratio>
                </samplecharacteristics>
             </video>
             
          </media>
        </file>
        
            <filter>
              <effect>
                <name>Basic Motion</name>
                <effectid>basic</effectid>
                <effectcategory>motion</effectcategory>
                <effecttype>motion</effecttype>
                <mediatype>video</mediatype>
                <parameter>
                  <parameterid>scale</parameterid>
                  <name>Scale</name>
                  <valuemin>0</valuemin>
                  <valuemax>1000</valuemax>
                  <value>150</value>
                </parameter>
                <parameter>
                  <parameterid>center</parameterid>
                  <name>Center</name>
                  <value>
                    <horiz>0.30000</horiz>
                    <vert>0.05000</vert>
                  </value>
                </parameter>
              </effect>
            </filter>
      </clipitem>

      <clipitem id="clipitem-400">
        <name>Fig 113424</name>
        <duration>74</duration>
        <rate><timebase>30</timebase></rate>
        <start>36700</start>
        <end>36774</end>
        <in>0</in>
        <out>74</out>
        <file id="file-133">
          <name>char_14414_12724.webp</name>
          <pathurl>file://localhost/C:/PROJECT_ROOT/assets/char_14414_12724.webp</pathurl>
          <rate><timebase>30</timebase></rate>
          <media>
             <video>
                <samplecharacteristics>
                  <width>1920</width>
                  <height>1080</height>
                  <pixelaspectratio>square</pixelaspectratio>
                </samplecharacteristics>
             </video>
             
          </media>
        </file>
        
            <filter>
              <effect>
                <name>Basic Motion</name>
                <effectid>basic</effectid>
                <effectcategory>motion</effectcategory>
                <effecttype>motion</effecttype>
                <mediatype>video</mediatype>
                <parameter>
                  <parameterid>scale</parameterid>
                  <name>Scale</name>
                  <valuemin>0</valuemin>
                  <valuemax>1000</valuemax>
                  <value>100</value>
                </parameter>
                <parameter>
                  <parameterid>center</parameterid>
                  <name>Center</name>
                  <value>
                    <horiz>0.30000</horiz>
                    <vert>0.05000</vert>
                  </value>
                </parameter>
              </effect>
            </filter>
      </clipitem>

      <clipitem id="clipitem-402">
        <name>Fig 113425</name>
        <duration>278</duration>
        <rate><timebase>30</timebase></rate>
        <start>36774</start>
        <end>37052</end>
        <in>0</in>
        <out>278</out>
        <file id="file-262">
          <name>char_14414_13293.webp</name>
          <pathurl>file://localhost/C:/PROJECT_ROOT/assets/char_14414_13293.webp</pathurl>
          <rate><timebase>30</timebase></rate>
          <media>
             <video>
                <samplecharacteristics>
                  <width>1920</width>
                  <height>1080</height>
                  <pixelaspectratio>square</pixelaspectratio>
                </samplecharacteristics>
             </video>
             
          </media>
        </file>
        
            <filter>
              <effect>
                <name>Basic Motion</name>
                <effectid>basic</effectid>
                <effectcategory>motion</effectcategory>
                <effecttype>motion</effecttype>
                <mediatype>video</mediatype>
                <parameter>
                  <parameterid>scale</parameterid>
                  <name>Scale</name>
                  <valuemin>0</valuemin>
                  <valuemax>1000</valuemax>
                  <value>150</value>
                </parameter>
                <parameter>
                  <parameterid>center</parameterid>
                  <name>Center</name>
                  <value>
                    <horiz>0.30000</horiz>
                    <vert>0.05000</vert>
                  </value>
                </parameter>
              </effect>
            </filter>
      </clipitem>

      <clipitem id="clipitem-405">
        <name>Fig 113429</name>
        <duration>278</duration>
        <rate><timebase>30</timebase></rate>
        <start>37052</start>
        <end>37330</end>
        <in>0</in>
        <out>278</out>
        <file id="file-112">
          <name>char_14384_12961.webp</name>
          <pathurl>file://localhost/C:/PROJECT_ROOT/assets/char_14384_12961.webp</pathurl>
          <rate><timebase>30</timebase></rate>
          <media>
             <video>
                <samplecharacteristics>
                  <width>1920</width>
                  <height>1080</height>
                  <pixelaspectratio>square</pixelaspectratio>
                </samplecharacteristics>
             </video>
             
          </media>
        </file>
        
            <filter>
              <effect>
                <name>Basic Motion</name>
                <effectid>basic</effectid>
                <effectcategory>motion</effectcategory>
                <effecttype>motion</effecttype>
                <mediatype>video</mediatype>
                <parameter>
                  <parameterid>scale</parameterid>
                  <name>Scale</name>
                  <valuemin>0</valuemin>
                  <valuemax>1000</valuemax>
                  <value>150</value>
                </parameter>
                <parameter>
                  <parameterid>center</parameterid>
                  <name>Center</name>
                  <value>
                    <horiz>0.30000</horiz>
                    <vert>0.05000</vert>
                  </value>
                </parameter>
              </effect>
            </filter>
      </clipitem>

      <clipitem id="clipitem-409">
        <name>Fig 113428</name>
        <duration>255</duration>
        <rate><timebase>30</timebase></rate>
        <start>37330</start>
        <end>37585</end>
        <in>0</in>
        <out>255</out>
        <file id="file-258">
          <name>char_14383_13023.webp</name>
          <pathurl>file://localhost/C:/PROJECT_ROOT/assets/char_14383_13023.webp</pathurl>
          <rate><timebase>30</timebase></rate>
          <media>
             <video>
                <samplecharacteristics>
                  <width>1920</width>
                  <height>1080</height>
                  <pixelaspectratio>square</pixelaspectratio>
                </samplecharacteristics>
             </video>
             
          </media>
        </file>
        
            <filter>
              <effect>
                <name>Basic Motion</name>
                <effectid>basic</effectid>
                <effectcategory>motion</effectcategory>
                <effecttype>motion</effecttype>
                <mediatype>video</mediatype>
                <parameter>
                  <parameterid>scale</parameterid>
                  <name>Scale</name>
                  <valuemin>0</valuemin>
                  <valuemax>1000</valuemax>
                  <value>150</value>
                </parameter>
                <parameter>
                  <parameterid>center</parameterid>
                  <name>Center</name>
                  <value>
                    <horiz>0.30000</horiz>
                    <vert>0.05000</vert>
                  </value>
                </parameter>
              </effect>
            </filter>
      </clipitem>

      <clipitem id="clipitem-412">
        <name>Fig 113433</name>
        <duration>166</duration>
        <rate><timebase>30</timebase></rate>
        <start>37585</start>
        <end>37751</end>
        <in>0</in>
        <out>166</out>
        <file id="file-133">
          <name>char_14414_12724.webp</name>
          <pathurl>file://localhost/C:/PROJECT_ROOT/assets/char_14414_12724.webp</pathurl>
          <rate><timebase>30</timebase></rate>
          <media>
             <video>
                <samplecharacteristics>
                  <width>1920</width>
                  <height>1080</height>
                  <pixelaspectratio>square</pixelaspectratio>
                </samplecharacteristics>
             </video>
             
          </media>
        </file>
        
            <filter>
              <effect>
                <name>Basic Motion</name>
                <effectid>basic</effectid>
                <effectcategory>motion</effectcategory>
                <effecttype>motion</effecttype>
                <mediatype>video</mediatype>
                <parameter>
                  <parameterid>scale</parameterid>
                  <name>Scale</name>
                  <valuemin>0</valuemin>
                  <valuemax>1000</valuemax>
                  <value>100</value>
                </parameter>
                <parameter>
                  <parameterid>center</parameterid>
                  <name>Center</name>
                  <value>
                    <horiz>0.30000</horiz>
                    <vert>0.05000</vert>
                  </value>
                </parameter>
              </effect>
            </filter>
      </clipitem>

      <clipitem id="clipitem-417">
        <name>Fig 113434</name>
        <duration>143</duration>
        <rate><timebase>30</timebase></rate>
        <start>37897</start>
        <end>38040</end>
        <in>0</in>
        <out>143</out>
        <file id="file-272">
          <name>char_14384_12964.webp</name>
          <pathurl>file://localhost/C:/PROJECT_ROOT/assets/char_14384_12964.webp</pathurl>
          <rate><timebase>30</timebase></rate>
          <media>
             <video>
                <samplecharacteristics>
                  <width>1920</width>
                  <height>1080</height>
                  <pixelaspectratio>square</pixelaspectratio>
                </samplecharacteristics>
             </video>
             
          </media>
        </file>
        
            <filter>
              <effect>
                <name>Basic Motion</name>
                <effectid>basic</effectid>
                <effectcategory>motion</effectcategory>
                <effecttype>motion</effecttype>
                <mediatype>video</mediatype>
                <parameter>
                  <parameterid>scale</parameterid>
                  <name>Scale</name>
                  <valuemin>0</valuemin>
                  <valuemax>1000</valuemax>
                  <value>150</value>
                </parameter>
                <parameter>
                  <parameterid>center</parameterid>
                  <name>Center</name>
                  <value>
                    <horiz>0.30000</horiz>
                    <vert>0.05000</vert>
                  </value>
                </parameter>
              </effect>
            </filter>
      </clipitem>

      <clipitem id="clipitem-421">
        <name>Fig 113437</name>
        <duration>131</duration>
        <rate><timebase>30</timebase></rate>
        <start>38142</start>
        <end>38273</end>
        <in>0</in>
        <out>131</out>
        <file id="file-272">
          <name>char_14384_12964.webp</name>
          <pathurl>file://localhost/C:/PROJECT_ROOT/assets/char_14384_12964.webp</pathurl>
          <rate><timebase>30</timebase></rate>
          <media>
             <video>
                <samplecharacteristics>
                  <width>1920</width>
                  <height>1080</height>
                  <pixelaspectratio>square</pixelaspectratio>
                </samplecharacteristics>
             </video>
             
          </media>
        </file>
        
            <filter>
              <effect>
                <name>Basic Motion</name>
                <effectid>basic</effectid>
                <effectcategory>motion</effectcategory>
                <effecttype>motion</effecttype>
                <mediatype>video</mediatype>
                <parameter>
                  <parameterid>scale</parameterid>
                  <name>Scale</name>
                  <valuemin>0</valuemin>
                  <valuemax>1000</valuemax>
                  <value>150</value>
                </parameter>
                <parameter>
                  <parameterid>center</parameterid>
                  <name>Center</name>
                  <value>
                    <horiz>0.30000</horiz>
                    <vert>0.05000</vert>
                  </value>
                </parameter>
              </effect>
            </filter>
      </clipitem>

      <clipitem id="clipitem-425">
        <name>Fig 113441</name>
        <duration>302</duration>
        <rate><timebase>30</timebase></rate>
        <start>38419</start>
        <end>38721</end>
        <in>0</in>
        <out>302</out>
        <file id="file-272">
          <name>char_14384_12964.webp</name>
          <pathurl>file://localhost/C:/PROJECT_ROOT/assets/char_14384_12964.webp</pathurl>
          <rate><timebase>30</timebase></rate>
          <media>
             <video>
                <samplecharacteristics>
                  <width>1920</width>
                  <height>1080</height>
                  <pixelaspectratio>square</pixelaspectratio>
                </samplecharacteristics>
             </video>
             
          </media>
        </file>
        
            <filter>
              <effect>
                <name>Basic Motion</name>
                <effectid>basic</effectid>
                <effectcategory>motion</effectcategory>
                <effecttype>motion</effecttype>
                <mediatype>video</mediatype>
                <parameter>
                  <parameterid>scale</parameterid>
                  <name>Scale</name>
                  <valuemin>0</valuemin>
                  <valuemax>1000</valuemax>
                  <value>150</value>
                </parameter>
                <parameter>
                  <parameterid>center</parameterid>
                  <name>Center</name>
                  <value>
                    <horiz>0.30000</horiz>
                    <vert>0.05000</vert>
                  </value>
                </parameter>
              </effect>
            </filter>
      </clipitem>

      <clipitem id="clipitem-432">
        <name>Fig 113438</name>
        <duration>197</duration>
        <rate><timebase>30</timebase></rate>
        <start>38934</start>
        <end>39131</end>
        <in>0</in>
        <out>197</out>
        <file id="file-240">
          <name>char_14383_13038.webp</name>
          <pathurl>file://localhost/C:/PROJECT_ROOT/assets/char_14383_13038.webp</pathurl>
          <rate><timebase>30</timebase></rate>
          <media>
             <video>
                <samplecharacteristics>
                  <width>1920</width>
                  <height>1080</height>
                  <pixelaspectratio>square</pixelaspectratio>
                </samplecharacteristics>
             </video>
             
          </media>
        </file>
        
            <filter>
              <effect>
                <name>Basic Motion</name>
                <effectid>basic</effectid>
                <effectcategory>motion</effectcategory>
                <effecttype>motion</effecttype>
                <mediatype>video</mediatype>
                <parameter>
                  <parameterid>scale</parameterid>
                  <name>Scale</name>
                  <valuemin>0</valuemin>
                  <valuemax>1000</valuemax>
                  <value>150</value>
                </parameter>
                <parameter>
                  <parameterid>center</parameterid>
                  <name>Center</name>
                  <value>
                    <horiz>0.30000</horiz>
                    <vert>0.05000</vert>
                  </value>
                </parameter>
              </effect>
            </filter>
      </clipitem>

      <clipitem id="clipitem-436">
        <name>Fig 113442</name>
        <duration>169</duration>
        <rate><timebase>30</timebase></rate>
        <start>39210</start>
        <end>39379</end>
        <in>0</in>
        <out>169</out>
        <file id="file-1">
          <name>char_14383_12670.webp</name>
          <pathurl>file://localhost/C:/PROJECT_ROOT/assets/char_14383_12670.webp</pathurl>
          <rate><timebase>30</timebase></rate>
          <media>
             <video>
                <samplecharacteristics>
                  <width>1920</width>
                  <height>1080</height>
                  <pixelaspectratio>square</pixelaspectratio>
                </samplecharacteristics>
             </video>
             
          </media>
        </file>
        
            <filter>
              <effect>
                <name>Basic Motion</name>
                <effectid>basic</effectid>
                <effectcategory>motion</effectcategory>
                <effecttype>motion</effecttype>
                <mediatype>video</mediatype>
                <parameter>
                  <parameterid>scale</parameterid>
                  <name>Scale</name>
                  <valuemin>0</valuemin>
                  <valuemax>1000</valuemax>
                  <value>100</value>
                </parameter>
                <parameter>
                  <parameterid>center</parameterid>
                  <name>Center</name>
                  <value>
                    <horiz>0.30000</horiz>
                    <vert>0.05000</vert>
                  </value>
                </parameter>
              </effect>
            </filter>
      </clipitem>

      <clipitem id="clipitem-444">
        <name>Fig 113446</name>
        <duration>19</duration>
        <rate><timebase>30</timebase></rate>
        <start>39724</start>
        <end>39743</end>
        <in>0</in>
        <out>19</out>
        <file id="file-238">
          <name>char_14414_13306.webp</name>
          <pathurl>file://localhost/C:/PROJECT_ROOT/assets/char_14414_13306.webp</pathurl>
          <rate><timebase>30</timebase></rate>
          <media>
             <video>
                <samplecharacteristics>
                  <width>1920</width>
                  <height>1080</height>
                  <pixelaspectratio>square</pixelaspectratio>
                </samplecharacteristics>
             </video>
             
          </media>
        </file>
        
            <filter>
              <effect>
                <name>Basic Motion</name>
                <effectid>basic</effectid>
                <effectcategory>motion</effectcategory>
                <effecttype>motion</effecttype>
                <mediatype>video</mediatype>
                <parameter>
                  <parameterid>scale</parameterid>
                  <name>Scale</name>
                  <valuemin>0</valuemin>
                  <valuemax>1000</valuemax>
                  <value>150</value>
                </parameter>
                <parameter>
                  <parameterid>center</parameterid>
                  <name>Center</name>
                  <value>
                    <horiz>0.30000</horiz>
                    <vert>0.05000</vert>
                  </value>
                </parameter>
              </effect>
            </filter>
      </clipitem>

      <clipitem id="clipitem-455">
        <name>Fig 113454</name>
        <duration>131</duration>
        <rate><timebase>30</timebase></rate>
        <start>41615</start>
        <end>41746</end>
        <in>0</in>
        <out>131</out>
        <file id="file-296">
          <name>char_14383_13013.webp</name>
          <pathurl>file://localhost/C:/PROJECT_ROOT/assets/char_14383_13013.webp</pathurl>
          <rate><timebase>30</timebase></rate>
          <media>
             <video>
                <samplecharacteristics>
                  <width>1920</width>
                  <height>1080</height>
                  <pixelaspectratio>square</pixelaspectratio>
                </samplecharacteristics>
             </video>
             
          </media>
        </file>
        
            <filter>
              <effect>
                <name>Basic Motion</name>
                <effectid>basic</effectid>
                <effectcategory>motion</effectcategory>
                <effecttype>motion</effecttype>
                <mediatype>video</mediatype>
                <parameter>
                  <parameterid>scale</parameterid>
                  <name>Scale</name>
                  <valuemin>0</valuemin>
                  <valuemax>1000</valuemax>
                  <value>150</value>
                </parameter>
                <parameter>
                  <parameterid>center</parameterid>
                  <name>Center</name>
                  <value>
                    <horiz>0.30000</horiz>
                    <vert>0.05000</vert>
                  </value>
                </parameter>
              </effect>
            </filter>
      </clipitem>

      <clipitem id="clipitem-457">
        <name>Fig 113455</name>
        <duration>119</duration>
        <rate><timebase>30</timebase></rate>
        <start>41746</start>
        <end>41865</end>
        <in>0</in>
        <out>119</out>
        <file id="file-86">
          <name>char_14384_12976.webp</name>
          <pathurl>file://localhost/C:/PROJECT_ROOT/assets/char_14384_12976.webp</pathurl>
          <rate><timebase>30</timebase></rate>
          <media>
             <video>
                <samplecharacteristics>
                  <width>1920</width>
                  <height>1080</height>
                  <pixelaspectratio>square</pixelaspectratio>
                </samplecharacteristics>
             </video>
             
          </media>
        </file>
        
            <filter>
              <effect>
                <name>Basic Motion</name>
                <effectid>basic</effectid>
                <effectcategory>motion</effectcategory>
                <effecttype>motion</effecttype>
                <mediatype>video</mediatype>
                <parameter>
                  <parameterid>scale</parameterid>
                  <name>Scale</name>
                  <valuemin>0</valuemin>
                  <valuemax>1000</valuemax>
                  <value>150</value>
                </parameter>
                <parameter>
                  <parameterid>center</parameterid>
                  <name>Center</name>
                  <value>
                    <horiz>0.30000</horiz>
                    <vert>0.05000</vert>
                  </value>
                </parameter>
              </effect>
            </filter>
      </clipitem>

      <clipitem id="clipitem-463">
        <name>Fig 113458</name>
        <duration>398</duration>
        <rate><timebase>30</timebase></rate>
        <start>42063</start>
        <end>42461</end>
        <in>0</in>
        <out>398</out>
        <file id="file-240">
          <name>char_14383_13038.webp</name>
          <pathurl>file://localhost/C:/PROJECT_ROOT/assets/char_14383_13038.webp</pathurl>
          <rate><timebase>30</timebase></rate>
          <media>
             <video>
                <samplecharacteristics>
                  <width>1920</width>
                  <height>1080</height>
                  <pixelaspectratio>square</pixelaspectratio>
                </samplecharacteristics>
             </video>
             
          </media>
        </file>
        
            <filter>
              <effect>
                <name>Basic Motion</name>
                <effectid>basic</effectid>
                <effectcategory>motion</effectcategory>
                <effecttype>motion</effecttype>
                <mediatype>video</mediatype>
                <parameter>
                  <parameterid>scale</parameterid>
                  <name>Scale</name>
                  <valuemin>0</valuemin>
                  <valuemax>1000</valuemax>
                  <value>150</value>
                </parameter>
                <parameter>
                  <parameterid>center</parameterid>
                  <name>Center</name>
                  <value>
                    <horiz>0.30000</horiz>
                    <vert>0.05000</vert>
                  </value>
                </parameter>
              </effect>
            </filter>
      </clipitem>

      <clipitem id="clipitem-469">
        <name>Fig 113461</name>
        <duration>180</duration>
        <rate><timebase>30</timebase></rate>
        <start>42789</start>
        <end>42969</end>
        <in>0</in>
        <out>180</out>
        <file id="file-306">
          <name>char_14383_13022.webp</name>
          <pathurl>file://localhost/C:/PROJECT_ROOT/assets/char_14383_13022.webp</pathurl>
          <rate><timebase>30</timebase></rate>
          <media>
             <video>
                <samplecharacteristics>
                  <width>1920</width>
                  <height>1080</height>
                  <pixelaspectratio>square</pixelaspectratio>
                </samplecharacteristics>
             </video>
             
          </media>
        </file>
        
            <filter>
              <effect>
                <name>Basic Motion</name>
                <effectid>basic</effectid>
                <effectcategory>motion</effectcategory>
                <effecttype>motion</effecttype>
                <mediatype>video</mediatype>
                <parameter>
                  <parameterid>scale</parameterid>
                  <name>Scale</name>
                  <valuemin>0</valuemin>
                  <valuemax>1000</valuemax>
                  <value>150</value>
                </parameter>
                <parameter>
                  <parameterid>center</parameterid>
                  <name>Center</name>
                  <value>
                    <horiz>0.30000</horiz>
                    <vert>0.05000</vert>
                  </value>
                </parameter>
              </effect>
            </filter>
      </clipitem>

      <clipitem id="clipitem-473">
        <name>Fig 113462</name>
        <duration>81</duration>
        <rate><timebase>30</timebase></rate>
        <start>43268</start>
        <end>43349</end>
        <in>0</in>
        <out>81</out>
        <file id="file-86">
          <name>char_14384_12976.webp</name>
          <pathurl>file://localhost/C:/PROJECT_ROOT/assets/char_14384_12976.webp</pathurl>
          <rate><timebase>30</timebase></rate>
          <media>
             <video>
                <samplecharacteristics>
                  <width>1920</width>
                  <height>1080</height>
                  <pixelaspectratio>square</pixelaspectratio>
                </samplecharacteristics>
             </video>
             
          </media>
        </file>
        
            <filter>
              <effect>
                <name>Basic Motion</name>
                <effectid>basic</effectid>
                <effectcategory>motion</effectcategory>
                <effecttype>motion</effecttype>
                <mediatype>video</mediatype>
                <parameter>
                  <parameterid>scale</parameterid>
                  <name>Scale</name>
                  <valuemin>0</valuemin>
                  <valuemax>1000</valuemax>
                  <value>150</value>
                </parameter>
                <parameter>
                  <parameterid>center</parameterid>
                  <name>Center</name>
                  <value>
                    <horiz>0.30000</horiz>
                    <vert>0.05000</vert>
                  </value>
                </parameter>
              </effect>
            </filter>
      </clipitem>

      <clipitem id="clipitem-540">
        <name>Fig 113471</name>
        <duration>69</duration>
        <rate><timebase>30</timebase></rate>
        <start>49827</start>
        <end>49896</end>
        <in>0</in>
        <out>69</out>
        <file id="file-240">
          <name>char_14383_13038.webp</name>
          <pathurl>file://localhost/C:/PROJECT_ROOT/assets/char_14383_13038.webp</pathurl>
          <rate><timebase>30</timebase></rate>
          <media>
             <video>
                <samplecharacteristics>
                  <width>1920</width>
                  <height>1080</height>
                  <pixelaspectratio>square</pixelaspectratio>
                </samplecharacteristics>
             </video>
             
          </media>
        </file>
        
            <filter>
              <effect>
                <name>Basic Motion</name>
                <effectid>basic</effectid>
                <effectcategory>motion</effectcategory>
                <effecttype>motion</effecttype>
                <mediatype>video</mediatype>
                <parameter>
                  <parameterid>scale</parameterid>
                  <name>Scale</name>
                  <valuemin>0</valuemin>
                  <valuemax>1000</valuemax>
                  <value>150</value>
                </parameter>
                <parameter>
                  <parameterid>center</parameterid>
                  <name>Center</name>
                  <value>
                    <horiz>0.30000</horiz>
                    <vert>0.05000</vert>
                  </value>
                </parameter>
              </effect>
            </filter>
      </clipitem>

      <clipitem id="clipitem-559">
        <name>Fig 113477</name>
        <duration>82</duration>
        <rate><timebase>30</timebase></rate>
        <start>51743</start>
        <end>51825</end>
        <in>0</in>
        <out>82</out>
        <file id="file-130">
          <name>char_14384_12966.webp</name>
          <pathurl>file://localhost/C:/PROJECT_ROOT/assets/char_14384_12966.webp</pathurl>
          <rate><timebase>30</timebase></rate>
          <media>
             <video>
                <samplecharacteristics>
                  <width>1920</width>
                  <height>1080</height>
                  <pixelaspectratio>square</pixelaspectratio>
                </samplecharacteristics>
             </video>
             
          </media>
        </file>
        
            <filter>
              <effect>
                <name>Basic Motion</name>
                <effectid>basic</effectid>
                <effectcategory>motion</effectcategory>
                <effecttype>motion</effecttype>
                <mediatype>video</mediatype>
                <parameter>
                  <parameterid>scale</parameterid>
                  <name>Scale</name>
                  <valuemin>0</valuemin>
                  <valuemax>1000</valuemax>
                  <value>150</value>
                </parameter>
                <parameter>
                  <parameterid>center</parameterid>
                  <name>Center</name>
                  <value>
                    <horiz>0.30000</horiz>
                    <vert>0.05000</vert>
                  </value>
                </parameter>
              </effect>
            </filter>
      </clipitem>

      <clipitem id="clipitem-561">
        <name>Fig 113478</name>
        <duration>183</duration>
        <rate><timebase>30</timebase></rate>
        <start>51825</start>
        <end>52008</end>
        <in>0</in>
        <out>183</out>
        <file id="file-18">
          <name>char_14383_13026.webp</name>
          <pathurl>file://localhost/C:/PROJECT_ROOT/assets/char_14383_13026.webp</pathurl>
          <rate><timebase>30</timebase></rate>
          <media>
             <video>
                <samplecharacteristics>
                  <width>1920</width>
                  <height>1080</height>
                  <pixelaspectratio>square</pixelaspectratio>
                </samplecharacteristics>
             </video>
             
          </media>
        </file>
        
            <filter>
              <effect>
                <name>Basic Motion</name>
                <effectid>basic</effectid>
                <effectcategory>motion</effectcategory>
                <effecttype>motion</effecttype>
                <mediatype>video</mediatype>
                <parameter>
                  <parameterid>scale</parameterid>
                  <name>Scale</name>
                  <valuemin>0</valuemin>
                  <valuemax>1000</valuemax>
                  <value>150</value>
                </parameter>
                <parameter>
                  <parameterid>center</parameterid>
                  <name>Center</name>
                  <value>
                    <horiz>0.30000</horiz>
                    <vert>0.05000</vert>
                  </value>
                </parameter>
              </effect>
            </filter>
      </clipitem>

      <clipitem id="clipitem-563">
        <name>Fig 113479</name>
        <duration>141</duration>
        <rate><timebase>30</timebase></rate>
        <start>52008</start>
        <end>52149</end>
        <in>0</in>
        <out>141</out>
        <file id="file-75">
          <name>char_14384_12957.webp</name>
          <pathurl>file://localhost/C:/PROJECT_ROOT/assets/char_14384_12957.webp</pathurl>
          <rate><timebase>30</timebase></rate>
          <media>
             <video>
                <samplecharacteristics>
                  <width>1920</width>
                  <height>1080</height>
                  <pixelaspectratio>square</pixelaspectratio>
                </samplecharacteristics>
             </video>
             
          </media>
        </file>
        
            <filter>
              <effect>
                <name>Basic Motion</name>
                <effectid>basic</effectid>
                <effectcategory>motion</effectcategory>
                <effecttype>motion</effecttype>
                <mediatype>video</mediatype>
                <parameter>
                  <parameterid>scale</parameterid>
                  <name>Scale</name>
                  <valuemin>0</valuemin>
                  <valuemax>1000</valuemax>
                  <value>150</value>
                </parameter>
                <parameter>
                  <parameterid>center</parameterid>
                  <name>Center</name>
                  <value>
                    <horiz>0.30000</horiz>
                    <vert>0.05000</vert>
                  </value>
                </parameter>
              </effect>
            </filter>
      </clipitem>

      <clipitem id="clipitem-593">
        <name>Fig 113585</name>
        <duration>36</duration>
        <rate><timebase>30</timebase></rate>
        <start>54984</start>
        <end>55020</end>
        <in>0</in>
        <out>36</out>
        <file id="file-89">
          <name>char_14384_12672.webp</name>
          <pathurl>file://localhost/C:/PROJECT_ROOT/assets/char_14384_12672.webp</pathurl>
          <rate><timebase>30</timebase></rate>
          <media>
             <video>
                <samplecharacteristics>
                  <width>1920</width>
                  <height>1080</height>
                  <pixelaspectratio>square</pixelaspectratio>
                </samplecharacteristics>
             </video>
             
          </media>
        </file>
        
            <filter>
              <effect>
                <name>Basic Motion</name>
                <effectid>basic</effectid>
                <effectcategory>motion</effectcategory>
                <effecttype>motion</effecttype>
                <mediatype>video</mediatype>
                <parameter>
                  <parameterid>scale</parameterid>
                  <name>Scale</name>
                  <valuemin>0</valuemin>
                  <valuemax>1000</valuemax>
                  <value>100</value>
                </parameter>
                <parameter>
                  <parameterid>center</parameterid>
                  <name>Center</name>
                  <value>
                    <horiz>0.30000</horiz>
                    <vert>0.05000</vert>
                  </value>
                </parameter>
              </effect>
            </filter>
      </clipitem>

      <clipitem id="clipitem-597">
        <name>Fig 113580</name>
        <duration>307</duration>
        <rate><timebase>30</timebase></rate>
        <start>55178</start>
        <end>55485</end>
        <in>0</in>
        <out>307</out>
        <file id="file-1">
          <name>char_14383_12670.webp</name>
          <pathurl>file://localhost/C:/PROJECT_ROOT/assets/char_14383_12670.webp</pathurl>
          <rate><timebase>30</timebase></rate>
          <media>
             <video>
                <samplecharacteristics>
                  <width>1920</width>
                  <height>1080</height>
                  <pixelaspectratio>square</pixelaspectratio>
                </samplecharacteristics>
             </video>
             
          </media>
        </file>
        
            <filter>
              <effect>
                <name>Basic Motion</name>
                <effectid>basic</effectid>
                <effectcategory>motion</effectcategory>
                <effecttype>motion</effecttype>
                <mediatype>video</mediatype>
                <parameter>
                  <parameterid>scale</parameterid>
                  <name>Scale</name>
                  <valuemin>0</valuemin>
                  <valuemax>1000</valuemax>
                  <value>100</value>
                </parameter>
                <parameter>
                  <parameterid>center</parameterid>
                  <name>Center</name>
                  <value>
                    <horiz>0.30000</horiz>
                    <vert>0.05000</vert>
                  </value>
                </parameter>
              </effect>
            </filter>
      </clipitem>
</track>
    </video>
    <audio>
      <!-- A1: Voice -->
      <track>

      <clipitem id="clipitem-2">
        <name>Voice 113196</name>
        <duration>42</duration>
        <rate><timebase>30</timebase></rate>
        <start>60</start>
        <end>102</end>
        <in>0</in>
        <out>42</out>
        <file id="file-2">
          <name>voice_113196.wav</name>
          <pathurl>file://localhost/C:/PROJECT_ROOT/assets/voice_113196.wav</pathurl>
          <rate><timebase>30</timebase></rate>
          <media>
             
             <audio>
                <samplecharacteristics>
                   <depth>16</depth>
                   <samplerate>44100</samplerate>
                </samplecharacteristics>
             </audio>
          </media>
        </file>
        
      </clipitem>

      <clipitem id="clipitem-4">
        <name>Voice 113197</name>
        <duration>77</duration>
        <rate><timebase>30</timebase></rate>
        <start>102</start>
        <end>179</end>
        <in>0</in>
        <out>77</out>
        <file id="file-4">
          <name>voice_113197.wav</name>
          <pathurl>file://localhost/C:/PROJECT_ROOT/assets/voice_113197.wav</pathurl>
          <rate><timebase>30</timebase></rate>
          <media>
             
             <audio>
                <samplecharacteristics>
                   <depth>16</depth>
                   <samplerate>44100</samplerate>
                </samplecharacteristics>
             </audio>
          </media>
        </file>
        
      </clipitem>

      <clipitem id="clipitem-5">
        <name>Voice 113198</name>
        <duration>70</duration>
        <rate><timebase>30</timebase></rate>
        <start>179</start>
        <end>249</end>
        <in>0</in>
        <out>70</out>
        <file id="file-5">
          <name>voice_113198.wav</name>
          <pathurl>file://localhost/C:/PROJECT_ROOT/assets/voice_113198.wav</pathurl>
          <rate><timebase>30</timebase></rate>
          <media>
             
             <audio>
                <samplecharacteristics>
                   <depth>16</depth>
                   <samplerate>44100</samplerate>
                </samplecharacteristics>
             </audio>
          </media>
        </file>
        
      </clipitem>

      <clipitem id="clipitem-6">
        <name>Voice 113199</name>
        <duration>87</duration>
        <rate><timebase>30</timebase></rate>
        <start>249</start>
        <end>336</end>
        <in>0</in>
        <out>87</out>
        <file id="file-6">
          <name>voice_113199.wav</name>
          <pathurl>file://localhost/C:/PROJECT_ROOT/assets/voice_113199.wav</pathurl>
          <rate><timebase>30</timebase></rate>
          <media>
             
             <audio>
                <samplecharacteristics>
                   <depth>16</depth>
                   <samplerate>44100</samplerate>
                </samplecharacteristics>
             </audio>
          </media>
        </file>
        
      </clipitem>

      <clipitem id="clipitem-7">
        <name>Voice 113200</name>
        <duration>133</duration>
        <rate><timebase>30</timebase></rate>
        <start>336</start>
        <end>469</end>
        <in>0</in>
        <out>133</out>
        <file id="file-7">
          <name>voice_113200.wav</name>
          <pathurl>file://localhost/C:/PROJECT_ROOT/assets/voice_113200.wav</pathurl>
          <rate><timebase>30</timebase></rate>
          <media>
             
             <audio>
                <samplecharacteristics>
                   <depth>16</depth>
                   <samplerate>44100</samplerate>
                </samplecharacteristics>
             </audio>
          </media>
        </file>
        
      </clipitem>

      <clipitem id="clipitem-8">
        <name>Voice 113201</name>
        <duration>115</duration>
        <rate><timebase>30</timebase></rate>
        <start>469</start>
        <end>584</end>
        <in>0</in>
        <out>115</out>
        <file id="file-8">
          <name>voice_113201.wav</name>
          <pathurl>file://localhost/C:/PROJECT_ROOT/assets/voice_113201.wav</pathurl>
          <rate><timebase>30</timebase></rate>
          <media>
             
             <audio>
                <samplecharacteristics>
                   <depth>16</depth>
                   <samplerate>44100</samplerate>
                </samplecharacteristics>
             </audio>
          </media>
        </file>
        
      </clipitem>

      <clipitem id="clipitem-9">
        <name>Voice 113202</name>
        <duration>14</duration>
        <rate><timebase>30</timebase></rate>
        <start>584</start>
        <end>598</end>
        <in>0</in>
        <out>14</out>
        <file id="file-9">
          <name>voice_113202.wav</name>
          <pathurl>file://localhost/C:/PROJECT_ROOT/assets/voice_113202.wav</pathurl>
          <rate><timebase>30</timebase></rate>
          <media>
             
             <audio>
                <samplecharacteristics>
                   <depth>16</depth>
                   <samplerate>44100</samplerate>
                </samplecharacteristics>
             </audio>
          </media>
        </file>
        
      </clipitem>

      <clipitem id="clipitem-10">
        <name>Voice 113203</name>
        <duration>107</duration>
        <rate><timebase>30</timebase></rate>
        <start>598</start>
        <end>705</end>
        <in>0</in>
        <out>107</out>
        <file id="file-10">
          <name>voice_113203.wav</name>
          <pathurl>file://localhost/C:/PROJECT_ROOT/assets/voice_113203.wav</pathurl>
          <rate><timebase>30</timebase></rate>
          <media>
             
             <audio>
                <samplecharacteristics>
                   <depth>16</depth>
                   <samplerate>44100</samplerate>
                </samplecharacteristics>
             </audio>
          </media>
        </file>
        
      </clipitem>

      <clipitem id="clipitem-13">
        <name>Voice 113206</name>
        <duration>196</duration>
        <rate><timebase>30</timebase></rate>
        <start>1282</start>
        <end>1478</end>
        <in>0</in>
        <out>196</out>
        <file id="file-13">
          <name>voice_113206.wav</name>
          <pathurl>file://localhost/C:/PROJECT_ROOT/assets/voice_113206.wav</pathurl>
          <rate><timebase>30</timebase></rate>
          <media>
             
             <audio>
                <samplecharacteristics>
                   <depth>16</depth>
                   <samplerate>44100</samplerate>
                </samplecharacteristics>
             </audio>
          </media>
        </file>
        
      </clipitem>

      <clipitem id="clipitem-15">
        <name>Voice 113207</name>
        <duration>108</duration>
        <rate><timebase>30</timebase></rate>
        <start>1478</start>
        <end>1586</end>
        <in>0</in>
        <out>108</out>
        <file id="file-14">
          <name>voice_113207.wav</name>
          <pathurl>file://localhost/C:/PROJECT_ROOT/assets/voice_113207.wav</pathurl>
          <rate><timebase>30</timebase></rate>
          <media>
             
             <audio>
                <samplecharacteristics>
                   <depth>16</depth>
                   <samplerate>44100</samplerate>
                </samplecharacteristics>
             </audio>
          </media>
        </file>
        
      </clipitem>

      <clipitem id="clipitem-16">
        <name>Voice 113208</name>
        <duration>246</duration>
        <rate><timebase>30</timebase></rate>
        <start>1586</start>
        <end>1832</end>
        <in>0</in>
        <out>246</out>
        <file id="file-15">
          <name>voice_113208.wav</name>
          <pathurl>file://localhost/C:/PROJECT_ROOT/assets/voice_113208.wav</pathurl>
          <rate><timebase>30</timebase></rate>
          <media>
             
             <audio>
                <samplecharacteristics>
                   <depth>16</depth>
                   <samplerate>44100</samplerate>
                </samplecharacteristics>
             </audio>
          </media>
        </file>
        
      </clipitem>

      <clipitem id="clipitem-18">
        <name>Voice 113209</name>
        <duration>187</duration>
        <rate><timebase>30</timebase></rate>
        <start>1832</start>
        <end>2019</end>
        <in>0</in>
        <out>187</out>
        <file id="file-17">
          <name>voice_113209.wav</name>
          <pathurl>file://localhost/C:/PROJECT_ROOT/assets/voice_113209.wav</pathurl>
          <rate><timebase>30</timebase></rate>
          <media>
             
             <audio>
                <samplecharacteristics>
                   <depth>16</depth>
                   <samplerate>44100</samplerate>
                </samplecharacteristics>
             </audio>
          </media>
        </file>
        
      </clipitem>

      <clipitem id="clipitem-20">
        <name>Voice 113589</name>
        <duration>63</duration>
        <rate><timebase>30</timebase></rate>
        <start>2019</start>
        <end>2082</end>
        <in>0</in>
        <out>63</out>
        <file id="file-19">
          <name>voice_113589.wav</name>
          <pathurl>file://localhost/C:/PROJECT_ROOT/assets/voice_113589.wav</pathurl>
          <rate><timebase>30</timebase></rate>
          <media>
             
             <audio>
                <samplecharacteristics>
                   <depth>16</depth>
                   <samplerate>44100</samplerate>
                </samplecharacteristics>
             </audio>
          </media>
        </file>
        
      </clipitem>

      <clipitem id="clipitem-22">
        <name>Voice 113210</name>
        <duration>84</duration>
        <rate><timebase>30</timebase></rate>
        <start>2082</start>
        <end>2166</end>
        <in>0</in>
        <out>84</out>
        <file id="file-20">
          <name>voice_113210.wav</name>
          <pathurl>file://localhost/C:/PROJECT_ROOT/assets/voice_113210.wav</pathurl>
          <rate><timebase>30</timebase></rate>
          <media>
             
             <audio>
                <samplecharacteristics>
                   <depth>16</depth>
                   <samplerate>44100</samplerate>
                </samplecharacteristics>
             </audio>
          </media>
        </file>
        
      </clipitem>

      <clipitem id="clipitem-24">
        <name>Voice 113211</name>
        <duration>245</duration>
        <rate><timebase>30</timebase></rate>
        <start>2166</start>
        <end>2411</end>
        <in>0</in>
        <out>245</out>
        <file id="file-21">
          <name>voice_113211.wav</name>
          <pathurl>file://localhost/C:/PROJECT_ROOT/assets/voice_113211.wav</pathurl>
          <rate><timebase>30</timebase></rate>
          <media>
             
             <audio>
                <samplecharacteristics>
                   <depth>16</depth>
                   <samplerate>44100</samplerate>
                </samplecharacteristics>
             </audio>
          </media>
        </file>
        
      </clipitem>

      <clipitem id="clipitem-25">
        <name>Voice 113212</name>
        <duration>83</duration>
        <rate><timebase>30</timebase></rate>
        <start>2411</start>
        <end>2494</end>
        <in>0</in>
        <out>83</out>
        <file id="file-22">
          <name>voice_113212.wav</name>
          <pathurl>file://localhost/C:/PROJECT_ROOT/assets/voice_113212.wav</pathurl>
          <rate><timebase>30</timebase></rate>
          <media>
             
             <audio>
                <samplecharacteristics>
                   <depth>16</depth>
                   <samplerate>44100</samplerate>
                </samplecharacteristics>
             </audio>
          </media>
        </file>
        
      </clipitem>

      <clipitem id="clipitem-27">
        <name>Voice 113213</name>
        <duration>159</duration>
        <rate><timebase>30</timebase></rate>
        <start>2494</start>
        <end>2653</end>
        <in>0</in>
        <out>159</out>
        <file id="file-23">
          <name>voice_113213.wav</name>
          <pathurl>file://localhost/C:/PROJECT_ROOT/assets/voice_113213.wav</pathurl>
          <rate><timebase>30</timebase></rate>
          <media>
             
             <audio>
                <samplecharacteristics>
                   <depth>16</depth>
                   <samplerate>44100</samplerate>
                </samplecharacteristics>
             </audio>
          </media>
        </file>
        
      </clipitem>

      <clipitem id="clipitem-28">
        <name>Voice 113214</name>
        <duration>296</duration>
        <rate><timebase>30</timebase></rate>
        <start>2653</start>
        <end>2949</end>
        <in>0</in>
        <out>296</out>
        <file id="file-24">
          <name>voice_113214.wav</name>
          <pathurl>file://localhost/C:/PROJECT_ROOT/assets/voice_113214.wav</pathurl>
          <rate><timebase>30</timebase></rate>
          <media>
             
             <audio>
                <samplecharacteristics>
                   <depth>16</depth>
                   <samplerate>44100</samplerate>
                </samplecharacteristics>
             </audio>
          </media>
        </file>
        
      </clipitem>

      <clipitem id="clipitem-29">
        <name>Voice 113215</name>
        <duration>14</duration>
        <rate><timebase>30</timebase></rate>
        <start>2949</start>
        <end>2963</end>
        <in>0</in>
        <out>14</out>
        <file id="file-25">
          <name>voice_113215.wav</name>
          <pathurl>file://localhost/C:/PROJECT_ROOT/assets/voice_113215.wav</pathurl>
          <rate><timebase>30</timebase></rate>
          <media>
             
             <audio>
                <samplecharacteristics>
                   <depth>16</depth>
                   <samplerate>44100</samplerate>
                </samplecharacteristics>
             </audio>
          </media>
        </file>
        
      </clipitem>

      <clipitem id="clipitem-31">
        <name>Voice 113216</name>
        <duration>75</duration>
        <rate><timebase>30</timebase></rate>
        <start>2963</start>
        <end>3038</end>
        <in>0</in>
        <out>75</out>
        <file id="file-27">
          <name>voice_113216.wav</name>
          <pathurl>file://localhost/C:/PROJECT_ROOT/assets/voice_113216.wav</pathurl>
          <rate><timebase>30</timebase></rate>
          <media>
             
             <audio>
                <samplecharacteristics>
                   <depth>16</depth>
                   <samplerate>44100</samplerate>
                </samplecharacteristics>
             </audio>
          </media>
        </file>
        
      </clipitem>

      <clipitem id="clipitem-32">
        <name>Voice 113217</name>
        <duration>107</duration>
        <rate><timebase>30</timebase></rate>
        <start>3038</start>
        <end>3145</end>
        <in>0</in>
        <out>107</out>
        <file id="file-28">
          <name>voice_113217.wav</name>
          <pathurl>file://localhost/C:/PROJECT_ROOT/assets/voice_113217.wav</pathurl>
          <rate><timebase>30</timebase></rate>
          <media>
             
             <audio>
                <samplecharacteristics>
                   <depth>16</depth>
                   <samplerate>44100</samplerate>
                </samplecharacteristics>
             </audio>
          </media>
        </file>
        
      </clipitem>

      <clipitem id="clipitem-33">
        <name>Voice 113218</name>
        <duration>98</duration>
        <rate><timebase>30</timebase></rate>
        <start>3145</start>
        <end>3243</end>
        <in>0</in>
        <out>98</out>
        <file id="file-29">
          <name>voice_113218.wav</name>
          <pathurl>file://localhost/C:/PROJECT_ROOT/assets/voice_113218.wav</pathurl>
          <rate><timebase>30</timebase></rate>
          <media>
             
             <audio>
                <samplecharacteristics>
                   <depth>16</depth>
                   <samplerate>44100</samplerate>
                </samplecharacteristics>
             </audio>
          </media>
        </file>
        
      </clipitem>

      <clipitem id="clipitem-34">
        <name>Voice 113219</name>
        <duration>234</duration>
        <rate><timebase>30</timebase></rate>
        <start>3243</start>
        <end>3477</end>
        <in>0</in>
        <out>234</out>
        <file id="file-30">
          <name>voice_113219.wav</name>
          <pathurl>file://localhost/C:/PROJECT_ROOT/assets/voice_113219.wav</pathurl>
          <rate><timebase>30</timebase></rate>
          <media>
             
             <audio>
                <samplecharacteristics>
                   <depth>16</depth>
                   <samplerate>44100</samplerate>
                </samplecharacteristics>
             </audio>
          </media>
        </file>
        
      </clipitem>

      <clipitem id="clipitem-35">
        <name>Voice 113220</name>
        <duration>132</duration>
        <rate><timebase>30</timebase></rate>
        <start>3477</start>
        <end>3609</end>
        <in>0</in>
        <out>132</out>
        <file id="file-31">
          <name>voice_113220.wav</name>
          <pathurl>file://localhost/C:/PROJECT_ROOT/assets/voice_113220.wav</pathurl>
          <rate><timebase>30</timebase></rate>
          <media>
             
             <audio>
                <samplecharacteristics>
                   <depth>16</depth>
                   <samplerate>44100</samplerate>
                </samplecharacteristics>
             </audio>
          </media>
        </file>
        
      </clipitem>

      <clipitem id="clipitem-36">
        <name>Voice 113221</name>
        <duration>76</duration>
        <rate><timebase>30</timebase></rate>
        <start>3609</start>
        <end>3685</end>
        <in>0</in>
        <out>76</out>
        <file id="file-32">
          <name>voice_113221.wav</name>
          <pathurl>file://localhost/C:/PROJECT_ROOT/assets/voice_113221.wav</pathurl>
          <rate><timebase>30</timebase></rate>
          <media>
             
             <audio>
                <samplecharacteristics>
                   <depth>16</depth>
                   <samplerate>44100</samplerate>
                </samplecharacteristics>
             </audio>
          </media>
        </file>
        
      </clipitem>

      <clipitem id="clipitem-37">
        <name>Voice 113222</name>
        <duration>28</duration>
        <rate><timebase>30</timebase></rate>
        <start>3685</start>
        <end>3713</end>
        <in>0</in>
        <out>28</out>
        <file id="file-33">
          <name>voice_113222.wav</name>
          <pathurl>file://localhost/C:/PROJECT_ROOT/assets/voice_113222.wav</pathurl>
          <rate><timebase>30</timebase></rate>
          <media>
             
             <audio>
                <samplecharacteristics>
                   <depth>16</depth>
                   <samplerate>44100</samplerate>
                </samplecharacteristics>
             </audio>
          </media>
        </file>
        
      </clipitem>

      <clipitem id="clipitem-38">
        <name>Voice 113223</name>
        <duration>69</duration>
        <rate><timebase>30</timebase></rate>
        <start>3713</start>
        <end>3782</end>
        <in>0</in>
        <out>69</out>
        <file id="file-34">
          <name>voice_113223.wav</name>
          <pathurl>file://localhost/C:/PROJECT_ROOT/assets/voice_113223.wav</pathurl>
          <rate><timebase>30</timebase></rate>
          <media>
             
             <audio>
                <samplecharacteristics>
                   <depth>16</depth>
                   <samplerate>44100</samplerate>
                </samplecharacteristics>
             </audio>
          </media>
        </file>
        
      </clipitem>

      <clipitem id="clipitem-39">
        <name>Voice 113224</name>
        <duration>326</duration>
        <rate><timebase>30</timebase></rate>
        <start>3782</start>
        <end>4108</end>
        <in>0</in>
        <out>326</out>
        <file id="file-35">
          <name>voice_113224.wav</name>
          <pathurl>file://localhost/C:/PROJECT_ROOT/assets/voice_113224.wav</pathurl>
          <rate><timebase>30</timebase></rate>
          <media>
             
             <audio>
                <samplecharacteristics>
                   <depth>16</depth>
                   <samplerate>44100</samplerate>
                </samplecharacteristics>
             </audio>
          </media>
        </file>
        
      </clipitem>

      <clipitem id="clipitem-41">
        <name>Voice 113225</name>
        <duration>293</duration>
        <rate><timebase>30</timebase></rate>
        <start>4168</start>
        <end>4461</end>
        <in>0</in>
        <out>293</out>
        <file id="file-36">
          <name>voice_113225.wav</name>
          <pathurl>file://localhost/C:/PROJECT_ROOT/assets/voice_113225.wav</pathurl>
          <rate><timebase>30</timebase></rate>
          <media>
             
             <audio>
                <samplecharacteristics>
                   <depth>16</depth>
                   <samplerate>44100</samplerate>
                </samplecharacteristics>
             </audio>
          </media>
        </file>
        
      </clipitem>

      <clipitem id="clipitem-42">
        <name>Voice 113226</name>
        <duration>711</duration>
        <rate><timebase>30</timebase></rate>
        <start>4461</start>
        <end>5172</end>
        <in>0</in>
        <out>711</out>
        <file id="file-37">
          <name>voice_113226.wav</name>
          <pathurl>file://localhost/C:/PROJECT_ROOT/assets/voice_113226.wav</pathurl>
          <rate><timebase>30</timebase></rate>
          <media>
             
             <audio>
                <samplecharacteristics>
                   <depth>16</depth>
                   <samplerate>44100</samplerate>
                </samplecharacteristics>
             </audio>
          </media>
        </file>
        
      </clipitem>

      <clipitem id="clipitem-43">
        <name>Voice 113227</name>
        <duration>107</duration>
        <rate><timebase>30</timebase></rate>
        <start>5172</start>
        <end>5279</end>
        <in>0</in>
        <out>107</out>
        <file id="file-38">
          <name>voice_113227.wav</name>
          <pathurl>file://localhost/C:/PROJECT_ROOT/assets/voice_113227.wav</pathurl>
          <rate><timebase>30</timebase></rate>
          <media>
             
             <audio>
                <samplecharacteristics>
                   <depth>16</depth>
                   <samplerate>44100</samplerate>
                </samplecharacteristics>
             </audio>
          </media>
        </file>
        
      </clipitem>

      <clipitem id="clipitem-45">
        <name>Voice 113228</name>
        <duration>120</duration>
        <rate><timebase>30</timebase></rate>
        <start>5279</start>
        <end>5399</end>
        <in>0</in>
        <out>120</out>
        <file id="file-40">
          <name>voice_113228.wav</name>
          <pathurl>file://localhost/C:/PROJECT_ROOT/assets/voice_113228.wav</pathurl>
          <rate><timebase>30</timebase></rate>
          <media>
             
             <audio>
                <samplecharacteristics>
                   <depth>16</depth>
                   <samplerate>44100</samplerate>
                </samplecharacteristics>
             </audio>
          </media>
        </file>
        
      </clipitem>

      <clipitem id="clipitem-47">
        <name>Voice 113230</name>
        <duration>1216</duration>
        <rate><timebase>30</timebase></rate>
        <start>5399</start>
        <end>6615</end>
        <in>0</in>
        <out>1216</out>
        <file id="file-41">
          <name>voice_113230.wav</name>
          <pathurl>file://localhost/C:/PROJECT_ROOT/assets/voice_113230.wav</pathurl>
          <rate><timebase>30</timebase></rate>
          <media>
             
             <audio>
                <samplecharacteristics>
                   <depth>16</depth>
                   <samplerate>44100</samplerate>
                </samplecharacteristics>
             </audio>
          </media>
        </file>
        
      </clipitem>

      <clipitem id="clipitem-48">
        <name>Voice 113231</name>
        <duration>742</duration>
        <rate><timebase>30</timebase></rate>
        <start>6615</start>
        <end>7357</end>
        <in>0</in>
        <out>742</out>
        <file id="file-42">
          <name>voice_113231.wav</name>
          <pathurl>file://localhost/C:/PROJECT_ROOT/assets/voice_113231.wav</pathurl>
          <rate><timebase>30</timebase></rate>
          <media>
             
             <audio>
                <samplecharacteristics>
                   <depth>16</depth>
                   <samplerate>44100</samplerate>
                </samplecharacteristics>
             </audio>
          </media>
        </file>
        
      </clipitem>

      <clipitem id="clipitem-49">
        <name>Voice 113232</name>
        <duration>595</duration>
        <rate><timebase>30</timebase></rate>
        <start>7357</start>
        <end>7952</end>
        <in>0</in>
        <out>595</out>
        <file id="file-43">
          <name>voice_113232.wav</name>
          <pathurl>file://localhost/C:/PROJECT_ROOT/assets/voice_113232.wav</pathurl>
          <rate><timebase>30</timebase></rate>
          <media>
             
             <audio>
                <samplecharacteristics>
                   <depth>16</depth>
                   <samplerate>44100</samplerate>
                </samplecharacteristics>
             </audio>
          </media>
        </file>
        
      </clipitem>

      <clipitem id="clipitem-50">
        <name>Voice 113233</name>
        <duration>431</duration>
        <rate><timebase>30</timebase></rate>
        <start>7952</start>
        <end>8383</end>
        <in>0</in>
        <out>431</out>
        <file id="file-44">
          <name>voice_113233.wav</name>
          <pathurl>file://localhost/C:/PROJECT_ROOT/assets/voice_113233.wav</pathurl>
          <rate><timebase>30</timebase></rate>
          <media>
             
             <audio>
                <samplecharacteristics>
                   <depth>16</depth>
                   <samplerate>44100</samplerate>
                </samplecharacteristics>
             </audio>
          </media>
        </file>
        
      </clipitem>

      <clipitem id="clipitem-51">
        <name>Voice 113234</name>
        <duration>28</duration>
        <rate><timebase>30</timebase></rate>
        <start>8383</start>
        <end>8411</end>
        <in>0</in>
        <out>28</out>
        <file id="file-45">
          <name>voice_113234.wav</name>
          <pathurl>file://localhost/C:/PROJECT_ROOT/assets/voice_113234.wav</pathurl>
          <rate><timebase>30</timebase></rate>
          <media>
             
             <audio>
                <samplecharacteristics>
                   <depth>16</depth>
                   <samplerate>44100</samplerate>
                </samplecharacteristics>
             </audio>
          </media>
        </file>
        
      </clipitem>

      <clipitem id="clipitem-53">
        <name>Voice 113235</name>
        <duration>283</duration>
        <rate><timebase>30</timebase></rate>
        <start>8411</start>
        <end>8694</end>
        <in>0</in>
        <out>283</out>
        <file id="file-47">
          <name>voice_113235.wav</name>
          <pathurl>file://localhost/C:/PROJECT_ROOT/assets/voice_113235.wav</pathurl>
          <rate><timebase>30</timebase></rate>
          <media>
             
             <audio>
                <samplecharacteristics>
                   <depth>16</depth>
                   <samplerate>44100</samplerate>
                </samplecharacteristics>
             </audio>
          </media>
        </file>
        
      </clipitem>

      <clipitem id="clipitem-55">
        <name>Voice 113236</name>
        <duration>91</duration>
        <rate><timebase>30</timebase></rate>
        <start>8694</start>
        <end>8785</end>
        <in>0</in>
        <out>91</out>
        <file id="file-48">
          <name>voice_113236.wav</name>
          <pathurl>file://localhost/C:/PROJECT_ROOT/assets/voice_113236.wav</pathurl>
          <rate><timebase>30</timebase></rate>
          <media>
             
             <audio>
                <samplecharacteristics>
                   <depth>16</depth>
                   <samplerate>44100</samplerate>
                </samplecharacteristics>
             </audio>
          </media>
        </file>
        
      </clipitem>

      <clipitem id="clipitem-57">
        <name>Voice 113237</name>
        <duration>259</duration>
        <rate><timebase>30</timebase></rate>
        <start>8785</start>
        <end>9044</end>
        <in>0</in>
        <out>259</out>
        <file id="file-49">
          <name>voice_113237.wav</name>
          <pathurl>file://localhost/C:/PROJECT_ROOT/assets/voice_113237.wav</pathurl>
          <rate><timebase>30</timebase></rate>
          <media>
             
             <audio>
                <samplecharacteristics>
                   <depth>16</depth>
                   <samplerate>44100</samplerate>
                </samplecharacteristics>
             </audio>
          </media>
        </file>
        
      </clipitem>

      <clipitem id="clipitem-59">
        <name>Voice 113519</name>
        <duration>108</duration>
        <rate><timebase>30</timebase></rate>
        <start>9044</start>
        <end>9152</end>
        <in>0</in>
        <out>108</out>
        <file id="file-50">
          <name>voice_113519.wav</name>
          <pathurl>file://localhost/C:/PROJECT_ROOT/assets/voice_113519.wav</pathurl>
          <rate><timebase>30</timebase></rate>
          <media>
             
             <audio>
                <samplecharacteristics>
                   <depth>16</depth>
                   <samplerate>44100</samplerate>
                </samplecharacteristics>
             </audio>
          </media>
        </file>
        
      </clipitem>

      <clipitem id="clipitem-61">
        <name>Voice 113238</name>
        <duration>112</duration>
        <rate><timebase>30</timebase></rate>
        <start>9152</start>
        <end>9264</end>
        <in>0</in>
        <out>112</out>
        <file id="file-51">
          <name>voice_113238.wav</name>
          <pathurl>file://localhost/C:/PROJECT_ROOT/assets/voice_113238.wav</pathurl>
          <rate><timebase>30</timebase></rate>
          <media>
             
             <audio>
                <samplecharacteristics>
                   <depth>16</depth>
                   <samplerate>44100</samplerate>
                </samplecharacteristics>
             </audio>
          </media>
        </file>
        
      </clipitem>

      <clipitem id="clipitem-63">
        <name>Voice 113239</name>
        <duration>71</duration>
        <rate><timebase>30</timebase></rate>
        <start>9264</start>
        <end>9335</end>
        <in>0</in>
        <out>71</out>
        <file id="file-52">
          <name>voice_113239.wav</name>
          <pathurl>file://localhost/C:/PROJECT_ROOT/assets/voice_113239.wav</pathurl>
          <rate><timebase>30</timebase></rate>
          <media>
             
             <audio>
                <samplecharacteristics>
                   <depth>16</depth>
                   <samplerate>44100</samplerate>
                </samplecharacteristics>
             </audio>
          </media>
        </file>
        
      </clipitem>

      <clipitem id="clipitem-66">
        <name>Voice 113241</name>
        <duration>231</duration>
        <rate><timebase>30</timebase></rate>
        <start>9522</start>
        <end>9753</end>
        <in>0</in>
        <out>231</out>
        <file id="file-54">
          <name>voice_113241.wav</name>
          <pathurl>file://localhost/C:/PROJECT_ROOT/assets/voice_113241.wav</pathurl>
          <rate><timebase>30</timebase></rate>
          <media>
             
             <audio>
                <samplecharacteristics>
                   <depth>16</depth>
                   <samplerate>44100</samplerate>
                </samplecharacteristics>
             </audio>
          </media>
        </file>
        
      </clipitem>

      <clipitem id="clipitem-68">
        <name>Voice 113242</name>
        <duration>413</duration>
        <rate><timebase>30</timebase></rate>
        <start>9753</start>
        <end>10166</end>
        <in>0</in>
        <out>413</out>
        <file id="file-55">
          <name>voice_113242.wav</name>
          <pathurl>file://localhost/C:/PROJECT_ROOT/assets/voice_113242.wav</pathurl>
          <rate><timebase>30</timebase></rate>
          <media>
             
             <audio>
                <samplecharacteristics>
                   <depth>16</depth>
                   <samplerate>44100</samplerate>
                </samplecharacteristics>
             </audio>
          </media>
        </file>
        
      </clipitem>

      <clipitem id="clipitem-69">
        <name>Voice 113243</name>
        <duration>68</duration>
        <rate><timebase>30</timebase></rate>
        <start>10166</start>
        <end>10234</end>
        <in>0</in>
        <out>68</out>
        <file id="file-56">
          <name>voice_113243.wav</name>
          <pathurl>file://localhost/C:/PROJECT_ROOT/assets/voice_113243.wav</pathurl>
          <rate><timebase>30</timebase></rate>
          <media>
             
             <audio>
                <samplecharacteristics>
                   <depth>16</depth>
                   <samplerate>44100</samplerate>
                </samplecharacteristics>
             </audio>
          </media>
        </file>
        
      </clipitem>

      <clipitem id="clipitem-71">
        <name>Voice 113244</name>
        <duration>299</duration>
        <rate><timebase>30</timebase></rate>
        <start>10234</start>
        <end>10533</end>
        <in>0</in>
        <out>299</out>
        <file id="file-57">
          <name>voice_113244.wav</name>
          <pathurl>file://localhost/C:/PROJECT_ROOT/assets/voice_113244.wav</pathurl>
          <rate><timebase>30</timebase></rate>
          <media>
             
             <audio>
                <samplecharacteristics>
                   <depth>16</depth>
                   <samplerate>44100</samplerate>
                </samplecharacteristics>
             </audio>
          </media>
        </file>
        
      </clipitem>

      <clipitem id="clipitem-73">
        <name>Voice 113245</name>
        <duration>106</duration>
        <rate><timebase>30</timebase></rate>
        <start>10533</start>
        <end>10639</end>
        <in>0</in>
        <out>106</out>
        <file id="file-58">
          <name>voice_113245.wav</name>
          <pathurl>file://localhost/C:/PROJECT_ROOT/assets/voice_113245.wav</pathurl>
          <rate><timebase>30</timebase></rate>
          <media>
             
             <audio>
                <samplecharacteristics>
                   <depth>16</depth>
                   <samplerate>44100</samplerate>
                </samplecharacteristics>
             </audio>
          </media>
        </file>
        
      </clipitem>

      <clipitem id="clipitem-75">
        <name>Voice 113246</name>
        <duration>295</duration>
        <rate><timebase>30</timebase></rate>
        <start>10639</start>
        <end>10934</end>
        <in>0</in>
        <out>295</out>
        <file id="file-59">
          <name>voice_113246.wav</name>
          <pathurl>file://localhost/C:/PROJECT_ROOT/assets/voice_113246.wav</pathurl>
          <rate><timebase>30</timebase></rate>
          <media>
             
             <audio>
                <samplecharacteristics>
                   <depth>16</depth>
                   <samplerate>44100</samplerate>
                </samplecharacteristics>
             </audio>
          </media>
        </file>
        
      </clipitem>

      <clipitem id="clipitem-77">
        <name>Voice 113247</name>
        <duration>241</duration>
        <rate><timebase>30</timebase></rate>
        <start>10934</start>
        <end>11175</end>
        <in>0</in>
        <out>241</out>
        <file id="file-60">
          <name>voice_113247.wav</name>
          <pathurl>file://localhost/C:/PROJECT_ROOT/assets/voice_113247.wav</pathurl>
          <rate><timebase>30</timebase></rate>
          <media>
             
             <audio>
                <samplecharacteristics>
                   <depth>16</depth>
                   <samplerate>44100</samplerate>
                </samplecharacteristics>
             </audio>
          </media>
        </file>
        
      </clipitem>

      <clipitem id="clipitem-79">
        <name>Voice 113248</name>
        <duration>170</duration>
        <rate><timebase>30</timebase></rate>
        <start>11175</start>
        <end>11345</end>
        <in>0</in>
        <out>170</out>
        <file id="file-62">
          <name>voice_113248.wav</name>
          <pathurl>file://localhost/C:/PROJECT_ROOT/assets/voice_113248.wav</pathurl>
          <rate><timebase>30</timebase></rate>
          <media>
             
             <audio>
                <samplecharacteristics>
                   <depth>16</depth>
                   <samplerate>44100</samplerate>
                </samplecharacteristics>
             </audio>
          </media>
        </file>
        
      </clipitem>

      <clipitem id="clipitem-81">
        <name>Voice 113249</name>
        <duration>58</duration>
        <rate><timebase>30</timebase></rate>
        <start>11345</start>
        <end>11403</end>
        <in>0</in>
        <out>58</out>
        <file id="file-63">
          <name>voice_113249.wav</name>
          <pathurl>file://localhost/C:/PROJECT_ROOT/assets/voice_113249.wav</pathurl>
          <rate><timebase>30</timebase></rate>
          <media>
             
             <audio>
                <samplecharacteristics>
                   <depth>16</depth>
                   <samplerate>44100</samplerate>
                </samplecharacteristics>
             </audio>
          </media>
        </file>
        
      </clipitem>

      <clipitem id="clipitem-83">
        <name>Voice 113250</name>
        <duration>265</duration>
        <rate><timebase>30</timebase></rate>
        <start>11403</start>
        <end>11668</end>
        <in>0</in>
        <out>265</out>
        <file id="file-64">
          <name>voice_113250.wav</name>
          <pathurl>file://localhost/C:/PROJECT_ROOT/assets/voice_113250.wav</pathurl>
          <rate><timebase>30</timebase></rate>
          <media>
             
             <audio>
                <samplecharacteristics>
                   <depth>16</depth>
                   <samplerate>44100</samplerate>
                </samplecharacteristics>
             </audio>
          </media>
        </file>
        
      </clipitem>

      <clipitem id="clipitem-85">
        <name>Voice 113251</name>
        <duration>113</duration>
        <rate><timebase>30</timebase></rate>
        <start>11668</start>
        <end>11781</end>
        <in>0</in>
        <out>113</out>
        <file id="file-65">
          <name>voice_113251.wav</name>
          <pathurl>file://localhost/C:/PROJECT_ROOT/assets/voice_113251.wav</pathurl>
          <rate><timebase>30</timebase></rate>
          <media>
             
             <audio>
                <samplecharacteristics>
                   <depth>16</depth>
                   <samplerate>44100</samplerate>
                </samplecharacteristics>
             </audio>
          </media>
        </file>
        
      </clipitem>

      <clipitem id="clipitem-86">
        <name>Voice 113252</name>
        <duration>299</duration>
        <rate><timebase>30</timebase></rate>
        <start>11781</start>
        <end>12080</end>
        <in>0</in>
        <out>299</out>
        <file id="file-66">
          <name>voice_113252.wav</name>
          <pathurl>file://localhost/C:/PROJECT_ROOT/assets/voice_113252.wav</pathurl>
          <rate><timebase>30</timebase></rate>
          <media>
             
             <audio>
                <samplecharacteristics>
                   <depth>16</depth>
                   <samplerate>44100</samplerate>
                </samplecharacteristics>
             </audio>
          </media>
        </file>
        
      </clipitem>

      <clipitem id="clipitem-87">
        <name>Voice 113253</name>
        <duration>188</duration>
        <rate><timebase>30</timebase></rate>
        <start>12080</start>
        <end>12268</end>
        <in>0</in>
        <out>188</out>
        <file id="file-67">
          <name>voice_113253.wav</name>
          <pathurl>file://localhost/C:/PROJECT_ROOT/assets/voice_113253.wav</pathurl>
          <rate><timebase>30</timebase></rate>
          <media>
             
             <audio>
                <samplecharacteristics>
                   <depth>16</depth>
                   <samplerate>44100</samplerate>
                </samplecharacteristics>
             </audio>
          </media>
        </file>
        
      </clipitem>

      <clipitem id="clipitem-88">
        <name>Voice 113254</name>
        <duration>30</duration>
        <rate><timebase>30</timebase></rate>
        <start>12268</start>
        <end>12298</end>
        <in>0</in>
        <out>30</out>
        <file id="file-68">
          <name>voice_113254.wav</name>
          <pathurl>file://localhost/C:/PROJECT_ROOT/assets/voice_113254.wav</pathurl>
          <rate><timebase>30</timebase></rate>
          <media>
             
             <audio>
                <samplecharacteristics>
                   <depth>16</depth>
                   <samplerate>44100</samplerate>
                </samplecharacteristics>
             </audio>
          </media>
        </file>
        
      </clipitem>

      <clipitem id="clipitem-90">
        <name>Voice 113255</name>
        <duration>143</duration>
        <rate><timebase>30</timebase></rate>
        <start>12298</start>
        <end>12441</end>
        <in>0</in>
        <out>143</out>
        <file id="file-69">
          <name>voice_113255.wav</name>
          <pathurl>file://localhost/C:/PROJECT_ROOT/assets/voice_113255.wav</pathurl>
          <rate><timebase>30</timebase></rate>
          <media>
             
             <audio>
                <samplecharacteristics>
                   <depth>16</depth>
                   <samplerate>44100</samplerate>
                </samplecharacteristics>
             </audio>
          </media>
        </file>
        
      </clipitem>

      <clipitem id="clipitem-92">
        <name>Voice 113256</name>
        <duration>36</duration>
        <rate><timebase>30</timebase></rate>
        <start>12441</start>
        <end>12477</end>
        <in>0</in>
        <out>36</out>
        <file id="file-70">
          <name>voice_113256.wav</name>
          <pathurl>file://localhost/C:/PROJECT_ROOT/assets/voice_113256.wav</pathurl>
          <rate><timebase>30</timebase></rate>
          <media>
             
             <audio>
                <samplecharacteristics>
                   <depth>16</depth>
                   <samplerate>44100</samplerate>
                </samplecharacteristics>
             </audio>
          </media>
        </file>
        
      </clipitem>

      <clipitem id="clipitem-95">
        <name>Voice 118572</name>
        <duration>26</duration>
        <rate><timebase>30</timebase></rate>
        <start>12687</start>
        <end>12713</end>
        <in>0</in>
        <out>26</out>
        <file id="file-71">
          <name>voice_118572.wav</name>
          <pathurl>file://localhost/C:/PROJECT_ROOT/assets/voice_118572.wav</pathurl>
          <rate><timebase>30</timebase></rate>
          <media>
             
             <audio>
                <samplecharacteristics>
                   <depth>16</depth>
                   <samplerate>44100</samplerate>
                </samplecharacteristics>
             </audio>
          </media>
        </file>
        
      </clipitem>

      <clipitem id="clipitem-97">
        <name>Voice 118573</name>
        <duration>22</duration>
        <rate><timebase>30</timebase></rate>
        <start>12713</start>
        <end>12735</end>
        <in>0</in>
        <out>22</out>
        <file id="file-72">
          <name>voice_118573.wav</name>
          <pathurl>file://localhost/C:/PROJECT_ROOT/assets/voice_118573.wav</pathurl>
          <rate><timebase>30</timebase></rate>
          <media>
             
             <audio>
                <samplecharacteristics>
                   <depth>16</depth>
                   <samplerate>44100</samplerate>
                </samplecharacteristics>
             </audio>
          </media>
        </file>
        
      </clipitem>

      <clipitem id="clipitem-99">
        <name>Voice 113260</name>
        <duration>300</duration>
        <rate><timebase>30</timebase></rate>
        <start>12795</start>
        <end>13095</end>
        <in>0</in>
        <out>300</out>
        <file id="file-73">
          <name>voice_113260.wav</name>
          <pathurl>file://localhost/C:/PROJECT_ROOT/assets/voice_113260.wav</pathurl>
          <rate><timebase>30</timebase></rate>
          <media>
             
             <audio>
                <samplecharacteristics>
                   <depth>16</depth>
                   <samplerate>44100</samplerate>
                </samplecharacteristics>
             </audio>
          </media>
        </file>
        
      </clipitem>

      <clipitem id="clipitem-100">
        <name>Voice 113261</name>
        <duration>34</duration>
        <rate><timebase>30</timebase></rate>
        <start>13095</start>
        <end>13129</end>
        <in>0</in>
        <out>34</out>
        <file id="file-74">
          <name>voice_113261.wav</name>
          <pathurl>file://localhost/C:/PROJECT_ROOT/assets/voice_113261.wav</pathurl>
          <rate><timebase>30</timebase></rate>
          <media>
             
             <audio>
                <samplecharacteristics>
                   <depth>16</depth>
                   <samplerate>44100</samplerate>
                </samplecharacteristics>
             </audio>
          </media>
        </file>
        
      </clipitem>

      <clipitem id="clipitem-102">
        <name>Voice 113262</name>
        <duration>67</duration>
        <rate><timebase>30</timebase></rate>
        <start>13129</start>
        <end>13196</end>
        <in>0</in>
        <out>67</out>
        <file id="file-76">
          <name>voice_113262.wav</name>
          <pathurl>file://localhost/C:/PROJECT_ROOT/assets/voice_113262.wav</pathurl>
          <rate><timebase>30</timebase></rate>
          <media>
             
             <audio>
                <samplecharacteristics>
                   <depth>16</depth>
                   <samplerate>44100</samplerate>
                </samplecharacteristics>
             </audio>
          </media>
        </file>
        
      </clipitem>

      <clipitem id="clipitem-103">
        <name>Voice 113263</name>
        <duration>432</duration>
        <rate><timebase>30</timebase></rate>
        <start>13196</start>
        <end>13628</end>
        <in>0</in>
        <out>432</out>
        <file id="file-77">
          <name>voice_113263.wav</name>
          <pathurl>file://localhost/C:/PROJECT_ROOT/assets/voice_113263.wav</pathurl>
          <rate><timebase>30</timebase></rate>
          <media>
             
             <audio>
                <samplecharacteristics>
                   <depth>16</depth>
                   <samplerate>44100</samplerate>
                </samplecharacteristics>
             </audio>
          </media>
        </file>
        
      </clipitem>

      <clipitem id="clipitem-105">
        <name>Voice 113264</name>
        <duration>145</duration>
        <rate><timebase>30</timebase></rate>
        <start>13628</start>
        <end>13773</end>
        <in>0</in>
        <out>145</out>
        <file id="file-78">
          <name>voice_113264.wav</name>
          <pathurl>file://localhost/C:/PROJECT_ROOT/assets/voice_113264.wav</pathurl>
          <rate><timebase>30</timebase></rate>
          <media>
             
             <audio>
                <samplecharacteristics>
                   <depth>16</depth>
                   <samplerate>44100</samplerate>
                </samplecharacteristics>
             </audio>
          </media>
        </file>
        
      </clipitem>

      <clipitem id="clipitem-107">
        <name>Voice 113265</name>
        <duration>177</duration>
        <rate><timebase>30</timebase></rate>
        <start>13773</start>
        <end>13950</end>
        <in>0</in>
        <out>177</out>
        <file id="file-79">
          <name>voice_113265.wav</name>
          <pathurl>file://localhost/C:/PROJECT_ROOT/assets/voice_113265.wav</pathurl>
          <rate><timebase>30</timebase></rate>
          <media>
             
             <audio>
                <samplecharacteristics>
                   <depth>16</depth>
                   <samplerate>44100</samplerate>
                </samplecharacteristics>
             </audio>
          </media>
        </file>
        
      </clipitem>

      <clipitem id="clipitem-109">
        <name>Voice 113266</name>
        <duration>35</duration>
        <rate><timebase>30</timebase></rate>
        <start>13950</start>
        <end>13985</end>
        <in>0</in>
        <out>35</out>
        <file id="file-80">
          <name>voice_113266.wav</name>
          <pathurl>file://localhost/C:/PROJECT_ROOT/assets/voice_113266.wav</pathurl>
          <rate><timebase>30</timebase></rate>
          <media>
             
             <audio>
                <samplecharacteristics>
                   <depth>16</depth>
                   <samplerate>44100</samplerate>
                </samplecharacteristics>
             </audio>
          </media>
        </file>
        
      </clipitem>

      <clipitem id="clipitem-111">
        <name>Voice 113267</name>
        <duration>166</duration>
        <rate><timebase>30</timebase></rate>
        <start>13985</start>
        <end>14151</end>
        <in>0</in>
        <out>166</out>
        <file id="file-81">
          <name>voice_113267.wav</name>
          <pathurl>file://localhost/C:/PROJECT_ROOT/assets/voice_113267.wav</pathurl>
          <rate><timebase>30</timebase></rate>
          <media>
             
             <audio>
                <samplecharacteristics>
                   <depth>16</depth>
                   <samplerate>44100</samplerate>
                </samplecharacteristics>
             </audio>
          </media>
        </file>
        
      </clipitem>

      <clipitem id="clipitem-114">
        <name>Voice 113521</name>
        <duration>547</duration>
        <rate><timebase>30</timebase></rate>
        <start>14211</start>
        <end>14758</end>
        <in>0</in>
        <out>547</out>
        <file id="file-82">
          <name>voice_113521.wav</name>
          <pathurl>file://localhost/C:/PROJECT_ROOT/assets/voice_113521.wav</pathurl>
          <rate><timebase>30</timebase></rate>
          <media>
             
             <audio>
                <samplecharacteristics>
                   <depth>16</depth>
                   <samplerate>44100</samplerate>
                </samplecharacteristics>
             </audio>
          </media>
        </file>
        
      </clipitem>

      <clipitem id="clipitem-116">
        <name>Voice 113522</name>
        <duration>580</duration>
        <rate><timebase>30</timebase></rate>
        <start>14758</start>
        <end>15338</end>
        <in>0</in>
        <out>580</out>
        <file id="file-83">
          <name>voice_113522.wav</name>
          <pathurl>file://localhost/C:/PROJECT_ROOT/assets/voice_113522.wav</pathurl>
          <rate><timebase>30</timebase></rate>
          <media>
             
             <audio>
                <samplecharacteristics>
                   <depth>16</depth>
                   <samplerate>44100</samplerate>
                </samplecharacteristics>
             </audio>
          </media>
        </file>
        
      </clipitem>

      <clipitem id="clipitem-117">
        <name>Voice 113523</name>
        <duration>911</duration>
        <rate><timebase>30</timebase></rate>
        <start>15338</start>
        <end>16249</end>
        <in>0</in>
        <out>911</out>
        <file id="file-84">
          <name>voice_113523.wav</name>
          <pathurl>file://localhost/C:/PROJECT_ROOT/assets/voice_113523.wav</pathurl>
          <rate><timebase>30</timebase></rate>
          <media>
             
             <audio>
                <samplecharacteristics>
                   <depth>16</depth>
                   <samplerate>44100</samplerate>
                </samplecharacteristics>
             </audio>
          </media>
        </file>
        
      </clipitem>

      <clipitem id="clipitem-118">
        <name>Voice 113269</name>
        <duration>126</duration>
        <rate><timebase>30</timebase></rate>
        <start>16249</start>
        <end>16375</end>
        <in>0</in>
        <out>126</out>
        <file id="file-85">
          <name>voice_113269.wav</name>
          <pathurl>file://localhost/C:/PROJECT_ROOT/assets/voice_113269.wav</pathurl>
          <rate><timebase>30</timebase></rate>
          <media>
             
             <audio>
                <samplecharacteristics>
                   <depth>16</depth>
                   <samplerate>44100</samplerate>
                </samplecharacteristics>
             </audio>
          </media>
        </file>
        
      </clipitem>

      <clipitem id="clipitem-120">
        <name>Voice 113271</name>
        <duration>116</duration>
        <rate><timebase>30</timebase></rate>
        <start>16375</start>
        <end>16491</end>
        <in>0</in>
        <out>116</out>
        <file id="file-87">
          <name>voice_113271.wav</name>
          <pathurl>file://localhost/C:/PROJECT_ROOT/assets/voice_113271.wav</pathurl>
          <rate><timebase>30</timebase></rate>
          <media>
             
             <audio>
                <samplecharacteristics>
                   <depth>16</depth>
                   <samplerate>44100</samplerate>
                </samplecharacteristics>
             </audio>
          </media>
        </file>
        
      </clipitem>

      <clipitem id="clipitem-122">
        <name>Voice 113270</name>
        <duration>115</duration>
        <rate><timebase>30</timebase></rate>
        <start>16491</start>
        <end>16606</end>
        <in>0</in>
        <out>115</out>
        <file id="file-88">
          <name>voice_113270.wav</name>
          <pathurl>file://localhost/C:/PROJECT_ROOT/assets/voice_113270.wav</pathurl>
          <rate><timebase>30</timebase></rate>
          <media>
             
             <audio>
                <samplecharacteristics>
                   <depth>16</depth>
                   <samplerate>44100</samplerate>
                </samplecharacteristics>
             </audio>
          </media>
        </file>
        
      </clipitem>

      <clipitem id="clipitem-124">
        <name>Voice 113274</name>
        <duration>179</duration>
        <rate><timebase>30</timebase></rate>
        <start>16606</start>
        <end>16785</end>
        <in>0</in>
        <out>179</out>
        <file id="file-90">
          <name>voice_113274.wav</name>
          <pathurl>file://localhost/C:/PROJECT_ROOT/assets/voice_113274.wav</pathurl>
          <rate><timebase>30</timebase></rate>
          <media>
             
             <audio>
                <samplecharacteristics>
                   <depth>16</depth>
                   <samplerate>44100</samplerate>
                </samplecharacteristics>
             </audio>
          </media>
        </file>
        
      </clipitem>

      <clipitem id="clipitem-126">
        <name>Voice 113272</name>
        <duration>108</duration>
        <rate><timebase>30</timebase></rate>
        <start>16785</start>
        <end>16893</end>
        <in>0</in>
        <out>108</out>
        <file id="file-91">
          <name>voice_113272.wav</name>
          <pathurl>file://localhost/C:/PROJECT_ROOT/assets/voice_113272.wav</pathurl>
          <rate><timebase>30</timebase></rate>
          <media>
             
             <audio>
                <samplecharacteristics>
                   <depth>16</depth>
                   <samplerate>44100</samplerate>
                </samplecharacteristics>
             </audio>
          </media>
        </file>
        
      </clipitem>

      <clipitem id="clipitem-128">
        <name>Voice 113273</name>
        <duration>102</duration>
        <rate><timebase>30</timebase></rate>
        <start>16893</start>
        <end>16995</end>
        <in>0</in>
        <out>102</out>
        <file id="file-93">
          <name>voice_113273.wav</name>
          <pathurl>file://localhost/C:/PROJECT_ROOT/assets/voice_113273.wav</pathurl>
          <rate><timebase>30</timebase></rate>
          <media>
             
             <audio>
                <samplecharacteristics>
                   <depth>16</depth>
                   <samplerate>44100</samplerate>
                </samplecharacteristics>
             </audio>
          </media>
        </file>
        
      </clipitem>

      <clipitem id="clipitem-130">
        <name>Voice 113275</name>
        <duration>160</duration>
        <rate><timebase>30</timebase></rate>
        <start>16995</start>
        <end>17155</end>
        <in>0</in>
        <out>160</out>
        <file id="file-94">
          <name>voice_113275.wav</name>
          <pathurl>file://localhost/C:/PROJECT_ROOT/assets/voice_113275.wav</pathurl>
          <rate><timebase>30</timebase></rate>
          <media>
             
             <audio>
                <samplecharacteristics>
                   <depth>16</depth>
                   <samplerate>44100</samplerate>
                </samplecharacteristics>
             </audio>
          </media>
        </file>
        
      </clipitem>

      <clipitem id="clipitem-132">
        <name>Voice 113276</name>
        <duration>80</duration>
        <rate><timebase>30</timebase></rate>
        <start>17155</start>
        <end>17235</end>
        <in>0</in>
        <out>80</out>
        <file id="file-95">
          <name>voice_113276.wav</name>
          <pathurl>file://localhost/C:/PROJECT_ROOT/assets/voice_113276.wav</pathurl>
          <rate><timebase>30</timebase></rate>
          <media>
             
             <audio>
                <samplecharacteristics>
                   <depth>16</depth>
                   <samplerate>44100</samplerate>
                </samplecharacteristics>
             </audio>
          </media>
        </file>
        
      </clipitem>

      <clipitem id="clipitem-133">
        <name>Voice 113277</name>
        <duration>32</duration>
        <rate><timebase>30</timebase></rate>
        <start>17235</start>
        <end>17267</end>
        <in>0</in>
        <out>32</out>
        <file id="file-96">
          <name>voice_113277.wav</name>
          <pathurl>file://localhost/C:/PROJECT_ROOT/assets/voice_113277.wav</pathurl>
          <rate><timebase>30</timebase></rate>
          <media>
             
             <audio>
                <samplecharacteristics>
                   <depth>16</depth>
                   <samplerate>44100</samplerate>
                </samplecharacteristics>
             </audio>
          </media>
        </file>
        
      </clipitem>

      <clipitem id="clipitem-136">
        <name>Voice 113279</name>
        <duration>45</duration>
        <rate><timebase>30</timebase></rate>
        <start>17439</start>
        <end>17484</end>
        <in>0</in>
        <out>45</out>
        <file id="file-97">
          <name>voice_113279.wav</name>
          <pathurl>file://localhost/C:/PROJECT_ROOT/assets/voice_113279.wav</pathurl>
          <rate><timebase>30</timebase></rate>
          <media>
             
             <audio>
                <samplecharacteristics>
                   <depth>16</depth>
                   <samplerate>44100</samplerate>
                </samplecharacteristics>
             </audio>
          </media>
        </file>
        
      </clipitem>

      <clipitem id="clipitem-138">
        <name>Voice 113280</name>
        <duration>78</duration>
        <rate><timebase>30</timebase></rate>
        <start>17484</start>
        <end>17562</end>
        <in>0</in>
        <out>78</out>
        <file id="file-99">
          <name>voice_113280.wav</name>
          <pathurl>file://localhost/C:/PROJECT_ROOT/assets/voice_113280.wav</pathurl>
          <rate><timebase>30</timebase></rate>
          <media>
             
             <audio>
                <samplecharacteristics>
                   <depth>16</depth>
                   <samplerate>44100</samplerate>
                </samplecharacteristics>
             </audio>
          </media>
        </file>
        
      </clipitem>

      <clipitem id="clipitem-139">
        <name>Voice 113281</name>
        <duration>87</duration>
        <rate><timebase>30</timebase></rate>
        <start>17562</start>
        <end>17649</end>
        <in>0</in>
        <out>87</out>
        <file id="file-100">
          <name>voice_113281.wav</name>
          <pathurl>file://localhost/C:/PROJECT_ROOT/assets/voice_113281.wav</pathurl>
          <rate><timebase>30</timebase></rate>
          <media>
             
             <audio>
                <samplecharacteristics>
                   <depth>16</depth>
                   <samplerate>44100</samplerate>
                </samplecharacteristics>
             </audio>
          </media>
        </file>
        
      </clipitem>

      <clipitem id="clipitem-141">
        <name>Voice 113282</name>
        <duration>120</duration>
        <rate><timebase>30</timebase></rate>
        <start>17649</start>
        <end>17769</end>
        <in>0</in>
        <out>120</out>
        <file id="file-101">
          <name>voice_113282.wav</name>
          <pathurl>file://localhost/C:/PROJECT_ROOT/assets/voice_113282.wav</pathurl>
          <rate><timebase>30</timebase></rate>
          <media>
             
             <audio>
                <samplecharacteristics>
                   <depth>16</depth>
                   <samplerate>44100</samplerate>
                </samplecharacteristics>
             </audio>
          </media>
        </file>
        
      </clipitem>

      <clipitem id="clipitem-142">
        <name>Voice 113283</name>
        <duration>60</duration>
        <rate><timebase>30</timebase></rate>
        <start>17769</start>
        <end>17829</end>
        <in>0</in>
        <out>60</out>
        <file id="file-102">
          <name>voice_113283.wav</name>
          <pathurl>file://localhost/C:/PROJECT_ROOT/assets/voice_113283.wav</pathurl>
          <rate><timebase>30</timebase></rate>
          <media>
             
             <audio>
                <samplecharacteristics>
                   <depth>16</depth>
                   <samplerate>44100</samplerate>
                </samplecharacteristics>
             </audio>
          </media>
        </file>
        
      </clipitem>

      <clipitem id="clipitem-143">
        <name>Voice 113284</name>
        <duration>34</duration>
        <rate><timebase>30</timebase></rate>
        <start>17829</start>
        <end>17863</end>
        <in>0</in>
        <out>34</out>
        <file id="file-103">
          <name>voice_113284.wav</name>
          <pathurl>file://localhost/C:/PROJECT_ROOT/assets/voice_113284.wav</pathurl>
          <rate><timebase>30</timebase></rate>
          <media>
             
             <audio>
                <samplecharacteristics>
                   <depth>16</depth>
                   <samplerate>44100</samplerate>
                </samplecharacteristics>
             </audio>
          </media>
        </file>
        
      </clipitem>

      <clipitem id="clipitem-146">
        <name>Voice 113286</name>
        <duration>133</duration>
        <rate><timebase>30</timebase></rate>
        <start>18036</start>
        <end>18169</end>
        <in>0</in>
        <out>133</out>
        <file id="file-104">
          <name>voice_113286.wav</name>
          <pathurl>file://localhost/C:/PROJECT_ROOT/assets/voice_113286.wav</pathurl>
          <rate><timebase>30</timebase></rate>
          <media>
             
             <audio>
                <samplecharacteristics>
                   <depth>16</depth>
                   <samplerate>44100</samplerate>
                </samplecharacteristics>
             </audio>
          </media>
        </file>
        
      </clipitem>

      <clipitem id="clipitem-148">
        <name>Voice 113287</name>
        <duration>161</duration>
        <rate><timebase>30</timebase></rate>
        <start>18169</start>
        <end>18330</end>
        <in>0</in>
        <out>161</out>
        <file id="file-105">
          <name>voice_113287.wav</name>
          <pathurl>file://localhost/C:/PROJECT_ROOT/assets/voice_113287.wav</pathurl>
          <rate><timebase>30</timebase></rate>
          <media>
             
             <audio>
                <samplecharacteristics>
                   <depth>16</depth>
                   <samplerate>44100</samplerate>
                </samplecharacteristics>
             </audio>
          </media>
        </file>
        
      </clipitem>

      <clipitem id="clipitem-150">
        <name>Voice 113288</name>
        <duration>153</duration>
        <rate><timebase>30</timebase></rate>
        <start>18330</start>
        <end>18483</end>
        <in>0</in>
        <out>153</out>
        <file id="file-106">
          <name>voice_113288.wav</name>
          <pathurl>file://localhost/C:/PROJECT_ROOT/assets/voice_113288.wav</pathurl>
          <rate><timebase>30</timebase></rate>
          <media>
             
             <audio>
                <samplecharacteristics>
                   <depth>16</depth>
                   <samplerate>44100</samplerate>
                </samplecharacteristics>
             </audio>
          </media>
        </file>
        
      </clipitem>

      <clipitem id="clipitem-152">
        <name>Voice 113289</name>
        <duration>185</duration>
        <rate><timebase>30</timebase></rate>
        <start>18483</start>
        <end>18668</end>
        <in>0</in>
        <out>185</out>
        <file id="file-107">
          <name>voice_113289.wav</name>
          <pathurl>file://localhost/C:/PROJECT_ROOT/assets/voice_113289.wav</pathurl>
          <rate><timebase>30</timebase></rate>
          <media>
             
             <audio>
                <samplecharacteristics>
                   <depth>16</depth>
                   <samplerate>44100</samplerate>
                </samplecharacteristics>
             </audio>
          </media>
        </file>
        
      </clipitem>

      <clipitem id="clipitem-153">
        <name>Voice 113290</name>
        <duration>142</duration>
        <rate><timebase>30</timebase></rate>
        <start>18668</start>
        <end>18810</end>
        <in>0</in>
        <out>142</out>
        <file id="file-108">
          <name>voice_113290.wav</name>
          <pathurl>file://localhost/C:/PROJECT_ROOT/assets/voice_113290.wav</pathurl>
          <rate><timebase>30</timebase></rate>
          <media>
             
             <audio>
                <samplecharacteristics>
                   <depth>16</depth>
                   <samplerate>44100</samplerate>
                </samplecharacteristics>
             </audio>
          </media>
        </file>
        
      </clipitem>

      <clipitem id="clipitem-155">
        <name>Voice 113291</name>
        <duration>92</duration>
        <rate><timebase>30</timebase></rate>
        <start>18810</start>
        <end>18902</end>
        <in>0</in>
        <out>92</out>
        <file id="file-110">
          <name>voice_113291.wav</name>
          <pathurl>file://localhost/C:/PROJECT_ROOT/assets/voice_113291.wav</pathurl>
          <rate><timebase>30</timebase></rate>
          <media>
             
             <audio>
                <samplecharacteristics>
                   <depth>16</depth>
                   <samplerate>44100</samplerate>
                </samplecharacteristics>
             </audio>
          </media>
        </file>
        
      </clipitem>

      <clipitem id="clipitem-157">
        <name>Voice 113292</name>
        <duration>99</duration>
        <rate><timebase>30</timebase></rate>
        <start>18902</start>
        <end>19001</end>
        <in>0</in>
        <out>99</out>
        <file id="file-111">
          <name>voice_113292.wav</name>
          <pathurl>file://localhost/C:/PROJECT_ROOT/assets/voice_113292.wav</pathurl>
          <rate><timebase>30</timebase></rate>
          <media>
             
             <audio>
                <samplecharacteristics>
                   <depth>16</depth>
                   <samplerate>44100</samplerate>
                </samplecharacteristics>
             </audio>
          </media>
        </file>
        
      </clipitem>

      <clipitem id="clipitem-159">
        <name>Voice 113293</name>
        <duration>126</duration>
        <rate><timebase>30</timebase></rate>
        <start>19001</start>
        <end>19127</end>
        <in>0</in>
        <out>126</out>
        <file id="file-113">
          <name>voice_113293.wav</name>
          <pathurl>file://localhost/C:/PROJECT_ROOT/assets/voice_113293.wav</pathurl>
          <rate><timebase>30</timebase></rate>
          <media>
             
             <audio>
                <samplecharacteristics>
                   <depth>16</depth>
                   <samplerate>44100</samplerate>
                </samplecharacteristics>
             </audio>
          </media>
        </file>
        
      </clipitem>

      <clipitem id="clipitem-161">
        <name>Voice 113294</name>
        <duration>12</duration>
        <rate><timebase>30</timebase></rate>
        <start>19127</start>
        <end>19139</end>
        <in>0</in>
        <out>12</out>
        <file id="file-114">
          <name>voice_113294.wav</name>
          <pathurl>file://localhost/C:/PROJECT_ROOT/assets/voice_113294.wav</pathurl>
          <rate><timebase>30</timebase></rate>
          <media>
             
             <audio>
                <samplecharacteristics>
                   <depth>16</depth>
                   <samplerate>44100</samplerate>
                </samplecharacteristics>
             </audio>
          </media>
        </file>
        
      </clipitem>

      <clipitem id="clipitem-163">
        <name>Voice 113295</name>
        <duration>132</duration>
        <rate><timebase>30</timebase></rate>
        <start>19139</start>
        <end>19271</end>
        <in>0</in>
        <out>132</out>
        <file id="file-115">
          <name>voice_113295.wav</name>
          <pathurl>file://localhost/C:/PROJECT_ROOT/assets/voice_113295.wav</pathurl>
          <rate><timebase>30</timebase></rate>
          <media>
             
             <audio>
                <samplecharacteristics>
                   <depth>16</depth>
                   <samplerate>44100</samplerate>
                </samplecharacteristics>
             </audio>
          </media>
        </file>
        
      </clipitem>

      <clipitem id="clipitem-165">
        <name>Voice 113296</name>
        <duration>108</duration>
        <rate><timebase>30</timebase></rate>
        <start>19271</start>
        <end>19379</end>
        <in>0</in>
        <out>108</out>
        <file id="file-116">
          <name>voice_113296.wav</name>
          <pathurl>file://localhost/C:/PROJECT_ROOT/assets/voice_113296.wav</pathurl>
          <rate><timebase>30</timebase></rate>
          <media>
             
             <audio>
                <samplecharacteristics>
                   <depth>16</depth>
                   <samplerate>44100</samplerate>
                </samplecharacteristics>
             </audio>
          </media>
        </file>
        
      </clipitem>

      <clipitem id="clipitem-167">
        <name>Voice 113297</name>
        <duration>153</duration>
        <rate><timebase>30</timebase></rate>
        <start>19379</start>
        <end>19532</end>
        <in>0</in>
        <out>153</out>
        <file id="file-117">
          <name>voice_113297.wav</name>
          <pathurl>file://localhost/C:/PROJECT_ROOT/assets/voice_113297.wav</pathurl>
          <rate><timebase>30</timebase></rate>
          <media>
             
             <audio>
                <samplecharacteristics>
                   <depth>16</depth>
                   <samplerate>44100</samplerate>
                </samplecharacteristics>
             </audio>
          </media>
        </file>
        
      </clipitem>

      <clipitem id="clipitem-169">
        <name>Voice 113298</name>
        <duration>179</duration>
        <rate><timebase>30</timebase></rate>
        <start>19532</start>
        <end>19711</end>
        <in>0</in>
        <out>179</out>
        <file id="file-118">
          <name>voice_113298.wav</name>
          <pathurl>file://localhost/C:/PROJECT_ROOT/assets/voice_113298.wav</pathurl>
          <rate><timebase>30</timebase></rate>
          <media>
             
             <audio>
                <samplecharacteristics>
                   <depth>16</depth>
                   <samplerate>44100</samplerate>
                </samplecharacteristics>
             </audio>
          </media>
        </file>
        
      </clipitem>

      <clipitem id="clipitem-170">
        <name>Voice 113299</name>
        <duration>57</duration>
        <rate><timebase>30</timebase></rate>
        <start>19711</start>
        <end>19768</end>
        <in>0</in>
        <out>57</out>
        <file id="file-119">
          <name>voice_113299.wav</name>
          <pathurl>file://localhost/C:/PROJECT_ROOT/assets/voice_113299.wav</pathurl>
          <rate><timebase>30</timebase></rate>
          <media>
             
             <audio>
                <samplecharacteristics>
                   <depth>16</depth>
                   <samplerate>44100</samplerate>
                </samplecharacteristics>
             </audio>
          </media>
        </file>
        
      </clipitem>

      <clipitem id="clipitem-172">
        <name>Voice 113300</name>
        <duration>98</duration>
        <rate><timebase>30</timebase></rate>
        <start>19768</start>
        <end>19866</end>
        <in>0</in>
        <out>98</out>
        <file id="file-120">
          <name>voice_113300.wav</name>
          <pathurl>file://localhost/C:/PROJECT_ROOT/assets/voice_113300.wav</pathurl>
          <rate><timebase>30</timebase></rate>
          <media>
             
             <audio>
                <samplecharacteristics>
                   <depth>16</depth>
                   <samplerate>44100</samplerate>
                </samplecharacteristics>
             </audio>
          </media>
        </file>
        
      </clipitem>

      <clipitem id="clipitem-174">
        <name>Voice 113301</name>
        <duration>88</duration>
        <rate><timebase>30</timebase></rate>
        <start>19866</start>
        <end>19954</end>
        <in>0</in>
        <out>88</out>
        <file id="file-121">
          <name>voice_113301.wav</name>
          <pathurl>file://localhost/C:/PROJECT_ROOT/assets/voice_113301.wav</pathurl>
          <rate><timebase>30</timebase></rate>
          <media>
             
             <audio>
                <samplecharacteristics>
                   <depth>16</depth>
                   <samplerate>44100</samplerate>
                </samplecharacteristics>
             </audio>
          </media>
        </file>
        
      </clipitem>

      <clipitem id="clipitem-176">
        <name>Voice 113302</name>
        <duration>48</duration>
        <rate><timebase>30</timebase></rate>
        <start>19954</start>
        <end>20002</end>
        <in>0</in>
        <out>48</out>
        <file id="file-122">
          <name>voice_113302.wav</name>
          <pathurl>file://localhost/C:/PROJECT_ROOT/assets/voice_113302.wav</pathurl>
          <rate><timebase>30</timebase></rate>
          <media>
             
             <audio>
                <samplecharacteristics>
                   <depth>16</depth>
                   <samplerate>44100</samplerate>
                </samplecharacteristics>
             </audio>
          </media>
        </file>
        
      </clipitem>

      <clipitem id="clipitem-178">
        <name>Voice 113303</name>
        <duration>62</duration>
        <rate><timebase>30</timebase></rate>
        <start>20002</start>
        <end>20064</end>
        <in>0</in>
        <out>62</out>
        <file id="file-123">
          <name>voice_113303.wav</name>
          <pathurl>file://localhost/C:/PROJECT_ROOT/assets/voice_113303.wav</pathurl>
          <rate><timebase>30</timebase></rate>
          <media>
             
             <audio>
                <samplecharacteristics>
                   <depth>16</depth>
                   <samplerate>44100</samplerate>
                </samplecharacteristics>
             </audio>
          </media>
        </file>
        
      </clipitem>

      <clipitem id="clipitem-180">
        <name>Voice 113304</name>
        <duration>39</duration>
        <rate><timebase>30</timebase></rate>
        <start>20064</start>
        <end>20103</end>
        <in>0</in>
        <out>39</out>
        <file id="file-124">
          <name>voice_113304.wav</name>
          <pathurl>file://localhost/C:/PROJECT_ROOT/assets/voice_113304.wav</pathurl>
          <rate><timebase>30</timebase></rate>
          <media>
             
             <audio>
                <samplecharacteristics>
                   <depth>16</depth>
                   <samplerate>44100</samplerate>
                </samplecharacteristics>
             </audio>
          </media>
        </file>
        
      </clipitem>

      <clipitem id="clipitem-182">
        <name>Voice 113305</name>
        <duration>105</duration>
        <rate><timebase>30</timebase></rate>
        <start>20103</start>
        <end>20208</end>
        <in>0</in>
        <out>105</out>
        <file id="file-125">
          <name>voice_113305.wav</name>
          <pathurl>file://localhost/C:/PROJECT_ROOT/assets/voice_113305.wav</pathurl>
          <rate><timebase>30</timebase></rate>
          <media>
             
             <audio>
                <samplecharacteristics>
                   <depth>16</depth>
                   <samplerate>44100</samplerate>
                </samplecharacteristics>
             </audio>
          </media>
        </file>
        
      </clipitem>

      <clipitem id="clipitem-184">
        <name>Voice 113306</name>
        <duration>48</duration>
        <rate><timebase>30</timebase></rate>
        <start>20208</start>
        <end>20256</end>
        <in>0</in>
        <out>48</out>
        <file id="file-126">
          <name>voice_113306.wav</name>
          <pathurl>file://localhost/C:/PROJECT_ROOT/assets/voice_113306.wav</pathurl>
          <rate><timebase>30</timebase></rate>
          <media>
             
             <audio>
                <samplecharacteristics>
                   <depth>16</depth>
                   <samplerate>44100</samplerate>
                </samplecharacteristics>
             </audio>
          </media>
        </file>
        
      </clipitem>

      <clipitem id="clipitem-186">
        <name>Voice 113307</name>
        <duration>133</duration>
        <rate><timebase>30</timebase></rate>
        <start>20256</start>
        <end>20389</end>
        <in>0</in>
        <out>133</out>
        <file id="file-127">
          <name>voice_113307.wav</name>
          <pathurl>file://localhost/C:/PROJECT_ROOT/assets/voice_113307.wav</pathurl>
          <rate><timebase>30</timebase></rate>
          <media>
             
             <audio>
                <samplecharacteristics>
                   <depth>16</depth>
                   <samplerate>44100</samplerate>
                </samplecharacteristics>
             </audio>
          </media>
        </file>
        
      </clipitem>

      <clipitem id="clipitem-187">
        <name>Voice 113308</name>
        <duration>243</duration>
        <rate><timebase>30</timebase></rate>
        <start>20389</start>
        <end>20632</end>
        <in>0</in>
        <out>243</out>
        <file id="file-128">
          <name>voice_113308.wav</name>
          <pathurl>file://localhost/C:/PROJECT_ROOT/assets/voice_113308.wav</pathurl>
          <rate><timebase>30</timebase></rate>
          <media>
             
             <audio>
                <samplecharacteristics>
                   <depth>16</depth>
                   <samplerate>44100</samplerate>
                </samplecharacteristics>
             </audio>
          </media>
        </file>
        
      </clipitem>

      <clipitem id="clipitem-189">
        <name>Voice 113309</name>
        <duration>66</duration>
        <rate><timebase>30</timebase></rate>
        <start>20692</start>
        <end>20758</end>
        <in>0</in>
        <out>66</out>
        <file id="file-129">
          <name>voice_113309.wav</name>
          <pathurl>file://localhost/C:/PROJECT_ROOT/assets/voice_113309.wav</pathurl>
          <rate><timebase>30</timebase></rate>
          <media>
             
             <audio>
                <samplecharacteristics>
                   <depth>16</depth>
                   <samplerate>44100</samplerate>
                </samplecharacteristics>
             </audio>
          </media>
        </file>
        
      </clipitem>

      <clipitem id="clipitem-191">
        <name>Voice 113310</name>
        <duration>135</duration>
        <rate><timebase>30</timebase></rate>
        <start>20758</start>
        <end>20893</end>
        <in>0</in>
        <out>135</out>
        <file id="file-131">
          <name>voice_113310.wav</name>
          <pathurl>file://localhost/C:/PROJECT_ROOT/assets/voice_113310.wav</pathurl>
          <rate><timebase>30</timebase></rate>
          <media>
             
             <audio>
                <samplecharacteristics>
                   <depth>16</depth>
                   <samplerate>44100</samplerate>
                </samplecharacteristics>
             </audio>
          </media>
        </file>
        
      </clipitem>

      <clipitem id="clipitem-193">
        <name>Voice 113311</name>
        <duration>62</duration>
        <rate><timebase>30</timebase></rate>
        <start>20893</start>
        <end>20955</end>
        <in>0</in>
        <out>62</out>
        <file id="file-132">
          <name>voice_113311.wav</name>
          <pathurl>file://localhost/C:/PROJECT_ROOT/assets/voice_113311.wav</pathurl>
          <rate><timebase>30</timebase></rate>
          <media>
             
             <audio>
                <samplecharacteristics>
                   <depth>16</depth>
                   <samplerate>44100</samplerate>
                </samplecharacteristics>
             </audio>
          </media>
        </file>
        
      </clipitem>

      <clipitem id="clipitem-195">
        <name>Voice 113312</name>
        <duration>98</duration>
        <rate><timebase>30</timebase></rate>
        <start>20955</start>
        <end>21053</end>
        <in>0</in>
        <out>98</out>
        <file id="file-134">
          <name>voice_113312.wav</name>
          <pathurl>file://localhost/C:/PROJECT_ROOT/assets/voice_113312.wav</pathurl>
          <rate><timebase>30</timebase></rate>
          <media>
             
             <audio>
                <samplecharacteristics>
                   <depth>16</depth>
                   <samplerate>44100</samplerate>
                </samplecharacteristics>
             </audio>
          </media>
        </file>
        
      </clipitem>

      <clipitem id="clipitem-197">
        <name>Voice 113313</name>
        <duration>117</duration>
        <rate><timebase>30</timebase></rate>
        <start>21053</start>
        <end>21170</end>
        <in>0</in>
        <out>117</out>
        <file id="file-135">
          <name>voice_113313.wav</name>
          <pathurl>file://localhost/C:/PROJECT_ROOT/assets/voice_113313.wav</pathurl>
          <rate><timebase>30</timebase></rate>
          <media>
             
             <audio>
                <samplecharacteristics>
                   <depth>16</depth>
                   <samplerate>44100</samplerate>
                </samplecharacteristics>
             </audio>
          </media>
        </file>
        
      </clipitem>

      <clipitem id="clipitem-199">
        <name>Voice 113314</name>
        <duration>144</duration>
        <rate><timebase>30</timebase></rate>
        <start>21170</start>
        <end>21314</end>
        <in>0</in>
        <out>144</out>
        <file id="file-137">
          <name>voice_113314.wav</name>
          <pathurl>file://localhost/C:/PROJECT_ROOT/assets/voice_113314.wav</pathurl>
          <rate><timebase>30</timebase></rate>
          <media>
             
             <audio>
                <samplecharacteristics>
                   <depth>16</depth>
                   <samplerate>44100</samplerate>
                </samplecharacteristics>
             </audio>
          </media>
        </file>
        
      </clipitem>

      <clipitem id="clipitem-201">
        <name>Voice 113315</name>
        <duration>111</duration>
        <rate><timebase>30</timebase></rate>
        <start>21314</start>
        <end>21425</end>
        <in>0</in>
        <out>111</out>
        <file id="file-138">
          <name>voice_113315.wav</name>
          <pathurl>file://localhost/C:/PROJECT_ROOT/assets/voice_113315.wav</pathurl>
          <rate><timebase>30</timebase></rate>
          <media>
             
             <audio>
                <samplecharacteristics>
                   <depth>16</depth>
                   <samplerate>44100</samplerate>
                </samplecharacteristics>
             </audio>
          </media>
        </file>
        
      </clipitem>

      <clipitem id="clipitem-203">
        <name>Voice 113316</name>
        <duration>171</duration>
        <rate><timebase>30</timebase></rate>
        <start>21425</start>
        <end>21596</end>
        <in>0</in>
        <out>171</out>
        <file id="file-139">
          <name>voice_113316.wav</name>
          <pathurl>file://localhost/C:/PROJECT_ROOT/assets/voice_113316.wav</pathurl>
          <rate><timebase>30</timebase></rate>
          <media>
             
             <audio>
                <samplecharacteristics>
                   <depth>16</depth>
                   <samplerate>44100</samplerate>
                </samplecharacteristics>
             </audio>
          </media>
        </file>
        
      </clipitem>

      <clipitem id="clipitem-205">
        <name>Voice 113317</name>
        <duration>190</duration>
        <rate><timebase>30</timebase></rate>
        <start>21596</start>
        <end>21786</end>
        <in>0</in>
        <out>190</out>
        <file id="file-141">
          <name>voice_113317.wav</name>
          <pathurl>file://localhost/C:/PROJECT_ROOT/assets/voice_113317.wav</pathurl>
          <rate><timebase>30</timebase></rate>
          <media>
             
             <audio>
                <samplecharacteristics>
                   <depth>16</depth>
                   <samplerate>44100</samplerate>
                </samplecharacteristics>
             </audio>
          </media>
        </file>
        
      </clipitem>

      <clipitem id="clipitem-207">
        <name>Voice 113318</name>
        <duration>123</duration>
        <rate><timebase>30</timebase></rate>
        <start>21786</start>
        <end>21909</end>
        <in>0</in>
        <out>123</out>
        <file id="file-143">
          <name>voice_113318.wav</name>
          <pathurl>file://localhost/C:/PROJECT_ROOT/assets/voice_113318.wav</pathurl>
          <rate><timebase>30</timebase></rate>
          <media>
             
             <audio>
                <samplecharacteristics>
                   <depth>16</depth>
                   <samplerate>44100</samplerate>
                </samplecharacteristics>
             </audio>
          </media>
        </file>
        
      </clipitem>

      <clipitem id="clipitem-209">
        <name>Voice 113319</name>
        <duration>45</duration>
        <rate><timebase>30</timebase></rate>
        <start>21909</start>
        <end>21954</end>
        <in>0</in>
        <out>45</out>
        <file id="file-144">
          <name>voice_113319.wav</name>
          <pathurl>file://localhost/C:/PROJECT_ROOT/assets/voice_113319.wav</pathurl>
          <rate><timebase>30</timebase></rate>
          <media>
             
             <audio>
                <samplecharacteristics>
                   <depth>16</depth>
                   <samplerate>44100</samplerate>
                </samplecharacteristics>
             </audio>
          </media>
        </file>
        
      </clipitem>

      <clipitem id="clipitem-211">
        <name>Voice 113320</name>
        <duration>61</duration>
        <rate><timebase>30</timebase></rate>
        <start>21954</start>
        <end>22015</end>
        <in>0</in>
        <out>61</out>
        <file id="file-145">
          <name>voice_113320.wav</name>
          <pathurl>file://localhost/C:/PROJECT_ROOT/assets/voice_113320.wav</pathurl>
          <rate><timebase>30</timebase></rate>
          <media>
             
             <audio>
                <samplecharacteristics>
                   <depth>16</depth>
                   <samplerate>44100</samplerate>
                </samplecharacteristics>
             </audio>
          </media>
        </file>
        
      </clipitem>

      <clipitem id="clipitem-213">
        <name>Voice 113321</name>
        <duration>140</duration>
        <rate><timebase>30</timebase></rate>
        <start>22015</start>
        <end>22155</end>
        <in>0</in>
        <out>140</out>
        <file id="file-146">
          <name>voice_113321.wav</name>
          <pathurl>file://localhost/C:/PROJECT_ROOT/assets/voice_113321.wav</pathurl>
          <rate><timebase>30</timebase></rate>
          <media>
             
             <audio>
                <samplecharacteristics>
                   <depth>16</depth>
                   <samplerate>44100</samplerate>
                </samplecharacteristics>
             </audio>
          </media>
        </file>
        
      </clipitem>

      <clipitem id="clipitem-215">
        <name>Voice 113322</name>
        <duration>29</duration>
        <rate><timebase>30</timebase></rate>
        <start>22155</start>
        <end>22184</end>
        <in>0</in>
        <out>29</out>
        <file id="file-148">
          <name>voice_113322.wav</name>
          <pathurl>file://localhost/C:/PROJECT_ROOT/assets/voice_113322.wav</pathurl>
          <rate><timebase>30</timebase></rate>
          <media>
             
             <audio>
                <samplecharacteristics>
                   <depth>16</depth>
                   <samplerate>44100</samplerate>
                </samplecharacteristics>
             </audio>
          </media>
        </file>
        
      </clipitem>

      <clipitem id="clipitem-217">
        <name>Voice 113323</name>
        <duration>131</duration>
        <rate><timebase>30</timebase></rate>
        <start>22184</start>
        <end>22315</end>
        <in>0</in>
        <out>131</out>
        <file id="file-149">
          <name>voice_113323.wav</name>
          <pathurl>file://localhost/C:/PROJECT_ROOT/assets/voice_113323.wav</pathurl>
          <rate><timebase>30</timebase></rate>
          <media>
             
             <audio>
                <samplecharacteristics>
                   <depth>16</depth>
                   <samplerate>44100</samplerate>
                </samplecharacteristics>
             </audio>
          </media>
        </file>
        
      </clipitem>

      <clipitem id="clipitem-219">
        <name>Voice 113324</name>
        <duration>72</duration>
        <rate><timebase>30</timebase></rate>
        <start>22315</start>
        <end>22387</end>
        <in>0</in>
        <out>72</out>
        <file id="file-150">
          <name>voice_113324.wav</name>
          <pathurl>file://localhost/C:/PROJECT_ROOT/assets/voice_113324.wav</pathurl>
          <rate><timebase>30</timebase></rate>
          <media>
             
             <audio>
                <samplecharacteristics>
                   <depth>16</depth>
                   <samplerate>44100</samplerate>
                </samplecharacteristics>
             </audio>
          </media>
        </file>
        
      </clipitem>

      <clipitem id="clipitem-220">
        <name>Voice 113325</name>
        <duration>160</duration>
        <rate><timebase>30</timebase></rate>
        <start>22387</start>
        <end>22547</end>
        <in>0</in>
        <out>160</out>
        <file id="file-151">
          <name>voice_113325.wav</name>
          <pathurl>file://localhost/C:/PROJECT_ROOT/assets/voice_113325.wav</pathurl>
          <rate><timebase>30</timebase></rate>
          <media>
             
             <audio>
                <samplecharacteristics>
                   <depth>16</depth>
                   <samplerate>44100</samplerate>
                </samplecharacteristics>
             </audio>
          </media>
        </file>
        
      </clipitem>

      <clipitem id="clipitem-222">
        <name>Voice 113326</name>
        <duration>96</duration>
        <rate><timebase>30</timebase></rate>
        <start>22547</start>
        <end>22643</end>
        <in>0</in>
        <out>96</out>
        <file id="file-152">
          <name>voice_113326.wav</name>
          <pathurl>file://localhost/C:/PROJECT_ROOT/assets/voice_113326.wav</pathurl>
          <rate><timebase>30</timebase></rate>
          <media>
             
             <audio>
                <samplecharacteristics>
                   <depth>16</depth>
                   <samplerate>44100</samplerate>
                </samplecharacteristics>
             </audio>
          </media>
        </file>
        
      </clipitem>

      <clipitem id="clipitem-224">
        <name>Voice 113327</name>
        <duration>29</duration>
        <rate><timebase>30</timebase></rate>
        <start>22643</start>
        <end>22672</end>
        <in>0</in>
        <out>29</out>
        <file id="file-153">
          <name>voice_113327.wav</name>
          <pathurl>file://localhost/C:/PROJECT_ROOT/assets/voice_113327.wav</pathurl>
          <rate><timebase>30</timebase></rate>
          <media>
             
             <audio>
                <samplecharacteristics>
                   <depth>16</depth>
                   <samplerate>44100</samplerate>
                </samplecharacteristics>
             </audio>
          </media>
        </file>
        
      </clipitem>

      <clipitem id="clipitem-226">
        <name>Voice 113328</name>
        <duration>49</duration>
        <rate><timebase>30</timebase></rate>
        <start>22672</start>
        <end>22721</end>
        <in>0</in>
        <out>49</out>
        <file id="file-154">
          <name>voice_113328.wav</name>
          <pathurl>file://localhost/C:/PROJECT_ROOT/assets/voice_113328.wav</pathurl>
          <rate><timebase>30</timebase></rate>
          <media>
             
             <audio>
                <samplecharacteristics>
                   <depth>16</depth>
                   <samplerate>44100</samplerate>
                </samplecharacteristics>
             </audio>
          </media>
        </file>
        
      </clipitem>

      <clipitem id="clipitem-228">
        <name>Voice 113329</name>
        <duration>62</duration>
        <rate><timebase>30</timebase></rate>
        <start>22721</start>
        <end>22783</end>
        <in>0</in>
        <out>62</out>
        <file id="file-155">
          <name>voice_113329.wav</name>
          <pathurl>file://localhost/C:/PROJECT_ROOT/assets/voice_113329.wav</pathurl>
          <rate><timebase>30</timebase></rate>
          <media>
             
             <audio>
                <samplecharacteristics>
                   <depth>16</depth>
                   <samplerate>44100</samplerate>
                </samplecharacteristics>
             </audio>
          </media>
        </file>
        
      </clipitem>

      <clipitem id="clipitem-230">
        <name>Voice 113332</name>
        <duration>41</duration>
        <rate><timebase>30</timebase></rate>
        <start>22783</start>
        <end>22824</end>
        <in>0</in>
        <out>41</out>
        <file id="file-156">
          <name>voice_113332.wav</name>
          <pathurl>file://localhost/C:/PROJECT_ROOT/assets/voice_113332.wav</pathurl>
          <rate><timebase>30</timebase></rate>
          <media>
             
             <audio>
                <samplecharacteristics>
                   <depth>16</depth>
                   <samplerate>44100</samplerate>
                </samplecharacteristics>
             </audio>
          </media>
        </file>
        
      </clipitem>

      <clipitem id="clipitem-232">
        <name>Voice 113333</name>
        <duration>164</duration>
        <rate><timebase>30</timebase></rate>
        <start>22824</start>
        <end>22988</end>
        <in>0</in>
        <out>164</out>
        <file id="file-157">
          <name>voice_113333.wav</name>
          <pathurl>file://localhost/C:/PROJECT_ROOT/assets/voice_113333.wav</pathurl>
          <rate><timebase>30</timebase></rate>
          <media>
             
             <audio>
                <samplecharacteristics>
                   <depth>16</depth>
                   <samplerate>44100</samplerate>
                </samplecharacteristics>
             </audio>
          </media>
        </file>
        
      </clipitem>

      <clipitem id="clipitem-234">
        <name>Voice 113330</name>
        <duration>200</duration>
        <rate><timebase>30</timebase></rate>
        <start>22988</start>
        <end>23188</end>
        <in>0</in>
        <out>200</out>
        <file id="file-158">
          <name>voice_113330.wav</name>
          <pathurl>file://localhost/C:/PROJECT_ROOT/assets/voice_113330.wav</pathurl>
          <rate><timebase>30</timebase></rate>
          <media>
             
             <audio>
                <samplecharacteristics>
                   <depth>16</depth>
                   <samplerate>44100</samplerate>
                </samplecharacteristics>
             </audio>
          </media>
        </file>
        
      </clipitem>

      <clipitem id="clipitem-236">
        <name>Voice 113331</name>
        <duration>160</duration>
        <rate><timebase>30</timebase></rate>
        <start>23248</start>
        <end>23408</end>
        <in>0</in>
        <out>160</out>
        <file id="file-159">
          <name>voice_113331.wav</name>
          <pathurl>file://localhost/C:/PROJECT_ROOT/assets/voice_113331.wav</pathurl>
          <rate><timebase>30</timebase></rate>
          <media>
             
             <audio>
                <samplecharacteristics>
                   <depth>16</depth>
                   <samplerate>44100</samplerate>
                </samplecharacteristics>
             </audio>
          </media>
        </file>
        
      </clipitem>

      <clipitem id="clipitem-238">
        <name>Voice 113334</name>
        <duration>77</duration>
        <rate><timebase>30</timebase></rate>
        <start>23408</start>
        <end>23485</end>
        <in>0</in>
        <out>77</out>
        <file id="file-160">
          <name>voice_113334.wav</name>
          <pathurl>file://localhost/C:/PROJECT_ROOT/assets/voice_113334.wav</pathurl>
          <rate><timebase>30</timebase></rate>
          <media>
             
             <audio>
                <samplecharacteristics>
                   <depth>16</depth>
                   <samplerate>44100</samplerate>
                </samplecharacteristics>
             </audio>
          </media>
        </file>
        
      </clipitem>

      <clipitem id="clipitem-239">
        <name>Voice 113335</name>
        <duration>121</duration>
        <rate><timebase>30</timebase></rate>
        <start>23485</start>
        <end>23606</end>
        <in>0</in>
        <out>121</out>
        <file id="file-161">
          <name>voice_113335.wav</name>
          <pathurl>file://localhost/C:/PROJECT_ROOT/assets/voice_113335.wav</pathurl>
          <rate><timebase>30</timebase></rate>
          <media>
             
             <audio>
                <samplecharacteristics>
                   <depth>16</depth>
                   <samplerate>44100</samplerate>
                </samplecharacteristics>
             </audio>
          </media>
        </file>
        
      </clipitem>

      <clipitem id="clipitem-241">
        <name>Voice 113336</name>
        <duration>85</duration>
        <rate><timebase>30</timebase></rate>
        <start>23606</start>
        <end>23691</end>
        <in>0</in>
        <out>85</out>
        <file id="file-162">
          <name>voice_113336.wav</name>
          <pathurl>file://localhost/C:/PROJECT_ROOT/assets/voice_113336.wav</pathurl>
          <rate><timebase>30</timebase></rate>
          <media>
             
             <audio>
                <samplecharacteristics>
                   <depth>16</depth>
                   <samplerate>44100</samplerate>
                </samplecharacteristics>
             </audio>
          </media>
        </file>
        
      </clipitem>

      <clipitem id="clipitem-243">
        <name>Voice 113337</name>
        <duration>136</duration>
        <rate><timebase>30</timebase></rate>
        <start>23691</start>
        <end>23827</end>
        <in>0</in>
        <out>136</out>
        <file id="file-163">
          <name>voice_113337.wav</name>
          <pathurl>file://localhost/C:/PROJECT_ROOT/assets/voice_113337.wav</pathurl>
          <rate><timebase>30</timebase></rate>
          <media>
             
             <audio>
                <samplecharacteristics>
                   <depth>16</depth>
                   <samplerate>44100</samplerate>
                </samplecharacteristics>
             </audio>
          </media>
        </file>
        
      </clipitem>

      <clipitem id="clipitem-245">
        <name>Voice 113338</name>
        <duration>84</duration>
        <rate><timebase>30</timebase></rate>
        <start>23827</start>
        <end>23911</end>
        <in>0</in>
        <out>84</out>
        <file id="file-164">
          <name>voice_113338.wav</name>
          <pathurl>file://localhost/C:/PROJECT_ROOT/assets/voice_113338.wav</pathurl>
          <rate><timebase>30</timebase></rate>
          <media>
             
             <audio>
                <samplecharacteristics>
                   <depth>16</depth>
                   <samplerate>44100</samplerate>
                </samplecharacteristics>
             </audio>
          </media>
        </file>
        
      </clipitem>

      <clipitem id="clipitem-246">
        <name>Voice 113339</name>
        <duration>33</duration>
        <rate><timebase>30</timebase></rate>
        <start>23911</start>
        <end>23944</end>
        <in>0</in>
        <out>33</out>
        <file id="file-165">
          <name>voice_113339.wav</name>
          <pathurl>file://localhost/C:/PROJECT_ROOT/assets/voice_113339.wav</pathurl>
          <rate><timebase>30</timebase></rate>
          <media>
             
             <audio>
                <samplecharacteristics>
                   <depth>16</depth>
                   <samplerate>44100</samplerate>
                </samplecharacteristics>
             </audio>
          </media>
        </file>
        
      </clipitem>

      <clipitem id="clipitem-249">
        <name>Voice 113341</name>
        <duration>107</duration>
        <rate><timebase>30</timebase></rate>
        <start>24116</start>
        <end>24223</end>
        <in>0</in>
        <out>107</out>
        <file id="file-166">
          <name>voice_113341.wav</name>
          <pathurl>file://localhost/C:/PROJECT_ROOT/assets/voice_113341.wav</pathurl>
          <rate><timebase>30</timebase></rate>
          <media>
             
             <audio>
                <samplecharacteristics>
                   <depth>16</depth>
                   <samplerate>44100</samplerate>
                </samplecharacteristics>
             </audio>
          </media>
        </file>
        
      </clipitem>

      <clipitem id="clipitem-251">
        <name>Voice 113342</name>
        <duration>192</duration>
        <rate><timebase>30</timebase></rate>
        <start>24223</start>
        <end>24415</end>
        <in>0</in>
        <out>192</out>
        <file id="file-167">
          <name>voice_113342.wav</name>
          <pathurl>file://localhost/C:/PROJECT_ROOT/assets/voice_113342.wav</pathurl>
          <rate><timebase>30</timebase></rate>
          <media>
             
             <audio>
                <samplecharacteristics>
                   <depth>16</depth>
                   <samplerate>44100</samplerate>
                </samplecharacteristics>
             </audio>
          </media>
        </file>
        
      </clipitem>

      <clipitem id="clipitem-253">
        <name>Voice 113343</name>
        <duration>100</duration>
        <rate><timebase>30</timebase></rate>
        <start>24415</start>
        <end>24515</end>
        <in>0</in>
        <out>100</out>
        <file id="file-168">
          <name>voice_113343.wav</name>
          <pathurl>file://localhost/C:/PROJECT_ROOT/assets/voice_113343.wav</pathurl>
          <rate><timebase>30</timebase></rate>
          <media>
             
             <audio>
                <samplecharacteristics>
                   <depth>16</depth>
                   <samplerate>44100</samplerate>
                </samplecharacteristics>
             </audio>
          </media>
        </file>
        
      </clipitem>

      <clipitem id="clipitem-255">
        <name>Voice 113344</name>
        <duration>199</duration>
        <rate><timebase>30</timebase></rate>
        <start>24515</start>
        <end>24714</end>
        <in>0</in>
        <out>199</out>
        <file id="file-169">
          <name>voice_113344.wav</name>
          <pathurl>file://localhost/C:/PROJECT_ROOT/assets/voice_113344.wav</pathurl>
          <rate><timebase>30</timebase></rate>
          <media>
             
             <audio>
                <samplecharacteristics>
                   <depth>16</depth>
                   <samplerate>44100</samplerate>
                </samplecharacteristics>
             </audio>
          </media>
        </file>
        
      </clipitem>

      <clipitem id="clipitem-257">
        <name>Voice 113345</name>
        <duration>198</duration>
        <rate><timebase>30</timebase></rate>
        <start>24774</start>
        <end>24972</end>
        <in>0</in>
        <out>198</out>
        <file id="file-170">
          <name>voice_113345.wav</name>
          <pathurl>file://localhost/C:/PROJECT_ROOT/assets/voice_113345.wav</pathurl>
          <rate><timebase>30</timebase></rate>
          <media>
             
             <audio>
                <samplecharacteristics>
                   <depth>16</depth>
                   <samplerate>44100</samplerate>
                </samplecharacteristics>
             </audio>
          </media>
        </file>
        
      </clipitem>

      <clipitem id="clipitem-258">
        <name>Voice 113346</name>
        <duration>134</duration>
        <rate><timebase>30</timebase></rate>
        <start>24972</start>
        <end>25106</end>
        <in>0</in>
        <out>134</out>
        <file id="file-171">
          <name>voice_113346.wav</name>
          <pathurl>file://localhost/C:/PROJECT_ROOT/assets/voice_113346.wav</pathurl>
          <rate><timebase>30</timebase></rate>
          <media>
             
             <audio>
                <samplecharacteristics>
                   <depth>16</depth>
                   <samplerate>44100</samplerate>
                </samplecharacteristics>
             </audio>
          </media>
        </file>
        
      </clipitem>

      <clipitem id="clipitem-259">
        <name>Voice 113347</name>
        <duration>129</duration>
        <rate><timebase>30</timebase></rate>
        <start>25106</start>
        <end>25235</end>
        <in>0</in>
        <out>129</out>
        <file id="file-172">
          <name>voice_113347.wav</name>
          <pathurl>file://localhost/C:/PROJECT_ROOT/assets/voice_113347.wav</pathurl>
          <rate><timebase>30</timebase></rate>
          <media>
             
             <audio>
                <samplecharacteristics>
                   <depth>16</depth>
                   <samplerate>44100</samplerate>
                </samplecharacteristics>
             </audio>
          </media>
        </file>
        
      </clipitem>

      <clipitem id="clipitem-260">
        <name>Voice 113348</name>
        <duration>299</duration>
        <rate><timebase>30</timebase></rate>
        <start>25235</start>
        <end>25534</end>
        <in>0</in>
        <out>299</out>
        <file id="file-173">
          <name>voice_113348.wav</name>
          <pathurl>file://localhost/C:/PROJECT_ROOT/assets/voice_113348.wav</pathurl>
          <rate><timebase>30</timebase></rate>
          <media>
             
             <audio>
                <samplecharacteristics>
                   <depth>16</depth>
                   <samplerate>44100</samplerate>
                </samplecharacteristics>
             </audio>
          </media>
        </file>
        
      </clipitem>

      <clipitem id="clipitem-261">
        <name>Voice 113353</name>
        <duration>252</duration>
        <rate><timebase>30</timebase></rate>
        <start>25534</start>
        <end>25786</end>
        <in>0</in>
        <out>252</out>
        <file id="file-174">
          <name>voice_113353.wav</name>
          <pathurl>file://localhost/C:/PROJECT_ROOT/assets/voice_113353.wav</pathurl>
          <rate><timebase>30</timebase></rate>
          <media>
             
             <audio>
                <samplecharacteristics>
                   <depth>16</depth>
                   <samplerate>44100</samplerate>
                </samplecharacteristics>
             </audio>
          </media>
        </file>
        
      </clipitem>

      <clipitem id="clipitem-263">
        <name>Voice 113349</name>
        <duration>77</duration>
        <rate><timebase>30</timebase></rate>
        <start>25786</start>
        <end>25863</end>
        <in>0</in>
        <out>77</out>
        <file id="file-175">
          <name>voice_113349.wav</name>
          <pathurl>file://localhost/C:/PROJECT_ROOT/assets/voice_113349.wav</pathurl>
          <rate><timebase>30</timebase></rate>
          <media>
             
             <audio>
                <samplecharacteristics>
                   <depth>16</depth>
                   <samplerate>44100</samplerate>
                </samplecharacteristics>
             </audio>
          </media>
        </file>
        
      </clipitem>

      <clipitem id="clipitem-265">
        <name>Voice 113350</name>
        <duration>117</duration>
        <rate><timebase>30</timebase></rate>
        <start>25863</start>
        <end>25980</end>
        <in>0</in>
        <out>117</out>
        <file id="file-177">
          <name>voice_113350.wav</name>
          <pathurl>file://localhost/C:/PROJECT_ROOT/assets/voice_113350.wav</pathurl>
          <rate><timebase>30</timebase></rate>
          <media>
             
             <audio>
                <samplecharacteristics>
                   <depth>16</depth>
                   <samplerate>44100</samplerate>
                </samplecharacteristics>
             </audio>
          </media>
        </file>
        
      </clipitem>

      <clipitem id="clipitem-267">
        <name>Voice 113351</name>
        <duration>71</duration>
        <rate><timebase>30</timebase></rate>
        <start>25980</start>
        <end>26051</end>
        <in>0</in>
        <out>71</out>
        <file id="file-178">
          <name>voice_113351.wav</name>
          <pathurl>file://localhost/C:/PROJECT_ROOT/assets/voice_113351.wav</pathurl>
          <rate><timebase>30</timebase></rate>
          <media>
             
             <audio>
                <samplecharacteristics>
                   <depth>16</depth>
                   <samplerate>44100</samplerate>
                </samplecharacteristics>
             </audio>
          </media>
        </file>
        
      </clipitem>

      <clipitem id="clipitem-269">
        <name>Voice 113352</name>
        <duration>34</duration>
        <rate><timebase>30</timebase></rate>
        <start>26051</start>
        <end>26085</end>
        <in>0</in>
        <out>34</out>
        <file id="file-179">
          <name>voice_113352.wav</name>
          <pathurl>file://localhost/C:/PROJECT_ROOT/assets/voice_113352.wav</pathurl>
          <rate><timebase>30</timebase></rate>
          <media>
             
             <audio>
                <samplecharacteristics>
                   <depth>16</depth>
                   <samplerate>44100</samplerate>
                </samplecharacteristics>
             </audio>
          </media>
        </file>
        
      </clipitem>

      <clipitem id="clipitem-271">
        <name>Voice 113354</name>
        <duration>152</duration>
        <rate><timebase>30</timebase></rate>
        <start>26085</start>
        <end>26237</end>
        <in>0</in>
        <out>152</out>
        <file id="file-180">
          <name>voice_113354.wav</name>
          <pathurl>file://localhost/C:/PROJECT_ROOT/assets/voice_113354.wav</pathurl>
          <rate><timebase>30</timebase></rate>
          <media>
             
             <audio>
                <samplecharacteristics>
                   <depth>16</depth>
                   <samplerate>44100</samplerate>
                </samplecharacteristics>
             </audio>
          </media>
        </file>
        
      </clipitem>

      <clipitem id="clipitem-273">
        <name>Voice 113355</name>
        <duration>107</duration>
        <rate><timebase>30</timebase></rate>
        <start>26237</start>
        <end>26344</end>
        <in>0</in>
        <out>107</out>
        <file id="file-181">
          <name>voice_113355.wav</name>
          <pathurl>file://localhost/C:/PROJECT_ROOT/assets/voice_113355.wav</pathurl>
          <rate><timebase>30</timebase></rate>
          <media>
             
             <audio>
                <samplecharacteristics>
                   <depth>16</depth>
                   <samplerate>44100</samplerate>
                </samplecharacteristics>
             </audio>
          </media>
        </file>
        
      </clipitem>

      <clipitem id="clipitem-275">
        <name>Voice 113356</name>
        <duration>93</duration>
        <rate><timebase>30</timebase></rate>
        <start>26344</start>
        <end>26437</end>
        <in>0</in>
        <out>93</out>
        <file id="file-182">
          <name>voice_113356.wav</name>
          <pathurl>file://localhost/C:/PROJECT_ROOT/assets/voice_113356.wav</pathurl>
          <rate><timebase>30</timebase></rate>
          <media>
             
             <audio>
                <samplecharacteristics>
                   <depth>16</depth>
                   <samplerate>44100</samplerate>
                </samplecharacteristics>
             </audio>
          </media>
        </file>
        
      </clipitem>

      <clipitem id="clipitem-277">
        <name>Voice 113357</name>
        <duration>135</duration>
        <rate><timebase>30</timebase></rate>
        <start>26437</start>
        <end>26572</end>
        <in>0</in>
        <out>135</out>
        <file id="file-183">
          <name>voice_113357.wav</name>
          <pathurl>file://localhost/C:/PROJECT_ROOT/assets/voice_113357.wav</pathurl>
          <rate><timebase>30</timebase></rate>
          <media>
             
             <audio>
                <samplecharacteristics>
                   <depth>16</depth>
                   <samplerate>44100</samplerate>
                </samplecharacteristics>
             </audio>
          </media>
        </file>
        
      </clipitem>

      <clipitem id="clipitem-279">
        <name>Voice 113358</name>
        <duration>130</duration>
        <rate><timebase>30</timebase></rate>
        <start>26572</start>
        <end>26702</end>
        <in>0</in>
        <out>130</out>
        <file id="file-184">
          <name>voice_113358.wav</name>
          <pathurl>file://localhost/C:/PROJECT_ROOT/assets/voice_113358.wav</pathurl>
          <rate><timebase>30</timebase></rate>
          <media>
             
             <audio>
                <samplecharacteristics>
                   <depth>16</depth>
                   <samplerate>44100</samplerate>
                </samplecharacteristics>
             </audio>
          </media>
        </file>
        
      </clipitem>

      <clipitem id="clipitem-281">
        <name>Voice 113359</name>
        <duration>105</duration>
        <rate><timebase>30</timebase></rate>
        <start>26702</start>
        <end>26807</end>
        <in>0</in>
        <out>105</out>
        <file id="file-185">
          <name>voice_113359.wav</name>
          <pathurl>file://localhost/C:/PROJECT_ROOT/assets/voice_113359.wav</pathurl>
          <rate><timebase>30</timebase></rate>
          <media>
             
             <audio>
                <samplecharacteristics>
                   <depth>16</depth>
                   <samplerate>44100</samplerate>
                </samplecharacteristics>
             </audio>
          </media>
        </file>
        
      </clipitem>

      <clipitem id="clipitem-282">
        <name>Voice 113361</name>
        <duration>140</duration>
        <rate><timebase>30</timebase></rate>
        <start>26807</start>
        <end>26947</end>
        <in>0</in>
        <out>140</out>
        <file id="file-186">
          <name>voice_113361.wav</name>
          <pathurl>file://localhost/C:/PROJECT_ROOT/assets/voice_113361.wav</pathurl>
          <rate><timebase>30</timebase></rate>
          <media>
             
             <audio>
                <samplecharacteristics>
                   <depth>16</depth>
                   <samplerate>44100</samplerate>
                </samplecharacteristics>
             </audio>
          </media>
        </file>
        
      </clipitem>

      <clipitem id="clipitem-284">
        <name>Voice 113363</name>
        <duration>72</duration>
        <rate><timebase>30</timebase></rate>
        <start>26947</start>
        <end>27019</end>
        <in>0</in>
        <out>72</out>
        <file id="file-187">
          <name>voice_113363.wav</name>
          <pathurl>file://localhost/C:/PROJECT_ROOT/assets/voice_113363.wav</pathurl>
          <rate><timebase>30</timebase></rate>
          <media>
             
             <audio>
                <samplecharacteristics>
                   <depth>16</depth>
                   <samplerate>44100</samplerate>
                </samplecharacteristics>
             </audio>
          </media>
        </file>
        
      </clipitem>

      <clipitem id="clipitem-285">
        <name>Voice 113364</name>
        <duration>194</duration>
        <rate><timebase>30</timebase></rate>
        <start>27019</start>
        <end>27213</end>
        <in>0</in>
        <out>194</out>
        <file id="file-188">
          <name>voice_113364.wav</name>
          <pathurl>file://localhost/C:/PROJECT_ROOT/assets/voice_113364.wav</pathurl>
          <rate><timebase>30</timebase></rate>
          <media>
             
             <audio>
                <samplecharacteristics>
                   <depth>16</depth>
                   <samplerate>44100</samplerate>
                </samplecharacteristics>
             </audio>
          </media>
        </file>
        
      </clipitem>

      <clipitem id="clipitem-287">
        <name>Voice 113365</name>
        <duration>79</duration>
        <rate><timebase>30</timebase></rate>
        <start>27213</start>
        <end>27292</end>
        <in>0</in>
        <out>79</out>
        <file id="file-189">
          <name>voice_113365.wav</name>
          <pathurl>file://localhost/C:/PROJECT_ROOT/assets/voice_113365.wav</pathurl>
          <rate><timebase>30</timebase></rate>
          <media>
             
             <audio>
                <samplecharacteristics>
                   <depth>16</depth>
                   <samplerate>44100</samplerate>
                </samplecharacteristics>
             </audio>
          </media>
        </file>
        
      </clipitem>

      <clipitem id="clipitem-289">
        <name>Voice 113360</name>
        <duration>46</duration>
        <rate><timebase>30</timebase></rate>
        <start>27292</start>
        <end>27338</end>
        <in>0</in>
        <out>46</out>
        <file id="file-191">
          <name>voice_113360.wav</name>
          <pathurl>file://localhost/C:/PROJECT_ROOT/assets/voice_113360.wav</pathurl>
          <rate><timebase>30</timebase></rate>
          <media>
             
             <audio>
                <samplecharacteristics>
                   <depth>16</depth>
                   <samplerate>44100</samplerate>
                </samplecharacteristics>
             </audio>
          </media>
        </file>
        
      </clipitem>

      <clipitem id="clipitem-291">
        <name>Voice 113362</name>
        <duration>227</duration>
        <rate><timebase>30</timebase></rate>
        <start>27338</start>
        <end>27565</end>
        <in>0</in>
        <out>227</out>
        <file id="file-192">
          <name>voice_113362.wav</name>
          <pathurl>file://localhost/C:/PROJECT_ROOT/assets/voice_113362.wav</pathurl>
          <rate><timebase>30</timebase></rate>
          <media>
             
             <audio>
                <samplecharacteristics>
                   <depth>16</depth>
                   <samplerate>44100</samplerate>
                </samplecharacteristics>
             </audio>
          </media>
        </file>
        
      </clipitem>

      <clipitem id="clipitem-292">
        <name>Voice 113524</name>
        <duration>157</duration>
        <rate><timebase>30</timebase></rate>
        <start>27565</start>
        <end>27722</end>
        <in>0</in>
        <out>157</out>
        <file id="file-193">
          <name>voice_113524.wav</name>
          <pathurl>file://localhost/C:/PROJECT_ROOT/assets/voice_113524.wav</pathurl>
          <rate><timebase>30</timebase></rate>
          <media>
             
             <audio>
                <samplecharacteristics>
                   <depth>16</depth>
                   <samplerate>44100</samplerate>
                </samplecharacteristics>
             </audio>
          </media>
        </file>
        
      </clipitem>

      <clipitem id="clipitem-294">
        <name>Voice 113366</name>
        <duration>140</duration>
        <rate><timebase>30</timebase></rate>
        <start>27722</start>
        <end>27862</end>
        <in>0</in>
        <out>140</out>
        <file id="file-195">
          <name>voice_113366.wav</name>
          <pathurl>file://localhost/C:/PROJECT_ROOT/assets/voice_113366.wav</pathurl>
          <rate><timebase>30</timebase></rate>
          <media>
             
             <audio>
                <samplecharacteristics>
                   <depth>16</depth>
                   <samplerate>44100</samplerate>
                </samplecharacteristics>
             </audio>
          </media>
        </file>
        
      </clipitem>

      <clipitem id="clipitem-296">
        <name>Voice 113367</name>
        <duration>144</duration>
        <rate><timebase>30</timebase></rate>
        <start>27862</start>
        <end>28006</end>
        <in>0</in>
        <out>144</out>
        <file id="file-196">
          <name>voice_113367.wav</name>
          <pathurl>file://localhost/C:/PROJECT_ROOT/assets/voice_113367.wav</pathurl>
          <rate><timebase>30</timebase></rate>
          <media>
             
             <audio>
                <samplecharacteristics>
                   <depth>16</depth>
                   <samplerate>44100</samplerate>
                </samplecharacteristics>
             </audio>
          </media>
        </file>
        
      </clipitem>

      <clipitem id="clipitem-298">
        <name>Voice 113368</name>
        <duration>35</duration>
        <rate><timebase>30</timebase></rate>
        <start>28006</start>
        <end>28041</end>
        <in>0</in>
        <out>35</out>
        <file id="file-197">
          <name>voice_113368.wav</name>
          <pathurl>file://localhost/C:/PROJECT_ROOT/assets/voice_113368.wav</pathurl>
          <rate><timebase>30</timebase></rate>
          <media>
             
             <audio>
                <samplecharacteristics>
                   <depth>16</depth>
                   <samplerate>44100</samplerate>
                </samplecharacteristics>
             </audio>
          </media>
        </file>
        
      </clipitem>

      <clipitem id="clipitem-300">
        <name>Voice 113369</name>
        <duration>148</duration>
        <rate><timebase>30</timebase></rate>
        <start>28041</start>
        <end>28189</end>
        <in>0</in>
        <out>148</out>
        <file id="file-198">
          <name>voice_113369.wav</name>
          <pathurl>file://localhost/C:/PROJECT_ROOT/assets/voice_113369.wav</pathurl>
          <rate><timebase>30</timebase></rate>
          <media>
             
             <audio>
                <samplecharacteristics>
                   <depth>16</depth>
                   <samplerate>44100</samplerate>
                </samplecharacteristics>
             </audio>
          </media>
        </file>
        
      </clipitem>

      <clipitem id="clipitem-302">
        <name>Voice 113371</name>
        <duration>92</duration>
        <rate><timebase>30</timebase></rate>
        <start>28189</start>
        <end>28281</end>
        <in>0</in>
        <out>92</out>
        <file id="file-199">
          <name>voice_113371.wav</name>
          <pathurl>file://localhost/C:/PROJECT_ROOT/assets/voice_113371.wav</pathurl>
          <rate><timebase>30</timebase></rate>
          <media>
             
             <audio>
                <samplecharacteristics>
                   <depth>16</depth>
                   <samplerate>44100</samplerate>
                </samplecharacteristics>
             </audio>
          </media>
        </file>
        
      </clipitem>

      <clipitem id="clipitem-304">
        <name>Voice 113374</name>
        <duration>277</duration>
        <rate><timebase>30</timebase></rate>
        <start>28281</start>
        <end>28558</end>
        <in>0</in>
        <out>277</out>
        <file id="file-200">
          <name>voice_113374.wav</name>
          <pathurl>file://localhost/C:/PROJECT_ROOT/assets/voice_113374.wav</pathurl>
          <rate><timebase>30</timebase></rate>
          <media>
             
             <audio>
                <samplecharacteristics>
                   <depth>16</depth>
                   <samplerate>44100</samplerate>
                </samplecharacteristics>
             </audio>
          </media>
        </file>
        
      </clipitem>

      <clipitem id="clipitem-306">
        <name>Voice 113370</name>
        <duration>151</duration>
        <rate><timebase>30</timebase></rate>
        <start>28558</start>
        <end>28709</end>
        <in>0</in>
        <out>151</out>
        <file id="file-201">
          <name>voice_113370.wav</name>
          <pathurl>file://localhost/C:/PROJECT_ROOT/assets/voice_113370.wav</pathurl>
          <rate><timebase>30</timebase></rate>
          <media>
             
             <audio>
                <samplecharacteristics>
                   <depth>16</depth>
                   <samplerate>44100</samplerate>
                </samplecharacteristics>
             </audio>
          </media>
        </file>
        
      </clipitem>

      <clipitem id="clipitem-308">
        <name>Voice 113372</name>
        <duration>221</duration>
        <rate><timebase>30</timebase></rate>
        <start>28709</start>
        <end>28930</end>
        <in>0</in>
        <out>221</out>
        <file id="file-202">
          <name>voice_113372.wav</name>
          <pathurl>file://localhost/C:/PROJECT_ROOT/assets/voice_113372.wav</pathurl>
          <rate><timebase>30</timebase></rate>
          <media>
             
             <audio>
                <samplecharacteristics>
                   <depth>16</depth>
                   <samplerate>44100</samplerate>
                </samplecharacteristics>
             </audio>
          </media>
        </file>
        
      </clipitem>

      <clipitem id="clipitem-310">
        <name>Voice 113373</name>
        <duration>58</duration>
        <rate><timebase>30</timebase></rate>
        <start>28930</start>
        <end>28988</end>
        <in>0</in>
        <out>58</out>
        <file id="file-203">
          <name>voice_113373.wav</name>
          <pathurl>file://localhost/C:/PROJECT_ROOT/assets/voice_113373.wav</pathurl>
          <rate><timebase>30</timebase></rate>
          <media>
             
             <audio>
                <samplecharacteristics>
                   <depth>16</depth>
                   <samplerate>44100</samplerate>
                </samplecharacteristics>
             </audio>
          </media>
        </file>
        
      </clipitem>

      <clipitem id="clipitem-312">
        <name>Voice 113376</name>
        <duration>26</duration>
        <rate><timebase>30</timebase></rate>
        <start>28988</start>
        <end>29014</end>
        <in>0</in>
        <out>26</out>
        <file id="file-204">
          <name>voice_113376.wav</name>
          <pathurl>file://localhost/C:/PROJECT_ROOT/assets/voice_113376.wav</pathurl>
          <rate><timebase>30</timebase></rate>
          <media>
             
             <audio>
                <samplecharacteristics>
                   <depth>16</depth>
                   <samplerate>44100</samplerate>
                </samplecharacteristics>
             </audio>
          </media>
        </file>
        
      </clipitem>

      <clipitem id="clipitem-313">
        <name>Voice 113375</name>
        <duration>284</duration>
        <rate><timebase>30</timebase></rate>
        <start>29014</start>
        <end>29298</end>
        <in>0</in>
        <out>284</out>
        <file id="file-205">
          <name>voice_113375.wav</name>
          <pathurl>file://localhost/C:/PROJECT_ROOT/assets/voice_113375.wav</pathurl>
          <rate><timebase>30</timebase></rate>
          <media>
             
             <audio>
                <samplecharacteristics>
                   <depth>16</depth>
                   <samplerate>44100</samplerate>
                </samplecharacteristics>
             </audio>
          </media>
        </file>
        
      </clipitem>

      <clipitem id="clipitem-315">
        <name>Voice 113377</name>
        <duration>159</duration>
        <rate><timebase>30</timebase></rate>
        <start>29298</start>
        <end>29457</end>
        <in>0</in>
        <out>159</out>
        <file id="file-207">
          <name>voice_113377.wav</name>
          <pathurl>file://localhost/C:/PROJECT_ROOT/assets/voice_113377.wav</pathurl>
          <rate><timebase>30</timebase></rate>
          <media>
             
             <audio>
                <samplecharacteristics>
                   <depth>16</depth>
                   <samplerate>44100</samplerate>
                </samplecharacteristics>
             </audio>
          </media>
        </file>
        
      </clipitem>

      <clipitem id="clipitem-317">
        <name>Voice 113378</name>
        <duration>62</duration>
        <rate><timebase>30</timebase></rate>
        <start>29457</start>
        <end>29519</end>
        <in>0</in>
        <out>62</out>
        <file id="file-208">
          <name>voice_113378.wav</name>
          <pathurl>file://localhost/C:/PROJECT_ROOT/assets/voice_113378.wav</pathurl>
          <rate><timebase>30</timebase></rate>
          <media>
             
             <audio>
                <samplecharacteristics>
                   <depth>16</depth>
                   <samplerate>44100</samplerate>
                </samplecharacteristics>
             </audio>
          </media>
        </file>
        
      </clipitem>

      <clipitem id="clipitem-319">
        <name>Voice 113379</name>
        <duration>198</duration>
        <rate><timebase>30</timebase></rate>
        <start>29519</start>
        <end>29717</end>
        <in>0</in>
        <out>198</out>
        <file id="file-209">
          <name>voice_113379.wav</name>
          <pathurl>file://localhost/C:/PROJECT_ROOT/assets/voice_113379.wav</pathurl>
          <rate><timebase>30</timebase></rate>
          <media>
             
             <audio>
                <samplecharacteristics>
                   <depth>16</depth>
                   <samplerate>44100</samplerate>
                </samplecharacteristics>
             </audio>
          </media>
        </file>
        
      </clipitem>

      <clipitem id="clipitem-321">
        <name>Voice 113380</name>
        <duration>279</duration>
        <rate><timebase>30</timebase></rate>
        <start>29777</start>
        <end>30056</end>
        <in>0</in>
        <out>279</out>
        <file id="file-210">
          <name>voice_113380.wav</name>
          <pathurl>file://localhost/C:/PROJECT_ROOT/assets/voice_113380.wav</pathurl>
          <rate><timebase>30</timebase></rate>
          <media>
             
             <audio>
                <samplecharacteristics>
                   <depth>16</depth>
                   <samplerate>44100</samplerate>
                </samplecharacteristics>
             </audio>
          </media>
        </file>
        
      </clipitem>

      <clipitem id="clipitem-323">
        <name>Voice 113381</name>
        <duration>145</duration>
        <rate><timebase>30</timebase></rate>
        <start>30056</start>
        <end>30201</end>
        <in>0</in>
        <out>145</out>
        <file id="file-211">
          <name>voice_113381.wav</name>
          <pathurl>file://localhost/C:/PROJECT_ROOT/assets/voice_113381.wav</pathurl>
          <rate><timebase>30</timebase></rate>
          <media>
             
             <audio>
                <samplecharacteristics>
                   <depth>16</depth>
                   <samplerate>44100</samplerate>
                </samplecharacteristics>
             </audio>
          </media>
        </file>
        
      </clipitem>

      <clipitem id="clipitem-325">
        <name>Voice 113382</name>
        <duration>108</duration>
        <rate><timebase>30</timebase></rate>
        <start>30201</start>
        <end>30309</end>
        <in>0</in>
        <out>108</out>
        <file id="file-212">
          <name>voice_113382.wav</name>
          <pathurl>file://localhost/C:/PROJECT_ROOT/assets/voice_113382.wav</pathurl>
          <rate><timebase>30</timebase></rate>
          <media>
             
             <audio>
                <samplecharacteristics>
                   <depth>16</depth>
                   <samplerate>44100</samplerate>
                </samplecharacteristics>
             </audio>
          </media>
        </file>
        
      </clipitem>

      <clipitem id="clipitem-327">
        <name>Voice 113383</name>
        <duration>82</duration>
        <rate><timebase>30</timebase></rate>
        <start>30309</start>
        <end>30391</end>
        <in>0</in>
        <out>82</out>
        <file id="file-213">
          <name>voice_113383.wav</name>
          <pathurl>file://localhost/C:/PROJECT_ROOT/assets/voice_113383.wav</pathurl>
          <rate><timebase>30</timebase></rate>
          <media>
             
             <audio>
                <samplecharacteristics>
                   <depth>16</depth>
                   <samplerate>44100</samplerate>
                </samplecharacteristics>
             </audio>
          </media>
        </file>
        
      </clipitem>

      <clipitem id="clipitem-328">
        <name>Voice 113384</name>
        <duration>137</duration>
        <rate><timebase>30</timebase></rate>
        <start>30391</start>
        <end>30528</end>
        <in>0</in>
        <out>137</out>
        <file id="file-214">
          <name>voice_113384.wav</name>
          <pathurl>file://localhost/C:/PROJECT_ROOT/assets/voice_113384.wav</pathurl>
          <rate><timebase>30</timebase></rate>
          <media>
             
             <audio>
                <samplecharacteristics>
                   <depth>16</depth>
                   <samplerate>44100</samplerate>
                </samplecharacteristics>
             </audio>
          </media>
        </file>
        
      </clipitem>

      <clipitem id="clipitem-330">
        <name>Voice 113385</name>
        <duration>254</duration>
        <rate><timebase>30</timebase></rate>
        <start>30528</start>
        <end>30782</end>
        <in>0</in>
        <out>254</out>
        <file id="file-215">
          <name>voice_113385.wav</name>
          <pathurl>file://localhost/C:/PROJECT_ROOT/assets/voice_113385.wav</pathurl>
          <rate><timebase>30</timebase></rate>
          <media>
             
             <audio>
                <samplecharacteristics>
                   <depth>16</depth>
                   <samplerate>44100</samplerate>
                </samplecharacteristics>
             </audio>
          </media>
        </file>
        
      </clipitem>

      <clipitem id="clipitem-332">
        <name>Voice 113386</name>
        <duration>248</duration>
        <rate><timebase>30</timebase></rate>
        <start>30782</start>
        <end>31030</end>
        <in>0</in>
        <out>248</out>
        <file id="file-216">
          <name>voice_113386.wav</name>
          <pathurl>file://localhost/C:/PROJECT_ROOT/assets/voice_113386.wav</pathurl>
          <rate><timebase>30</timebase></rate>
          <media>
             
             <audio>
                <samplecharacteristics>
                   <depth>16</depth>
                   <samplerate>44100</samplerate>
                </samplecharacteristics>
             </audio>
          </media>
        </file>
        
      </clipitem>

      <clipitem id="clipitem-334">
        <name>Voice 113387</name>
        <duration>170</duration>
        <rate><timebase>30</timebase></rate>
        <start>31030</start>
        <end>31200</end>
        <in>0</in>
        <out>170</out>
        <file id="file-217">
          <name>voice_113387.wav</name>
          <pathurl>file://localhost/C:/PROJECT_ROOT/assets/voice_113387.wav</pathurl>
          <rate><timebase>30</timebase></rate>
          <media>
             
             <audio>
                <samplecharacteristics>
                   <depth>16</depth>
                   <samplerate>44100</samplerate>
                </samplecharacteristics>
             </audio>
          </media>
        </file>
        
      </clipitem>

      <clipitem id="clipitem-336">
        <name>Voice 113388</name>
        <duration>185</duration>
        <rate><timebase>30</timebase></rate>
        <start>31200</start>
        <end>31385</end>
        <in>0</in>
        <out>185</out>
        <file id="file-218">
          <name>voice_113388.wav</name>
          <pathurl>file://localhost/C:/PROJECT_ROOT/assets/voice_113388.wav</pathurl>
          <rate><timebase>30</timebase></rate>
          <media>
             
             <audio>
                <samplecharacteristics>
                   <depth>16</depth>
                   <samplerate>44100</samplerate>
                </samplecharacteristics>
             </audio>
          </media>
        </file>
        
      </clipitem>

      <clipitem id="clipitem-338">
        <name>Voice 113389</name>
        <duration>193</duration>
        <rate><timebase>30</timebase></rate>
        <start>31385</start>
        <end>31578</end>
        <in>0</in>
        <out>193</out>
        <file id="file-219">
          <name>voice_113389.wav</name>
          <pathurl>file://localhost/C:/PROJECT_ROOT/assets/voice_113389.wav</pathurl>
          <rate><timebase>30</timebase></rate>
          <media>
             
             <audio>
                <samplecharacteristics>
                   <depth>16</depth>
                   <samplerate>44100</samplerate>
                </samplecharacteristics>
             </audio>
          </media>
        </file>
        
      </clipitem>

      <clipitem id="clipitem-340">
        <name>Voice 113390</name>
        <duration>66</duration>
        <rate><timebase>30</timebase></rate>
        <start>31578</start>
        <end>31644</end>
        <in>0</in>
        <out>66</out>
        <file id="file-220">
          <name>voice_113390.wav</name>
          <pathurl>file://localhost/C:/PROJECT_ROOT/assets/voice_113390.wav</pathurl>
          <rate><timebase>30</timebase></rate>
          <media>
             
             <audio>
                <samplecharacteristics>
                   <depth>16</depth>
                   <samplerate>44100</samplerate>
                </samplecharacteristics>
             </audio>
          </media>
        </file>
        
      </clipitem>

      <clipitem id="clipitem-341">
        <name>Voice 113391</name>
        <duration>278</duration>
        <rate><timebase>30</timebase></rate>
        <start>31644</start>
        <end>31922</end>
        <in>0</in>
        <out>278</out>
        <file id="file-221">
          <name>voice_113391.wav</name>
          <pathurl>file://localhost/C:/PROJECT_ROOT/assets/voice_113391.wav</pathurl>
          <rate><timebase>30</timebase></rate>
          <media>
             
             <audio>
                <samplecharacteristics>
                   <depth>16</depth>
                   <samplerate>44100</samplerate>
                </samplecharacteristics>
             </audio>
          </media>
        </file>
        
      </clipitem>

      <clipitem id="clipitem-343">
        <name>Voice 113392</name>
        <duration>93</duration>
        <rate><timebase>30</timebase></rate>
        <start>31922</start>
        <end>32015</end>
        <in>0</in>
        <out>93</out>
        <file id="file-222">
          <name>voice_113392.wav</name>
          <pathurl>file://localhost/C:/PROJECT_ROOT/assets/voice_113392.wav</pathurl>
          <rate><timebase>30</timebase></rate>
          <media>
             
             <audio>
                <samplecharacteristics>
                   <depth>16</depth>
                   <samplerate>44100</samplerate>
                </samplecharacteristics>
             </audio>
          </media>
        </file>
        
      </clipitem>

      <clipitem id="clipitem-345">
        <name>Voice 113393</name>
        <duration>200</duration>
        <rate><timebase>30</timebase></rate>
        <start>32015</start>
        <end>32215</end>
        <in>0</in>
        <out>200</out>
        <file id="file-223">
          <name>voice_113393.wav</name>
          <pathurl>file://localhost/C:/PROJECT_ROOT/assets/voice_113393.wav</pathurl>
          <rate><timebase>30</timebase></rate>
          <media>
             
             <audio>
                <samplecharacteristics>
                   <depth>16</depth>
                   <samplerate>44100</samplerate>
                </samplecharacteristics>
             </audio>
          </media>
        </file>
        
      </clipitem>

      <clipitem id="clipitem-346">
        <name>Voice 113394</name>
        <duration>92</duration>
        <rate><timebase>30</timebase></rate>
        <start>32215</start>
        <end>32307</end>
        <in>0</in>
        <out>92</out>
        <file id="file-224">
          <name>voice_113394.wav</name>
          <pathurl>file://localhost/C:/PROJECT_ROOT/assets/voice_113394.wav</pathurl>
          <rate><timebase>30</timebase></rate>
          <media>
             
             <audio>
                <samplecharacteristics>
                   <depth>16</depth>
                   <samplerate>44100</samplerate>
                </samplecharacteristics>
             </audio>
          </media>
        </file>
        
      </clipitem>

      <clipitem id="clipitem-347">
        <name>Voice 113395</name>
        <duration>209</duration>
        <rate><timebase>30</timebase></rate>
        <start>32307</start>
        <end>32516</end>
        <in>0</in>
        <out>209</out>
        <file id="file-225">
          <name>voice_113395.wav</name>
          <pathurl>file://localhost/C:/PROJECT_ROOT/assets/voice_113395.wav</pathurl>
          <rate><timebase>30</timebase></rate>
          <media>
             
             <audio>
                <samplecharacteristics>
                   <depth>16</depth>
                   <samplerate>44100</samplerate>
                </samplecharacteristics>
             </audio>
          </media>
        </file>
        
      </clipitem>

      <clipitem id="clipitem-348">
        <name>Voice 113396</name>
        <duration>300</duration>
        <rate><timebase>30</timebase></rate>
        <start>32516</start>
        <end>32816</end>
        <in>0</in>
        <out>300</out>
        <file id="file-226">
          <name>voice_113396.wav</name>
          <pathurl>file://localhost/C:/PROJECT_ROOT/assets/voice_113396.wav</pathurl>
          <rate><timebase>30</timebase></rate>
          <media>
             
             <audio>
                <samplecharacteristics>
                   <depth>16</depth>
                   <samplerate>44100</samplerate>
                </samplecharacteristics>
             </audio>
          </media>
        </file>
        
      </clipitem>

      <clipitem id="clipitem-349">
        <name>Voice 113397</name>
        <duration>81</duration>
        <rate><timebase>30</timebase></rate>
        <start>32816</start>
        <end>32897</end>
        <in>0</in>
        <out>81</out>
        <file id="file-227">
          <name>voice_113397.wav</name>
          <pathurl>file://localhost/C:/PROJECT_ROOT/assets/voice_113397.wav</pathurl>
          <rate><timebase>30</timebase></rate>
          <media>
             
             <audio>
                <samplecharacteristics>
                   <depth>16</depth>
                   <samplerate>44100</samplerate>
                </samplecharacteristics>
             </audio>
          </media>
        </file>
        
      </clipitem>

      <clipitem id="clipitem-350">
        <name>Voice 113398</name>
        <duration>73</duration>
        <rate><timebase>30</timebase></rate>
        <start>32897</start>
        <end>32970</end>
        <in>0</in>
        <out>73</out>
        <file id="file-228">
          <name>voice_113398.wav</name>
          <pathurl>file://localhost/C:/PROJECT_ROOT/assets/voice_113398.wav</pathurl>
          <rate><timebase>30</timebase></rate>
          <media>
             
             <audio>
                <samplecharacteristics>
                   <depth>16</depth>
                   <samplerate>44100</samplerate>
                </samplecharacteristics>
             </audio>
          </media>
        </file>
        
      </clipitem>

      <clipitem id="clipitem-353">
        <name>Voice 113400</name>
        <duration>39</duration>
        <rate><timebase>30</timebase></rate>
        <start>33165</start>
        <end>33204</end>
        <in>0</in>
        <out>39</out>
        <file id="file-229">
          <name>voice_113400.wav</name>
          <pathurl>file://localhost/C:/PROJECT_ROOT/assets/voice_113400.wav</pathurl>
          <rate><timebase>30</timebase></rate>
          <media>
             
             <audio>
                <samplecharacteristics>
                   <depth>16</depth>
                   <samplerate>44100</samplerate>
                </samplecharacteristics>
             </audio>
          </media>
        </file>
        
      </clipitem>

      <clipitem id="clipitem-355">
        <name>Voice 113401</name>
        <duration>39</duration>
        <rate><timebase>30</timebase></rate>
        <start>33204</start>
        <end>33243</end>
        <in>0</in>
        <out>39</out>
        <file id="file-230">
          <name>voice_113401.wav</name>
          <pathurl>file://localhost/C:/PROJECT_ROOT/assets/voice_113401.wav</pathurl>
          <rate><timebase>30</timebase></rate>
          <media>
             
             <audio>
                <samplecharacteristics>
                   <depth>16</depth>
                   <samplerate>44100</samplerate>
                </samplecharacteristics>
             </audio>
          </media>
        </file>
        
      </clipitem>

      <clipitem id="clipitem-357">
        <name>Voice 113402</name>
        <duration>38</duration>
        <rate><timebase>30</timebase></rate>
        <start>33243</start>
        <end>33281</end>
        <in>0</in>
        <out>38</out>
        <file id="file-231">
          <name>voice_113402.wav</name>
          <pathurl>file://localhost/C:/PROJECT_ROOT/assets/voice_113402.wav</pathurl>
          <rate><timebase>30</timebase></rate>
          <media>
             
             <audio>
                <samplecharacteristics>
                   <depth>16</depth>
                   <samplerate>44100</samplerate>
                </samplecharacteristics>
             </audio>
          </media>
        </file>
        
      </clipitem>

      <clipitem id="clipitem-360">
        <name>Voice 113404</name>
        <duration>46</duration>
        <rate><timebase>30</timebase></rate>
        <start>33453</start>
        <end>33499</end>
        <in>0</in>
        <out>46</out>
        <file id="file-232">
          <name>voice_113404.wav</name>
          <pathurl>file://localhost/C:/PROJECT_ROOT/assets/voice_113404.wav</pathurl>
          <rate><timebase>30</timebase></rate>
          <media>
             
             <audio>
                <samplecharacteristics>
                   <depth>16</depth>
                   <samplerate>44100</samplerate>
                </samplecharacteristics>
             </audio>
          </media>
        </file>
        
      </clipitem>

      <clipitem id="clipitem-363">
        <name>Voice 113406</name>
        <duration>36</duration>
        <rate><timebase>30</timebase></rate>
        <start>33686</start>
        <end>33722</end>
        <in>0</in>
        <out>36</out>
        <file id="file-233">
          <name>voice_113406.wav</name>
          <pathurl>file://localhost/C:/PROJECT_ROOT/assets/voice_113406.wav</pathurl>
          <rate><timebase>30</timebase></rate>
          <media>
             
             <audio>
                <samplecharacteristics>
                   <depth>16</depth>
                   <samplerate>44100</samplerate>
                </samplecharacteristics>
             </audio>
          </media>
        </file>
        
      </clipitem>

      <clipitem id="clipitem-366">
        <name>Voice 113408</name>
        <duration>256</duration>
        <rate><timebase>30</timebase></rate>
        <start>33895</start>
        <end>34151</end>
        <in>0</in>
        <out>256</out>
        <file id="file-234">
          <name>voice_113408.wav</name>
          <pathurl>file://localhost/C:/PROJECT_ROOT/assets/voice_113408.wav</pathurl>
          <rate><timebase>30</timebase></rate>
          <media>
             
             <audio>
                <samplecharacteristics>
                   <depth>16</depth>
                   <samplerate>44100</samplerate>
                </samplecharacteristics>
             </audio>
          </media>
        </file>
        
      </clipitem>

      <clipitem id="clipitem-368">
        <name>Voice 113409</name>
        <duration>139</duration>
        <rate><timebase>30</timebase></rate>
        <start>34151</start>
        <end>34290</end>
        <in>0</in>
        <out>139</out>
        <file id="file-235">
          <name>voice_113409.wav</name>
          <pathurl>file://localhost/C:/PROJECT_ROOT/assets/voice_113409.wav</pathurl>
          <rate><timebase>30</timebase></rate>
          <media>
             
             <audio>
                <samplecharacteristics>
                   <depth>16</depth>
                   <samplerate>44100</samplerate>
                </samplecharacteristics>
             </audio>
          </media>
        </file>
        
      </clipitem>

      <clipitem id="clipitem-369">
        <name>Voice 113525</name>
        <duration>207</duration>
        <rate><timebase>30</timebase></rate>
        <start>34290</start>
        <end>34497</end>
        <in>0</in>
        <out>207</out>
        <file id="file-236">
          <name>voice_113525.wav</name>
          <pathurl>file://localhost/C:/PROJECT_ROOT/assets/voice_113525.wav</pathurl>
          <rate><timebase>30</timebase></rate>
          <media>
             
             <audio>
                <samplecharacteristics>
                   <depth>16</depth>
                   <samplerate>44100</samplerate>
                </samplecharacteristics>
             </audio>
          </media>
        </file>
        
      </clipitem>

      <clipitem id="clipitem-370">
        <name>Voice 113410</name>
        <duration>112</duration>
        <rate><timebase>30</timebase></rate>
        <start>34497</start>
        <end>34609</end>
        <in>0</in>
        <out>112</out>
        <file id="file-237">
          <name>voice_113410.wav</name>
          <pathurl>file://localhost/C:/PROJECT_ROOT/assets/voice_113410.wav</pathurl>
          <rate><timebase>30</timebase></rate>
          <media>
             
             <audio>
                <samplecharacteristics>
                   <depth>16</depth>
                   <samplerate>44100</samplerate>
                </samplecharacteristics>
             </audio>
          </media>
        </file>
        
      </clipitem>

      <clipitem id="clipitem-372">
        <name>Voice 113415</name>
        <duration>168</duration>
        <rate><timebase>30</timebase></rate>
        <start>34609</start>
        <end>34777</end>
        <in>0</in>
        <out>168</out>
        <file id="file-239">
          <name>voice_113415.wav</name>
          <pathurl>file://localhost/C:/PROJECT_ROOT/assets/voice_113415.wav</pathurl>
          <rate><timebase>30</timebase></rate>
          <media>
             
             <audio>
                <samplecharacteristics>
                   <depth>16</depth>
                   <samplerate>44100</samplerate>
                </samplecharacteristics>
             </audio>
          </media>
        </file>
        
      </clipitem>

      <clipitem id="clipitem-374">
        <name>Voice 113412</name>
        <duration>52</duration>
        <rate><timebase>30</timebase></rate>
        <start>34777</start>
        <end>34829</end>
        <in>0</in>
        <out>52</out>
        <file id="file-241">
          <name>voice_113412.wav</name>
          <pathurl>file://localhost/C:/PROJECT_ROOT/assets/voice_113412.wav</pathurl>
          <rate><timebase>30</timebase></rate>
          <media>
             
             <audio>
                <samplecharacteristics>
                   <depth>16</depth>
                   <samplerate>44100</samplerate>
                </samplecharacteristics>
             </audio>
          </media>
        </file>
        
      </clipitem>

      <clipitem id="clipitem-376">
        <name>Voice 113413</name>
        <duration>90</duration>
        <rate><timebase>30</timebase></rate>
        <start>34829</start>
        <end>34919</end>
        <in>0</in>
        <out>90</out>
        <file id="file-243">
          <name>voice_113413.wav</name>
          <pathurl>file://localhost/C:/PROJECT_ROOT/assets/voice_113413.wav</pathurl>
          <rate><timebase>30</timebase></rate>
          <media>
             
             <audio>
                <samplecharacteristics>
                   <depth>16</depth>
                   <samplerate>44100</samplerate>
                </samplecharacteristics>
             </audio>
          </media>
        </file>
        
      </clipitem>

      <clipitem id="clipitem-378">
        <name>Voice 113411</name>
        <duration>204</duration>
        <rate><timebase>30</timebase></rate>
        <start>34919</start>
        <end>35123</end>
        <in>0</in>
        <out>204</out>
        <file id="file-244">
          <name>voice_113411.wav</name>
          <pathurl>file://localhost/C:/PROJECT_ROOT/assets/voice_113411.wav</pathurl>
          <rate><timebase>30</timebase></rate>
          <media>
             
             <audio>
                <samplecharacteristics>
                   <depth>16</depth>
                   <samplerate>44100</samplerate>
                </samplecharacteristics>
             </audio>
          </media>
        </file>
        
      </clipitem>

      <clipitem id="clipitem-380">
        <name>Voice 113414</name>
        <duration>37</duration>
        <rate><timebase>30</timebase></rate>
        <start>35123</start>
        <end>35160</end>
        <in>0</in>
        <out>37</out>
        <file id="file-246">
          <name>voice_113414.wav</name>
          <pathurl>file://localhost/C:/PROJECT_ROOT/assets/voice_113414.wav</pathurl>
          <rate><timebase>30</timebase></rate>
          <media>
             
             <audio>
                <samplecharacteristics>
                   <depth>16</depth>
                   <samplerate>44100</samplerate>
                </samplecharacteristics>
             </audio>
          </media>
        </file>
        
      </clipitem>

      <clipitem id="clipitem-382">
        <name>Voice 113416</name>
        <duration>204</duration>
        <rate><timebase>30</timebase></rate>
        <start>35160</start>
        <end>35364</end>
        <in>0</in>
        <out>204</out>
        <file id="file-247">
          <name>voice_113416.wav</name>
          <pathurl>file://localhost/C:/PROJECT_ROOT/assets/voice_113416.wav</pathurl>
          <rate><timebase>30</timebase></rate>
          <media>
             
             <audio>
                <samplecharacteristics>
                   <depth>16</depth>
                   <samplerate>44100</samplerate>
                </samplecharacteristics>
             </audio>
          </media>
        </file>
        
      </clipitem>

      <clipitem id="clipitem-384">
        <name>Voice 113417</name>
        <duration>220</duration>
        <rate><timebase>30</timebase></rate>
        <start>35364</start>
        <end>35584</end>
        <in>0</in>
        <out>220</out>
        <file id="file-248">
          <name>voice_113417.wav</name>
          <pathurl>file://localhost/C:/PROJECT_ROOT/assets/voice_113417.wav</pathurl>
          <rate><timebase>30</timebase></rate>
          <media>
             
             <audio>
                <samplecharacteristics>
                   <depth>16</depth>
                   <samplerate>44100</samplerate>
                </samplecharacteristics>
             </audio>
          </media>
        </file>
        
      </clipitem>

      <clipitem id="clipitem-385">
        <name>Voice 113418</name>
        <duration>159</duration>
        <rate><timebase>30</timebase></rate>
        <start>35644</start>
        <end>35803</end>
        <in>0</in>
        <out>159</out>
        <file id="file-249">
          <name>voice_113418.wav</name>
          <pathurl>file://localhost/C:/PROJECT_ROOT/assets/voice_113418.wav</pathurl>
          <rate><timebase>30</timebase></rate>
          <media>
             
             <audio>
                <samplecharacteristics>
                   <depth>16</depth>
                   <samplerate>44100</samplerate>
                </samplecharacteristics>
             </audio>
          </media>
        </file>
        
      </clipitem>

      <clipitem id="clipitem-387">
        <name>Voice 113419</name>
        <duration>254</duration>
        <rate><timebase>30</timebase></rate>
        <start>35803</start>
        <end>36057</end>
        <in>0</in>
        <out>254</out>
        <file id="file-251">
          <name>voice_113419.wav</name>
          <pathurl>file://localhost/C:/PROJECT_ROOT/assets/voice_113419.wav</pathurl>
          <rate><timebase>30</timebase></rate>
          <media>
             
             <audio>
                <samplecharacteristics>
                   <depth>16</depth>
                   <samplerate>44100</samplerate>
                </samplecharacteristics>
             </audio>
          </media>
        </file>
        
      </clipitem>

      <clipitem id="clipitem-389">
        <name>Voice 113421</name>
        <duration>47</duration>
        <rate><timebase>30</timebase></rate>
        <start>36057</start>
        <end>36104</end>
        <in>0</in>
        <out>47</out>
        <file id="file-252">
          <name>voice_113421.wav</name>
          <pathurl>file://localhost/C:/PROJECT_ROOT/assets/voice_113421.wav</pathurl>
          <rate><timebase>30</timebase></rate>
          <media>
             
             <audio>
                <samplecharacteristics>
                   <depth>16</depth>
                   <samplerate>44100</samplerate>
                </samplecharacteristics>
             </audio>
          </media>
        </file>
        
      </clipitem>

      <clipitem id="clipitem-391">
        <name>Voice 113420</name>
        <duration>96</duration>
        <rate><timebase>30</timebase></rate>
        <start>36104</start>
        <end>36200</end>
        <in>0</in>
        <out>96</out>
        <file id="file-253">
          <name>voice_113420.wav</name>
          <pathurl>file://localhost/C:/PROJECT_ROOT/assets/voice_113420.wav</pathurl>
          <rate><timebase>30</timebase></rate>
          <media>
             
             <audio>
                <samplecharacteristics>
                   <depth>16</depth>
                   <samplerate>44100</samplerate>
                </samplecharacteristics>
             </audio>
          </media>
        </file>
        
      </clipitem>

      <clipitem id="clipitem-392">
        <name>Voice 113422</name>
        <duration>120</duration>
        <rate><timebase>30</timebase></rate>
        <start>36200</start>
        <end>36320</end>
        <in>0</in>
        <out>120</out>
        <file id="file-254">
          <name>voice_113422.wav</name>
          <pathurl>file://localhost/C:/PROJECT_ROOT/assets/voice_113422.wav</pathurl>
          <rate><timebase>30</timebase></rate>
          <media>
             
             <audio>
                <samplecharacteristics>
                   <depth>16</depth>
                   <samplerate>44100</samplerate>
                </samplecharacteristics>
             </audio>
          </media>
        </file>
        
      </clipitem>

      <clipitem id="clipitem-394">
        <name>Voice 113426</name>
        <duration>144</duration>
        <rate><timebase>30</timebase></rate>
        <start>36320</start>
        <end>36464</end>
        <in>0</in>
        <out>144</out>
        <file id="file-256">
          <name>voice_113426.wav</name>
          <pathurl>file://localhost/C:/PROJECT_ROOT/assets/voice_113426.wav</pathurl>
          <rate><timebase>30</timebase></rate>
          <media>
             
             <audio>
                <samplecharacteristics>
                   <depth>16</depth>
                   <samplerate>44100</samplerate>
                </samplecharacteristics>
             </audio>
          </media>
        </file>
        
      </clipitem>

      <clipitem id="clipitem-395">
        <name>Voice 113423</name>
        <duration>160</duration>
        <rate><timebase>30</timebase></rate>
        <start>36464</start>
        <end>36624</end>
        <in>0</in>
        <out>160</out>
        <file id="file-257">
          <name>voice_113423.wav</name>
          <pathurl>file://localhost/C:/PROJECT_ROOT/assets/voice_113423.wav</pathurl>
          <rate><timebase>30</timebase></rate>
          <media>
             
             <audio>
                <samplecharacteristics>
                   <depth>16</depth>
                   <samplerate>44100</samplerate>
                </samplecharacteristics>
             </audio>
          </media>
        </file>
        
      </clipitem>

      <clipitem id="clipitem-397">
        <name>Voice 118575</name>
        <duration>76</duration>
        <rate><timebase>30</timebase></rate>
        <start>36624</start>
        <end>36700</end>
        <in>0</in>
        <out>76</out>
        <file id="file-259">
          <name>voice_118575.wav</name>
          <pathurl>file://localhost/C:/PROJECT_ROOT/assets/voice_118575.wav</pathurl>
          <rate><timebase>30</timebase></rate>
          <media>
             
             <audio>
                <samplecharacteristics>
                   <depth>16</depth>
                   <samplerate>44100</samplerate>
                </samplecharacteristics>
             </audio>
          </media>
        </file>
        
      </clipitem>

      <clipitem id="clipitem-399">
        <name>Voice 113424</name>
        <duration>74</duration>
        <rate><timebase>30</timebase></rate>
        <start>36700</start>
        <end>36774</end>
        <in>0</in>
        <out>74</out>
        <file id="file-260">
          <name>voice_113424.wav</name>
          <pathurl>file://localhost/C:/PROJECT_ROOT/assets/voice_113424.wav</pathurl>
          <rate><timebase>30</timebase></rate>
          <media>
             
             <audio>
                <samplecharacteristics>
                   <depth>16</depth>
                   <samplerate>44100</samplerate>
                </samplecharacteristics>
             </audio>
          </media>
        </file>
        
      </clipitem>

      <clipitem id="clipitem-401">
        <name>Voice 113425</name>
        <duration>56</duration>
        <rate><timebase>30</timebase></rate>
        <start>36774</start>
        <end>36830</end>
        <in>0</in>
        <out>56</out>
        <file id="file-261">
          <name>voice_113425.wav</name>
          <pathurl>file://localhost/C:/PROJECT_ROOT/assets/voice_113425.wav</pathurl>
          <rate><timebase>30</timebase></rate>
          <media>
             
             <audio>
                <samplecharacteristics>
                   <depth>16</depth>
                   <samplerate>44100</samplerate>
                </samplecharacteristics>
             </audio>
          </media>
        </file>
        
      </clipitem>

      <clipitem id="clipitem-403">
        <name>Voice 113427</name>
        <duration>222</duration>
        <rate><timebase>30</timebase></rate>
        <start>36830</start>
        <end>37052</end>
        <in>0</in>
        <out>222</out>
        <file id="file-263">
          <name>voice_113427.wav</name>
          <pathurl>file://localhost/C:/PROJECT_ROOT/assets/voice_113427.wav</pathurl>
          <rate><timebase>30</timebase></rate>
          <media>
             
             <audio>
                <samplecharacteristics>
                   <depth>16</depth>
                   <samplerate>44100</samplerate>
                </samplecharacteristics>
             </audio>
          </media>
        </file>
        
      </clipitem>

      <clipitem id="clipitem-404">
        <name>Voice 113429</name>
        <duration>100</duration>
        <rate><timebase>30</timebase></rate>
        <start>37052</start>
        <end>37152</end>
        <in>0</in>
        <out>100</out>
        <file id="file-264">
          <name>voice_113429.wav</name>
          <pathurl>file://localhost/C:/PROJECT_ROOT/assets/voice_113429.wav</pathurl>
          <rate><timebase>30</timebase></rate>
          <media>
             
             <audio>
                <samplecharacteristics>
                   <depth>16</depth>
                   <samplerate>44100</samplerate>
                </samplecharacteristics>
             </audio>
          </media>
        </file>
        
      </clipitem>

      <clipitem id="clipitem-406">
        <name>Voice 113431</name>
        <duration>90</duration>
        <rate><timebase>30</timebase></rate>
        <start>37152</start>
        <end>37242</end>
        <in>0</in>
        <out>90</out>
        <file id="file-265">
          <name>voice_113431.wav</name>
          <pathurl>file://localhost/C:/PROJECT_ROOT/assets/voice_113431.wav</pathurl>
          <rate><timebase>30</timebase></rate>
          <media>
             
             <audio>
                <samplecharacteristics>
                   <depth>16</depth>
                   <samplerate>44100</samplerate>
                </samplecharacteristics>
             </audio>
          </media>
        </file>
        
      </clipitem>

      <clipitem id="clipitem-407">
        <name>Voice 113432</name>
        <duration>88</duration>
        <rate><timebase>30</timebase></rate>
        <start>37242</start>
        <end>37330</end>
        <in>0</in>
        <out>88</out>
        <file id="file-266">
          <name>voice_113432.wav</name>
          <pathurl>file://localhost/C:/PROJECT_ROOT/assets/voice_113432.wav</pathurl>
          <rate><timebase>30</timebase></rate>
          <media>
             
             <audio>
                <samplecharacteristics>
                   <depth>16</depth>
                   <samplerate>44100</samplerate>
                </samplecharacteristics>
             </audio>
          </media>
        </file>
        
      </clipitem>

      <clipitem id="clipitem-408">
        <name>Voice 113428</name>
        <duration>142</duration>
        <rate><timebase>30</timebase></rate>
        <start>37330</start>
        <end>37472</end>
        <in>0</in>
        <out>142</out>
        <file id="file-267">
          <name>voice_113428.wav</name>
          <pathurl>file://localhost/C:/PROJECT_ROOT/assets/voice_113428.wav</pathurl>
          <rate><timebase>30</timebase></rate>
          <media>
             
             <audio>
                <samplecharacteristics>
                   <depth>16</depth>
                   <samplerate>44100</samplerate>
                </samplecharacteristics>
             </audio>
          </media>
        </file>
        
      </clipitem>

      <clipitem id="clipitem-410">
        <name>Voice 113430</name>
        <duration>113</duration>
        <rate><timebase>30</timebase></rate>
        <start>37472</start>
        <end>37585</end>
        <in>0</in>
        <out>113</out>
        <file id="file-268">
          <name>voice_113430.wav</name>
          <pathurl>file://localhost/C:/PROJECT_ROOT/assets/voice_113430.wav</pathurl>
          <rate><timebase>30</timebase></rate>
          <media>
             
             <audio>
                <samplecharacteristics>
                   <depth>16</depth>
                   <samplerate>44100</samplerate>
                </samplecharacteristics>
             </audio>
          </media>
        </file>
        
      </clipitem>

      <clipitem id="clipitem-411">
        <name>Voice 113433</name>
        <duration>166</duration>
        <rate><timebase>30</timebase></rate>
        <start>37585</start>
        <end>37751</end>
        <in>0</in>
        <out>166</out>
        <file id="file-269">
          <name>voice_113433.wav</name>
          <pathurl>file://localhost/C:/PROJECT_ROOT/assets/voice_113433.wav</pathurl>
          <rate><timebase>30</timebase></rate>
          <media>
             
             <audio>
                <samplecharacteristics>
                   <depth>16</depth>
                   <samplerate>44100</samplerate>
                </samplecharacteristics>
             </audio>
          </media>
        </file>
        
      </clipitem>

      <clipitem id="clipitem-414">
        <name>Voice 113435</name>
        <duration>86</duration>
        <rate><timebase>30</timebase></rate>
        <start>37811</start>
        <end>37897</end>
        <in>0</in>
        <out>86</out>
        <file id="file-270">
          <name>voice_113435.wav</name>
          <pathurl>file://localhost/C:/PROJECT_ROOT/assets/voice_113435.wav</pathurl>
          <rate><timebase>30</timebase></rate>
          <media>
             
             <audio>
                <samplecharacteristics>
                   <depth>16</depth>
                   <samplerate>44100</samplerate>
                </samplecharacteristics>
             </audio>
          </media>
        </file>
        
      </clipitem>

      <clipitem id="clipitem-416">
        <name>Voice 113434</name>
        <duration>143</duration>
        <rate><timebase>30</timebase></rate>
        <start>37897</start>
        <end>38040</end>
        <in>0</in>
        <out>143</out>
        <file id="file-271">
          <name>voice_113434.wav</name>
          <pathurl>file://localhost/C:/PROJECT_ROOT/assets/voice_113434.wav</pathurl>
          <rate><timebase>30</timebase></rate>
          <media>
             
             <audio>
                <samplecharacteristics>
                   <depth>16</depth>
                   <samplerate>44100</samplerate>
                </samplecharacteristics>
             </audio>
          </media>
        </file>
        
      </clipitem>

      <clipitem id="clipitem-418">
        <name>Voice 113436</name>
        <duration>102</duration>
        <rate><timebase>30</timebase></rate>
        <start>38040</start>
        <end>38142</end>
        <in>0</in>
        <out>102</out>
        <file id="file-273">
          <name>voice_113436.wav</name>
          <pathurl>file://localhost/C:/PROJECT_ROOT/assets/voice_113436.wav</pathurl>
          <rate><timebase>30</timebase></rate>
          <media>
             
             <audio>
                <samplecharacteristics>
                   <depth>16</depth>
                   <samplerate>44100</samplerate>
                </samplecharacteristics>
             </audio>
          </media>
        </file>
        
      </clipitem>

      <clipitem id="clipitem-420">
        <name>Voice 113437</name>
        <duration>131</duration>
        <rate><timebase>30</timebase></rate>
        <start>38142</start>
        <end>38273</end>
        <in>0</in>
        <out>131</out>
        <file id="file-274">
          <name>voice_113437.wav</name>
          <pathurl>file://localhost/C:/PROJECT_ROOT/assets/voice_113437.wav</pathurl>
          <rate><timebase>30</timebase></rate>
          <media>
             
             <audio>
                <samplecharacteristics>
                   <depth>16</depth>
                   <samplerate>44100</samplerate>
                </samplecharacteristics>
             </audio>
          </media>
        </file>
        
      </clipitem>

      <clipitem id="clipitem-422">
        <name>Voice 113439</name>
        <duration>146</duration>
        <rate><timebase>30</timebase></rate>
        <start>38273</start>
        <end>38419</end>
        <in>0</in>
        <out>146</out>
        <file id="file-275">
          <name>voice_113439.wav</name>
          <pathurl>file://localhost/C:/PROJECT_ROOT/assets/voice_113439.wav</pathurl>
          <rate><timebase>30</timebase></rate>
          <media>
             
             <audio>
                <samplecharacteristics>
                   <depth>16</depth>
                   <samplerate>44100</samplerate>
                </samplecharacteristics>
             </audio>
          </media>
        </file>
        
      </clipitem>

      <clipitem id="clipitem-424">
        <name>Voice 113441</name>
        <duration>135</duration>
        <rate><timebase>30</timebase></rate>
        <start>38419</start>
        <end>38554</end>
        <in>0</in>
        <out>135</out>
        <file id="file-276">
          <name>voice_113441.wav</name>
          <pathurl>file://localhost/C:/PROJECT_ROOT/assets/voice_113441.wav</pathurl>
          <rate><timebase>30</timebase></rate>
          <media>
             
             <audio>
                <samplecharacteristics>
                   <depth>16</depth>
                   <samplerate>44100</samplerate>
                </samplecharacteristics>
             </audio>
          </media>
        </file>
        
      </clipitem>

      <clipitem id="clipitem-426">
        <name>Voice 113447</name>
        <duration>167</duration>
        <rate><timebase>30</timebase></rate>
        <start>38554</start>
        <end>38721</end>
        <in>0</in>
        <out>167</out>
        <file id="file-277">
          <name>voice_113447.wav</name>
          <pathurl>file://localhost/C:/PROJECT_ROOT/assets/voice_113447.wav</pathurl>
          <rate><timebase>30</timebase></rate>
          <media>
             
             <audio>
                <samplecharacteristics>
                   <depth>16</depth>
                   <samplerate>44100</samplerate>
                </samplecharacteristics>
             </audio>
          </media>
        </file>
        
      </clipitem>

      <clipitem id="clipitem-427">
        <name>Voice 118576</name>
        <duration>79</duration>
        <rate><timebase>30</timebase></rate>
        <start>38721</start>
        <end>38800</end>
        <in>0</in>
        <out>79</out>
        <file id="file-278">
          <name>voice_118576.wav</name>
          <pathurl>file://localhost/C:/PROJECT_ROOT/assets/voice_118576.wav</pathurl>
          <rate><timebase>30</timebase></rate>
          <media>
             
             <audio>
                <samplecharacteristics>
                   <depth>16</depth>
                   <samplerate>44100</samplerate>
                </samplecharacteristics>
             </audio>
          </media>
        </file>
        
      </clipitem>

      <clipitem id="clipitem-429">
        <name>Voice 118577</name>
        <duration>134</duration>
        <rate><timebase>30</timebase></rate>
        <start>38800</start>
        <end>38934</end>
        <in>0</in>
        <out>134</out>
        <file id="file-279">
          <name>voice_118577.wav</name>
          <pathurl>file://localhost/C:/PROJECT_ROOT/assets/voice_118577.wav</pathurl>
          <rate><timebase>30</timebase></rate>
          <media>
             
             <audio>
                <samplecharacteristics>
                   <depth>16</depth>
                   <samplerate>44100</samplerate>
                </samplecharacteristics>
             </audio>
          </media>
        </file>
        
      </clipitem>

      <clipitem id="clipitem-431">
        <name>Voice 113438</name>
        <duration>197</duration>
        <rate><timebase>30</timebase></rate>
        <start>38934</start>
        <end>39131</end>
        <in>0</in>
        <out>197</out>
        <file id="file-280">
          <name>voice_113438.wav</name>
          <pathurl>file://localhost/C:/PROJECT_ROOT/assets/voice_113438.wav</pathurl>
          <rate><timebase>30</timebase></rate>
          <media>
             
             <audio>
                <samplecharacteristics>
                   <depth>16</depth>
                   <samplerate>44100</samplerate>
                </samplecharacteristics>
             </audio>
          </media>
        </file>
        
      </clipitem>

      <clipitem id="clipitem-433">
        <name>Voice 113440</name>
        <duration>79</duration>
        <rate><timebase>30</timebase></rate>
        <start>39131</start>
        <end>39210</end>
        <in>0</in>
        <out>79</out>
        <file id="file-281">
          <name>voice_113440.wav</name>
          <pathurl>file://localhost/C:/PROJECT_ROOT/assets/voice_113440.wav</pathurl>
          <rate><timebase>30</timebase></rate>
          <media>
             
             <audio>
                <samplecharacteristics>
                   <depth>16</depth>
                   <samplerate>44100</samplerate>
                </samplecharacteristics>
             </audio>
          </media>
        </file>
        
      </clipitem>

      <clipitem id="clipitem-435">
        <name>Voice 113442</name>
        <duration>169</duration>
        <rate><timebase>30</timebase></rate>
        <start>39210</start>
        <end>39379</end>
        <in>0</in>
        <out>169</out>
        <file id="file-282">
          <name>voice_113442.wav</name>
          <pathurl>file://localhost/C:/PROJECT_ROOT/assets/voice_113442.wav</pathurl>
          <rate><timebase>30</timebase></rate>
          <media>
             
             <audio>
                <samplecharacteristics>
                   <depth>16</depth>
                   <samplerate>44100</samplerate>
                </samplecharacteristics>
             </audio>
          </media>
        </file>
        
      </clipitem>

      <clipitem id="clipitem-437">
        <name>Voice 113443</name>
        <duration>106</duration>
        <rate><timebase>30</timebase></rate>
        <start>39379</start>
        <end>39485</end>
        <in>0</in>
        <out>106</out>
        <file id="file-283">
          <name>voice_113443.wav</name>
          <pathurl>file://localhost/C:/PROJECT_ROOT/assets/voice_113443.wav</pathurl>
          <rate><timebase>30</timebase></rate>
          <media>
             
             <audio>
                <samplecharacteristics>
                   <depth>16</depth>
                   <samplerate>44100</samplerate>
                </samplecharacteristics>
             </audio>
          </media>
        </file>
        
      </clipitem>

      <clipitem id="clipitem-439">
        <name>Voice 113444</name>
        <duration>126</duration>
        <rate><timebase>30</timebase></rate>
        <start>39485</start>
        <end>39611</end>
        <in>0</in>
        <out>126</out>
        <file id="file-284">
          <name>voice_113444.wav</name>
          <pathurl>file://localhost/C:/PROJECT_ROOT/assets/voice_113444.wav</pathurl>
          <rate><timebase>30</timebase></rate>
          <media>
             
             <audio>
                <samplecharacteristics>
                   <depth>16</depth>
                   <samplerate>44100</samplerate>
                </samplecharacteristics>
             </audio>
          </media>
        </file>
        
      </clipitem>

      <clipitem id="clipitem-441">
        <name>Voice 113445</name>
        <duration>113</duration>
        <rate><timebase>30</timebase></rate>
        <start>39611</start>
        <end>39724</end>
        <in>0</in>
        <out>113</out>
        <file id="file-285">
          <name>voice_113445.wav</name>
          <pathurl>file://localhost/C:/PROJECT_ROOT/assets/voice_113445.wav</pathurl>
          <rate><timebase>30</timebase></rate>
          <media>
             
             <audio>
                <samplecharacteristics>
                   <depth>16</depth>
                   <samplerate>44100</samplerate>
                </samplecharacteristics>
             </audio>
          </media>
        </file>
        
      </clipitem>

      <clipitem id="clipitem-443">
        <name>Voice 113446</name>
        <duration>19</duration>
        <rate><timebase>30</timebase></rate>
        <start>39724</start>
        <end>39743</end>
        <in>0</in>
        <out>19</out>
        <file id="file-286">
          <name>voice_113446.wav</name>
          <pathurl>file://localhost/C:/PROJECT_ROOT/assets/voice_113446.wav</pathurl>
          <rate><timebase>30</timebase></rate>
          <media>
             
             <audio>
                <samplecharacteristics>
                   <depth>16</depth>
                   <samplerate>44100</samplerate>
                </samplecharacteristics>
             </audio>
          </media>
        </file>
        
      </clipitem>

      <clipitem id="clipitem-445">
        <name>Voice 113448</name>
        <duration>260</duration>
        <rate><timebase>30</timebase></rate>
        <start>39743</start>
        <end>40003</end>
        <in>0</in>
        <out>260</out>
        <file id="file-287">
          <name>voice_113448.wav</name>
          <pathurl>file://localhost/C:/PROJECT_ROOT/assets/voice_113448.wav</pathurl>
          <rate><timebase>30</timebase></rate>
          <media>
             
             <audio>
                <samplecharacteristics>
                   <depth>16</depth>
                   <samplerate>44100</samplerate>
                </samplecharacteristics>
             </audio>
          </media>
        </file>
        
      </clipitem>

      <clipitem id="clipitem-447">
        <name>Voice 113449</name>
        <duration>299</duration>
        <rate><timebase>30</timebase></rate>
        <start>40003</start>
        <end>40302</end>
        <in>0</in>
        <out>299</out>
        <file id="file-288">
          <name>voice_113449.wav</name>
          <pathurl>file://localhost/C:/PROJECT_ROOT/assets/voice_113449.wav</pathurl>
          <rate><timebase>30</timebase></rate>
          <media>
             
             <audio>
                <samplecharacteristics>
                   <depth>16</depth>
                   <samplerate>44100</samplerate>
                </samplecharacteristics>
             </audio>
          </media>
        </file>
        
      </clipitem>

      <clipitem id="clipitem-448">
        <name>Voice 113450</name>
        <duration>30</duration>
        <rate><timebase>30</timebase></rate>
        <start>40362</start>
        <end>40392</end>
        <in>0</in>
        <out>30</out>
        <file id="file-289">
          <name>voice_113450.wav</name>
          <pathurl>file://localhost/C:/PROJECT_ROOT/assets/voice_113450.wav</pathurl>
          <rate><timebase>30</timebase></rate>
          <media>
             
             <audio>
                <samplecharacteristics>
                   <depth>16</depth>
                   <samplerate>44100</samplerate>
                </samplecharacteristics>
             </audio>
          </media>
        </file>
        
      </clipitem>

      <clipitem id="clipitem-449">
        <name>Voice 113451</name>
        <duration>97</duration>
        <rate><timebase>30</timebase></rate>
        <start>40392</start>
        <end>40489</end>
        <in>0</in>
        <out>97</out>
        <file id="file-290">
          <name>voice_113451.wav</name>
          <pathurl>file://localhost/C:/PROJECT_ROOT/assets/voice_113451.wav</pathurl>
          <rate><timebase>30</timebase></rate>
          <media>
             
             <audio>
                <samplecharacteristics>
                   <depth>16</depth>
                   <samplerate>44100</samplerate>
                </samplecharacteristics>
             </audio>
          </media>
        </file>
        
      </clipitem>

      <clipitem id="clipitem-450">
        <name>Voice 113452</name>
        <duration>184</duration>
        <rate><timebase>30</timebase></rate>
        <start>40489</start>
        <end>40673</end>
        <in>0</in>
        <out>184</out>
        <file id="file-291">
          <name>voice_113452.wav</name>
          <pathurl>file://localhost/C:/PROJECT_ROOT/assets/voice_113452.wav</pathurl>
          <rate><timebase>30</timebase></rate>
          <media>
             
             <audio>
                <samplecharacteristics>
                   <depth>16</depth>
                   <samplerate>44100</samplerate>
                </samplecharacteristics>
             </audio>
          </media>
        </file>
        
      </clipitem>

      <clipitem id="clipitem-451">
        <name>Voice 113453</name>
        <duration>220</duration>
        <rate><timebase>30</timebase></rate>
        <start>40673</start>
        <end>40893</end>
        <in>0</in>
        <out>220</out>
        <file id="file-292">
          <name>voice_113453.wav</name>
          <pathurl>file://localhost/C:/PROJECT_ROOT/assets/voice_113453.wav</pathurl>
          <rate><timebase>30</timebase></rate>
          <media>
             
             <audio>
                <samplecharacteristics>
                   <depth>16</depth>
                   <samplerate>44100</samplerate>
                </samplecharacteristics>
             </audio>
          </media>
        </file>
        
      </clipitem>

      <clipitem id="clipitem-452">
        <name>Voice 113456</name>
        <duration>169</duration>
        <rate><timebase>30</timebase></rate>
        <start>40953</start>
        <end>41122</end>
        <in>0</in>
        <out>169</out>
        <file id="file-293">
          <name>voice_113456.wav</name>
          <pathurl>file://localhost/C:/PROJECT_ROOT/assets/voice_113456.wav</pathurl>
          <rate><timebase>30</timebase></rate>
          <media>
             
             <audio>
                <samplecharacteristics>
                   <depth>16</depth>
                   <samplerate>44100</samplerate>
                </samplecharacteristics>
             </audio>
          </media>
        </file>
        
      </clipitem>

      <clipitem id="clipitem-453">
        <name>Voice 113457</name>
        <duration>493</duration>
        <rate><timebase>30</timebase></rate>
        <start>41122</start>
        <end>41615</end>
        <in>0</in>
        <out>493</out>
        <file id="file-294">
          <name>voice_113457.wav</name>
          <pathurl>file://localhost/C:/PROJECT_ROOT/assets/voice_113457.wav</pathurl>
          <rate><timebase>30</timebase></rate>
          <media>
             
             <audio>
                <samplecharacteristics>
                   <depth>16</depth>
                   <samplerate>44100</samplerate>
                </samplecharacteristics>
             </audio>
          </media>
        </file>
        
      </clipitem>

      <clipitem id="clipitem-454">
        <name>Voice 113454</name>
        <duration>131</duration>
        <rate><timebase>30</timebase></rate>
        <start>41615</start>
        <end>41746</end>
        <in>0</in>
        <out>131</out>
        <file id="file-295">
          <name>voice_113454.wav</name>
          <pathurl>file://localhost/C:/PROJECT_ROOT/assets/voice_113454.wav</pathurl>
          <rate><timebase>30</timebase></rate>
          <media>
             
             <audio>
                <samplecharacteristics>
                   <depth>16</depth>
                   <samplerate>44100</samplerate>
                </samplecharacteristics>
             </audio>
          </media>
        </file>
        
      </clipitem>

      <clipitem id="clipitem-456">
        <name>Voice 113455</name>
        <duration>119</duration>
        <rate><timebase>30</timebase></rate>
        <start>41746</start>
        <end>41865</end>
        <in>0</in>
        <out>119</out>
        <file id="file-297">
          <name>voice_113455.wav</name>
          <pathurl>file://localhost/C:/PROJECT_ROOT/assets/voice_113455.wav</pathurl>
          <rate><timebase>30</timebase></rate>
          <media>
             
             <audio>
                <samplecharacteristics>
                   <depth>16</depth>
                   <samplerate>44100</samplerate>
                </samplecharacteristics>
             </audio>
          </media>
        </file>
        
      </clipitem>

      <clipitem id="clipitem-458">
        <name>Voice 113533</name>
        <duration>80</duration>
        <rate><timebase>30</timebase></rate>
        <start>41865</start>
        <end>41945</end>
        <in>0</in>
        <out>80</out>
        <file id="file-298">
          <name>voice_113533.wav</name>
          <pathurl>file://localhost/C:/PROJECT_ROOT/assets/voice_113533.wav</pathurl>
          <rate><timebase>30</timebase></rate>
          <media>
             
             <audio>
                <samplecharacteristics>
                   <depth>16</depth>
                   <samplerate>44100</samplerate>
                </samplecharacteristics>
             </audio>
          </media>
        </file>
        
      </clipitem>

      <clipitem id="clipitem-460">
        <name>Voice 113537</name>
        <duration>118</duration>
        <rate><timebase>30</timebase></rate>
        <start>41945</start>
        <end>42063</end>
        <in>0</in>
        <out>118</out>
        <file id="file-299">
          <name>voice_113537.wav</name>
          <pathurl>file://localhost/C:/PROJECT_ROOT/assets/voice_113537.wav</pathurl>
          <rate><timebase>30</timebase></rate>
          <media>
             
             <audio>
                <samplecharacteristics>
                   <depth>16</depth>
                   <samplerate>44100</samplerate>
                </samplecharacteristics>
             </audio>
          </media>
        </file>
        
      </clipitem>

      <clipitem id="clipitem-462">
        <name>Voice 113458</name>
        <duration>99</duration>
        <rate><timebase>30</timebase></rate>
        <start>42063</start>
        <end>42162</end>
        <in>0</in>
        <out>99</out>
        <file id="file-301">
          <name>voice_113458.wav</name>
          <pathurl>file://localhost/C:/PROJECT_ROOT/assets/voice_113458.wav</pathurl>
          <rate><timebase>30</timebase></rate>
          <media>
             
             <audio>
                <samplecharacteristics>
                   <depth>16</depth>
                   <samplerate>44100</samplerate>
                </samplecharacteristics>
             </audio>
          </media>
        </file>
        
      </clipitem>

      <clipitem id="clipitem-464">
        <name>Voice 113459</name>
        <duration>299</duration>
        <rate><timebase>30</timebase></rate>
        <start>42162</start>
        <end>42461</end>
        <in>0</in>
        <out>299</out>
        <file id="file-302">
          <name>voice_113459.wav</name>
          <pathurl>file://localhost/C:/PROJECT_ROOT/assets/voice_113459.wav</pathurl>
          <rate><timebase>30</timebase></rate>
          <media>
             
             <audio>
                <samplecharacteristics>
                   <depth>16</depth>
                   <samplerate>44100</samplerate>
                </samplecharacteristics>
             </audio>
          </media>
        </file>
        
      </clipitem>

      <clipitem id="clipitem-465">
        <name>Voice 113460</name>
        <duration>300</duration>
        <rate><timebase>30</timebase></rate>
        <start>42461</start>
        <end>42761</end>
        <in>0</in>
        <out>300</out>
        <file id="file-303">
          <name>voice_113460.wav</name>
          <pathurl>file://localhost/C:/PROJECT_ROOT/assets/voice_113460.wav</pathurl>
          <rate><timebase>30</timebase></rate>
          <media>
             
             <audio>
                <samplecharacteristics>
                   <depth>16</depth>
                   <samplerate>44100</samplerate>
                </samplecharacteristics>
             </audio>
          </media>
        </file>
        
      </clipitem>

      <clipitem id="clipitem-467">
        <name>Voice 113534</name>
        <duration>28</duration>
        <rate><timebase>30</timebase></rate>
        <start>42761</start>
        <end>42789</end>
        <in>0</in>
        <out>28</out>
        <file id="file-304">
          <name>voice_113534.wav</name>
          <pathurl>file://localhost/C:/PROJECT_ROOT/assets/voice_113534.wav</pathurl>
          <rate><timebase>30</timebase></rate>
          <media>
             
             <audio>
                <samplecharacteristics>
                   <depth>16</depth>
                   <samplerate>44100</samplerate>
                </samplecharacteristics>
             </audio>
          </media>
        </file>
        
      </clipitem>

      <clipitem id="clipitem-468">
        <name>Voice 113461</name>
        <duration>180</duration>
        <rate><timebase>30</timebase></rate>
        <start>42789</start>
        <end>42969</end>
        <in>0</in>
        <out>180</out>
        <file id="file-305">
          <name>voice_113461.wav</name>
          <pathurl>file://localhost/C:/PROJECT_ROOT/assets/voice_113461.wav</pathurl>
          <rate><timebase>30</timebase></rate>
          <media>
             
             <audio>
                <samplecharacteristics>
                   <depth>16</depth>
                   <samplerate>44100</samplerate>
                </samplecharacteristics>
             </audio>
          </media>
        </file>
        
      </clipitem>

      <clipitem id="clipitem-470">
        <name>Voice 113536</name>
        <duration>299</duration>
        <rate><timebase>30</timebase></rate>
        <start>42969</start>
        <end>43268</end>
        <in>0</in>
        <out>299</out>
        <file id="file-307">
          <name>voice_113536.wav</name>
          <pathurl>file://localhost/C:/PROJECT_ROOT/assets/voice_113536.wav</pathurl>
          <rate><timebase>30</timebase></rate>
          <media>
             
             <audio>
                <samplecharacteristics>
                   <depth>16</depth>
                   <samplerate>44100</samplerate>
                </samplecharacteristics>
             </audio>
          </media>
        </file>
        
      </clipitem>

      <clipitem id="clipitem-472">
        <name>Voice 113462</name>
        <duration>81</duration>
        <rate><timebase>30</timebase></rate>
        <start>43268</start>
        <end>43349</end>
        <in>0</in>
        <out>81</out>
        <file id="file-308">
          <name>voice_113462.wav</name>
          <pathurl>file://localhost/C:/PROJECT_ROOT/assets/voice_113462.wav</pathurl>
          <rate><timebase>30</timebase></rate>
          <media>
             
             <audio>
                <samplecharacteristics>
                   <depth>16</depth>
                   <samplerate>44100</samplerate>
                </samplecharacteristics>
             </audio>
          </media>
        </file>
        
      </clipitem>

      <clipitem id="clipitem-474">
        <name>Voice 113463</name>
        <duration>98</duration>
        <rate><timebase>30</timebase></rate>
        <start>43349</start>
        <end>43447</end>
        <in>0</in>
        <out>98</out>
        <file id="file-309">
          <name>voice_113463.wav</name>
          <pathurl>file://localhost/C:/PROJECT_ROOT/assets/voice_113463.wav</pathurl>
          <rate><timebase>30</timebase></rate>
          <media>
             
             <audio>
                <samplecharacteristics>
                   <depth>16</depth>
                   <samplerate>44100</samplerate>
                </samplecharacteristics>
             </audio>
          </media>
        </file>
        
      </clipitem>

      <clipitem id="clipitem-476">
        <name>Voice 113464</name>
        <duration>149</duration>
        <rate><timebase>30</timebase></rate>
        <start>43447</start>
        <end>43596</end>
        <in>0</in>
        <out>149</out>
        <file id="file-310">
          <name>voice_113464.wav</name>
          <pathurl>file://localhost/C:/PROJECT_ROOT/assets/voice_113464.wav</pathurl>
          <rate><timebase>30</timebase></rate>
          <media>
             
             <audio>
                <samplecharacteristics>
                   <depth>16</depth>
                   <samplerate>44100</samplerate>
                </samplecharacteristics>
             </audio>
          </media>
        </file>
        
      </clipitem>

      <clipitem id="clipitem-478">
        <name>Voice 113538</name>
        <duration>191</duration>
        <rate><timebase>30</timebase></rate>
        <start>43596</start>
        <end>43787</end>
        <in>0</in>
        <out>191</out>
        <file id="file-311">
          <name>voice_113538.wav</name>
          <pathurl>file://localhost/C:/PROJECT_ROOT/assets/voice_113538.wav</pathurl>
          <rate><timebase>30</timebase></rate>
          <media>
             
             <audio>
                <samplecharacteristics>
                   <depth>16</depth>
                   <samplerate>44100</samplerate>
                </samplecharacteristics>
             </audio>
          </media>
        </file>
        
      </clipitem>

      <clipitem id="clipitem-480">
        <name>Voice 113539</name>
        <duration>144</duration>
        <rate><timebase>30</timebase></rate>
        <start>43787</start>
        <end>43931</end>
        <in>0</in>
        <out>144</out>
        <file id="file-312">
          <name>voice_113539.wav</name>
          <pathurl>file://localhost/C:/PROJECT_ROOT/assets/voice_113539.wav</pathurl>
          <rate><timebase>30</timebase></rate>
          <media>
             
             <audio>
                <samplecharacteristics>
                   <depth>16</depth>
                   <samplerate>44100</samplerate>
                </samplecharacteristics>
             </audio>
          </media>
        </file>
        
      </clipitem>

      <clipitem id="clipitem-482">
        <name>Voice 113540</name>
        <duration>59</duration>
        <rate><timebase>30</timebase></rate>
        <start>43931</start>
        <end>43990</end>
        <in>0</in>
        <out>59</out>
        <file id="file-313">
          <name>voice_113540.wav</name>
          <pathurl>file://localhost/C:/PROJECT_ROOT/assets/voice_113540.wav</pathurl>
          <rate><timebase>30</timebase></rate>
          <media>
             
             <audio>
                <samplecharacteristics>
                   <depth>16</depth>
                   <samplerate>44100</samplerate>
                </samplecharacteristics>
             </audio>
          </media>
        </file>
        
      </clipitem>

      <clipitem id="clipitem-483">
        <name>Voice 113541</name>
        <duration>255</duration>
        <rate><timebase>30</timebase></rate>
        <start>43990</start>
        <end>44245</end>
        <in>0</in>
        <out>255</out>
        <file id="file-314">
          <name>voice_113541.wav</name>
          <pathurl>file://localhost/C:/PROJECT_ROOT/assets/voice_113541.wav</pathurl>
          <rate><timebase>30</timebase></rate>
          <media>
             
             <audio>
                <samplecharacteristics>
                   <depth>16</depth>
                   <samplerate>44100</samplerate>
                </samplecharacteristics>
             </audio>
          </media>
        </file>
        
      </clipitem>

      <clipitem id="clipitem-485">
        <name>Voice 113542</name>
        <duration>97</duration>
        <rate><timebase>30</timebase></rate>
        <start>44245</start>
        <end>44342</end>
        <in>0</in>
        <out>97</out>
        <file id="file-315">
          <name>voice_113542.wav</name>
          <pathurl>file://localhost/C:/PROJECT_ROOT/assets/voice_113542.wav</pathurl>
          <rate><timebase>30</timebase></rate>
          <media>
             
             <audio>
                <samplecharacteristics>
                   <depth>16</depth>
                   <samplerate>44100</samplerate>
                </samplecharacteristics>
             </audio>
          </media>
        </file>
        
      </clipitem>

      <clipitem id="clipitem-486">
        <name>Voice 113543</name>
        <duration>139</duration>
        <rate><timebase>30</timebase></rate>
        <start>44342</start>
        <end>44481</end>
        <in>0</in>
        <out>139</out>
        <file id="file-316">
          <name>voice_113543.wav</name>
          <pathurl>file://localhost/C:/PROJECT_ROOT/assets/voice_113543.wav</pathurl>
          <rate><timebase>30</timebase></rate>
          <media>
             
             <audio>
                <samplecharacteristics>
                   <depth>16</depth>
                   <samplerate>44100</samplerate>
                </samplecharacteristics>
             </audio>
          </media>
        </file>
        
      </clipitem>

      <clipitem id="clipitem-487">
        <name>Voice 113544</name>
        <duration>797</duration>
        <rate><timebase>30</timebase></rate>
        <start>44481</start>
        <end>45278</end>
        <in>0</in>
        <out>797</out>
        <file id="file-317">
          <name>voice_113544.wav</name>
          <pathurl>file://localhost/C:/PROJECT_ROOT/assets/voice_113544.wav</pathurl>
          <rate><timebase>30</timebase></rate>
          <media>
             
             <audio>
                <samplecharacteristics>
                   <depth>16</depth>
                   <samplerate>44100</samplerate>
                </samplecharacteristics>
             </audio>
          </media>
        </file>
        
      </clipitem>

      <clipitem id="clipitem-488">
        <name>Voice 113545</name>
        <duration>280</duration>
        <rate><timebase>30</timebase></rate>
        <start>45278</start>
        <end>45558</end>
        <in>0</in>
        <out>280</out>
        <file id="file-318">
          <name>voice_113545.wav</name>
          <pathurl>file://localhost/C:/PROJECT_ROOT/assets/voice_113545.wav</pathurl>
          <rate><timebase>30</timebase></rate>
          <media>
             
             <audio>
                <samplecharacteristics>
                   <depth>16</depth>
                   <samplerate>44100</samplerate>
                </samplecharacteristics>
             </audio>
          </media>
        </file>
        
      </clipitem>

      <clipitem id="clipitem-490">
        <name>Voice 113546</name>
        <duration>39</duration>
        <rate><timebase>30</timebase></rate>
        <start>45558</start>
        <end>45597</end>
        <in>0</in>
        <out>39</out>
        <file id="file-319">
          <name>voice_113546.wav</name>
          <pathurl>file://localhost/C:/PROJECT_ROOT/assets/voice_113546.wav</pathurl>
          <rate><timebase>30</timebase></rate>
          <media>
             
             <audio>
                <samplecharacteristics>
                   <depth>16</depth>
                   <samplerate>44100</samplerate>
                </samplecharacteristics>
             </audio>
          </media>
        </file>
        
      </clipitem>

      <clipitem id="clipitem-492">
        <name>Voice 113547</name>
        <duration>26</duration>
        <rate><timebase>30</timebase></rate>
        <start>45597</start>
        <end>45623</end>
        <in>0</in>
        <out>26</out>
        <file id="file-320">
          <name>voice_113547.wav</name>
          <pathurl>file://localhost/C:/PROJECT_ROOT/assets/voice_113547.wav</pathurl>
          <rate><timebase>30</timebase></rate>
          <media>
             
             <audio>
                <samplecharacteristics>
                   <depth>16</depth>
                   <samplerate>44100</samplerate>
                </samplecharacteristics>
             </audio>
          </media>
        </file>
        
      </clipitem>

      <clipitem id="clipitem-493">
        <name>Voice 113548</name>
        <duration>257</duration>
        <rate><timebase>30</timebase></rate>
        <start>45623</start>
        <end>45880</end>
        <in>0</in>
        <out>257</out>
        <file id="file-321">
          <name>voice_113548.wav</name>
          <pathurl>file://localhost/C:/PROJECT_ROOT/assets/voice_113548.wav</pathurl>
          <rate><timebase>30</timebase></rate>
          <media>
             
             <audio>
                <samplecharacteristics>
                   <depth>16</depth>
                   <samplerate>44100</samplerate>
                </samplecharacteristics>
             </audio>
          </media>
        </file>
        
      </clipitem>

      <clipitem id="clipitem-495">
        <name>Voice 113550</name>
        <duration>49</duration>
        <rate><timebase>30</timebase></rate>
        <start>45880</start>
        <end>45929</end>
        <in>0</in>
        <out>49</out>
        <file id="file-322">
          <name>voice_113550.wav</name>
          <pathurl>file://localhost/C:/PROJECT_ROOT/assets/voice_113550.wav</pathurl>
          <rate><timebase>30</timebase></rate>
          <media>
             
             <audio>
                <samplecharacteristics>
                   <depth>16</depth>
                   <samplerate>44100</samplerate>
                </samplecharacteristics>
             </audio>
          </media>
        </file>
        
      </clipitem>

      <clipitem id="clipitem-497">
        <name>Voice 113551</name>
        <duration>104</duration>
        <rate><timebase>30</timebase></rate>
        <start>45929</start>
        <end>46033</end>
        <in>0</in>
        <out>104</out>
        <file id="file-323">
          <name>voice_113551.wav</name>
          <pathurl>file://localhost/C:/PROJECT_ROOT/assets/voice_113551.wav</pathurl>
          <rate><timebase>30</timebase></rate>
          <media>
             
             <audio>
                <samplecharacteristics>
                   <depth>16</depth>
                   <samplerate>44100</samplerate>
                </samplecharacteristics>
             </audio>
          </media>
        </file>
        
      </clipitem>

      <clipitem id="clipitem-498">
        <name>Voice 113465</name>
        <duration>21</duration>
        <rate><timebase>30</timebase></rate>
        <start>46033</start>
        <end>46054</end>
        <in>0</in>
        <out>21</out>
        <file id="file-324">
          <name>voice_113465.wav</name>
          <pathurl>file://localhost/C:/PROJECT_ROOT/assets/voice_113465.wav</pathurl>
          <rate><timebase>30</timebase></rate>
          <media>
             
             <audio>
                <samplecharacteristics>
                   <depth>16</depth>
                   <samplerate>44100</samplerate>
                </samplecharacteristics>
             </audio>
          </media>
        </file>
        
      </clipitem>

      <clipitem id="clipitem-500">
        <name>Voice 113466</name>
        <duration>53</duration>
        <rate><timebase>30</timebase></rate>
        <start>46054</start>
        <end>46107</end>
        <in>0</in>
        <out>53</out>
        <file id="file-325">
          <name>voice_113466.wav</name>
          <pathurl>file://localhost/C:/PROJECT_ROOT/assets/voice_113466.wav</pathurl>
          <rate><timebase>30</timebase></rate>
          <media>
             
             <audio>
                <samplecharacteristics>
                   <depth>16</depth>
                   <samplerate>44100</samplerate>
                </samplecharacteristics>
             </audio>
          </media>
        </file>
        
      </clipitem>

      <clipitem id="clipitem-503">
        <name>Voice 113552</name>
        <duration>178</duration>
        <rate><timebase>30</timebase></rate>
        <start>46294</start>
        <end>46472</end>
        <in>0</in>
        <out>178</out>
        <file id="file-326">
          <name>voice_113552.wav</name>
          <pathurl>file://localhost/C:/PROJECT_ROOT/assets/voice_113552.wav</pathurl>
          <rate><timebase>30</timebase></rate>
          <media>
             
             <audio>
                <samplecharacteristics>
                   <depth>16</depth>
                   <samplerate>44100</samplerate>
                </samplecharacteristics>
             </audio>
          </media>
        </file>
        
      </clipitem>

      <clipitem id="clipitem-505">
        <name>Voice 113468</name>
        <duration>65</duration>
        <rate><timebase>30</timebase></rate>
        <start>46472</start>
        <end>46537</end>
        <in>0</in>
        <out>65</out>
        <file id="file-327">
          <name>voice_113468.wav</name>
          <pathurl>file://localhost/C:/PROJECT_ROOT/assets/voice_113468.wav</pathurl>
          <rate><timebase>30</timebase></rate>
          <media>
             
             <audio>
                <samplecharacteristics>
                   <depth>16</depth>
                   <samplerate>44100</samplerate>
                </samplecharacteristics>
             </audio>
          </media>
        </file>
        
      </clipitem>

      <clipitem id="clipitem-506">
        <name>Voice 113553</name>
        <duration>164</duration>
        <rate><timebase>30</timebase></rate>
        <start>46537</start>
        <end>46701</end>
        <in>0</in>
        <out>164</out>
        <file id="file-328">
          <name>voice_113553.wav</name>
          <pathurl>file://localhost/C:/PROJECT_ROOT/assets/voice_113553.wav</pathurl>
          <rate><timebase>30</timebase></rate>
          <media>
             
             <audio>
                <samplecharacteristics>
                   <depth>16</depth>
                   <samplerate>44100</samplerate>
                </samplecharacteristics>
             </audio>
          </media>
        </file>
        
      </clipitem>

      <clipitem id="clipitem-508">
        <name>Voice 113555</name>
        <duration>283</duration>
        <rate><timebase>30</timebase></rate>
        <start>46873</start>
        <end>47156</end>
        <in>0</in>
        <out>283</out>
        <file id="file-329">
          <name>voice_113555.wav</name>
          <pathurl>file://localhost/C:/PROJECT_ROOT/assets/voice_113555.wav</pathurl>
          <rate><timebase>30</timebase></rate>
          <media>
             
             <audio>
                <samplecharacteristics>
                   <depth>16</depth>
                   <samplerate>44100</samplerate>
                </samplecharacteristics>
             </audio>
          </media>
        </file>
        
      </clipitem>

      <clipitem id="clipitem-510">
        <name>Voice 113557</name>
        <duration>109</duration>
        <rate><timebase>30</timebase></rate>
        <start>47156</start>
        <end>47265</end>
        <in>0</in>
        <out>109</out>
        <file id="file-330">
          <name>voice_113557.wav</name>
          <pathurl>file://localhost/C:/PROJECT_ROOT/assets/voice_113557.wav</pathurl>
          <rate><timebase>30</timebase></rate>
          <media>
             
             <audio>
                <samplecharacteristics>
                   <depth>16</depth>
                   <samplerate>44100</samplerate>
                </samplecharacteristics>
             </audio>
          </media>
        </file>
        
      </clipitem>

      <clipitem id="clipitem-512">
        <name>Voice 113558</name>
        <duration>161</duration>
        <rate><timebase>30</timebase></rate>
        <start>47265</start>
        <end>47426</end>
        <in>0</in>
        <out>161</out>
        <file id="file-331">
          <name>voice_113558.wav</name>
          <pathurl>file://localhost/C:/PROJECT_ROOT/assets/voice_113558.wav</pathurl>
          <rate><timebase>30</timebase></rate>
          <media>
             
             <audio>
                <samplecharacteristics>
                   <depth>16</depth>
                   <samplerate>44100</samplerate>
                </samplecharacteristics>
             </audio>
          </media>
        </file>
        
      </clipitem>

      <clipitem id="clipitem-514">
        <name>Voice 113559</name>
        <duration>300</duration>
        <rate><timebase>30</timebase></rate>
        <start>47426</start>
        <end>47726</end>
        <in>0</in>
        <out>300</out>
        <file id="file-332">
          <name>voice_113559.wav</name>
          <pathurl>file://localhost/C:/PROJECT_ROOT/assets/voice_113559.wav</pathurl>
          <rate><timebase>30</timebase></rate>
          <media>
             
             <audio>
                <samplecharacteristics>
                   <depth>16</depth>
                   <samplerate>44100</samplerate>
                </samplecharacteristics>
             </audio>
          </media>
        </file>
        
      </clipitem>

      <clipitem id="clipitem-516">
        <name>Voice 113560</name>
        <duration>111</duration>
        <rate><timebase>30</timebase></rate>
        <start>47726</start>
        <end>47837</end>
        <in>0</in>
        <out>111</out>
        <file id="file-333">
          <name>voice_113560.wav</name>
          <pathurl>file://localhost/C:/PROJECT_ROOT/assets/voice_113560.wav</pathurl>
          <rate><timebase>30</timebase></rate>
          <media>
             
             <audio>
                <samplecharacteristics>
                   <depth>16</depth>
                   <samplerate>44100</samplerate>
                </samplecharacteristics>
             </audio>
          </media>
        </file>
        
      </clipitem>

      <clipitem id="clipitem-518">
        <name>Voice 113561</name>
        <duration>131</duration>
        <rate><timebase>30</timebase></rate>
        <start>47837</start>
        <end>47968</end>
        <in>0</in>
        <out>131</out>
        <file id="file-334">
          <name>voice_113561.wav</name>
          <pathurl>file://localhost/C:/PROJECT_ROOT/assets/voice_113561.wav</pathurl>
          <rate><timebase>30</timebase></rate>
          <media>
             
             <audio>
                <samplecharacteristics>
                   <depth>16</depth>
                   <samplerate>44100</samplerate>
                </samplecharacteristics>
             </audio>
          </media>
        </file>
        
      </clipitem>

      <clipitem id="clipitem-520">
        <name>Voice 113562</name>
        <duration>184</duration>
        <rate><timebase>30</timebase></rate>
        <start>47968</start>
        <end>48152</end>
        <in>0</in>
        <out>184</out>
        <file id="file-335">
          <name>voice_113562.wav</name>
          <pathurl>file://localhost/C:/PROJECT_ROOT/assets/voice_113562.wav</pathurl>
          <rate><timebase>30</timebase></rate>
          <media>
             
             <audio>
                <samplecharacteristics>
                   <depth>16</depth>
                   <samplerate>44100</samplerate>
                </samplecharacteristics>
             </audio>
          </media>
        </file>
        
      </clipitem>

      <clipitem id="clipitem-522">
        <name>Voice 113563</name>
        <duration>362</duration>
        <rate><timebase>30</timebase></rate>
        <start>48152</start>
        <end>48514</end>
        <in>0</in>
        <out>362</out>
        <file id="file-336">
          <name>voice_113563.wav</name>
          <pathurl>file://localhost/C:/PROJECT_ROOT/assets/voice_113563.wav</pathurl>
          <rate><timebase>30</timebase></rate>
          <media>
             
             <audio>
                <samplecharacteristics>
                   <depth>16</depth>
                   <samplerate>44100</samplerate>
                </samplecharacteristics>
             </audio>
          </media>
        </file>
        
      </clipitem>

      <clipitem id="clipitem-524">
        <name>Voice 113564</name>
        <duration>155</duration>
        <rate><timebase>30</timebase></rate>
        <start>48514</start>
        <end>48669</end>
        <in>0</in>
        <out>155</out>
        <file id="file-337">
          <name>voice_113564.wav</name>
          <pathurl>file://localhost/C:/PROJECT_ROOT/assets/voice_113564.wav</pathurl>
          <rate><timebase>30</timebase></rate>
          <media>
             
             <audio>
                <samplecharacteristics>
                   <depth>16</depth>
                   <samplerate>44100</samplerate>
                </samplecharacteristics>
             </audio>
          </media>
        </file>
        
      </clipitem>

      <clipitem id="clipitem-526">
        <name>Voice 113565</name>
        <duration>293</duration>
        <rate><timebase>30</timebase></rate>
        <start>48669</start>
        <end>48962</end>
        <in>0</in>
        <out>293</out>
        <file id="file-338">
          <name>voice_113565.wav</name>
          <pathurl>file://localhost/C:/PROJECT_ROOT/assets/voice_113565.wav</pathurl>
          <rate><timebase>30</timebase></rate>
          <media>
             
             <audio>
                <samplecharacteristics>
                   <depth>16</depth>
                   <samplerate>44100</samplerate>
                </samplecharacteristics>
             </audio>
          </media>
        </file>
        
      </clipitem>

      <clipitem id="clipitem-528">
        <name>Voice 113566</name>
        <duration>101</duration>
        <rate><timebase>30</timebase></rate>
        <start>48962</start>
        <end>49063</end>
        <in>0</in>
        <out>101</out>
        <file id="file-339">
          <name>voice_113566.wav</name>
          <pathurl>file://localhost/C:/PROJECT_ROOT/assets/voice_113566.wav</pathurl>
          <rate><timebase>30</timebase></rate>
          <media>
             
             <audio>
                <samplecharacteristics>
                   <depth>16</depth>
                   <samplerate>44100</samplerate>
                </samplecharacteristics>
             </audio>
          </media>
        </file>
        
      </clipitem>

      <clipitem id="clipitem-530">
        <name>Voice 113567</name>
        <duration>173</duration>
        <rate><timebase>30</timebase></rate>
        <start>49063</start>
        <end>49236</end>
        <in>0</in>
        <out>173</out>
        <file id="file-340">
          <name>voice_113567.wav</name>
          <pathurl>file://localhost/C:/PROJECT_ROOT/assets/voice_113567.wav</pathurl>
          <rate><timebase>30</timebase></rate>
          <media>
             
             <audio>
                <samplecharacteristics>
                   <depth>16</depth>
                   <samplerate>44100</samplerate>
                </samplecharacteristics>
             </audio>
          </media>
        </file>
        
      </clipitem>

      <clipitem id="clipitem-532">
        <name>Voice 113568</name>
        <duration>116</duration>
        <rate><timebase>30</timebase></rate>
        <start>49236</start>
        <end>49352</end>
        <in>0</in>
        <out>116</out>
        <file id="file-341">
          <name>voice_113568.wav</name>
          <pathurl>file://localhost/C:/PROJECT_ROOT/assets/voice_113568.wav</pathurl>
          <rate><timebase>30</timebase></rate>
          <media>
             
             <audio>
                <samplecharacteristics>
                   <depth>16</depth>
                   <samplerate>44100</samplerate>
                </samplecharacteristics>
             </audio>
          </media>
        </file>
        
      </clipitem>

      <clipitem id="clipitem-534">
        <name>Voice 113470</name>
        <duration>300</duration>
        <rate><timebase>30</timebase></rate>
        <start>49352</start>
        <end>49652</end>
        <in>0</in>
        <out>300</out>
        <file id="file-342">
          <name>voice_113470.wav</name>
          <pathurl>file://localhost/C:/PROJECT_ROOT/assets/voice_113470.wav</pathurl>
          <rate><timebase>30</timebase></rate>
          <media>
             
             <audio>
                <samplecharacteristics>
                   <depth>16</depth>
                   <samplerate>44100</samplerate>
                </samplecharacteristics>
             </audio>
          </media>
        </file>
        
      </clipitem>

      <clipitem id="clipitem-537">
        <name>Voice 113472</name>
        <duration>115</duration>
        <rate><timebase>30</timebase></rate>
        <start>49712</start>
        <end>49827</end>
        <in>0</in>
        <out>115</out>
        <file id="file-343">
          <name>voice_113472.wav</name>
          <pathurl>file://localhost/C:/PROJECT_ROOT/assets/voice_113472.wav</pathurl>
          <rate><timebase>30</timebase></rate>
          <media>
             
             <audio>
                <samplecharacteristics>
                   <depth>16</depth>
                   <samplerate>44100</samplerate>
                </samplecharacteristics>
             </audio>
          </media>
        </file>
        
      </clipitem>

      <clipitem id="clipitem-539">
        <name>Voice 113471</name>
        <duration>69</duration>
        <rate><timebase>30</timebase></rate>
        <start>49827</start>
        <end>49896</end>
        <in>0</in>
        <out>69</out>
        <file id="file-344">
          <name>voice_113471.wav</name>
          <pathurl>file://localhost/C:/PROJECT_ROOT/assets/voice_113471.wav</pathurl>
          <rate><timebase>30</timebase></rate>
          <media>
             
             <audio>
                <samplecharacteristics>
                   <depth>16</depth>
                   <samplerate>44100</samplerate>
                </samplecharacteristics>
             </audio>
          </media>
        </file>
        
      </clipitem>

      <clipitem id="clipitem-541">
        <name>Voice 113473</name>
        <duration>190</duration>
        <rate><timebase>30</timebase></rate>
        <start>49896</start>
        <end>50086</end>
        <in>0</in>
        <out>190</out>
        <file id="file-345">
          <name>voice_113473.wav</name>
          <pathurl>file://localhost/C:/PROJECT_ROOT/assets/voice_113473.wav</pathurl>
          <rate><timebase>30</timebase></rate>
          <media>
             
             <audio>
                <samplecharacteristics>
                   <depth>16</depth>
                   <samplerate>44100</samplerate>
                </samplecharacteristics>
             </audio>
          </media>
        </file>
        
      </clipitem>

      <clipitem id="clipitem-543">
        <name>Voice 113570</name>
        <duration>418</duration>
        <rate><timebase>30</timebase></rate>
        <start>50086</start>
        <end>50504</end>
        <in>0</in>
        <out>418</out>
        <file id="file-346">
          <name>voice_113570.wav</name>
          <pathurl>file://localhost/C:/PROJECT_ROOT/assets/voice_113570.wav</pathurl>
          <rate><timebase>30</timebase></rate>
          <media>
             
             <audio>
                <samplecharacteristics>
                   <depth>16</depth>
                   <samplerate>44100</samplerate>
                </samplecharacteristics>
             </audio>
          </media>
        </file>
        
      </clipitem>

      <clipitem id="clipitem-545">
        <name>Voice 113571</name>
        <duration>212</duration>
        <rate><timebase>30</timebase></rate>
        <start>50504</start>
        <end>50716</end>
        <in>0</in>
        <out>212</out>
        <file id="file-347">
          <name>voice_113571.wav</name>
          <pathurl>file://localhost/C:/PROJECT_ROOT/assets/voice_113571.wav</pathurl>
          <rate><timebase>30</timebase></rate>
          <media>
             
             <audio>
                <samplecharacteristics>
                   <depth>16</depth>
                   <samplerate>44100</samplerate>
                </samplecharacteristics>
             </audio>
          </media>
        </file>
        
      </clipitem>

      <clipitem id="clipitem-547">
        <name>Voice 113572</name>
        <duration>88</duration>
        <rate><timebase>30</timebase></rate>
        <start>50716</start>
        <end>50804</end>
        <in>0</in>
        <out>88</out>
        <file id="file-348">
          <name>voice_113572.wav</name>
          <pathurl>file://localhost/C:/PROJECT_ROOT/assets/voice_113572.wav</pathurl>
          <rate><timebase>30</timebase></rate>
          <media>
             
             <audio>
                <samplecharacteristics>
                   <depth>16</depth>
                   <samplerate>44100</samplerate>
                </samplecharacteristics>
             </audio>
          </media>
        </file>
        
      </clipitem>

      <clipitem id="clipitem-548">
        <name>Voice 113573</name>
        <duration>163</duration>
        <rate><timebase>30</timebase></rate>
        <start>50804</start>
        <end>50967</end>
        <in>0</in>
        <out>163</out>
        <file id="file-349">
          <name>voice_113573.wav</name>
          <pathurl>file://localhost/C:/PROJECT_ROOT/assets/voice_113573.wav</pathurl>
          <rate><timebase>30</timebase></rate>
          <media>
             
             <audio>
                <samplecharacteristics>
                   <depth>16</depth>
                   <samplerate>44100</samplerate>
                </samplecharacteristics>
             </audio>
          </media>
        </file>
        
      </clipitem>

      <clipitem id="clipitem-550">
        <name>Voice 113474</name>
        <duration>299</duration>
        <rate><timebase>30</timebase></rate>
        <start>50967</start>
        <end>51266</end>
        <in>0</in>
        <out>299</out>
        <file id="file-351">
          <name>voice_113474.wav</name>
          <pathurl>file://localhost/C:/PROJECT_ROOT/assets/voice_113474.wav</pathurl>
          <rate><timebase>30</timebase></rate>
          <media>
             
             <audio>
                <samplecharacteristics>
                   <depth>16</depth>
                   <samplerate>44100</samplerate>
                </samplecharacteristics>
             </audio>
          </media>
        </file>
        
      </clipitem>

      <clipitem id="clipitem-552">
        <name>Voice 113475</name>
        <duration>68</duration>
        <rate><timebase>30</timebase></rate>
        <start>51266</start>
        <end>51334</end>
        <in>0</in>
        <out>68</out>
        <file id="file-352">
          <name>voice_113475.wav</name>
          <pathurl>file://localhost/C:/PROJECT_ROOT/assets/voice_113475.wav</pathurl>
          <rate><timebase>30</timebase></rate>
          <media>
             
             <audio>
                <samplecharacteristics>
                   <depth>16</depth>
                   <samplerate>44100</samplerate>
                </samplecharacteristics>
             </audio>
          </media>
        </file>
        
      </clipitem>

      <clipitem id="clipitem-554">
        <name>Voice 113574</name>
        <duration>163</duration>
        <rate><timebase>30</timebase></rate>
        <start>51334</start>
        <end>51497</end>
        <in>0</in>
        <out>163</out>
        <file id="file-353">
          <name>voice_113574.wav</name>
          <pathurl>file://localhost/C:/PROJECT_ROOT/assets/voice_113574.wav</pathurl>
          <rate><timebase>30</timebase></rate>
          <media>
             
             <audio>
                <samplecharacteristics>
                   <depth>16</depth>
                   <samplerate>44100</samplerate>
                </samplecharacteristics>
             </audio>
          </media>
        </file>
        
      </clipitem>

      <clipitem id="clipitem-556">
        <name>Voice 113476</name>
        <duration>246</duration>
        <rate><timebase>30</timebase></rate>
        <start>51497</start>
        <end>51743</end>
        <in>0</in>
        <out>246</out>
        <file id="file-354">
          <name>voice_113476.wav</name>
          <pathurl>file://localhost/C:/PROJECT_ROOT/assets/voice_113476.wav</pathurl>
          <rate><timebase>30</timebase></rate>
          <media>
             
             <audio>
                <samplecharacteristics>
                   <depth>16</depth>
                   <samplerate>44100</samplerate>
                </samplecharacteristics>
             </audio>
          </media>
        </file>
        
      </clipitem>

      <clipitem id="clipitem-558">
        <name>Voice 113477</name>
        <duration>82</duration>
        <rate><timebase>30</timebase></rate>
        <start>51743</start>
        <end>51825</end>
        <in>0</in>
        <out>82</out>
        <file id="file-355">
          <name>voice_113477.wav</name>
          <pathurl>file://localhost/C:/PROJECT_ROOT/assets/voice_113477.wav</pathurl>
          <rate><timebase>30</timebase></rate>
          <media>
             
             <audio>
                <samplecharacteristics>
                   <depth>16</depth>
                   <samplerate>44100</samplerate>
                </samplecharacteristics>
             </audio>
          </media>
        </file>
        
      </clipitem>

      <clipitem id="clipitem-560">
        <name>Voice 113478</name>
        <duration>183</duration>
        <rate><timebase>30</timebase></rate>
        <start>51825</start>
        <end>52008</end>
        <in>0</in>
        <out>183</out>
        <file id="file-356">
          <name>voice_113478.wav</name>
          <pathurl>file://localhost/C:/PROJECT_ROOT/assets/voice_113478.wav</pathurl>
          <rate><timebase>30</timebase></rate>
          <media>
             
             <audio>
                <samplecharacteristics>
                   <depth>16</depth>
                   <samplerate>44100</samplerate>
                </samplecharacteristics>
             </audio>
          </media>
        </file>
        
      </clipitem>

      <clipitem id="clipitem-562">
        <name>Voice 113479</name>
        <duration>141</duration>
        <rate><timebase>30</timebase></rate>
        <start>52008</start>
        <end>52149</end>
        <in>0</in>
        <out>141</out>
        <file id="file-357">
          <name>voice_113479.wav</name>
          <pathurl>file://localhost/C:/PROJECT_ROOT/assets/voice_113479.wav</pathurl>
          <rate><timebase>30</timebase></rate>
          <media>
             
             <audio>
                <samplecharacteristics>
                   <depth>16</depth>
                   <samplerate>44100</samplerate>
                </samplecharacteristics>
             </audio>
          </media>
        </file>
        
      </clipitem>

      <clipitem id="clipitem-564">
        <name>Voice 113480</name>
        <duration>122</duration>
        <rate><timebase>30</timebase></rate>
        <start>52149</start>
        <end>52271</end>
        <in>0</in>
        <out>122</out>
        <file id="file-358">
          <name>voice_113480.wav</name>
          <pathurl>file://localhost/C:/PROJECT_ROOT/assets/voice_113480.wav</pathurl>
          <rate><timebase>30</timebase></rate>
          <media>
             
             <audio>
                <samplecharacteristics>
                   <depth>16</depth>
                   <samplerate>44100</samplerate>
                </samplecharacteristics>
             </audio>
          </media>
        </file>
        
      </clipitem>

      <clipitem id="clipitem-566">
        <name>Voice 113481</name>
        <duration>83</duration>
        <rate><timebase>30</timebase></rate>
        <start>52271</start>
        <end>52354</end>
        <in>0</in>
        <out>83</out>
        <file id="file-359">
          <name>voice_113481.wav</name>
          <pathurl>file://localhost/C:/PROJECT_ROOT/assets/voice_113481.wav</pathurl>
          <rate><timebase>30</timebase></rate>
          <media>
             
             <audio>
                <samplecharacteristics>
                   <depth>16</depth>
                   <samplerate>44100</samplerate>
                </samplecharacteristics>
             </audio>
          </media>
        </file>
        
      </clipitem>

      <clipitem id="clipitem-567">
        <name>Voice 113579</name>
        <duration>170</duration>
        <rate><timebase>30</timebase></rate>
        <start>52354</start>
        <end>52524</end>
        <in>0</in>
        <out>170</out>
        <file id="file-360">
          <name>voice_113579.wav</name>
          <pathurl>file://localhost/C:/PROJECT_ROOT/assets/voice_113579.wav</pathurl>
          <rate><timebase>30</timebase></rate>
          <media>
             
             <audio>
                <samplecharacteristics>
                   <depth>16</depth>
                   <samplerate>44100</samplerate>
                </samplecharacteristics>
             </audio>
          </media>
        </file>
        
      </clipitem>

      <clipitem id="clipitem-568">
        <name>Voice 113482</name>
        <duration>372</duration>
        <rate><timebase>30</timebase></rate>
        <start>52524</start>
        <end>52896</end>
        <in>0</in>
        <out>372</out>
        <file id="file-361">
          <name>voice_113482.wav</name>
          <pathurl>file://localhost/C:/PROJECT_ROOT/assets/voice_113482.wav</pathurl>
          <rate><timebase>30</timebase></rate>
          <media>
             
             <audio>
                <samplecharacteristics>
                   <depth>16</depth>
                   <samplerate>44100</samplerate>
                </samplecharacteristics>
             </audio>
          </media>
        </file>
        
      </clipitem>

      <clipitem id="clipitem-570">
        <name>Voice 113575</name>
        <duration>205</duration>
        <rate><timebase>30</timebase></rate>
        <start>52896</start>
        <end>53101</end>
        <in>0</in>
        <out>205</out>
        <file id="file-362">
          <name>voice_113575.wav</name>
          <pathurl>file://localhost/C:/PROJECT_ROOT/assets/voice_113575.wav</pathurl>
          <rate><timebase>30</timebase></rate>
          <media>
             
             <audio>
                <samplecharacteristics>
                   <depth>16</depth>
                   <samplerate>44100</samplerate>
                </samplecharacteristics>
             </audio>
          </media>
        </file>
        
      </clipitem>

      <clipitem id="clipitem-572">
        <name>Voice 113483</name>
        <duration>78</duration>
        <rate><timebase>30</timebase></rate>
        <start>53101</start>
        <end>53179</end>
        <in>0</in>
        <out>78</out>
        <file id="file-363">
          <name>voice_113483.wav</name>
          <pathurl>file://localhost/C:/PROJECT_ROOT/assets/voice_113483.wav</pathurl>
          <rate><timebase>30</timebase></rate>
          <media>
             
             <audio>
                <samplecharacteristics>
                   <depth>16</depth>
                   <samplerate>44100</samplerate>
                </samplecharacteristics>
             </audio>
          </media>
        </file>
        
      </clipitem>

      <clipitem id="clipitem-574">
        <name>Voice 113484</name>
        <duration>41</duration>
        <rate><timebase>30</timebase></rate>
        <start>53179</start>
        <end>53220</end>
        <in>0</in>
        <out>41</out>
        <file id="file-364">
          <name>voice_113484.wav</name>
          <pathurl>file://localhost/C:/PROJECT_ROOT/assets/voice_113484.wav</pathurl>
          <rate><timebase>30</timebase></rate>
          <media>
             
             <audio>
                <samplecharacteristics>
                   <depth>16</depth>
                   <samplerate>44100</samplerate>
                </samplecharacteristics>
             </audio>
          </media>
        </file>
        
      </clipitem>

      <clipitem id="clipitem-576">
        <name>Voice 113485</name>
        <duration>291</duration>
        <rate><timebase>30</timebase></rate>
        <start>53220</start>
        <end>53511</end>
        <in>0</in>
        <out>291</out>
        <file id="file-365">
          <name>voice_113485.wav</name>
          <pathurl>file://localhost/C:/PROJECT_ROOT/assets/voice_113485.wav</pathurl>
          <rate><timebase>30</timebase></rate>
          <media>
             
             <audio>
                <samplecharacteristics>
                   <depth>16</depth>
                   <samplerate>44100</samplerate>
                </samplecharacteristics>
             </audio>
          </media>
        </file>
        
      </clipitem>

      <clipitem id="clipitem-578">
        <name>Voice 113576</name>
        <duration>260</duration>
        <rate><timebase>30</timebase></rate>
        <start>53511</start>
        <end>53771</end>
        <in>0</in>
        <out>260</out>
        <file id="file-366">
          <name>voice_113576.wav</name>
          <pathurl>file://localhost/C:/PROJECT_ROOT/assets/voice_113576.wav</pathurl>
          <rate><timebase>30</timebase></rate>
          <media>
             
             <audio>
                <samplecharacteristics>
                   <depth>16</depth>
                   <samplerate>44100</samplerate>
                </samplecharacteristics>
             </audio>
          </media>
        </file>
        
      </clipitem>

      <clipitem id="clipitem-580">
        <name>Voice 113577</name>
        <duration>300</duration>
        <rate><timebase>30</timebase></rate>
        <start>53771</start>
        <end>54071</end>
        <in>0</in>
        <out>300</out>
        <file id="file-368">
          <name>voice_113577.wav</name>
          <pathurl>file://localhost/C:/PROJECT_ROOT/assets/voice_113577.wav</pathurl>
          <rate><timebase>30</timebase></rate>
          <media>
             
             <audio>
                <samplecharacteristics>
                   <depth>16</depth>
                   <samplerate>44100</samplerate>
                </samplecharacteristics>
             </audio>
          </media>
        </file>
        
      </clipitem>

      <clipitem id="clipitem-582">
        <name>Voice 113578</name>
        <duration>85</duration>
        <rate><timebase>30</timebase></rate>
        <start>54071</start>
        <end>54156</end>
        <in>0</in>
        <out>85</out>
        <file id="file-370">
          <name>voice_113578.wav</name>
          <pathurl>file://localhost/C:/PROJECT_ROOT/assets/voice_113578.wav</pathurl>
          <rate><timebase>30</timebase></rate>
          <media>
             
             <audio>
                <samplecharacteristics>
                   <depth>16</depth>
                   <samplerate>44100</samplerate>
                </samplecharacteristics>
             </audio>
          </media>
        </file>
        
      </clipitem>

      <clipitem id="clipitem-584">
        <name>Voice 113486</name>
        <duration>225</duration>
        <rate><timebase>30</timebase></rate>
        <start>54156</start>
        <end>54381</end>
        <in>0</in>
        <out>225</out>
        <file id="file-371">
          <name>voice_113486.wav</name>
          <pathurl>file://localhost/C:/PROJECT_ROOT/assets/voice_113486.wav</pathurl>
          <rate><timebase>30</timebase></rate>
          <media>
             
             <audio>
                <samplecharacteristics>
                   <depth>16</depth>
                   <samplerate>44100</samplerate>
                </samplecharacteristics>
             </audio>
          </media>
        </file>
        
      </clipitem>

      <clipitem id="clipitem-586">
        <name>Voice 113487</name>
        <duration>241</duration>
        <rate><timebase>30</timebase></rate>
        <start>54381</start>
        <end>54622</end>
        <in>0</in>
        <out>241</out>
        <file id="file-372">
          <name>voice_113487.wav</name>
          <pathurl>file://localhost/C:/PROJECT_ROOT/assets/voice_113487.wav</pathurl>
          <rate><timebase>30</timebase></rate>
          <media>
             
             <audio>
                <samplecharacteristics>
                   <depth>16</depth>
                   <samplerate>44100</samplerate>
                </samplecharacteristics>
             </audio>
          </media>
        </file>
        
      </clipitem>

      <clipitem id="clipitem-588">
        <name>Voice 113583</name>
        <duration>134</duration>
        <rate><timebase>30</timebase></rate>
        <start>54622</start>
        <end>54756</end>
        <in>0</in>
        <out>134</out>
        <file id="file-373">
          <name>voice_113583.wav</name>
          <pathurl>file://localhost/C:/PROJECT_ROOT/assets/voice_113583.wav</pathurl>
          <rate><timebase>30</timebase></rate>
          <media>
             
             <audio>
                <samplecharacteristics>
                   <depth>16</depth>
                   <samplerate>44100</samplerate>
                </samplecharacteristics>
             </audio>
          </media>
        </file>
        
      </clipitem>

      <clipitem id="clipitem-590">
        <name>Voice 113584</name>
        <duration>228</duration>
        <rate><timebase>30</timebase></rate>
        <start>54756</start>
        <end>54984</end>
        <in>0</in>
        <out>228</out>
        <file id="file-374">
          <name>voice_113584.wav</name>
          <pathurl>file://localhost/C:/PROJECT_ROOT/assets/voice_113584.wav</pathurl>
          <rate><timebase>30</timebase></rate>
          <media>
             
             <audio>
                <samplecharacteristics>
                   <depth>16</depth>
                   <samplerate>44100</samplerate>
                </samplecharacteristics>
             </audio>
          </media>
        </file>
        
      </clipitem>

      <clipitem id="clipitem-592">
        <name>Voice 113585</name>
        <duration>36</duration>
        <rate><timebase>30</timebase></rate>
        <start>54984</start>
        <end>55020</end>
        <in>0</in>
        <out>36</out>
        <file id="file-375">
          <name>voice_113585.wav</name>
          <pathurl>file://localhost/C:/PROJECT_ROOT/assets/voice_113585.wav</pathurl>
          <rate><timebase>30</timebase></rate>
          <media>
             
             <audio>
                <samplecharacteristics>
                   <depth>16</depth>
                   <samplerate>44100</samplerate>
                </samplecharacteristics>
             </audio>
          </media>
        </file>
        
      </clipitem>

      <clipitem id="clipitem-594">
        <name>Voice 113488</name>
        <duration>158</duration>
        <rate><timebase>30</timebase></rate>
        <start>55020</start>
        <end>55178</end>
        <in>0</in>
        <out>158</out>
        <file id="file-376">
          <name>voice_113488.wav</name>
          <pathurl>file://localhost/C:/PROJECT_ROOT/assets/voice_113488.wav</pathurl>
          <rate><timebase>30</timebase></rate>
          <media>
             
             <audio>
                <samplecharacteristics>
                   <depth>16</depth>
                   <samplerate>44100</samplerate>
                </samplecharacteristics>
             </audio>
          </media>
        </file>
        
      </clipitem>

      <clipitem id="clipitem-596">
        <name>Voice 113580</name>
        <duration>131</duration>
        <rate><timebase>30</timebase></rate>
        <start>55178</start>
        <end>55309</end>
        <in>0</in>
        <out>131</out>
        <file id="file-377">
          <name>voice_113580.wav</name>
          <pathurl>file://localhost/C:/PROJECT_ROOT/assets/voice_113580.wav</pathurl>
          <rate><timebase>30</timebase></rate>
          <media>
             
             <audio>
                <samplecharacteristics>
                   <depth>16</depth>
                   <samplerate>44100</samplerate>
                </samplecharacteristics>
             </audio>
          </media>
        </file>
        
      </clipitem>

      <clipitem id="clipitem-598">
        <name>Voice 113581</name>
        <duration>176</duration>
        <rate><timebase>30</timebase></rate>
        <start>55309</start>
        <end>55485</end>
        <in>0</in>
        <out>176</out>
        <file id="file-378">
          <name>voice_113581.wav</name>
          <pathurl>file://localhost/C:/PROJECT_ROOT/assets/voice_113581.wav</pathurl>
          <rate><timebase>30</timebase></rate>
          <media>
             
             <audio>
                <samplecharacteristics>
                   <depth>16</depth>
                   <samplerate>44100</samplerate>
                </samplecharacteristics>
             </audio>
          </media>
        </file>
        
      </clipitem>

      <clipitem id="clipitem-599">
        <name>Voice 113489</name>
        <duration>300</duration>
        <rate><timebase>30</timebase></rate>
        <start>55485</start>
        <end>55785</end>
        <in>0</in>
        <out>300</out>
        <file id="file-379">
          <name>voice_113489.wav</name>
          <pathurl>file://localhost/C:/PROJECT_ROOT/assets/voice_113489.wav</pathurl>
          <rate><timebase>30</timebase></rate>
          <media>
             
             <audio>
                <samplecharacteristics>
                   <depth>16</depth>
                   <samplerate>44100</samplerate>
                </samplecharacteristics>
             </audio>
          </media>
        </file>
        
      </clipitem>

      <clipitem id="clipitem-601">
        <name>Voice 113490</name>
        <duration>197</duration>
        <rate><timebase>30</timebase></rate>
        <start>55785</start>
        <end>55982</end>
        <in>0</in>
        <out>197</out>
        <file id="file-380">
          <name>voice_113490.wav</name>
          <pathurl>file://localhost/C:/PROJECT_ROOT/assets/voice_113490.wav</pathurl>
          <rate><timebase>30</timebase></rate>
          <media>
             
             <audio>
                <samplecharacteristics>
                   <depth>16</depth>
                   <samplerate>44100</samplerate>
                </samplecharacteristics>
             </audio>
          </media>
        </file>
        
      </clipitem>

      <clipitem id="clipitem-603">
        <name>Voice 113491</name>
        <duration>88</duration>
        <rate><timebase>30</timebase></rate>
        <start>56042</start>
        <end>56130</end>
        <in>0</in>
        <out>88</out>
        <file id="file-381">
          <name>voice_113491.wav</name>
          <pathurl>file://localhost/C:/PROJECT_ROOT/assets/voice_113491.wav</pathurl>
          <rate><timebase>30</timebase></rate>
          <media>
             
             <audio>
                <samplecharacteristics>
                   <depth>16</depth>
                   <samplerate>44100</samplerate>
                </samplecharacteristics>
             </audio>
          </media>
        </file>
        
      </clipitem>

      <clipitem id="clipitem-604">
        <name>Voice 113492</name>
        <duration>185</duration>
        <rate><timebase>30</timebase></rate>
        <start>56130</start>
        <end>56315</end>
        <in>0</in>
        <out>185</out>
        <file id="file-382">
          <name>voice_113492.wav</name>
          <pathurl>file://localhost/C:/PROJECT_ROOT/assets/voice_113492.wav</pathurl>
          <rate><timebase>30</timebase></rate>
          <media>
             
             <audio>
                <samplecharacteristics>
                   <depth>16</depth>
                   <samplerate>44100</samplerate>
                </samplecharacteristics>
             </audio>
          </media>
        </file>
        
      </clipitem>

      <clipitem id="clipitem-606">
        <name>Voice 113493</name>
        <duration>41</duration>
        <rate><timebase>30</timebase></rate>
        <start>56315</start>
        <end>56356</end>
        <in>0</in>
        <out>41</out>
        <file id="file-383">
          <name>voice_113493.wav</name>
          <pathurl>file://localhost/C:/PROJECT_ROOT/assets/voice_113493.wav</pathurl>
          <rate><timebase>30</timebase></rate>
          <media>
             
             <audio>
                <samplecharacteristics>
                   <depth>16</depth>
                   <samplerate>44100</samplerate>
                </samplecharacteristics>
             </audio>
          </media>
        </file>
        
      </clipitem>

      <clipitem id="clipitem-608">
        <name>Voice 113494</name>
        <duration>23</duration>
        <rate><timebase>30</timebase></rate>
        <start>56356</start>
        <end>56379</end>
        <in>0</in>
        <out>23</out>
        <file id="file-384">
          <name>voice_113494.wav</name>
          <pathurl>file://localhost/C:/PROJECT_ROOT/assets/voice_113494.wav</pathurl>
          <rate><timebase>30</timebase></rate>
          <media>
             
             <audio>
                <samplecharacteristics>
                   <depth>16</depth>
                   <samplerate>44100</samplerate>
                </samplecharacteristics>
             </audio>
          </media>
        </file>
        
      </clipitem>

      <clipitem id="clipitem-609">
        <name>Voice 113495</name>
        <duration>40</duration>
        <rate><timebase>30</timebase></rate>
        <start>56379</start>
        <end>56419</end>
        <in>0</in>
        <out>40</out>
        <file id="file-385">
          <name>voice_113495.wav</name>
          <pathurl>file://localhost/C:/PROJECT_ROOT/assets/voice_113495.wav</pathurl>
          <rate><timebase>30</timebase></rate>
          <media>
             
             <audio>
                <samplecharacteristics>
                   <depth>16</depth>
                   <samplerate>44100</samplerate>
                </samplecharacteristics>
             </audio>
          </media>
        </file>
        
      </clipitem>

      <clipitem id="clipitem-612">
        <name>Voice 113497</name>
        <duration>43</duration>
        <rate><timebase>30</timebase></rate>
        <start>56606</start>
        <end>56649</end>
        <in>0</in>
        <out>43</out>
        <file id="file-386">
          <name>voice_113497.wav</name>
          <pathurl>file://localhost/C:/PROJECT_ROOT/assets/voice_113497.wav</pathurl>
          <rate><timebase>30</timebase></rate>
          <media>
             
             <audio>
                <samplecharacteristics>
                   <depth>16</depth>
                   <samplerate>44100</samplerate>
                </samplecharacteristics>
             </audio>
          </media>
        </file>
        
      </clipitem>

      <clipitem id="clipitem-615">
        <name>Voice 113499</name>
        <duration>171</duration>
        <rate><timebase>30</timebase></rate>
        <start>56821</start>
        <end>56992</end>
        <in>0</in>
        <out>171</out>
        <file id="file-387">
          <name>voice_113499.wav</name>
          <pathurl>file://localhost/C:/PROJECT_ROOT/assets/voice_113499.wav</pathurl>
          <rate><timebase>30</timebase></rate>
          <media>
             
             <audio>
                <samplecharacteristics>
                   <depth>16</depth>
                   <samplerate>44100</samplerate>
                </samplecharacteristics>
             </audio>
          </media>
        </file>
        
      </clipitem>

      <clipitem id="clipitem-617">
        <name>Voice 113500</name>
        <duration>87</duration>
        <rate><timebase>30</timebase></rate>
        <start>56992</start>
        <end>57079</end>
        <in>0</in>
        <out>87</out>
        <file id="file-388">
          <name>voice_113500.wav</name>
          <pathurl>file://localhost/C:/PROJECT_ROOT/assets/voice_113500.wav</pathurl>
          <rate><timebase>30</timebase></rate>
          <media>
             
             <audio>
                <samplecharacteristics>
                   <depth>16</depth>
                   <samplerate>44100</samplerate>
                </samplecharacteristics>
             </audio>
          </media>
        </file>
        
      </clipitem>

      <clipitem id="clipitem-618">
        <name>Voice 113501</name>
        <duration>118</duration>
        <rate><timebase>30</timebase></rate>
        <start>57079</start>
        <end>57197</end>
        <in>0</in>
        <out>118</out>
        <file id="file-389">
          <name>voice_113501.wav</name>
          <pathurl>file://localhost/C:/PROJECT_ROOT/assets/voice_113501.wav</pathurl>
          <rate><timebase>30</timebase></rate>
          <media>
             
             <audio>
                <samplecharacteristics>
                   <depth>16</depth>
                   <samplerate>44100</samplerate>
                </samplecharacteristics>
             </audio>
          </media>
        </file>
        
      </clipitem>

      <clipitem id="clipitem-620">
        <name>Voice 113502</name>
        <duration>39</duration>
        <rate><timebase>30</timebase></rate>
        <start>57197</start>
        <end>57236</end>
        <in>0</in>
        <out>39</out>
        <file id="file-390">
          <name>voice_113502.wav</name>
          <pathurl>file://localhost/C:/PROJECT_ROOT/assets/voice_113502.wav</pathurl>
          <rate><timebase>30</timebase></rate>
          <media>
             
             <audio>
                <samplecharacteristics>
                   <depth>16</depth>
                   <samplerate>44100</samplerate>
                </samplecharacteristics>
             </audio>
          </media>
        </file>
        
      </clipitem>

      <clipitem id="clipitem-622">
        <name>Voice 113503</name>
        <duration>82</duration>
        <rate><timebase>30</timebase></rate>
        <start>57236</start>
        <end>57318</end>
        <in>0</in>
        <out>82</out>
        <file id="file-391">
          <name>voice_113503.wav</name>
          <pathurl>file://localhost/C:/PROJECT_ROOT/assets/voice_113503.wav</pathurl>
          <rate><timebase>30</timebase></rate>
          <media>
             
             <audio>
                <samplecharacteristics>
                   <depth>16</depth>
                   <samplerate>44100</samplerate>
                </samplecharacteristics>
             </audio>
          </media>
        </file>
        
      </clipitem>

      <clipitem id="clipitem-624">
        <name>Voice 113504</name>
        <duration>176</duration>
        <rate><timebase>30</timebase></rate>
        <start>57318</start>
        <end>57494</end>
        <in>0</in>
        <out>176</out>
        <file id="file-392">
          <name>voice_113504.wav</name>
          <pathurl>file://localhost/C:/PROJECT_ROOT/assets/voice_113504.wav</pathurl>
          <rate><timebase>30</timebase></rate>
          <media>
             
             <audio>
                <samplecharacteristics>
                   <depth>16</depth>
                   <samplerate>44100</samplerate>
                </samplecharacteristics>
             </audio>
          </media>
        </file>
        
      </clipitem>

      <clipitem id="clipitem-626">
        <name>Voice 113505</name>
        <duration>75</duration>
        <rate><timebase>30</timebase></rate>
        <start>57494</start>
        <end>57569</end>
        <in>0</in>
        <out>75</out>
        <file id="file-393">
          <name>voice_113505.wav</name>
          <pathurl>file://localhost/C:/PROJECT_ROOT/assets/voice_113505.wav</pathurl>
          <rate><timebase>30</timebase></rate>
          <media>
             
             <audio>
                <samplecharacteristics>
                   <depth>16</depth>
                   <samplerate>44100</samplerate>
                </samplecharacteristics>
             </audio>
          </media>
        </file>
        
      </clipitem>

      <clipitem id="clipitem-628">
        <name>Voice 113506</name>
        <duration>110</duration>
        <rate><timebase>30</timebase></rate>
        <start>57569</start>
        <end>57679</end>
        <in>0</in>
        <out>110</out>
        <file id="file-394">
          <name>voice_113506.wav</name>
          <pathurl>file://localhost/C:/PROJECT_ROOT/assets/voice_113506.wav</pathurl>
          <rate><timebase>30</timebase></rate>
          <media>
             
             <audio>
                <samplecharacteristics>
                   <depth>16</depth>
                   <samplerate>44100</samplerate>
                </samplecharacteristics>
             </audio>
          </media>
        </file>
        
      </clipitem>

      <clipitem id="clipitem-630">
        <name>Voice 113507</name>
        <duration>234</duration>
        <rate><timebase>30</timebase></rate>
        <start>57679</start>
        <end>57913</end>
        <in>0</in>
        <out>234</out>
        <file id="file-395">
          <name>voice_113507.wav</name>
          <pathurl>file://localhost/C:/PROJECT_ROOT/assets/voice_113507.wav</pathurl>
          <rate><timebase>30</timebase></rate>
          <media>
             
             <audio>
                <samplecharacteristics>
                   <depth>16</depth>
                   <samplerate>44100</samplerate>
                </samplecharacteristics>
             </audio>
          </media>
        </file>
        
      </clipitem>

      <clipitem id="clipitem-631">
        <name>Voice 113508</name>
        <duration>128</duration>
        <rate><timebase>30</timebase></rate>
        <start>57913</start>
        <end>58041</end>
        <in>0</in>
        <out>128</out>
        <file id="file-396">
          <name>voice_113508.wav</name>
          <pathurl>file://localhost/C:/PROJECT_ROOT/assets/voice_113508.wav</pathurl>
          <rate><timebase>30</timebase></rate>
          <media>
             
             <audio>
                <samplecharacteristics>
                   <depth>16</depth>
                   <samplerate>44100</samplerate>
                </samplecharacteristics>
             </audio>
          </media>
        </file>
        
      </clipitem>

      <clipitem id="clipitem-632">
        <name>Voice 113509</name>
        <duration>28</duration>
        <rate><timebase>30</timebase></rate>
        <start>58041</start>
        <end>58069</end>
        <in>0</in>
        <out>28</out>
        <file id="file-397">
          <name>voice_113509.wav</name>
          <pathurl>file://localhost/C:/PROJECT_ROOT/assets/voice_113509.wav</pathurl>
          <rate><timebase>30</timebase></rate>
          <media>
             
             <audio>
                <samplecharacteristics>
                   <depth>16</depth>
                   <samplerate>44100</samplerate>
                </samplecharacteristics>
             </audio>
          </media>
        </file>
        
      </clipitem>

      <clipitem id="clipitem-633">
        <name>Voice 113510</name>
        <duration>45</duration>
        <rate><timebase>30</timebase></rate>
        <start>58069</start>
        <end>58114</end>
        <in>0</in>
        <out>45</out>
        <file id="file-398">
          <name>voice_113510.wav</name>
          <pathurl>file://localhost/C:/PROJECT_ROOT/assets/voice_113510.wav</pathurl>
          <rate><timebase>30</timebase></rate>
          <media>
             
             <audio>
                <samplecharacteristics>
                   <depth>16</depth>
                   <samplerate>44100</samplerate>
                </samplecharacteristics>
             </audio>
          </media>
        </file>
        
      </clipitem>

      <clipitem id="clipitem-634">
        <name>Voice 113511</name>
        <duration>79</duration>
        <rate><timebase>30</timebase></rate>
        <start>58114</start>
        <end>58193</end>
        <in>0</in>
        <out>79</out>
        <file id="file-399">
          <name>voice_113511.wav</name>
          <pathurl>file://localhost/C:/PROJECT_ROOT/assets/voice_113511.wav</pathurl>
          <rate><timebase>30</timebase></rate>
          <media>
             
             <audio>
                <samplecharacteristics>
                   <depth>16</depth>
                   <samplerate>44100</samplerate>
                </samplecharacteristics>
             </audio>
          </media>
        </file>
        
      </clipitem>

      <clipitem id="clipitem-635">
        <name>Voice 113512</name>
        <duration>61</duration>
        <rate><timebase>30</timebase></rate>
        <start>58193</start>
        <end>58254</end>
        <in>0</in>
        <out>61</out>
        <file id="file-400">
          <name>voice_113512.wav</name>
          <pathurl>file://localhost/C:/PROJECT_ROOT/assets/voice_113512.wav</pathurl>
          <rate><timebase>30</timebase></rate>
          <media>
             
             <audio>
                <samplecharacteristics>
                   <depth>16</depth>
                   <samplerate>44100</samplerate>
                </samplecharacteristics>
             </audio>
          </media>
        </file>
        
      </clipitem>

      <clipitem id="clipitem-637">
        <name>Voice 113513</name>
        <duration>31</duration>
        <rate><timebase>30</timebase></rate>
        <start>58254</start>
        <end>58285</end>
        <in>0</in>
        <out>31</out>
        <file id="file-401">
          <name>voice_113513.wav</name>
          <pathurl>file://localhost/C:/PROJECT_ROOT/assets/voice_113513.wav</pathurl>
          <rate><timebase>30</timebase></rate>
          <media>
             
             <audio>
                <samplecharacteristics>
                   <depth>16</depth>
                   <samplerate>44100</samplerate>
                </samplecharacteristics>
             </audio>
          </media>
        </file>
        
      </clipitem>
</track>
    </audio>
  </media>
</sequence>
</xmeml>